<?xml version="1.0" encoding="UTF-8" standalone="no"?>
<!DOCTYPE svg PUBLIC "-//W3C//DTD SVG 1.1//EN"
 "http://www.w3.org/Graphics/SVG/1.1/DTD/svg11.dtd">
<!-- Generated by graphviz version 14.0.2 (0)
 -->
<!-- Title: captures Pages: 1 -->
<svg width="1296pt" height="188pt"
 viewBox="0.00 0.00 1296.00 188.00" xmlns="http://www.w3.org/2000/svg" xmlns:xlink="http://www.w3.org/1999/xlink">
<g id="graph0" class="graph" transform="scale(1 1) rotate(0) translate(4 184)">
<title>captures</title>
<polygon fill="white" stroke="none" points="-4,4 -4,-184 1292.13,-184 1292.13,4 -4,4"/>
<!-- A -->
<g id="node1" class="node">
<title>A</title>
<polygon fill="#87ceeb" stroke="black" points="444.5,-180 374.81,-180 374.81,-144 444.5,-144 444.5,-180"/>
<text xml:space="preserve" text-anchor="middle" x="409.65" y="-157.8" font-family="Arial" font-size="14.00" fill="#4682b4">captures</text>
</g>
<!-- B -->
<g id="node2" class="node">
<title>B</title>
<polygon fill="#87ceeb" stroke="black" points="206.66,-108 18.65,-108 18.65,-72 206.66,-72 206.66,-108"/>
<text xml:space="preserve" text-anchor="middle" x="112.65" y="-85.8" font-family="Arial" font-size="14.00" fill="#4682b4">Photoshoots &amp; Videoshoots</text>
</g>
<!-- A&#45;&gt;B -->
<g id="edge1" class="edge">
<title>A&#45;&gt;B</title>
<path fill="none" stroke="black" d="M374.42,-162C295.75,-162 112.65,-162 112.65,-162 112.65,-162 112.65,-119.68 112.65,-119.68"/>
<polygon fill="black" stroke="black" points="116.15,-119.68 112.65,-109.68 109.15,-119.68 116.15,-119.68"/>
</g>
<!-- D -->
<g id="node4" class="node">
<title>D</title>
<polygon fill="#87ceeb" stroke="black" points="404.92,-108 224.39,-108 224.39,-72 404.92,-72 404.92,-108"/>
<text xml:space="preserve" text-anchor="middle" x="314.65" y="-85.8" font-family="Arial" font-size="14.00" fill="#4682b4">Tagline: Lovin&#39; every pixel!</text>
</g>
<!-- A&#45;&gt;D -->
<g id="edge3" class="edge">
<title>A&#45;&gt;D</title>
<path fill="none" stroke="black" d="M389.86,-143.83C389.86,-143.83 389.86,-119.93 389.86,-119.93"/>
<polygon fill="black" stroke="black" points="393.36,-119.93 389.86,-109.93 386.36,-119.93 393.36,-119.93"/>
</g>
<!-- E -->
<g id="node5" class="node">
<title>E</title>
<polygon fill="#87ceeb" stroke="black" points="586.57,-108 422.74,-108 422.74,-72 586.57,-72 586.57,-108"/>
<text xml:space="preserve" text-anchor="middle" x="504.65" y="-85.8" font-family="Arial" font-size="14.00" fill="#4682b4">Tools: Physical Camera</text>
</g>
<!-- A&#45;&gt;E -->
<g id="edge4" class="edge">
<title>A&#45;&gt;E</title>
<path fill="none" stroke="black" d="M433.62,-143.83C433.62,-143.83 433.62,-119.93 433.62,-119.93"/>
<polygon fill="black" stroke="black" points="437.12,-119.93 433.62,-109.93 430.12,-119.93 437.12,-119.93"/>
</g>
<!-- F -->
<g id="node6" class="node">
<title>F</title>
<polygon fill="#87ceeb" stroke="black" points="840.39,-108 604.92,-108 604.92,-72 840.39,-72 840.39,-108"/>
<text xml:space="preserve" text-anchor="middle" x="722.65" y="-85.8" font-family="Arial" font-size="14.00" fill="#4682b4">Services: Photoshoot &amp; Videoshoot</text>
</g>
<!-- A&#45;&gt;F -->
<g id="edge5" class="edge">
<title>A&#45;&gt;F</title>
<path fill="none" stroke="black" d="M444.95,-162C526.81,-162 722.65,-162 722.65,-162 722.65,-162 722.65,-119.68 722.65,-119.68"/>
<polygon fill="black" stroke="black" points="726.15,-119.68 722.65,-109.68 719.15,-119.68 726.15,-119.68"/>
</g>
<!-- C -->
<g id="node3" class="node">
<title>C</title>
<polygon fill="#87ceeb" stroke="black" points="225.31,-36 0,-36 0,0 225.31,0 225.31,-36"/>
<text xml:space="preserve" text-anchor="middle" x="112.65" y="-13.8" font-family="Arial" font-size="14.00" fill="#4682b4">Events, Weddings, Travel, Nature</text>
</g>
<!-- B&#45;&gt;C -->
<g id="edge2" class="edge">
<title>B&#45;&gt;C</title>
<path fill="none" stroke="black" d="M112.65,-71.83C112.65,-71.83 112.65,-47.93 112.65,-47.93"/>
<polygon fill="black" stroke="black" points="116.15,-47.93 112.65,-37.93 109.15,-47.93 116.15,-47.93"/>
</g>
<!-- G -->
<g id="node7" class="node">
<title>G</title>
<polygon fill="#87ceeb" stroke="black" points="568.56,-36 288.75,-36 288.75,0 568.56,0 568.56,-36"/>
<text xml:space="preserve" text-anchor="middle" x="428.65" y="-13.8" font-family="Arial" font-size="14.00" fill="#4682b4">Wedding, Prewedding, Special Life Events</text>
</g>
<!-- F&#45;&gt;G -->
<g id="edge6" class="edge">
<title>F&#45;&gt;G</title>
<path fill="none" stroke="black" d="M658.86,-71.58C658.86,-62.72 658.86,-54 658.86,-54 658.86,-54 495.65,-54 495.65,-54 495.65,-54 495.65,-47.94 495.65,-47.94"/>
<polygon fill="black" stroke="black" points="499.15,-47.94 495.65,-37.94 492.15,-47.94 499.15,-47.94"/>
</g>
<!-- H -->
<g id="node8" class="node">
<title>H</title>
<polygon fill="#87ceeb" stroke="black" points="766.72,-36 586.59,-36 586.59,0 766.72,0 766.72,-36"/>
<text xml:space="preserve" text-anchor="middle" x="676.65" y="-13.8" font-family="Arial" font-size="14.00" fill="#4682b4">Short Films, Feature Films</text>
</g>
<!-- F&#45;&gt;H -->
<g id="edge7" class="edge">
<title>F&#45;&gt;H</title>
<path fill="none" stroke="black" d="M712.79,-71.83C712.79,-71.83 712.79,-47.93 712.79,-47.93"/>
<polygon fill="black" stroke="black" points="716.29,-47.93 712.79,-37.93 709.29,-47.93 716.29,-47.93"/>
</g>
<!-- I -->
<g id="node9" class="node">
<title>I</title>
<polygon fill="#87ceeb" stroke="black" points="931.02,-36 784.29,-36 784.29,0 931.02,0 931.02,-36"/>
<text xml:space="preserve" text-anchor="middle" x="857.65" y="-13.8" font-family="Arial" font-size="14.00" fill="#4682b4">Product, Architecture</text>
</g>
<!-- F&#45;&gt;I -->
<g id="edge8" class="edge">
<title>F&#45;&gt;I</title>
<path fill="none" stroke="black" d="M812.34,-71.83C812.34,-71.83 812.34,-47.93 812.34,-47.93"/>
<polygon fill="black" stroke="black" points="815.84,-47.93 812.34,-37.93 808.84,-47.93 815.84,-47.93"/>
</g>
<!-- J -->
<g id="node10" class="node">
<title>J</title>
<polygon fill="#87ceeb" stroke="black" points="1288.13,-36 949.18,-36 949.18,0 1288.13,0 1288.13,-36"/>
<text xml:space="preserve" text-anchor="middle" x="1118.65" y="-13.8" font-family="Arial" font-size="14.00" fill="#4682b4">Short Videos, Youtube Videos, Interviews, Podcasts</text>
</g>
<!-- F&#45;&gt;J -->
<g id="edge9" class="edge">
<title>F&#45;&gt;J</title>
<path fill="none" stroke="black" d="M840.66,-90C957.37,-90 1118.65,-90 1118.65,-90 1118.65,-90 1118.65,-47.68 1118.65,-47.68"/>
<polygon fill="black" stroke="black" points="1122.15,-47.68 1118.65,-37.68 1115.15,-47.68 1122.15,-47.68"/>
</g>
</g>
</svg>
