<?xml version="1.0" encoding="UTF-8" standalone="no"?>
<!DOCTYPE svg PUBLIC "-//W3C//DTD SVG 1.1//EN"
 "http://www.w3.org/Graphics/SVG/1.1/DTD/svg11.dtd">
<!-- Generated by graphviz version 14.0.2 (0)
 -->
<!-- Title: Change&#45;tyre Pages: 1 -->
<svg width="297pt" height="548pt"
 viewBox="0.00 0.00 297.00 548.00" xmlns="http://www.w3.org/2000/svg" xmlns:xlink="http://www.w3.org/1999/xlink">
<g id="graph0" class="graph" transform="scale(1 1) rotate(0) translate(4 544)">
<title>Change&#45;tyre</title>
<polygon fill="white" stroke="none" points="-4,4 -4,-544 293.31,-544 293.31,4 -4,4"/>
<!-- A -->
<g id="node1" class="node">
<title>A</title>
<ellipse fill="#90ee90" stroke="black" cx="144.66" cy="-522" rx="31.43" ry="18"/>
<text xml:space="preserve" text-anchor="middle" x="144.66" y="-517.8" font-family="Arial" font-size="14.00" fill="#228b22">Start</text>
</g>
<!-- B -->
<g id="node2" class="node">
<title>B</title>
<polygon fill="#ffd700" stroke="black" points="144.66,-468 0,-450 144.66,-432 289.31,-450 144.66,-468"/>
<text xml:space="preserve" text-anchor="middle" x="144.66" y="-445.8" font-family="Arial" font-size="14.00" fill="#daa520">Is there a spare tyre?</text>
</g>
<!-- A&#45;&gt;B -->
<g id="edge1" class="edge">
<title>A&#45;&gt;B</title>
<path fill="none" stroke="black" d="M144.66,-503.83C144.66,-503.83 144.66,-479.93 144.66,-479.93"/>
<polygon fill="black" stroke="black" points="148.16,-479.93 144.66,-469.93 141.16,-479.93 148.16,-479.93"/>
</g>
<!-- C -->
<g id="node3" class="node">
<title>C</title>
<polygon fill="#87ceeb" stroke="black" points="160.62,-396 42.69,-396 42.69,-360 160.62,-360 160.62,-396"/>
<text xml:space="preserve" text-anchor="middle" x="101.66" y="-373.8" font-family="Arial" font-size="14.00" fill="#4682b4">Remove flat tyre</text>
</g>
<!-- B&#45;&gt;C -->
<g id="edge2" class="edge">
<title>B&#45;&gt;C</title>
<path fill="none" stroke="black" d="M101.66,-437.13C101.66,-437.13 101.66,-407.96 101.66,-407.96"/>
<polygon fill="black" stroke="black" points="105.16,-407.96 101.66,-397.96 98.16,-407.96 105.16,-407.96"/>
</g>
<!-- D -->
<g id="node4" class="node">
<title>D</title>
<polygon fill="#87ceeb" stroke="black" points="253.01,-324 162.3,-324 162.3,-288 253.01,-288 253.01,-324"/>
<text xml:space="preserve" text-anchor="middle" x="207.66" y="-301.8" font-family="Arial" font-size="14.00" fill="#4682b4">Call for help</text>
</g>
<!-- B&#45;&gt;D -->
<g id="edge3" class="edge">
<title>B&#45;&gt;D</title>
<path fill="none" stroke="black" d="M207.66,-439.64C207.66,-439.64 207.66,-335.66 207.66,-335.66"/>
<polygon fill="black" stroke="black" points="211.16,-335.66 207.66,-325.66 204.16,-335.66 211.16,-335.66"/>
</g>
<!-- E -->
<g id="node5" class="node">
<title>E</title>
<polygon fill="#87ceeb" stroke="black" points="143.96,-324 21.35,-324 21.35,-288 143.96,-288 143.96,-324"/>
<text xml:space="preserve" text-anchor="middle" x="82.66" y="-301.8" font-family="Arial" font-size="14.00" fill="#4682b4">Put on spare tyre</text>
</g>
<!-- C&#45;&gt;E -->
<g id="edge4" class="edge">
<title>C&#45;&gt;E</title>
<path fill="none" stroke="black" d="M93.33,-359.83C93.33,-359.83 93.33,-335.93 93.33,-335.93"/>
<polygon fill="black" stroke="black" points="96.83,-335.93 93.33,-325.93 89.83,-335.93 96.83,-335.93"/>
</g>
<!-- I -->
<g id="node9" class="node">
<title>I</title>
<ellipse fill="#ffb6c1" stroke="black" cx="153.66" cy="-18" rx="36.8" ry="18"/>
<text xml:space="preserve" text-anchor="middle" x="153.66" y="-13.8" font-family="Arial" font-size="14.00" fill="#c71585">Finish</text>
</g>
<!-- D&#45;&gt;I -->
<g id="edge9" class="edge">
<title>D&#45;&gt;I</title>
<path fill="none" stroke="black" d="M182.87,-287.55C182.87,-287.55 182.87,-40.76 182.87,-40.76"/>
<polygon fill="black" stroke="black" points="186.37,-40.76 182.87,-30.76 179.37,-40.76 186.37,-40.76"/>
</g>
<!-- F -->
<g id="node6" class="node">
<title>F</title>
<polygon fill="#87ceeb" stroke="black" points="129.45,-252 41.86,-252 41.86,-216 129.45,-216 129.45,-252"/>
<text xml:space="preserve" text-anchor="middle" x="85.66" y="-229.8" font-family="Arial" font-size="14.00" fill="#4682b4">Secure tyre</text>
</g>
<!-- E&#45;&gt;F -->
<g id="edge5" class="edge">
<title>E&#45;&gt;F</title>
<path fill="none" stroke="black" d="M85.66,-287.83C85.66,-287.83 85.66,-263.93 85.66,-263.93"/>
<polygon fill="black" stroke="black" points="89.16,-263.93 85.66,-253.93 82.16,-263.93 89.16,-263.93"/>
</g>
<!-- G -->
<g id="node7" class="node">
<title>G</title>
<polygon fill="#87ceeb" stroke="black" points="130.39,-180 52.92,-180 52.92,-144 130.39,-144 130.39,-180"/>
<text xml:space="preserve" text-anchor="middle" x="91.66" y="-157.8" font-family="Arial" font-size="14.00" fill="#4682b4">Lower car</text>
</g>
<!-- F&#45;&gt;G -->
<g id="edge6" class="edge">
<title>F&#45;&gt;G</title>
<path fill="none" stroke="black" d="M91.19,-215.83C91.19,-215.83 91.19,-191.93 91.19,-191.93"/>
<polygon fill="black" stroke="black" points="94.69,-191.93 91.19,-181.93 87.69,-191.93 94.69,-191.93"/>
</g>
<!-- H -->
<g id="node8" class="node">
<title>H</title>
<polygon fill="#87ceeb" stroke="black" points="175.29,-108 34.02,-108 34.02,-72 175.29,-72 175.29,-108"/>
<text xml:space="preserve" text-anchor="middle" x="104.66" y="-85.8" font-family="Arial" font-size="14.00" fill="#4682b4">Check tyre pressure</text>
</g>
<!-- G&#45;&gt;H -->
<g id="edge7" class="edge">
<title>G&#45;&gt;H</title>
<path fill="none" stroke="black" d="M91.66,-143.83C91.66,-143.83 91.66,-119.93 91.66,-119.93"/>
<polygon fill="black" stroke="black" points="95.16,-119.93 91.66,-109.93 88.16,-119.93 95.16,-119.93"/>
</g>
<!-- H&#45;&gt;I -->
<g id="edge8" class="edge">
<title>H&#45;&gt;I</title>
<path fill="none" stroke="black" d="M146.07,-71.83C146.07,-71.83 146.07,-47.43 146.07,-47.43"/>
<polygon fill="black" stroke="black" points="149.57,-47.43 146.07,-37.43 142.57,-47.43 149.57,-47.43"/>
</g>
</g>
</svg>
