<?xml version="1.0" encoding="UTF-8" standalone="no"?>
<!DOCTYPE svg PUBLIC "-//W3C//DTD SVG 1.1//EN"
 "http://www.w3.org/Graphics/SVG/1.1/DTD/svg11.dtd">
<!-- Generated by graphviz version 14.0.2 (0)
 -->
<!-- Title: complex&#45;3 Pages: 1 -->
<svg width="559pt" height="332pt"
 viewBox="0.00 0.00 559.00 332.00" xmlns="http://www.w3.org/2000/svg" xmlns:xlink="http://www.w3.org/1999/xlink">
<g id="graph0" class="graph" transform="scale(1 1) rotate(0) translate(4 328)">
<title>complex&#45;3</title>
<polygon fill="white" stroke="none" points="-4,4 -4,-328 554.94,-328 554.94,4 -4,4"/>
<!-- A -->
<g id="node1" class="node">
<title>A</title>
<ellipse fill="#ffb6c1" stroke="black" cx="338.13" cy="-306" rx="95.85" ry="18"/>
<text xml:space="preserve" text-anchor="middle" x="338.13" y="-301.8" font-family="Arial" font-size="14.00" fill="#c71585">Vendor Certification</text>
</g>
<!-- B -->
<g id="node2" class="node">
<title>B</title>
<polygon fill="#ffd700" stroke="black" points="211.13,-252 61.15,-234 211.13,-216 361.11,-234 211.13,-252"/>
<text xml:space="preserve" text-anchor="middle" x="211.13" y="-229.8" font-family="Arial" font-size="14.00" fill="#daa520">Breach of Conditions?</text>
</g>
<!-- A&#45;&gt;B -->
<g id="edge1" class="edge">
<title>A&#45;&gt;B</title>
<path fill="none" stroke="black" d="M301.7,-288.94C301.7,-288.94 301.7,-252.84 301.7,-252.84"/>
<polygon fill="black" stroke="black" points="305.2,-252.84 301.7,-242.84 298.2,-252.84 305.2,-252.84"/>
</g>
<!-- I -->
<g id="node9" class="node">
<title>I</title>
<polygon fill="#87ceeb" stroke="black" points="550.94,-252 379.32,-252 379.32,-216 550.94,-216 550.94,-252"/>
<text xml:space="preserve" text-anchor="middle" x="465.13" y="-229.8" font-family="Arial" font-size="14.00" fill="#4682b4">Penalty for No Certificate</text>
</g>
<!-- A&#45;&gt;I -->
<g id="edge8" class="edge">
<title>A&#45;&gt;I</title>
<path fill="none" stroke="black" d="M406.65,-293.13C406.65,-293.13 406.65,-263.96 406.65,-263.96"/>
<polygon fill="black" stroke="black" points="410.15,-263.96 406.65,-253.96 403.15,-263.96 410.15,-263.96"/>
</g>
<!-- C -->
<g id="node3" class="node">
<title>C</title>
<polygon fill="#87ceeb" stroke="black" points="190.11,-180 30.15,-180 30.15,-144 190.11,-144 190.11,-180"/>
<text xml:space="preserve" text-anchor="middle" x="110.13" y="-157.8" font-family="Arial" font-size="14.00" fill="#4682b4">Certificate Cancellation</text>
</g>
<!-- B&#45;&gt;C -->
<g id="edge2" class="edge">
<title>B&#45;&gt;C</title>
<path fill="none" stroke="black" d="M125.63,-226.02C125.63,-226.02 125.63,-192 125.63,-192"/>
<polygon fill="black" stroke="black" points="129.13,-192 125.63,-182 122.13,-192 129.13,-192"/>
</g>
<!-- D -->
<g id="node4" class="node">
<title>D</title>
<ellipse fill="#ffb6c1" stroke="black" cx="296.13" cy="-162" rx="87.82" ry="18"/>
<text xml:space="preserve" text-anchor="middle" x="296.13" y="-157.8" font-family="Arial" font-size="14.00" fill="#c71585">Continue Vending</text>
</g>
<!-- B&#45;&gt;D -->
<g id="edge3" class="edge">
<title>B&#45;&gt;D</title>
<path fill="none" stroke="black" d="M284.71,-224.59C284.71,-224.59 284.71,-191.8 284.71,-191.8"/>
<polygon fill="black" stroke="black" points="288.21,-191.8 284.71,-181.8 281.21,-191.8 288.21,-191.8"/>
</g>
<!-- E -->
<g id="node5" class="node">
<title>E</title>
<polygon fill="#87ceeb" stroke="black" points="194.79,-108 25.48,-108 25.48,-72 194.79,-72 194.79,-108"/>
<text xml:space="preserve" text-anchor="middle" x="110.13" y="-85.8" font-family="Arial" font-size="14.00" fill="#4682b4">Dispute Resolution Body</text>
</g>
<!-- C&#45;&gt;E -->
<g id="edge4" class="edge">
<title>C&#45;&gt;E</title>
<path fill="none" stroke="black" d="M110.13,-143.83C110.13,-143.83 110.13,-119.93 110.13,-119.93"/>
<polygon fill="black" stroke="black" points="113.63,-119.93 110.13,-109.93 106.63,-119.93 113.63,-119.93"/>
</g>
<!-- H -->
<g id="node8" class="node">
<title>H</title>
<ellipse fill="#ffb6c1" stroke="black" cx="400.13" cy="-90" rx="122.71" ry="18"/>
<text xml:space="preserve" text-anchor="middle" x="400.13" y="-85.8" font-family="Arial" font-size="14.00" fill="#c71585">Designated Vending Zone</text>
</g>
<!-- D&#45;&gt;H -->
<g id="edge7" class="edge">
<title>D&#45;&gt;H</title>
<path fill="none" stroke="black" d="M330.68,-145.3C330.68,-145.3 330.68,-116.65 330.68,-116.65"/>
<polygon fill="black" stroke="black" points="334.18,-116.65 330.68,-106.65 327.18,-116.65 334.18,-116.65"/>
</g>
<!-- F -->
<g id="node6" class="node">
<title>F</title>
<polygon fill="#87ceeb" stroke="black" points="92.26,-36 0,-36 0,0 92.26,0 92.26,-36"/>
<text xml:space="preserve" text-anchor="middle" x="46.13" y="-13.8" font-family="Arial" font-size="14.00" fill="#4682b4">Chairperson</text>
</g>
<!-- E&#45;&gt;F -->
<g id="edge5" class="edge">
<title>E&#45;&gt;F</title>
<path fill="none" stroke="black" d="M58.87,-71.83C58.87,-71.83 58.87,-47.93 58.87,-47.93"/>
<polygon fill="black" stroke="black" points="62.37,-47.93 58.87,-37.93 55.37,-47.93 62.37,-47.93"/>
</g>
<!-- G -->
<g id="node7" class="node">
<title>G</title>
<polygon fill="#87ceeb" stroke="black" points="240.32,-36 109.94,-36 109.94,0 240.32,0 240.32,-36"/>
<text xml:space="preserve" text-anchor="middle" x="175.13" y="-13.8" font-family="Arial" font-size="14.00" fill="#4682b4">Two Professionals</text>
</g>
<!-- E&#45;&gt;G -->
<g id="edge6" class="edge">
<title>E&#45;&gt;G</title>
<path fill="none" stroke="black" d="M152.36,-71.83C152.36,-71.83 152.36,-47.93 152.36,-47.93"/>
<polygon fill="black" stroke="black" points="155.86,-47.93 152.36,-37.93 148.86,-47.93 155.86,-47.93"/>
</g>
<!-- J -->
<g id="node10" class="node">
<title>J</title>
<polygon fill="#87ceeb" stroke="black" points="528.76,-180 401.5,-180 401.5,-144 528.76,-144 528.76,-180"/>
<text xml:space="preserve" text-anchor="middle" x="465.13" y="-157.8" font-family="Arial" font-size="14.00" fill="#4682b4">Physical Removal</text>
</g>
<!-- I&#45;&gt;J -->
<g id="edge9" class="edge">
<title>I&#45;&gt;J</title>
<path fill="none" stroke="black" d="M465.13,-215.83C465.13,-215.83 465.13,-191.93 465.13,-191.93"/>
<polygon fill="black" stroke="black" points="468.63,-191.93 465.13,-181.93 461.63,-191.93 468.63,-191.93"/>
</g>
<!-- J&#45;&gt;H -->
<g id="edge10" class="edge">
<title>J&#45;&gt;H</title>
<path fill="none" stroke="black" d="M462.17,-143.83C462.17,-143.83 462.17,-117.47 462.17,-117.47"/>
<polygon fill="black" stroke="black" points="465.67,-117.47 462.17,-107.47 458.67,-117.47 465.67,-117.47"/>
</g>
</g>
</svg>
