<?xml version="1.0" encoding="UTF-8" standalone="no"?>
<!DOCTYPE svg PUBLIC "-//W3C//DTD SVG 1.1//EN"
 "http://www.w3.org/Graphics/SVG/1.1/DTD/svg11.dtd">
<!-- Generated by graphviz version 14.0.2 (0)
 -->
<!-- Title: complex&#45;6 Pages: 1 -->
<svg width="440pt" height="620pt"
 viewBox="0.00 0.00 440.00 620.00" xmlns="http://www.w3.org/2000/svg" xmlns:xlink="http://www.w3.org/1999/xlink">
<g id="graph0" class="graph" transform="scale(1 1) rotate(0) translate(4 616)">
<title>complex&#45;6</title>
<polygon fill="white" stroke="none" points="-4,4 -4,-616 436,-616 436,4 -4,4"/>
<!-- A -->
<g id="node1" class="node">
<title>A</title>
<polygon fill="#87ceeb" stroke="black" points="271.52,-612 150.46,-612 150.46,-576 271.52,-576 271.52,-612"/>
<text xml:space="preserve" text-anchor="middle" x="210.99" y="-589.8" font-family="Arial" font-size="14.00" fill="#4682b4">Initial Agreement</text>
</g>
<!-- B -->
<g id="node2" class="node">
<title>B</title>
<polygon fill="#87ceeb" stroke="black" points="259.07,-540 162.91,-540 162.91,-504 259.07,-504 259.07,-540"/>
<text xml:space="preserve" text-anchor="middle" x="210.99" y="-517.8" font-family="Arial" font-size="14.00" fill="#4682b4">Propose Edit</text>
</g>
<!-- A&#45;&gt;B -->
<g id="edge1" class="edge">
<title>A&#45;&gt;B</title>
<path fill="none" stroke="black" d="M210.99,-575.83C210.99,-575.83 210.99,-551.93 210.99,-551.93"/>
<polygon fill="black" stroke="black" points="214.49,-551.93 210.99,-541.93 207.49,-551.93 214.49,-551.93"/>
</g>
<!-- C -->
<g id="node3" class="node">
<title>C</title>
<polygon fill="#ffd700" stroke="black" points="142.99,-468 34.77,-450 142.99,-432 251.21,-450 142.99,-468"/>
<text xml:space="preserve" text-anchor="middle" x="142.99" y="-445.8" font-family="Arial" font-size="14.00" fill="#daa520">Disagreement?</text>
</g>
<!-- B&#45;&gt;C -->
<g id="edge2" class="edge">
<title>B&#45;&gt;C</title>
<path fill="none" stroke="black" d="M207.06,-503.83C207.06,-503.83 207.06,-469.33 207.06,-469.33"/>
<polygon fill="black" stroke="black" points="210.56,-469.33 207.06,-459.33 203.56,-469.33 210.56,-469.33"/>
</g>
<!-- D -->
<g id="node4" class="node">
<title>D</title>
<polygon fill="#87ceeb" stroke="black" points="171.57,-396 40.41,-396 40.41,-360 171.57,-360 171.57,-396"/>
<text xml:space="preserve" text-anchor="middle" x="105.99" y="-373.8" font-family="Arial" font-size="14.00" fill="#4682b4">Seek Compromise</text>
</g>
<!-- C&#45;&gt;D -->
<g id="edge3" class="edge">
<title>C&#45;&gt;D</title>
<path fill="none" stroke="black" d="M105.99,-437.79C105.99,-437.79 105.99,-407.74 105.99,-407.74"/>
<polygon fill="black" stroke="black" points="109.49,-407.74 105.99,-397.74 102.49,-407.74 109.49,-407.74"/>
</g>
<!-- E -->
<g id="node5" class="node">
<title>E</title>
<polygon fill="#87ceeb" stroke="black" points="244.17,-324 155.81,-324 155.81,-288 244.17,-288 244.17,-324"/>
<text xml:space="preserve" text-anchor="middle" x="199.99" y="-301.8" font-family="Arial" font-size="14.00" fill="#4682b4">Wait Period</text>
</g>
<!-- C&#45;&gt;E -->
<g id="edge4" class="edge">
<title>C&#45;&gt;E</title>
<path fill="none" stroke="black" d="M207.87,-442.66C207.87,-442.66 207.87,-335.99 207.87,-335.99"/>
<polygon fill="black" stroke="black" points="211.37,-335.99 207.87,-325.99 204.37,-335.99 211.37,-335.99"/>
</g>
<!-- D&#45;&gt;E -->
<g id="edge5" class="edge">
<title>D&#45;&gt;E</title>
<path fill="none" stroke="black" d="M163.69,-359.83C163.69,-359.83 163.69,-335.93 163.69,-335.93"/>
<polygon fill="black" stroke="black" points="167.19,-335.93 163.69,-325.93 160.19,-335.93 167.19,-335.93"/>
</g>
<!-- F -->
<g id="node6" class="node">
<title>F</title>
<polygon fill="#ffd700" stroke="black" points="278.99,-252 125.98,-234 278.99,-216 432,-234 278.99,-252"/>
<text xml:space="preserve" text-anchor="middle" x="278.99" y="-229.8" font-family="Arial" font-size="14.00" fill="#daa520">Further Edits Needed?</text>
</g>
<!-- E&#45;&gt;F -->
<g id="edge6" class="edge">
<title>E&#45;&gt;F</title>
<path fill="none" stroke="black" d="M199.99,-287.83C199.99,-287.83 199.99,-254.47 199.99,-254.47"/>
<polygon fill="black" stroke="black" points="203.49,-254.47 199.99,-244.47 196.49,-254.47 203.49,-254.47"/>
</g>
<!-- F&#45;&gt;B -->
<g id="edge7" class="edge">
<title>F&#45;&gt;B</title>
<path fill="none" stroke="black" d="M255.14,-249.48C255.14,-249.48 255.14,-492.01 255.14,-492.01"/>
<polygon fill="black" stroke="black" points="251.64,-492.01 255.14,-502.01 258.64,-492.01 251.64,-492.01"/>
</g>
<!-- G -->
<g id="node7" class="node">
<title>G</title>
<polygon fill="#87ceeb" stroke="black" points="315.7,-180 164.28,-180 164.28,-144 315.7,-144 315.7,-180"/>
<text xml:space="preserve" text-anchor="middle" x="239.99" y="-157.8" font-family="Arial" font-size="14.00" fill="#4682b4">Vote on Current State</text>
</g>
<!-- F&#45;&gt;G -->
<g id="edge8" class="edge">
<title>F&#45;&gt;G</title>
<path fill="none" stroke="black" d="M239.99,-220.12C239.99,-220.12 239.99,-191.99 239.99,-191.99"/>
<polygon fill="black" stroke="black" points="243.49,-191.99 239.99,-181.99 236.49,-191.99 243.49,-191.99"/>
</g>
<!-- H -->
<g id="node8" class="node">
<title>H</title>
<polygon fill="#ffd700" stroke="black" points="149.99,-108 0,-90 149.99,-72 299.98,-90 149.99,-108"/>
<text xml:space="preserve" text-anchor="middle" x="149.99" y="-85.8" font-family="Arial" font-size="14.00" fill="#daa520">Consensus Reached?</text>
</g>
<!-- G&#45;&gt;H -->
<g id="edge9" class="edge">
<title>G&#45;&gt;H</title>
<path fill="none" stroke="black" d="M232.13,-143.83C232.13,-143.83 232.13,-110.08 232.13,-110.08"/>
<polygon fill="black" stroke="black" points="235.63,-110.08 232.13,-100.08 228.63,-110.08 235.63,-110.08"/>
</g>
<!-- H&#45;&gt;D -->
<g id="edge11" class="edge">
<title>H&#45;&gt;D</title>
<path fill="none" stroke="black" d="M83.2,-100.25C83.2,-100.25 83.2,-348.07 83.2,-348.07"/>
<polygon fill="black" stroke="black" points="79.7,-348.07 83.2,-358.07 86.7,-348.07 79.7,-348.07"/>
</g>
<!-- I -->
<g id="node9" class="node">
<title>I</title>
<polygon fill="#87ceeb" stroke="black" points="208.96,-36 91.02,-36 91.02,0 208.96,0 208.96,-36"/>
<text xml:space="preserve" text-anchor="middle" x="149.99" y="-13.8" font-family="Arial" font-size="14.00" fill="#4682b4">New Consensus</text>
</g>
<!-- H&#45;&gt;I -->
<g id="edge10" class="edge">
<title>H&#45;&gt;I</title>
<path fill="none" stroke="black" d="M149.99,-71.83C149.99,-71.83 149.99,-47.93 149.99,-47.93"/>
<polygon fill="black" stroke="black" points="153.49,-47.93 149.99,-37.93 146.49,-47.93 153.49,-47.93"/>
</g>
</g>
</svg>
