<?xml version="1.0" encoding="UTF-8" standalone="no"?>
<!DOCTYPE svg PUBLIC "-//W3C//DTD SVG 1.1//EN"
 "http://www.w3.org/Graphics/SVG/1.1/DTD/svg11.dtd">
<!-- Generated by graphviz version 14.0.2 (0)
 -->
<!-- Title: complex&#45;5 Pages: 1 -->
<svg width="519pt" height="476pt"
 viewBox="0.00 0.00 519.00 476.00" xmlns="http://www.w3.org/2000/svg" xmlns:xlink="http://www.w3.org/1999/xlink">
<g id="graph0" class="graph" transform="scale(1 1) rotate(0) translate(4 472)">
<title>complex&#45;5</title>
<polygon fill="white" stroke="none" points="-4,4 -4,-472 514.99,-472 514.99,4 -4,4"/>
<!-- A -->
<g id="node1" class="node">
<title>A</title>
<ellipse fill="#90ee90" stroke="black" cx="365.08" cy="-450" rx="60.41" ry="18"/>
<text xml:space="preserve" text-anchor="middle" x="365.08" y="-445.8" font-family="Arial" font-size="14.00" fill="#228b22">Start Game</text>
</g>
<!-- B -->
<g id="node2" class="node">
<title>B</title>
<polygon fill="#87ceeb" stroke="black" points="418.21,-396 311.95,-396 311.95,-360 418.21,-360 418.21,-396"/>
<text xml:space="preserve" text-anchor="middle" x="365.08" y="-373.8" font-family="Arial" font-size="14.00" fill="#4682b4">Make a Guess</text>
</g>
<!-- A&#45;&gt;B -->
<g id="edge1" class="edge">
<title>A&#45;&gt;B</title>
<path fill="none" stroke="black" d="M365.08,-431.83C365.08,-431.83 365.08,-407.93 365.08,-407.93"/>
<polygon fill="black" stroke="black" points="368.58,-407.93 365.08,-397.93 361.58,-407.93 368.58,-407.93"/>
</g>
<!-- C -->
<g id="node3" class="node">
<title>C</title>
<polygon fill="#ffd700" stroke="black" points="240.08,-324 91.64,-306 240.08,-288 388.51,-306 240.08,-324"/>
<text xml:space="preserve" text-anchor="middle" x="240.08" y="-301.8" font-family="Arial" font-size="14.00" fill="#daa520">Is the Guess Correct?</text>
</g>
<!-- B&#45;&gt;C -->
<g id="edge2" class="edge">
<title>B&#45;&gt;C</title>
<path fill="none" stroke="black" d="M350.23,-359.83C350.23,-359.83 350.23,-322.61 350.23,-322.61"/>
<polygon fill="black" stroke="black" points="353.73,-322.61 350.23,-312.61 346.73,-322.61 353.73,-322.61"/>
</g>
<!-- D -->
<g id="node4" class="node">
<title>D</title>
<polygon fill="#87ceeb" stroke="black" points="250.61,-180 115.54,-180 115.54,-144 250.61,-144 250.61,-180"/>
<text xml:space="preserve" text-anchor="middle" x="183.08" y="-157.8" font-family="Arial" font-size="14.00" fill="#4682b4">Continue Guessing</text>
</g>
<!-- C&#45;&gt;D -->
<g id="edge3" class="edge">
<title>C&#45;&gt;D</title>
<path fill="none" stroke="black" d="M87.69,-306C40.2,-306 0,-306 0,-306 0,-306 0,-162 0,-162 0,-162 103.65,-162 103.65,-162"/>
<polygon fill="black" stroke="black" points="103.65,-165.5 113.65,-162 103.65,-158.5 103.65,-165.5"/>
</g>
<!-- E -->
<g id="node5" class="node">
<title>E</title>
<polygon fill="#ffd700" stroke="black" points="240.08,-252 18,-234 240.08,-216 462.15,-234 240.08,-252"/>
<text xml:space="preserve" text-anchor="middle" x="240.08" y="-229.8" font-family="Arial" font-size="14.00" fill="#daa520">Max Incorrect Guesses Reached?</text>
</g>
<!-- C&#45;&gt;E -->
<g id="edge4" class="edge">
<title>C&#45;&gt;E</title>
<path fill="none" stroke="black" d="M240.08,-287.83C240.08,-287.83 240.08,-263.93 240.08,-263.93"/>
<polygon fill="black" stroke="black" points="243.58,-263.93 240.08,-253.93 236.58,-263.93 243.58,-263.93"/>
</g>
<!-- G -->
<g id="node7" class="node">
<title>G</title>
<polygon fill="#ffd700" stroke="black" points="364.08,-108 217.16,-90 364.08,-72 510.99,-90 364.08,-108"/>
<text xml:space="preserve" text-anchor="middle" x="364.08" y="-85.8" font-family="Arial" font-size="14.00" fill="#daa520">Word Fully Guessed?</text>
</g>
<!-- D&#45;&gt;G -->
<g id="edge7" class="edge">
<title>D&#45;&gt;G</title>
<path fill="none" stroke="black" d="M233.89,-143.83C233.89,-143.83 233.89,-103.73 233.89,-103.73"/>
<polygon fill="black" stroke="black" points="237.39,-103.73 233.89,-93.73 230.39,-103.73 237.39,-103.73"/>
</g>
<!-- E&#45;&gt;D -->
<g id="edge5" class="edge">
<title>E&#45;&gt;D</title>
<path fill="none" stroke="black" d="M183.08,-220.46C183.08,-220.46 183.08,-191.89 183.08,-191.89"/>
<polygon fill="black" stroke="black" points="186.58,-191.89 183.08,-181.89 179.58,-191.89 186.58,-191.89"/>
</g>
<!-- F -->
<g id="node6" class="node">
<title>F</title>
<polygon fill="#87ceeb" stroke="black" points="323.08,-180 269.08,-180 269.08,-144 323.08,-144 323.08,-180"/>
<text xml:space="preserve" text-anchor="middle" x="296.08" y="-157.8" font-family="Arial" font-size="14.00" fill="#4682b4">Lose</text>
</g>
<!-- E&#45;&gt;F -->
<g id="edge6" class="edge">
<title>E&#45;&gt;F</title>
<path fill="none" stroke="black" d="M296.08,-220.12C296.08,-220.12 296.08,-191.99 296.08,-191.99"/>
<polygon fill="black" stroke="black" points="299.58,-191.99 296.08,-181.99 292.58,-191.99 299.58,-191.99"/>
</g>
<!-- G&#45;&gt;B -->
<g id="edge9" class="edge">
<title>G&#45;&gt;B</title>
<path fill="none" stroke="black" d="M486.57,-93.23C486.57,-124.88 486.57,-378 486.57,-378 486.57,-378 429.88,-378 429.88,-378"/>
<polygon fill="black" stroke="black" points="429.88,-374.5 419.88,-378 429.88,-381.5 429.88,-374.5"/>
</g>
<!-- H -->
<g id="node8" class="node">
<title>H</title>
<polygon fill="#87ceeb" stroke="black" points="391.08,-36 337.08,-36 337.08,0 391.08,0 391.08,-36"/>
<text xml:space="preserve" text-anchor="middle" x="364.08" y="-13.8" font-family="Arial" font-size="14.00" fill="#4682b4">Win</text>
</g>
<!-- G&#45;&gt;H -->
<g id="edge8" class="edge">
<title>G&#45;&gt;H</title>
<path fill="none" stroke="black" d="M364.08,-71.83C364.08,-71.83 364.08,-47.93 364.08,-47.93"/>
<polygon fill="black" stroke="black" points="367.58,-47.93 364.08,-37.93 360.58,-47.93 367.58,-47.93"/>
</g>
</g>
</svg>
