<?xml version="1.0" encoding="UTF-8" standalone="no"?>
<!DOCTYPE svg PUBLIC "-//W3C//DTD SVG 1.1//EN"
 "http://www.w3.org/Graphics/SVG/1.1/DTD/svg11.dtd">
<!-- Generated by graphviz version 14.0.2 (0)
 -->
<!-- Title: complex&#45;4 Pages: 1 -->
<svg width="369pt" height="620pt"
 viewBox="0.00 0.00 369.00 620.00" xmlns="http://www.w3.org/2000/svg" xmlns:xlink="http://www.w3.org/1999/xlink">
<g id="graph0" class="graph" transform="scale(1 1) rotate(0) translate(4 616)">
<title>complex&#45;4</title>
<polygon fill="white" stroke="none" points="-4,4 -4,-616 365.4,-616 365.4,4 -4,4"/>
<!-- A -->
<g id="node1" class="node">
<title>A</title>
<polygon fill="#87ceeb" stroke="black" points="269.95,-612 109.2,-612 109.2,-576 269.95,-576 269.95,-612"/>
<text xml:space="preserve" text-anchor="middle" x="189.58" y="-589.8" font-family="Arial" font-size="14.00" fill="#4682b4">Established Agreement</text>
</g>
<!-- B -->
<g id="node2" class="node">
<title>B</title>
<polygon fill="#87ceeb" stroke="black" points="237.65,-540 141.5,-540 141.5,-504 237.65,-504 237.65,-540"/>
<text xml:space="preserve" text-anchor="middle" x="189.58" y="-517.8" font-family="Arial" font-size="14.00" fill="#4682b4">Propose Edit</text>
</g>
<!-- A&#45;&gt;B -->
<g id="edge1" class="edge">
<title>A&#45;&gt;B</title>
<path fill="none" stroke="black" d="M189.58,-575.83C189.58,-575.83 189.58,-551.93 189.58,-551.93"/>
<polygon fill="black" stroke="black" points="193.08,-551.93 189.58,-541.93 186.08,-551.93 193.08,-551.93"/>
</g>
<!-- C -->
<g id="node3" class="node">
<title>C</title>
<polygon fill="#87ceeb" stroke="black" points="203.26,-468 93.89,-468 93.89,-432 203.26,-432 203.26,-468"/>
<text xml:space="preserve" text-anchor="middle" x="148.58" y="-445.8" font-family="Arial" font-size="14.00" fill="#4682b4">Implement Edit</text>
</g>
<!-- B&#45;&gt;C -->
<g id="edge2" class="edge">
<title>B&#45;&gt;C</title>
<path fill="none" stroke="black" d="M172.38,-503.83C172.38,-503.83 172.38,-479.93 172.38,-479.93"/>
<polygon fill="black" stroke="black" points="175.88,-479.93 172.38,-469.93 168.88,-479.93 175.88,-479.93"/>
</g>
<!-- D -->
<g id="node4" class="node">
<title>D</title>
<polygon fill="#ffd700" stroke="black" points="121.58,-396 13.36,-378 121.58,-360 229.8,-378 121.58,-396"/>
<text xml:space="preserve" text-anchor="middle" x="121.58" y="-373.8" font-family="Arial" font-size="14.00" fill="#daa520">Disagreement?</text>
</g>
<!-- C&#45;&gt;D -->
<g id="edge3" class="edge">
<title>C&#45;&gt;D</title>
<path fill="none" stroke="black" d="M148.58,-431.83C148.58,-431.83 148.58,-403.13 148.58,-403.13"/>
<polygon fill="black" stroke="black" points="152.08,-403.13 148.58,-393.13 145.08,-403.13 152.08,-403.13"/>
</g>
<!-- E -->
<g id="node5" class="node">
<title>E</title>
<polygon fill="#87ceeb" stroke="black" points="131.15,-36 0,-36 0,0 131.15,0 131.15,-36"/>
<text xml:space="preserve" text-anchor="middle" x="65.58" y="-13.8" font-family="Arial" font-size="14.00" fill="#4682b4">Seek Compromise</text>
</g>
<!-- D&#45;&gt;E -->
<g id="edge4" class="edge">
<title>D&#45;&gt;E</title>
<path fill="none" stroke="black" d="M49.56,-371.75C49.56,-371.75 49.56,-47.89 49.56,-47.89"/>
<polygon fill="black" stroke="black" points="53.06,-47.89 49.56,-37.89 46.06,-47.89 53.06,-47.89"/>
</g>
<!-- F -->
<g id="node6" class="node">
<title>F</title>
<polygon fill="#87ceeb" stroke="black" points="229.37,-324 85.78,-324 85.78,-288 229.37,-288 229.37,-324"/>
<text xml:space="preserve" text-anchor="middle" x="157.58" y="-301.8" font-family="Arial" font-size="14.00" fill="#4682b4">Ask for Further Edits</text>
</g>
<!-- D&#45;&gt;F -->
<g id="edge5" class="edge">
<title>D&#45;&gt;F</title>
<path fill="none" stroke="black" d="M157.58,-365.79C157.58,-365.79 157.58,-335.74 157.58,-335.74"/>
<polygon fill="black" stroke="black" points="161.08,-335.74 157.58,-325.74 154.08,-335.74 161.08,-335.74"/>
</g>
<!-- G -->
<g id="node7" class="node">
<title>G</title>
<polygon fill="#ffd700" stroke="black" points="223.58,-252 85.76,-234 223.58,-216 361.4,-234 223.58,-252"/>
<text xml:space="preserve" text-anchor="middle" x="223.58" y="-229.8" font-family="Arial" font-size="14.00" fill="#daa520">Need Further Edits?</text>
</g>
<!-- F&#45;&gt;G -->
<g id="edge6" class="edge">
<title>F&#45;&gt;G</title>
<path fill="none" stroke="black" d="M157.58,-287.83C157.58,-287.83 157.58,-255.26 157.58,-255.26"/>
<polygon fill="black" stroke="black" points="161.08,-255.26 157.58,-245.26 154.08,-255.26 161.08,-255.26"/>
</g>
<!-- G&#45;&gt;B -->
<g id="edge7" class="edge">
<title>G&#45;&gt;B</title>
<path fill="none" stroke="black" d="M233.72,-251.15C233.72,-251.15 233.72,-492.32 233.72,-492.32"/>
<polygon fill="black" stroke="black" points="230.23,-492.32 233.72,-502.32 237.23,-492.32 230.23,-492.32"/>
</g>
<!-- H -->
<g id="node8" class="node">
<title>H</title>
<polygon fill="#87ceeb" stroke="black" points="287.89,-180 151.26,-180 151.26,-144 287.89,-144 287.89,-180"/>
<text xml:space="preserve" text-anchor="middle" x="219.58" y="-157.8" font-family="Arial" font-size="14.00" fill="#4682b4">Vote on Agreement</text>
</g>
<!-- G&#45;&gt;H -->
<g id="edge8" class="edge">
<title>G&#45;&gt;H</title>
<path fill="none" stroke="black" d="M219.58,-216.2C219.58,-216.2 219.58,-191.86 219.58,-191.86"/>
<polygon fill="black" stroke="black" points="223.08,-191.86 219.58,-181.86 216.08,-191.86 223.08,-191.86"/>
</g>
<!-- I -->
<g id="node9" class="node">
<title>I</title>
<polygon fill="#ffd700" stroke="black" points="215.58,-108 92.17,-90 215.58,-72 338.99,-90 215.58,-108"/>
<text xml:space="preserve" text-anchor="middle" x="215.58" y="-85.8" font-family="Arial" font-size="14.00" fill="#daa520">Agree with State?</text>
</g>
<!-- H&#45;&gt;I -->
<g id="edge9" class="edge">
<title>H&#45;&gt;I</title>
<path fill="none" stroke="black" d="M219.58,-143.83C219.58,-143.83 219.58,-119.43 219.58,-119.43"/>
<polygon fill="black" stroke="black" points="223.08,-119.43 219.58,-109.43 216.08,-119.43 223.08,-119.43"/>
</g>
<!-- I&#45;&gt;E -->
<g id="edge11" class="edge">
<title>I&#45;&gt;E</title>
<path fill="none" stroke="black" d="M111.66,-86.91C111.66,-86.91 111.66,-48.01 111.66,-48.01"/>
<polygon fill="black" stroke="black" points="115.16,-48.01 111.66,-38.01 108.16,-48.01 115.16,-48.01"/>
</g>
<!-- J -->
<g id="node10" class="node">
<title>J</title>
<polygon fill="#87ceeb" stroke="black" points="274.54,-36 156.61,-36 156.61,0 274.54,0 274.54,-36"/>
<text xml:space="preserve" text-anchor="middle" x="215.58" y="-13.8" font-family="Arial" font-size="14.00" fill="#4682b4">New Consensus</text>
</g>
<!-- I&#45;&gt;J -->
<g id="edge10" class="edge">
<title>I&#45;&gt;J</title>
<path fill="none" stroke="black" d="M215.58,-71.83C215.58,-71.83 215.58,-47.93 215.58,-47.93"/>
<polygon fill="black" stroke="black" points="219.08,-47.93 215.58,-37.93 212.08,-47.93 219.08,-47.93"/>
</g>
</g>
</svg>
