<?xml version="1.0" encoding="UTF-8" standalone="no"?>
<!DOCTYPE svg PUBLIC "-//W3C//DTD SVG 1.1//EN"
 "http://www.w3.org/Graphics/SVG/1.1/DTD/svg11.dtd">
<!-- Generated by graphviz version 14.0.2 (0)
 -->
<!-- Title: complex&#45;2 Pages: 1 -->
<svg width="610pt" height="476pt"
 viewBox="0.00 0.00 610.00 476.00" xmlns="http://www.w3.org/2000/svg" xmlns:xlink="http://www.w3.org/1999/xlink">
<g id="graph0" class="graph" transform="scale(1 1) rotate(0) translate(4 472)">
<title>complex&#45;2</title>
<polygon fill="white" stroke="none" points="-4,4 -4,-472 605.63,-472 605.63,4 -4,4"/>
<!-- A -->
<g id="node1" class="node">
<title>A</title>
<polygon fill="#87ceeb" stroke="black" points="346.39,-468 208.99,-468 208.99,-432 346.39,-432 346.39,-468"/>
<text xml:space="preserve" text-anchor="middle" x="277.69" y="-445.8" font-family="Arial" font-size="14.00" fill="#4682b4">Lead Form Created</text>
</g>
<!-- B -->
<g id="node2" class="node">
<title>B</title>
<polygon fill="#ffd700" stroke="black" points="277.69,-396 97.36,-378 277.69,-360 458.02,-378 277.69,-396"/>
<text xml:space="preserve" text-anchor="middle" x="277.69" y="-373.8" font-family="Arial" font-size="14.00" fill="#daa520">Contact Number Provided?</text>
</g>
<!-- A&#45;&gt;B -->
<g id="edge1" class="edge">
<title>A&#45;&gt;B</title>
<path fill="none" stroke="black" d="M277.69,-431.83C277.69,-431.83 277.69,-407.93 277.69,-407.93"/>
<polygon fill="black" stroke="black" points="281.19,-407.93 277.69,-397.93 274.19,-407.93 281.19,-407.93"/>
</g>
<!-- C -->
<g id="node3" class="node">
<title>C</title>
<ellipse fill="#ffb6c1" stroke="black" cx="122.69" cy="-306" rx="122.69" ry="18"/>
<text xml:space="preserve" text-anchor="middle" x="122.69" y="-301.8" font-family="Arial" font-size="14.00" fill="#c71585">Send WhatsApp Message</text>
</g>
<!-- B&#45;&gt;C -->
<g id="edge2" class="edge">
<title>B&#45;&gt;C</title>
<path fill="none" stroke="black" d="M171.37,-370.29C171.37,-370.29 171.37,-334.39 171.37,-334.39"/>
<polygon fill="black" stroke="black" points="174.87,-334.39 171.37,-324.39 167.87,-334.39 174.87,-334.39"/>
</g>
<!-- D -->
<g id="node4" class="node">
<title>D</title>
<polygon fill="#ffd700" stroke="black" points="432.69,-324 263.75,-306 432.69,-288 601.63,-306 432.69,-324"/>
<text xml:space="preserve" text-anchor="middle" x="432.69" y="-301.8" font-family="Arial" font-size="14.00" fill="#daa520">Email Address Provided?</text>
</g>
<!-- B&#45;&gt;D -->
<g id="edge3" class="edge">
<title>B&#45;&gt;D</title>
<path fill="none" stroke="black" d="M360.89,-367.99C360.89,-367.99 360.89,-327.91 360.89,-327.91"/>
<polygon fill="black" stroke="black" points="364.39,-327.91 360.89,-317.91 357.39,-327.91 364.39,-327.91"/>
</g>
<!-- J -->
<g id="node10" class="node">
<title>J</title>
<polygon fill="#87ceeb" stroke="black" points="212.39,-252 32.99,-252 32.99,-216 212.39,-216 212.39,-252"/>
<text xml:space="preserve" text-anchor="middle" x="122.69" y="-229.8" font-family="Arial" font-size="14.00" fill="#4682b4">Follow WhatsApp Process</text>
</g>
<!-- C&#45;&gt;J -->
<g id="edge9" class="edge">
<title>C&#45;&gt;J</title>
<path fill="none" stroke="black" d="M122.69,-287.83C122.69,-287.83 122.69,-263.93 122.69,-263.93"/>
<polygon fill="black" stroke="black" points="126.19,-263.93 122.69,-253.93 119.19,-263.93 126.19,-263.93"/>
</g>
<!-- E -->
<g id="node5" class="node">
<title>E</title>
<ellipse fill="#ffb6c1" stroke="black" cx="372.69" cy="-234" rx="82.43" ry="18"/>
<text xml:space="preserve" text-anchor="middle" x="372.69" y="-229.8" font-family="Arial" font-size="14.00" fill="#c71585">Send Intro Email</text>
</g>
<!-- D&#45;&gt;E -->
<g id="edge4" class="edge">
<title>D&#45;&gt;E</title>
<path fill="none" stroke="black" d="M372.69,-294.11C372.69,-294.11 372.69,-263.91 372.69,-263.91"/>
<polygon fill="black" stroke="black" points="376.19,-263.91 372.69,-253.91 369.19,-263.91 376.19,-263.91"/>
</g>
<!-- F -->
<g id="node6" class="node">
<title>F</title>
<polygon fill="#87ceeb" stroke="black" points="550.04,-252 473.34,-252 473.34,-216 550.04,-216 550.04,-252"/>
<text xml:space="preserve" text-anchor="middle" x="511.69" y="-229.8" font-family="Arial" font-size="14.00" fill="#4682b4">No Action</text>
</g>
<!-- D&#45;&gt;F -->
<g id="edge5" class="edge">
<title>D&#45;&gt;F</title>
<path fill="none" stroke="black" d="M511.69,-295.99C511.69,-295.99 511.69,-263.76 511.69,-263.76"/>
<polygon fill="black" stroke="black" points="515.19,-263.76 511.69,-253.76 508.19,-263.76 515.19,-263.76"/>
</g>
<!-- G -->
<g id="node7" class="node">
<title>G</title>
<polygon fill="#ffd700" stroke="black" points="372.69,-180 227.26,-162 372.69,-144 518.12,-162 372.69,-180"/>
<text xml:space="preserve" text-anchor="middle" x="372.69" y="-157.8" font-family="Arial" font-size="14.00" fill="#daa520">Response Received?</text>
</g>
<!-- E&#45;&gt;G -->
<g id="edge6" class="edge">
<title>E&#45;&gt;G</title>
<path fill="none" stroke="black" d="M372.69,-215.83C372.69,-215.83 372.69,-191.93 372.69,-191.93"/>
<polygon fill="black" stroke="black" points="376.19,-191.93 372.69,-181.93 369.19,-191.93 376.19,-191.93"/>
</g>
<!-- H -->
<g id="node8" class="node">
<title>H</title>
<polygon fill="#87ceeb" stroke="black" points="411.81,-36 333.57,-36 333.57,0 411.81,0 411.81,-36"/>
<text xml:space="preserve" text-anchor="middle" x="372.69" y="-13.8" font-family="Arial" font-size="14.00" fill="#4682b4">Follow Up</text>
</g>
<!-- G&#45;&gt;H -->
<g id="edge7" class="edge">
<title>G&#45;&gt;H</title>
<path fill="none" stroke="black" d="M344.98,-147.13C344.98,-147.13 344.98,-47.67 344.98,-47.67"/>
<polygon fill="black" stroke="black" points="348.48,-47.67 344.98,-37.67 341.48,-47.67 348.48,-47.67"/>
</g>
<!-- I -->
<g id="node9" class="node">
<title>I</title>
<polygon fill="#87ceeb" stroke="black" points="479,-108 356.38,-108 356.38,-72 479,-72 479,-108"/>
<text xml:space="preserve" text-anchor="middle" x="417.69" y="-85.8" font-family="Arial" font-size="14.00" fill="#4682b4">Make Phone Call</text>
</g>
<!-- G&#45;&gt;I -->
<g id="edge8" class="edge">
<title>G&#45;&gt;I</title>
<path fill="none" stroke="black" d="M417.69,-149.13C417.69,-149.13 417.69,-119.96 417.69,-119.96"/>
<polygon fill="black" stroke="black" points="421.19,-119.96 417.69,-109.96 414.19,-119.96 421.19,-119.96"/>
</g>
<!-- I&#45;&gt;H -->
<g id="edge10" class="edge">
<title>I&#45;&gt;H</title>
<path fill="none" stroke="black" d="M384.1,-71.83C384.1,-71.83 384.1,-47.93 384.1,-47.93"/>
<polygon fill="black" stroke="black" points="387.6,-47.93 384.1,-37.93 380.6,-47.93 387.6,-47.93"/>
</g>
</g>
</svg>
