<?xml version="1.0" encoding="UTF-8" standalone="no"?>
<!DOCTYPE svg PUBLIC "-//W3C//DTD SVG 1.1//EN"
 "http://www.w3.org/Graphics/SVG/1.1/DTD/svg11.dtd">
<!-- Generated by graphviz version 14.0.2 (0)
 -->
<!-- Title: complex&#45;1 Pages: 1 -->
<svg width="312pt" height="404pt"
 viewBox="0.00 0.00 312.00 404.00" xmlns="http://www.w3.org/2000/svg" xmlns:xlink="http://www.w3.org/1999/xlink">
<g id="graph0" class="graph" transform="scale(1 1) rotate(0) translate(4 400)">
<title>complex&#45;1</title>
<polygon fill="white" stroke="none" points="-4,4 -4,-400 307.87,-400 307.87,4 -4,4"/>
<!-- A -->
<g id="node1" class="node">
<title>A</title>
<ellipse fill="#90ee90" stroke="black" cx="121.03" cy="-378" rx="60.41" ry="18"/>
<text xml:space="preserve" text-anchor="middle" x="121.03" y="-373.8" font-family="Arial" font-size="14.00" fill="#228b22">Start Game</text>
</g>
<!-- B -->
<g id="node2" class="node">
<title>B</title>
<polygon fill="#ffd700" stroke="black" points="121.03,-324 9.79,-306 121.03,-288 232.27,-306 121.03,-324"/>
<text xml:space="preserve" text-anchor="middle" x="121.03" y="-301.8" font-family="Arial" font-size="14.00" fill="#daa520">Correct Guess?</text>
</g>
<!-- A&#45;&gt;B -->
<g id="edge1" class="edge">
<title>A&#45;&gt;B</title>
<path fill="none" stroke="black" d="M121.03,-359.83C121.03,-359.83 121.03,-335.93 121.03,-335.93"/>
<polygon fill="black" stroke="black" points="124.53,-335.93 121.03,-325.93 117.53,-335.93 124.53,-335.93"/>
</g>
<!-- C -->
<g id="node3" class="node">
<title>C</title>
<polygon fill="#87ceeb" stroke="black" points="114.05,-180 0,-180 0,-144 114.05,-144 114.05,-180"/>
<text xml:space="preserve" text-anchor="middle" x="57.03" y="-157.8" font-family="Arial" font-size="14.00" fill="#4682b4">Continue Game</text>
</g>
<!-- B&#45;&gt;C -->
<g id="edge2" class="edge">
<title>B&#45;&gt;C</title>
<path fill="none" stroke="black" d="M13.57,-305.08C13.57,-305.08 13.57,-191.86 13.57,-191.86"/>
<polygon fill="black" stroke="black" points="17.07,-191.86 13.57,-181.86 10.07,-191.86 17.07,-191.86"/>
</g>
<!-- D -->
<g id="node4" class="node">
<title>D</title>
<polygon fill="#ffd700" stroke="black" points="121.03,-252 17.36,-234 121.03,-216 224.69,-234 121.03,-252"/>
<text xml:space="preserve" text-anchor="middle" x="121.03" y="-229.8" font-family="Arial" font-size="14.00" fill="#daa520">Attempts Left?</text>
</g>
<!-- B&#45;&gt;D -->
<g id="edge3" class="edge">
<title>B&#45;&gt;D</title>
<path fill="none" stroke="black" d="M121.03,-287.83C121.03,-287.83 121.03,-263.93 121.03,-263.93"/>
<polygon fill="black" stroke="black" points="124.53,-263.93 121.03,-253.93 117.53,-263.93 124.53,-263.93"/>
</g>
<!-- F -->
<g id="node6" class="node">
<title>F</title>
<polygon fill="#ffd700" stroke="black" points="174.03,-108 44.18,-90 174.03,-72 303.87,-90 174.03,-108"/>
<text xml:space="preserve" text-anchor="middle" x="174.03" y="-85.8" font-family="Arial" font-size="14.00" fill="#daa520">Word Complete? &gt;</text>
</g>
<!-- C&#45;&gt;F -->
<g id="edge6" class="edge">
<title>C&#45;&gt;F</title>
<path fill="none" stroke="black" d="M79.12,-143.83C79.12,-143.83 79.12,-106.61 79.12,-106.61"/>
<polygon fill="black" stroke="black" points="82.62,-106.61 79.12,-96.61 75.62,-106.61 82.62,-106.61"/>
</g>
<!-- D&#45;&gt;C -->
<g id="edge4" class="edge">
<title>D&#45;&gt;C</title>
<path fill="none" stroke="black" d="M65.71,-225.17C65.71,-225.17 65.71,-191.82 65.71,-191.82"/>
<polygon fill="black" stroke="black" points="69.21,-191.82 65.71,-181.82 62.21,-191.82 69.21,-191.82"/>
</g>
<!-- E -->
<g id="node5" class="node">
<title>E</title>
<polygon fill="#87ceeb" stroke="black" points="186.03,-180 132.03,-180 132.03,-144 186.03,-144 186.03,-180"/>
<text xml:space="preserve" text-anchor="middle" x="159.03" y="-157.8" font-family="Arial" font-size="14.00" fill="#4682b4">Lose</text>
</g>
<!-- D&#45;&gt;E -->
<g id="edge5" class="edge">
<title>D&#45;&gt;E</title>
<path fill="none" stroke="black" d="M159.03,-222.11C159.03,-222.11 159.03,-191.91 159.03,-191.91"/>
<polygon fill="black" stroke="black" points="162.53,-191.91 159.03,-181.91 155.53,-191.91 162.53,-191.91"/>
</g>
<!-- F&#45;&gt;B -->
<g id="edge8" class="edge">
<title>F&#45;&gt;B</title>
<path fill="none" stroke="black" d="M228.48,-100.71C228.48,-100.71 228.48,-293.45 228.48,-293.45"/>
<polygon fill="black" stroke="black" points="224.98,-293.45 228.48,-303.45 231.98,-293.45 224.98,-293.45"/>
</g>
<!-- G -->
<g id="node7" class="node">
<title>G</title>
<polygon fill="#87ceeb" stroke="black" points="201.03,-36 147.03,-36 147.03,0 201.03,0 201.03,-36"/>
<text xml:space="preserve" text-anchor="middle" x="174.03" y="-13.8" font-family="Arial" font-size="14.00" fill="#4682b4">Win</text>
</g>
<!-- F&#45;&gt;G -->
<g id="edge7" class="edge">
<title>F&#45;&gt;G</title>
<path fill="none" stroke="black" d="M174.03,-71.83C174.03,-71.83 174.03,-47.93 174.03,-47.93"/>
<polygon fill="black" stroke="black" points="177.53,-47.93 174.03,-37.93 170.53,-47.93 177.53,-47.93"/>
</g>
</g>
</svg>
