<?xml version="1.0" encoding="UTF-8" standalone="no"?>
<!DOCTYPE svg PUBLIC "-//W3C//DTD SVG 1.1//EN"
 "http://www.w3.org/Graphics/SVG/1.1/DTD/svg11.dtd">
<!-- Generated by graphviz version 14.0.2 (0)
 -->
<!-- Title: Cycle Pages: 1 -->
<svg width="127pt" height="332pt"
 viewBox="0.00 0.00 127.00 332.00" xmlns="http://www.w3.org/2000/svg" xmlns:xlink="http://www.w3.org/1999/xlink">
<g id="graph0" class="graph" transform="scale(1 1) rotate(0) translate(4 328)">
<title>Cycle</title>
<polygon fill="white" stroke="none" points="-4,4 -4,-328 123.38,-328 123.38,4 -4,4"/>
<!-- A -->
<g id="node1" class="node">
<title>A</title>
<polygon fill="#87ceeb" stroke="black" points="113.08,-324 59.08,-324 59.08,-288 113.08,-288 113.08,-324"/>
<text xml:space="preserve" text-anchor="middle" x="86.08" y="-301.8" font-family="Arial" font-size="14.00" fill="#4682b4">Birth</text>
</g>
<!-- B -->
<g id="node2" class="node">
<title>B</title>
<polygon fill="#87ceeb" stroke="black" points="91.61,-252 12.56,-252 12.56,-216 91.61,-216 91.61,-252"/>
<text xml:space="preserve" text-anchor="middle" x="52.08" y="-229.8" font-family="Arial" font-size="14.00" fill="#4682b4">Childhood</text>
</g>
<!-- A&#45;&gt;B -->
<g id="edge1" class="edge">
<title>A&#45;&gt;B</title>
<path fill="none" stroke="black" d="M75.34,-287.83C75.34,-287.83 75.34,-263.93 75.34,-263.93"/>
<polygon fill="black" stroke="black" points="78.84,-263.93 75.34,-253.93 71.84,-263.93 78.84,-263.93"/>
</g>
<!-- C -->
<g id="node3" class="node">
<title>C</title>
<polygon fill="#87ceeb" stroke="black" points="96.17,-180 0,-180 0,-144 96.17,-144 96.17,-180"/>
<text xml:space="preserve" text-anchor="middle" x="48.08" y="-157.8" font-family="Arial" font-size="14.00" fill="#4682b4">Adolescence</text>
</g>
<!-- B&#45;&gt;C -->
<g id="edge2" class="edge">
<title>B&#45;&gt;C</title>
<path fill="none" stroke="black" d="M52.08,-215.83C52.08,-215.83 52.08,-191.93 52.08,-191.93"/>
<polygon fill="black" stroke="black" points="55.58,-191.93 52.08,-181.93 48.58,-191.93 55.58,-191.93"/>
</g>
<!-- D -->
<g id="node4" class="node">
<title>D</title>
<polygon fill="#87ceeb" stroke="black" points="91.61,-108 12.56,-108 12.56,-72 91.61,-72 91.61,-108"/>
<text xml:space="preserve" text-anchor="middle" x="52.08" y="-85.8" font-family="Arial" font-size="14.00" fill="#4682b4">Adulthood</text>
</g>
<!-- C&#45;&gt;D -->
<g id="edge3" class="edge">
<title>C&#45;&gt;D</title>
<path fill="none" stroke="black" d="M52.08,-143.83C52.08,-143.83 52.08,-119.93 52.08,-119.93"/>
<polygon fill="black" stroke="black" points="55.58,-119.93 52.08,-109.93 48.58,-119.93 55.58,-119.93"/>
</g>
<!-- E -->
<g id="node5" class="node">
<title>E</title>
<polygon fill="#87ceeb" stroke="black" points="119.38,-36 52.79,-36 52.79,0 119.38,0 119.38,-36"/>
<text xml:space="preserve" text-anchor="middle" x="86.08" y="-13.8" font-family="Arial" font-size="14.00" fill="#4682b4">Old Age</text>
</g>
<!-- D&#45;&gt;E -->
<g id="edge4" class="edge">
<title>D&#45;&gt;E</title>
<path fill="none" stroke="black" d="M72.2,-71.83C72.2,-71.83 72.2,-47.93 72.2,-47.93"/>
<polygon fill="black" stroke="black" points="75.7,-47.93 72.2,-37.93 68.7,-47.93 75.7,-47.93"/>
</g>
<!-- E&#45;&gt;A -->
<g id="edge5" class="edge">
<title>E&#45;&gt;A</title>
<path fill="none" stroke="black" d="M104.62,-36.45C104.62,-36.45 104.62,-276.19 104.62,-276.19"/>
<polygon fill="black" stroke="black" points="101.12,-276.19 104.62,-286.19 108.12,-276.19 101.12,-276.19"/>
</g>
</g>
</svg>
