<?xml version="1.0" encoding="UTF-8" standalone="no"?>
<!DOCTYPE svg PUBLIC "-//W3C//DTD SVG 1.1//EN"
 "http://www.w3.org/Graphics/SVG/1.1/DTD/svg11.dtd">
<!-- Generated by graphviz version 14.0.2 (0)
 -->
<!-- Title: decision&#45;flip Pages: 1 -->
<svg width="197pt" height="188pt"
 viewBox="0.00 0.00 197.00 188.00" xmlns="http://www.w3.org/2000/svg" xmlns:xlink="http://www.w3.org/1999/xlink">
<g id="graph0" class="graph" transform="scale(1 1) rotate(0) translate(4 184)">
<title>decision&#45;flip</title>
<polygon fill="white" stroke="none" points="-4,4 -4,-184 193.27,-184 193.27,4 -4,4"/>
<!-- A -->
<g id="node1" class="node">
<title>A</title>
<ellipse fill="#90ee90" stroke="black" cx="73.29" cy="-162" rx="31.43" ry="18"/>
<text xml:space="preserve" text-anchor="middle" x="73.29" y="-157.8" font-family="Arial" font-size="14.00" fill="#228b22">Start</text>
</g>
<!-- B -->
<g id="node2" class="node">
<title>B</title>
<polygon fill="#ffd700" stroke="black" points="121.29,-108 53.3,-90 121.29,-72 189.27,-90 121.29,-108"/>
<text xml:space="preserve" text-anchor="middle" x="121.29" y="-85.8" font-family="Arial" font-size="14.00" fill="#daa520">Decision</text>
</g>
<!-- A&#45;&gt;B -->
<g id="edge1" class="edge">
<title>A&#45;&gt;B</title>
<path fill="none" stroke="black" d="M79.01,-143.83C79.01,-143.83 79.01,-108.61 79.01,-108.61"/>
<polygon fill="black" stroke="black" points="82.51,-108.61 79.01,-98.61 75.51,-108.61 82.51,-108.61"/>
</g>
<!-- C -->
<g id="node3" class="node">
<title>C</title>
<polygon fill="#87ceeb" stroke="black" points="66.57,-36 0,-36 0,0 66.57,0 66.57,-36"/>
<text xml:space="preserve" text-anchor="middle" x="33.29" y="-13.8" font-family="Arial" font-size="14.00" fill="#4682b4">Process</text>
</g>
<!-- A&#45;&gt;C -->
<g id="edge4" class="edge">
<title>A&#45;&gt;C</title>
<path fill="none" stroke="black" d="M47.58,-151.18C47.58,-151.18 47.58,-47.99 47.58,-47.99"/>
<polygon fill="black" stroke="black" points="51.08,-47.99 47.58,-37.99 44.08,-47.99 51.08,-47.99"/>
</g>
<!-- B&#45;&gt;C -->
<g id="edge2" class="edge">
<title>B&#45;&gt;C</title>
<path fill="none" stroke="black" d="M59.94,-87.92C59.94,-87.92 59.94,-47.85 59.94,-47.85"/>
<polygon fill="black" stroke="black" points="63.44,-47.85 59.94,-37.85 56.44,-47.85 63.44,-47.85"/>
</g>
<!-- D -->
<g id="node4" class="node">
<title>D</title>
<ellipse fill="#ffb6c1" stroke="black" cx="121.29" cy="-18" rx="28.22" ry="18"/>
<text xml:space="preserve" text-anchor="middle" x="121.29" y="-13.8" font-family="Arial" font-size="14.00" fill="#c71585">End</text>
</g>
<!-- B&#45;&gt;D -->
<g id="edge3" class="edge">
<title>B&#45;&gt;D</title>
<path fill="none" stroke="black" d="M121.29,-71.83C121.29,-71.83 121.29,-47.93 121.29,-47.93"/>
<polygon fill="black" stroke="black" points="124.79,-47.93 121.29,-37.93 117.79,-47.93 124.79,-47.93"/>
</g>
</g>
</svg>
