<?xml version="1.0" encoding="UTF-8" standalone="no"?>
<!DOCTYPE svg PUBLIC "-//W3C//DTD SVG 1.1//EN"
 "http://www.w3.org/Graphics/SVG/1.1/DTD/svg11.dtd">
<!-- Generated by graphviz version 14.0.2 (0)
 -->
<!-- Title: Defining Pages: 1 -->
<svg width="293pt" height="908pt"
 viewBox="0.00 0.00 293.00 908.00" xmlns="http://www.w3.org/2000/svg" xmlns:xlink="http://www.w3.org/1999/xlink">
<g id="graph0" class="graph" transform="scale(1 1) rotate(0) translate(4 904)">
<title>Defining</title>
<polygon fill="white" stroke="none" points="-4,4 -4,-904 289.36,-904 289.36,4 -4,4"/>
<!-- A -->
<g id="node1" class="node">
<title>A</title>
<polygon fill="#87ceeb" stroke="black" points="161.92,-900 4.29,-900 4.29,-864 161.92,-864 161.92,-900"/>
<text xml:space="preserve" text-anchor="middle" x="83.1" y="-877.8" font-family="Arial" font-size="14.00" fill="#4682b4">Defining product vision</text>
</g>
<!-- B -->
<g id="node2" class="node">
<title>B</title>
<polygon fill="#87ceeb" stroke="black" points="166.21,-828 0,-828 0,-792 166.21,-792 166.21,-828"/>
<text xml:space="preserve" text-anchor="middle" x="83.1" y="-805.8" font-family="Arial" font-size="14.00" fill="#4682b4">Define value proposition</text>
</g>
<!-- A&#45;&gt;B -->
<g id="edge1" class="edge">
<title>A&#45;&gt;B</title>
<path fill="none" stroke="black" d="M83.1,-863.83C83.1,-863.83 83.1,-839.93 83.1,-839.93"/>
<polygon fill="black" stroke="black" points="86.6,-839.93 83.1,-829.93 79.6,-839.93 86.6,-839.93"/>
</g>
<!-- C -->
<g id="node3" class="node">
<title>C</title>
<polygon fill="#87ceeb" stroke="black" points="162.69,-756 3.52,-756 3.52,-720 162.69,-720 162.69,-756"/>
<text xml:space="preserve" text-anchor="middle" x="83.1" y="-733.8" font-family="Arial" font-size="14.00" fill="#4682b4">Define Success criteria</text>
</g>
<!-- B&#45;&gt;C -->
<g id="edge2" class="edge">
<title>B&#45;&gt;C</title>
<path fill="none" stroke="black" d="M83.1,-791.83C83.1,-791.83 83.1,-767.93 83.1,-767.93"/>
<polygon fill="black" stroke="black" points="86.6,-767.93 83.1,-757.93 79.6,-767.93 86.6,-767.93"/>
</g>
<!-- D -->
<g id="node4" class="node">
<title>D</title>
<polygon fill="#87ceeb" stroke="black" points="144.41,-684 21.8,-684 21.8,-648 144.41,-648 144.41,-684"/>
<text xml:space="preserve" text-anchor="middle" x="83.1" y="-661.8" font-family="Arial" font-size="14.00" fill="#4682b4">Product research</text>
</g>
<!-- C&#45;&gt;D -->
<g id="edge3" class="edge">
<title>C&#45;&gt;D</title>
<path fill="none" stroke="black" d="M83.1,-719.83C83.1,-719.83 83.1,-695.93 83.1,-695.93"/>
<polygon fill="black" stroke="black" points="86.6,-695.93 83.1,-685.93 79.6,-695.93 86.6,-695.93"/>
</g>
<!-- E -->
<g id="node5" class="node">
<title>E</title>
<polygon fill="#87ceeb" stroke="black" points="161.92,-612 4.29,-612 4.29,-576 161.92,-576 161.92,-612"/>
<text xml:space="preserve" text-anchor="middle" x="83.1" y="-589.8" font-family="Arial" font-size="14.00" fill="#4682b4">Conduct user research</text>
</g>
<!-- D&#45;&gt;E -->
<g id="edge4" class="edge">
<title>D&#45;&gt;E</title>
<path fill="none" stroke="black" d="M83.1,-647.83C83.1,-647.83 83.1,-623.93 83.1,-623.93"/>
<polygon fill="black" stroke="black" points="86.6,-623.93 83.1,-613.93 79.6,-623.93 86.6,-623.93"/>
</g>
<!-- F -->
<g id="node6" class="node">
<title>F</title>
<polygon fill="#87ceeb" stroke="black" points="133.12,-540 33.09,-540 33.09,-504 133.12,-504 133.12,-540"/>
<text xml:space="preserve" text-anchor="middle" x="83.1" y="-517.8" font-family="Arial" font-size="14.00" fill="#4682b4">User analysis</text>
</g>
<!-- E&#45;&gt;F -->
<g id="edge5" class="edge">
<title>E&#45;&gt;F</title>
<path fill="none" stroke="black" d="M58.1,-575.83C58.1,-575.83 58.1,-551.93 58.1,-551.93"/>
<polygon fill="black" stroke="black" points="61.6,-551.93 58.1,-541.93 54.6,-551.93 61.6,-551.93"/>
</g>
<!-- E&#45;&gt;F -->
<g id="edge6" class="edge">
<title>E&#45;&gt;F</title>
<path fill="none" stroke="black" d="M83.1,-575.83C83.1,-575.83 83.1,-551.93 83.1,-551.93"/>
<polygon fill="black" stroke="black" points="86.6,-551.93 83.1,-541.93 79.6,-551.93 86.6,-551.93"/>
</g>
<!-- E&#45;&gt;F -->
<g id="edge7" class="edge">
<title>E&#45;&gt;F</title>
<path fill="none" stroke="black" d="M108.11,-575.83C108.11,-575.83 108.11,-551.93 108.11,-551.93"/>
<polygon fill="black" stroke="black" points="111.61,-551.93 108.11,-541.93 104.61,-551.93 111.61,-551.93"/>
</g>
<!-- G -->
<g id="node7" class="node">
<title>G</title>
<polygon fill="#87ceeb" stroke="black" points="251.12,-540 151.09,-540 151.09,-504 251.12,-504 251.12,-540"/>
<text xml:space="preserve" text-anchor="middle" x="201.1" y="-517.8" font-family="Arial" font-size="14.00" fill="#4682b4">User analysis</text>
</g>
<!-- E&#45;&gt;G -->
<g id="edge8" class="edge">
<title>E&#45;&gt;G</title>
<path fill="none" stroke="black" d="M156.5,-575.83C156.5,-575.83 156.5,-551.93 156.5,-551.93"/>
<polygon fill="black" stroke="black" points="160,-551.93 156.5,-541.93 153,-551.93 160,-551.93"/>
</g>
<!-- H -->
<g id="node8" class="node">
<title>H</title>
<polygon fill="#87ceeb" stroke="black" points="234.01,-468 168.19,-468 168.19,-432 234.01,-432 234.01,-468"/>
<text xml:space="preserve" text-anchor="middle" x="201.1" y="-445.8" font-family="Arial" font-size="14.00" fill="#4682b4">Ideation</text>
</g>
<!-- G&#45;&gt;H -->
<g id="edge9" class="edge">
<title>G&#45;&gt;H</title>
<path fill="none" stroke="black" d="M201.1,-503.83C201.1,-503.83 201.1,-479.93 201.1,-479.93"/>
<polygon fill="black" stroke="black" points="204.6,-479.93 201.1,-469.93 197.6,-479.93 204.6,-479.93"/>
</g>
<!-- I -->
<g id="node9" class="node">
<title>I</title>
<polygon fill="#87ceeb" stroke="black" points="285.36,-396 116.84,-396 116.84,-360 285.36,-360 285.36,-396"/>
<text xml:space="preserve" text-anchor="middle" x="201.1" y="-373.8" font-family="Arial" font-size="14.00" fill="#4682b4">Plan structure of product</text>
</g>
<!-- H&#45;&gt;I -->
<g id="edge10" class="edge">
<title>H&#45;&gt;I</title>
<path fill="none" stroke="black" d="M201.1,-431.83C201.1,-431.83 201.1,-407.93 201.1,-407.93"/>
<polygon fill="black" stroke="black" points="204.6,-407.93 201.1,-397.93 197.6,-407.93 204.6,-407.93"/>
</g>
<!-- J -->
<g id="node10" class="node">
<title>J</title>
<polygon fill="#87ceeb" stroke="black" points="257.36,-324 144.85,-324 144.85,-288 257.36,-288 257.36,-324"/>
<text xml:space="preserve" text-anchor="middle" x="201.1" y="-301.8" font-family="Arial" font-size="14.00" fill="#4682b4">Generate Ideas</text>
</g>
<!-- I&#45;&gt;J -->
<g id="edge11" class="edge">
<title>I&#45;&gt;J</title>
<path fill="none" stroke="black" d="M201.1,-359.83C201.1,-359.83 201.1,-335.93 201.1,-335.93"/>
<polygon fill="black" stroke="black" points="204.6,-335.93 201.1,-325.93 197.6,-335.93 204.6,-335.93"/>
</g>
<!-- K -->
<g id="node11" class="node">
<title>K</title>
<polygon fill="#87ceeb" stroke="black" points="253.47,-252 148.74,-252 148.74,-216 253.47,-216 253.47,-252"/>
<text xml:space="preserve" text-anchor="middle" x="201.1" y="-229.8" font-family="Arial" font-size="14.00" fill="#4682b4">Validate Ideas</text>
</g>
<!-- J&#45;&gt;K -->
<g id="edge12" class="edge">
<title>J&#45;&gt;K</title>
<path fill="none" stroke="black" d="M190.63,-287.83C190.63,-287.83 190.63,-263.93 190.63,-263.93"/>
<polygon fill="black" stroke="black" points="194.13,-263.93 190.63,-253.93 187.13,-263.93 194.13,-263.93"/>
</g>
<!-- J&#45;&gt;K -->
<g id="edge13" class="edge">
<title>J&#45;&gt;K</title>
<path fill="none" stroke="black" d="M211.58,-287.83C211.58,-287.83 211.58,-263.93 211.58,-263.93"/>
<polygon fill="black" stroke="black" points="215.08,-263.93 211.58,-253.93 208.08,-263.93 215.08,-263.93"/>
</g>
<!-- J&#45;&gt;K -->
<g id="edge14" class="edge">
<title>J&#45;&gt;K</title>
<path fill="none" stroke="black" d="M232.52,-287.83C232.52,-287.83 232.52,-263.93 232.52,-263.93"/>
<polygon fill="black" stroke="black" points="236.02,-263.93 232.52,-253.93 229.02,-263.93 236.02,-263.93"/>
</g>
<!-- J&#45;&gt;K -->
<g id="edge15" class="edge">
<title>J&#45;&gt;K</title>
<path fill="none" stroke="black" d="M169.68,-287.83C169.68,-287.83 169.68,-263.93 169.68,-263.93"/>
<polygon fill="black" stroke="black" points="173.18,-263.93 169.68,-253.93 166.18,-263.93 173.18,-263.93"/>
</g>
<!-- L -->
<g id="node12" class="node">
<title>L</title>
<polygon fill="#87ceeb" stroke="black" points="230.89,-180 171.31,-180 171.31,-144 230.89,-144 230.89,-180"/>
<text xml:space="preserve" text-anchor="middle" x="201.1" y="-157.8" font-family="Arial" font-size="14.00" fill="#4682b4">Design</text>
</g>
<!-- K&#45;&gt;L -->
<g id="edge16" class="edge">
<title>K&#45;&gt;L</title>
<path fill="none" stroke="black" d="M201.1,-215.83C201.1,-215.83 201.1,-191.93 201.1,-191.93"/>
<polygon fill="black" stroke="black" points="204.6,-191.93 201.1,-181.93 197.6,-191.93 204.6,-191.93"/>
</g>
<!-- M -->
<g id="node13" class="node">
<title>M</title>
<polygon fill="#87ceeb" stroke="black" points="257.35,-108 144.85,-108 144.85,-72 257.35,-72 257.35,-108"/>
<text xml:space="preserve" text-anchor="middle" x="201.1" y="-85.8" font-family="Arial" font-size="14.00" fill="#4682b4">Design Handoff</text>
</g>
<!-- L&#45;&gt;M -->
<g id="edge17" class="edge">
<title>L&#45;&gt;M</title>
<path fill="none" stroke="black" d="M201.1,-143.83C201.1,-143.83 201.1,-119.93 201.1,-119.93"/>
<polygon fill="black" stroke="black" points="204.6,-119.93 201.1,-109.93 197.6,-119.93 204.6,-119.93"/>
</g>
<!-- N -->
<g id="node14" class="node">
<title>N</title>
<polygon fill="#87ceeb" stroke="black" points="278.37,-36 123.83,-36 123.83,0 278.37,0 278.37,-36"/>
<text xml:space="preserve" text-anchor="middle" x="201.1" y="-13.8" font-family="Arial" font-size="14.00" fill="#4682b4">Testing and Validation</text>
</g>
<!-- M&#45;&gt;N -->
<g id="edge18" class="edge">
<title>M&#45;&gt;N</title>
<path fill="none" stroke="black" d="M201.1,-71.83C201.1,-71.83 201.1,-47.93 201.1,-47.93"/>
<polygon fill="black" stroke="black" points="204.6,-47.93 201.1,-37.93 197.6,-47.93 204.6,-47.93"/>
</g>
</g>
</svg>
