<?xml version="1.0" encoding="UTF-8" standalone="no"?>
<!DOCTYPE svg PUBLIC "-//W3C//DTD SVG 1.1//EN"
 "http://www.w3.org/Graphics/SVG/1.1/DTD/svg11.dtd">
<!-- Generated by graphviz version 14.0.2 (0)
 -->
<!-- Title: Earth Pages: 1 -->
<svg width="306pt" height="260pt"
 viewBox="0.00 0.00 306.00 260.00" xmlns="http://www.w3.org/2000/svg" xmlns:xlink="http://www.w3.org/1999/xlink">
<g id="graph0" class="graph" transform="scale(1 1) rotate(0) translate(4 256)">
<title>Earth</title>
<polygon fill="white" stroke="none" points="-4,4 -4,-256 302.49,-256 302.49,4 -4,4"/>
<!-- A -->
<g id="node1" class="node">
<title>A</title>
<polygon fill="#87ceeb" stroke="black" points="149.71,-252 39.56,-252 39.56,-216 149.71,-216 149.71,-252"/>
<text xml:space="preserve" text-anchor="middle" x="94.63" y="-229.8" font-family="Arial" font-size="14.00" fill="#4682b4">Is Jupiter Gas?</text>
</g>
<!-- B -->
<g id="node2" class="node">
<title>B</title>
<polygon fill="#87ceeb" stroke="black" points="99.26,-108 0,-108 0,-72 99.26,-72 99.26,-108"/>
<text xml:space="preserve" text-anchor="middle" x="49.63" y="-85.8" font-family="Arial" font-size="14.00" fill="#4682b4">Planet is Gas</text>
</g>
<!-- A&#45;&gt;B -->
<g id="edge1" class="edge">
<title>A&#45;&gt;B</title>
<path fill="none" stroke="black" d="M58.67,-215.76C58.67,-215.76 58.67,-119.6 58.67,-119.6"/>
<polygon fill="black" stroke="black" points="62.17,-119.6 58.67,-109.6 55.17,-119.6 62.17,-119.6"/>
</g>
<!-- C -->
<g id="node3" class="node">
<title>C</title>
<polygon fill="#87ceeb" stroke="black" points="203.49,-180 77.78,-180 77.78,-144 203.49,-144 203.49,-180"/>
<text xml:space="preserve" text-anchor="middle" x="140.63" y="-157.8" font-family="Arial" font-size="14.00" fill="#4682b4">Gravity on Jupiter</text>
</g>
<!-- A&#45;&gt;C -->
<g id="edge2" class="edge">
<title>A&#45;&gt;C</title>
<path fill="none" stroke="black" d="M113.74,-215.83C113.74,-215.83 113.74,-191.93 113.74,-191.93"/>
<polygon fill="black" stroke="black" points="117.24,-191.93 113.74,-181.93 110.24,-191.93 117.24,-191.93"/>
</g>
<!-- C&#45;&gt;B -->
<g id="edge3" class="edge">
<title>C&#45;&gt;B</title>
<path fill="none" stroke="black" d="M88.52,-143.83C88.52,-143.83 88.52,-119.93 88.52,-119.93"/>
<polygon fill="black" stroke="black" points="92.02,-119.93 88.52,-109.93 85.02,-119.93 92.02,-119.93"/>
</g>
<!-- D -->
<g id="node4" class="node">
<title>D</title>
<polygon fill="#87ceeb" stroke="black" points="234.21,-108 117.06,-108 117.06,-72 234.21,-72 234.21,-108"/>
<text xml:space="preserve" text-anchor="middle" x="175.63" y="-85.8" font-family="Arial" font-size="14.00" fill="#4682b4">Gravity on Earth</text>
</g>
<!-- C&#45;&gt;D -->
<g id="edge4" class="edge">
<title>C&#45;&gt;D</title>
<path fill="none" stroke="black" d="M160.27,-143.83C160.27,-143.83 160.27,-119.93 160.27,-119.93"/>
<polygon fill="black" stroke="black" points="163.77,-119.93 160.27,-109.93 156.77,-119.93 163.77,-119.93"/>
</g>
<!-- E -->
<g id="node5" class="node">
<title>E</title>
<polygon fill="#87ceeb" stroke="black" points="168.77,-36 48.49,-36 48.49,0 168.77,0 168.77,-36"/>
<text xml:space="preserve" text-anchor="middle" x="108.63" y="-13.8" font-family="Arial" font-size="14.00" fill="#4682b4">Air held on Earth</text>
</g>
<!-- D&#45;&gt;E -->
<g id="edge5" class="edge">
<title>D&#45;&gt;E</title>
<path fill="none" stroke="black" d="M142.91,-71.83C142.91,-71.83 142.91,-47.93 142.91,-47.93"/>
<polygon fill="black" stroke="black" points="146.41,-47.93 142.91,-37.93 139.41,-47.93 146.41,-47.93"/>
</g>
<!-- F -->
<g id="node6" class="node">
<title>F</title>
<polygon fill="#87ceeb" stroke="black" points="298.49,-36 186.78,-36 186.78,0 298.49,0 298.49,-36"/>
<text xml:space="preserve" text-anchor="middle" x="242.63" y="-13.8" font-family="Arial" font-size="14.00" fill="#4682b4">No Air on Earth</text>
</g>
<!-- D&#45;&gt;F -->
<g id="edge6" class="edge">
<title>D&#45;&gt;F</title>
<path fill="none" stroke="black" d="M210.49,-71.83C210.49,-71.83 210.49,-47.93 210.49,-47.93"/>
<polygon fill="black" stroke="black" points="213.99,-47.93 210.49,-37.93 206.99,-47.93 213.99,-47.93"/>
</g>
</g>
</svg>
