<?xml version="1.0" encoding="UTF-8" standalone="no"?>
<!DOCTYPE svg PUBLIC "-//W3C//DTD SVG 1.1//EN"
 "http://www.w3.org/Graphics/SVG/1.1/DTD/svg11.dtd">
<!-- Generated by graphviz version 14.0.2 (0)
 -->
<!-- Title: Evaluate Pages: 1 -->
<svg width="326pt" height="260pt"
 viewBox="0.00 0.00 326.00 260.00" xmlns="http://www.w3.org/2000/svg" xmlns:xlink="http://www.w3.org/1999/xlink">
<g id="graph0" class="graph" transform="scale(1 1) rotate(0) translate(4 256)">
<title>Evaluate</title>
<polygon fill="white" stroke="none" points="-4,4 -4,-256 322.23,-256 322.23,4 -4,4"/>
<!-- A -->
<g id="node1" class="node">
<title>A</title>
<polygon fill="#87ceeb" stroke="black" points="209.73,-252 94.88,-252 94.88,-216 209.73,-216 209.73,-252"/>
<text xml:space="preserve" text-anchor="middle" x="152.3" y="-229.8" font-family="Arial" font-size="14.00" fill="#4682b4">Evaluate Speed</text>
</g>
<!-- B -->
<g id="node2" class="node">
<title>B</title>
<polygon fill="#87ceeb" stroke="black" points="243.95,-180 60.65,-180 60.65,-144 243.95,-144 243.95,-180"/>
<text xml:space="preserve" text-anchor="middle" x="152.3" y="-157.8" font-family="Arial" font-size="14.00" fill="#4682b4">Across Pages and Devices</text>
</g>
<!-- A&#45;&gt;B -->
<g id="edge1" class="edge">
<title>A&#45;&gt;B</title>
<path fill="none" stroke="black" d="M152.3,-215.83C152.3,-215.83 152.3,-191.93 152.3,-191.93"/>
<polygon fill="black" stroke="black" points="155.8,-191.93 152.3,-181.93 148.8,-191.93 155.8,-191.93"/>
</g>
<!-- C -->
<g id="node3" class="node">
<title>C</title>
<polygon fill="#87ceeb" stroke="black" points="213.6,-108 91.01,-108 91.01,-72 213.6,-72 213.6,-108"/>
<text xml:space="preserve" text-anchor="middle" x="152.3" y="-85.8" font-family="Arial" font-size="14.00" fill="#4682b4">Consider Factors</text>
</g>
<!-- B&#45;&gt;C -->
<g id="edge2" class="edge">
<title>B&#45;&gt;C</title>
<path fill="none" stroke="black" d="M152.3,-143.83C152.3,-143.83 152.3,-119.93 152.3,-119.93"/>
<polygon fill="black" stroke="black" points="155.8,-119.93 152.3,-109.93 148.8,-119.93 155.8,-119.93"/>
</g>
<!-- D -->
<g id="node4" class="node">
<title>D</title>
<polygon fill="#87ceeb" stroke="black" points="136.61,-36 0,-36 0,0 136.61,0 136.61,-36"/>
<text xml:space="preserve" text-anchor="middle" x="68.3" y="-13.8" font-family="Arial" font-size="14.00" fill="#4682b4">Image Optimization</text>
</g>
<!-- C&#45;&gt;D -->
<g id="edge3" class="edge">
<title>C&#45;&gt;D</title>
<path fill="none" stroke="black" d="M113.81,-71.83C113.81,-71.83 113.81,-47.93 113.81,-47.93"/>
<polygon fill="black" stroke="black" points="117.31,-47.93 113.81,-37.93 110.31,-47.93 117.31,-47.93"/>
</g>
<!-- E -->
<g id="node5" class="node">
<title>E</title>
<polygon fill="#87ceeb" stroke="black" points="318.23,-36 154.38,-36 154.38,0 318.23,0 318.23,-36"/>
<text xml:space="preserve" text-anchor="middle" x="236.3" y="-13.8" font-family="Arial" font-size="14.00" fill="#4682b4">Server Responsiveness</text>
</g>
<!-- C&#45;&gt;E -->
<g id="edge4" class="edge">
<title>C&#45;&gt;E</title>
<path fill="none" stroke="black" d="M183.99,-71.83C183.99,-71.83 183.99,-47.93 183.99,-47.93"/>
<polygon fill="black" stroke="black" points="187.49,-47.93 183.99,-37.93 180.49,-47.93 187.49,-47.93"/>
</g>
</g>
</svg>
