<?xml version="1.0" encoding="UTF-8" standalone="no"?>
<!DOCTYPE svg PUBLIC "-//W3C//DTD SVG 1.1//EN"
 "http://www.w3.org/Graphics/SVG/1.1/DTD/svg11.dtd">
<!-- Generated by graphviz version 14.0.2 (0)
 -->
<!-- Title: Feedback Pages: 1 -->
<svg width="292pt" height="188pt"
 viewBox="0.00 0.00 292.00 188.00" xmlns="http://www.w3.org/2000/svg" xmlns:xlink="http://www.w3.org/1999/xlink">
<g id="graph0" class="graph" transform="scale(1 1) rotate(0) translate(4 184)">
<title>Feedback</title>
<polygon fill="white" stroke="none" points="-4,4 -4,-184 287.73,-184 287.73,4 -4,4"/>
<!-- A -->
<g id="node1" class="node">
<title>A</title>
<polygon fill="#87ceeb" stroke="black" points="240.02,-180 87.07,-180 87.07,-144 240.02,-144 240.02,-180"/>
<text xml:space="preserve" text-anchor="middle" x="163.54" y="-157.8" font-family="Arial" font-size="14.00" fill="#4682b4">Feedback mechanism</text>
</g>
<!-- B -->
<g id="node2" class="node">
<title>B</title>
<polygon fill="#87ceeb" stroke="black" points="177.08,-108 0,-108 0,-72 177.08,-72 177.08,-108"/>
<text xml:space="preserve" text-anchor="middle" x="88.54" y="-85.8" font-family="Arial" font-size="14.00" fill="#4682b4">Regular meeting sessions</text>
</g>
<!-- A&#45;&gt;B -->
<g id="edge1" class="edge">
<title>A&#45;&gt;B</title>
<path fill="none" stroke="black" d="M132.07,-143.83C132.07,-143.83 132.07,-119.93 132.07,-119.93"/>
<polygon fill="black" stroke="black" points="135.57,-119.93 132.07,-109.93 128.57,-119.93 135.57,-119.93"/>
</g>
<!-- C -->
<g id="node3" class="node">
<title>C</title>
<polygon fill="#87ceeb" stroke="black" points="283.73,-108 195.35,-108 195.35,-72 283.73,-72 283.73,-108"/>
<text xml:space="preserve" text-anchor="middle" x="239.54" y="-85.8" font-family="Arial" font-size="14.00" fill="#4682b4">Interactions</text>
</g>
<!-- A&#45;&gt;C -->
<g id="edge2" class="edge">
<title>A&#45;&gt;C</title>
<path fill="none" stroke="black" d="M217.69,-143.83C217.69,-143.83 217.69,-119.93 217.69,-119.93"/>
<polygon fill="black" stroke="black" points="221.19,-119.93 217.69,-109.93 214.19,-119.93 221.19,-119.93"/>
</g>
<!-- D -->
<g id="node4" class="node">
<title>D</title>
<polygon fill="#87ceeb" stroke="black" points="264.92,-36 62.16,-36 62.16,0 264.92,0 264.92,-36"/>
<text xml:space="preserve" text-anchor="middle" x="163.54" y="-13.8" font-family="Arial" font-size="14.00" fill="#4682b4">Provide constructive feedback</text>
</g>
<!-- B&#45;&gt;D -->
<g id="edge3" class="edge">
<title>B&#45;&gt;D</title>
<path fill="none" stroke="black" d="M119.62,-71.83C119.62,-71.83 119.62,-47.93 119.62,-47.93"/>
<polygon fill="black" stroke="black" points="123.12,-47.93 119.62,-37.93 116.12,-47.93 123.12,-47.93"/>
</g>
<!-- C&#45;&gt;D -->
<g id="edge4" class="edge">
<title>C&#45;&gt;D</title>
<path fill="none" stroke="black" d="M230.14,-71.83C230.14,-71.83 230.14,-47.93 230.14,-47.93"/>
<polygon fill="black" stroke="black" points="233.64,-47.93 230.14,-37.93 226.64,-47.93 233.64,-47.93"/>
</g>
</g>
</svg>
