<?xml version="1.0" encoding="UTF-8" standalone="no"?>
<!DOCTYPE svg PUBLIC "-//W3C//DTD SVG 1.1//EN"
 "http://www.w3.org/Graphics/SVG/1.1/DTD/svg11.dtd">
<!-- Generated by graphviz version 14.0.2 (0)
 -->
<!-- Title: Flowchart Pages: 1 -->
<svg width="570pt" height="188pt"
 viewBox="0.00 0.00 570.00 188.00" xmlns="http://www.w3.org/2000/svg" xmlns:xlink="http://www.w3.org/1999/xlink">
<g id="graph0" class="graph" transform="scale(1 1) rotate(0) translate(4 184)">
<title>Flowchart</title>
<polygon fill="white" stroke="none" points="-4,4 -4,-184 565.9,-184 565.9,4 -4,4"/>
<!-- A -->
<g id="node1" class="node">
<title>A</title>
<polygon fill="#ffd700" stroke="black" points="216.81,-180 30.39,-162 216.81,-144 403.23,-162 216.81,-180"/>
<text xml:space="preserve" text-anchor="middle" x="216.81" y="-157.8" font-family="Arial" font-size="14.00" fill="#daa520">Is object inside a decorator?</text>
</g>
<!-- B -->
<g id="node2" class="node">
<title>B</title>
<polygon fill="#87ceeb" stroke="black" points="143.62,-108 0,-108 0,-72 143.62,-72 143.62,-108"/>
<text xml:space="preserve" text-anchor="middle" x="71.81" y="-85.8" font-family="Arial" font-size="14.00" fill="#4682b4">Translate/Edit object</text>
</g>
<!-- A&#45;&gt;B -->
<g id="edge1" class="edge">
<title>A&#45;&gt;B</title>
<path fill="none" stroke="black" d="M87,-156.35C87,-156.35 87,-119.86 87,-119.86"/>
<polygon fill="black" stroke="black" points="90.51,-119.86 87,-109.86 83.51,-119.86 90.51,-119.86"/>
</g>
<!-- C -->
<g id="node3" class="node">
<title>C</title>
<polygon fill="#ffd700" stroke="black" points="361.81,-108 161.72,-90 361.81,-72 561.9,-90 361.81,-108"/>
<text xml:space="preserve" text-anchor="middle" x="361.81" y="-85.8" font-family="Arial" font-size="14.00" fill="#daa520">Is decorator translated/edited?</text>
</g>
<!-- A&#45;&gt;C -->
<g id="edge2" class="edge">
<title>A&#45;&gt;C</title>
<path fill="none" stroke="black" d="M282.47,-150.11C282.47,-150.11 282.47,-112.71 282.47,-112.71"/>
<polygon fill="black" stroke="black" points="285.97,-112.71 282.47,-102.71 278.97,-112.71 285.97,-112.71"/>
</g>
<!-- D -->
<g id="node4" class="node">
<title>D</title>
<polygon fill="#87ceeb" stroke="black" points="367.61,-36 252.01,-36 252.01,0 367.61,0 367.61,-36"/>
<text xml:space="preserve" text-anchor="middle" x="309.81" y="-13.8" font-family="Arial" font-size="14.00" fill="#4682b4">Translate object</text>
</g>
<!-- C&#45;&gt;D -->
<g id="edge3" class="edge">
<title>C&#45;&gt;D</title>
<path fill="none" stroke="black" d="M309.81,-76.46C309.81,-76.46 309.81,-47.89 309.81,-47.89"/>
<polygon fill="black" stroke="black" points="313.31,-47.89 309.81,-37.89 306.31,-47.89 313.31,-47.89"/>
</g>
<!-- E -->
<g id="node5" class="node">
<title>E</title>
<polygon fill="#87ceeb" stroke="black" points="439.81,-36 385.81,-36 385.81,0 439.81,0 439.81,-36"/>
<text xml:space="preserve" text-anchor="middle" x="412.81" y="-13.8" font-family="Arial" font-size="14.00" fill="#4682b4">End</text>
</g>
<!-- C&#45;&gt;E -->
<g id="edge4" class="edge">
<title>C&#45;&gt;E</title>
<path fill="none" stroke="black" d="M412.81,-76.12C412.81,-76.12 412.81,-47.99 412.81,-47.99"/>
<polygon fill="black" stroke="black" points="416.31,-47.99 412.81,-37.99 409.31,-47.99 416.31,-47.99"/>
</g>
</g>
</svg>
