<?xml version="1.0" encoding="UTF-8" standalone="no"?>
<!DOCTYPE svg PUBLIC "-//W3C//DTD SVG 1.1//EN"
 "http://www.w3.org/Graphics/SVG/1.1/DTD/svg11.dtd">
<!-- Generated by graphviz version 14.0.2 (0)
 -->
<!-- Title: Freelance Pages: 1 -->
<svg width="692pt" height="404pt"
 viewBox="0.00 0.00 692.00 404.00" xmlns="http://www.w3.org/2000/svg" xmlns:xlink="http://www.w3.org/1999/xlink">
<g id="graph0" class="graph" transform="scale(1 1) rotate(0) translate(4 400)">
<title>Freelance</title>
<polygon fill="white" stroke="none" points="-4,4 -4,-400 687.98,-400 687.98,4 -4,4"/>
<!-- A -->
<g id="node1" class="node">
<title>A</title>
<polygon fill="#87ceeb" stroke="black" points="583.86,-396 457.38,-396 457.38,-360 583.86,-360 583.86,-396"/>
<text xml:space="preserve" text-anchor="middle" x="520.62" y="-373.8" font-family="Arial" font-size="14.00" fill="#4682b4">Freelance Trainer</text>
</g>
<!-- B -->
<g id="node2" class="node">
<title>B</title>
<polygon fill="#87ceeb" stroke="black" points="550.84,-324 280.4,-324 280.4,-288 550.84,-288 550.84,-324"/>
<text xml:space="preserve" text-anchor="middle" x="415.62" y="-301.8" font-family="Arial" font-size="14.00" fill="#4682b4">Senior Executive &#45; Talent Transformation</text>
</g>
<!-- A&#45;&gt;B -->
<g id="edge1" class="edge">
<title>A&#45;&gt;B</title>
<path fill="none" stroke="black" d="M504.11,-359.83C504.11,-359.83 504.11,-335.93 504.11,-335.93"/>
<polygon fill="black" stroke="black" points="507.61,-335.93 504.11,-325.93 500.61,-335.93 507.61,-335.93"/>
</g>
<!-- K -->
<g id="node11" class="node">
<title>K</title>
<polygon fill="#87ceeb" stroke="black" points="683.98,-324 569.26,-324 569.26,-288 683.98,-288 683.98,-324"/>
<text xml:space="preserve" text-anchor="middle" x="626.62" y="-301.8" font-family="Arial" font-size="14.00" fill="#4682b4">July&#39;12 &#45; Nov&#39;16</text>
</g>
<!-- A&#45;&gt;K -->
<g id="edge10" class="edge">
<title>A&#45;&gt;K</title>
<path fill="none" stroke="black" d="M576.56,-359.83C576.56,-359.83 576.56,-335.93 576.56,-335.93"/>
<polygon fill="black" stroke="black" points="580.06,-335.93 576.56,-325.93 573.06,-335.93 580.06,-335.93"/>
</g>
<!-- C -->
<g id="node3" class="node">
<title>C</title>
<polygon fill="#87ceeb" stroke="black" points="447.36,-252 169.88,-252 169.88,-216 447.36,-216 447.36,-252"/>
<text xml:space="preserve" text-anchor="middle" x="308.62" y="-229.8" font-family="Arial" font-size="14.00" fill="#4682b4">Deputy Manager Learning &amp; Development</text>
</g>
<!-- B&#45;&gt;C -->
<g id="edge2" class="edge">
<title>B&#45;&gt;C</title>
<path fill="none" stroke="black" d="M363.88,-287.83C363.88,-287.83 363.88,-263.93 363.88,-263.93"/>
<polygon fill="black" stroke="black" points="367.38,-263.93 363.88,-253.93 360.38,-263.93 367.38,-263.93"/>
</g>
<!-- G -->
<g id="node7" class="node">
<title>G</title>
<polygon fill="#87ceeb" stroke="black" points="579.6,-252 465.64,-252 465.64,-216 579.6,-216 579.6,-252"/>
<text xml:space="preserve" text-anchor="middle" x="522.62" y="-229.8" font-family="Arial" font-size="14.00" fill="#4682b4">Dec&#39;16 &#45; Feb&#39;18</text>
</g>
<!-- B&#45;&gt;G -->
<g id="edge6" class="edge">
<title>B&#45;&gt;G</title>
<path fill="none" stroke="black" d="M508.24,-287.83C508.24,-287.83 508.24,-263.93 508.24,-263.93"/>
<polygon fill="black" stroke="black" points="511.74,-263.93 508.24,-253.93 504.74,-263.93 511.74,-263.93"/>
</g>
<!-- D -->
<g id="node4" class="node">
<title>D</title>
<polygon fill="#87ceeb" stroke="black" points="333.02,-180 88.22,-180 88.22,-144 333.02,-144 333.02,-180"/>
<text xml:space="preserve" text-anchor="middle" x="210.62" y="-157.8" font-family="Arial" font-size="14.00" fill="#4682b4">Team Lead Learning &amp; Development</text>
</g>
<!-- C&#45;&gt;D -->
<g id="edge3" class="edge">
<title>C&#45;&gt;D</title>
<path fill="none" stroke="black" d="M251.45,-215.83C251.45,-215.83 251.45,-191.93 251.45,-191.93"/>
<polygon fill="black" stroke="black" points="254.95,-191.93 251.45,-181.93 247.95,-191.93 254.95,-191.93"/>
</g>
<!-- H -->
<g id="node8" class="node">
<title>H</title>
<polygon fill="#87ceeb" stroke="black" points="464.59,-180 350.65,-180 350.65,-144 464.59,-144 464.59,-180"/>
<text xml:space="preserve" text-anchor="middle" x="407.62" y="-157.8" font-family="Arial" font-size="14.00" fill="#4682b4">July&#39;18 &#45; Mar&#39;22</text>
</g>
<!-- C&#45;&gt;H -->
<g id="edge7" class="edge">
<title>C&#45;&gt;H</title>
<path fill="none" stroke="black" d="M399.01,-215.83C399.01,-215.83 399.01,-191.93 399.01,-191.93"/>
<polygon fill="black" stroke="black" points="402.51,-191.93 399.01,-181.93 395.51,-191.93 402.51,-191.93"/>
</g>
<!-- E -->
<g id="node5" class="node">
<title>E</title>
<polygon fill="#87ceeb" stroke="black" points="229.24,-108 0,-108 0,-72 229.24,-72 229.24,-108"/>
<text xml:space="preserve" text-anchor="middle" x="114.62" y="-85.8" font-family="Arial" font-size="14.00" fill="#4682b4">Manager Learning &amp; Development</text>
</g>
<!-- D&#45;&gt;E -->
<g id="edge4" class="edge">
<title>D&#45;&gt;E</title>
<path fill="none" stroke="black" d="M158.73,-143.83C158.73,-143.83 158.73,-119.93 158.73,-119.93"/>
<polygon fill="black" stroke="black" points="162.23,-119.93 158.73,-109.93 155.23,-119.93 162.23,-119.93"/>
</g>
<!-- I -->
<g id="node9" class="node">
<title>I</title>
<polygon fill="#87ceeb" stroke="black" points="368.49,-108 246.75,-108 246.75,-72 368.49,-72 368.49,-108"/>
<text xml:space="preserve" text-anchor="middle" x="307.62" y="-85.8" font-family="Arial" font-size="14.00" fill="#4682b4">June&#39;22 &#45; May&#39;23</text>
</g>
<!-- D&#45;&gt;I -->
<g id="edge8" class="edge">
<title>D&#45;&gt;I</title>
<path fill="none" stroke="black" d="M289.89,-143.83C289.89,-143.83 289.89,-119.93 289.89,-119.93"/>
<polygon fill="black" stroke="black" points="293.39,-119.93 289.89,-109.93 286.39,-119.93 293.39,-119.93"/>
</g>
<!-- F -->
<g id="node6" class="node">
<title>F</title>
<polygon fill="#87ceeb" stroke="black" points="91.74,-36 27.5,-36 27.5,0 91.74,0 91.74,-36"/>
<text xml:space="preserve" text-anchor="middle" x="59.62" y="-13.8" font-family="Arial" font-size="14.00" fill="#4682b4">Present</text>
</g>
<!-- E&#45;&gt;F -->
<g id="edge5" class="edge">
<title>E&#45;&gt;F</title>
<path fill="none" stroke="black" d="M59.62,-71.83C59.62,-71.83 59.62,-47.93 59.62,-47.93"/>
<polygon fill="black" stroke="black" points="63.12,-47.93 59.62,-37.93 56.12,-47.93 63.12,-47.93"/>
</g>
<!-- J -->
<g id="node10" class="node">
<title>J</title>
<polygon fill="#87ceeb" stroke="black" points="231.31,-36 109.93,-36 109.93,0 231.31,0 231.31,-36"/>
<text xml:space="preserve" text-anchor="middle" x="170.62" y="-13.8" font-family="Arial" font-size="14.00" fill="#4682b4">May&#39;23 &#45; Present</text>
</g>
<!-- E&#45;&gt;J -->
<g id="edge9" class="edge">
<title>E&#45;&gt;J</title>
<path fill="none" stroke="black" d="M169.58,-71.83C169.58,-71.83 169.58,-47.93 169.58,-47.93"/>
<polygon fill="black" stroke="black" points="173.08,-47.93 169.58,-37.93 166.08,-47.93 173.08,-47.93"/>
</g>
</g>
</svg>
