<?xml version="1.0" encoding="UTF-8" standalone="no"?>
<!DOCTYPE svg PUBLIC "-//W3C//DTD SVG 1.1//EN"
 "http://www.w3.org/Graphics/SVG/1.1/DTD/svg11.dtd">
<!-- Generated by graphviz version 14.0.2 (0)
 -->
<!-- Title: Hanger Pages: 1 -->
<svg width="385pt" height="188pt"
 viewBox="0.00 0.00 385.00 188.00" xmlns="http://www.w3.org/2000/svg" xmlns:xlink="http://www.w3.org/1999/xlink">
<g id="graph0" class="graph" transform="scale(1 1) rotate(0) translate(4 184)">
<title>Hanger</title>
<polygon fill="white" stroke="none" points="-4,4 -4,-184 380.74,-184 380.74,4 -4,4"/>
<!-- A -->
<g id="node1" class="node">
<title>A</title>
<polygon fill="#87ceeb" stroke="black" points="263.88,-180 183.29,-180 183.29,-144 263.88,-144 263.88,-180"/>
<text xml:space="preserve" text-anchor="middle" x="223.59" y="-157.8" font-family="Arial" font-size="14.00" fill="#4682b4">Head Text</text>
</g>
<!-- B -->
<g id="node2" class="node">
<title>B</title>
<polygon fill="#87ceeb" stroke="black" points="210.17,-108 79,-108 79,-72 210.17,-72 210.17,-108"/>
<text xml:space="preserve" text-anchor="middle" x="144.59" y="-85.8" font-family="Arial" font-size="14.00" fill="#4682b4">Level 1 Main Child</text>
</g>
<!-- A&#45;&gt;B -->
<g id="edge1" class="edge">
<title>A&#45;&gt;B</title>
<path fill="none" stroke="black" d="M196.73,-143.83C196.73,-143.83 196.73,-119.93 196.73,-119.93"/>
<polygon fill="black" stroke="black" points="200.23,-119.93 196.73,-109.93 193.23,-119.93 200.23,-119.93"/>
</g>
<!-- C -->
<g id="node3" class="node">
<title>C</title>
<polygon fill="#87ceeb" stroke="black" points="376.74,-108 228.43,-108 228.43,-72 376.74,-72 376.74,-108"/>
<text xml:space="preserve" text-anchor="middle" x="302.59" y="-85.8" font-family="Arial" font-size="14.00" fill="#4682b4">Level 1 Second Child</text>
</g>
<!-- A&#45;&gt;C -->
<g id="edge2" class="edge">
<title>A&#45;&gt;C</title>
<path fill="none" stroke="black" d="M246.16,-143.83C246.16,-143.83 246.16,-119.93 246.16,-119.93"/>
<polygon fill="black" stroke="black" points="249.66,-119.93 246.16,-109.93 242.66,-119.93 249.66,-119.93"/>
</g>
<!-- D -->
<g id="node4" class="node">
<title>D</title>
<polygon fill="#87ceeb" stroke="black" points="131.17,-36 0,-36 0,0 131.17,0 131.17,-36"/>
<text xml:space="preserve" text-anchor="middle" x="65.59" y="-13.8" font-family="Arial" font-size="14.00" fill="#4682b4">Level 2 Main Child</text>
</g>
<!-- B&#45;&gt;D -->
<g id="edge3" class="edge">
<title>B&#45;&gt;D</title>
<path fill="none" stroke="black" d="M105.09,-71.83C105.09,-71.83 105.09,-47.93 105.09,-47.93"/>
<polygon fill="black" stroke="black" points="108.59,-47.93 105.09,-37.93 101.59,-47.93 108.59,-47.93"/>
</g>
<!-- E -->
<g id="node5" class="node">
<title>E</title>
<polygon fill="#87ceeb" stroke="black" points="297.74,-36 149.43,-36 149.43,0 297.74,0 297.74,-36"/>
<text xml:space="preserve" text-anchor="middle" x="223.59" y="-13.8" font-family="Arial" font-size="14.00" fill="#4682b4">Level 2 Second Child</text>
</g>
<!-- B&#45;&gt;E -->
<g id="edge4" class="edge">
<title>B&#45;&gt;E</title>
<path fill="none" stroke="black" d="M179.8,-71.83C179.8,-71.83 179.8,-47.93 179.8,-47.93"/>
<polygon fill="black" stroke="black" points="183.3,-47.93 179.8,-37.93 176.3,-47.93 183.3,-47.93"/>
</g>
</g>
</svg>
