<?xml version="1.0" encoding="UTF-8" standalone="no"?>
<!DOCTYPE svg PUBLIC "-//W3C//DTD SVG 1.1//EN"
 "http://www.w3.org/Graphics/SVG/1.1/DTD/svg11.dtd">
<!-- Generated by graphviz version 14.0.2 (0)
 -->
<!-- Title: Is Pages: 1 -->
<svg width="296pt" height="260pt"
 viewBox="0.00 0.00 296.00 260.00" xmlns="http://www.w3.org/2000/svg" xmlns:xlink="http://www.w3.org/1999/xlink">
<g id="graph0" class="graph" transform="scale(1 1) rotate(0) translate(4 256)">
<title>Is</title>
<polygon fill="white" stroke="none" points="-4,4 -4,-256 292.24,-256 292.24,4 -4,4"/>
<!-- A -->
<g id="node1" class="node">
<title>A</title>
<polygon fill="#87ceeb" stroke="black" points="207.2,-252 49.54,-252 49.54,-216 207.2,-216 207.2,-252"/>
<text xml:space="preserve" text-anchor="middle" x="128.37" y="-229.8" font-family="Arial" font-size="14.00" fill="#4682b4">Is Machine Language?</text>
</g>
<!-- B -->
<g id="node2" class="node">
<title>B</title>
<polygon fill="#87ceeb" stroke="black" points="118.74,-180 0,-180 0,-144 118.74,-144 118.74,-180"/>
<text xml:space="preserve" text-anchor="middle" x="59.37" y="-157.8" font-family="Arial" font-size="14.00" fill="#4682b4">Foundation of AI</text>
</g>
<!-- A&#45;&gt;B -->
<g id="edge1" class="edge">
<title>A&#45;&gt;B</title>
<path fill="none" stroke="black" d="M84.14,-215.83C84.14,-215.83 84.14,-191.93 84.14,-191.93"/>
<polygon fill="black" stroke="black" points="87.64,-191.93 84.14,-181.93 80.64,-191.93 87.64,-191.93"/>
</g>
<!-- C -->
<g id="node3" class="node">
<title>C</title>
<polygon fill="#87ceeb" stroke="black" points="257.5,-180 137.23,-180 137.23,-144 257.5,-144 257.5,-180"/>
<text xml:space="preserve" text-anchor="middle" x="197.37" y="-157.8" font-family="Arial" font-size="14.00" fill="#4682b4">Teach Computer</text>
</g>
<!-- A&#45;&gt;C -->
<g id="edge2" class="edge">
<title>A&#45;&gt;C</title>
<path fill="none" stroke="black" d="M172.22,-215.83C172.22,-215.83 172.22,-191.93 172.22,-191.93"/>
<polygon fill="black" stroke="black" points="175.72,-191.93 172.22,-181.93 168.72,-191.93 175.72,-191.93"/>
</g>
<!-- D -->
<g id="node4" class="node">
<title>D</title>
<polygon fill="#87ceeb" stroke="black" points="288.24,-108 106.5,-108 106.5,-72 288.24,-72 288.24,-108"/>
<text xml:space="preserve" text-anchor="middle" x="197.37" y="-85.8" font-family="Arial" font-size="14.00" fill="#4682b4">Predictions or Conclusions</text>
</g>
<!-- C&#45;&gt;D -->
<g id="edge3" class="edge">
<title>C&#45;&gt;D</title>
<path fill="none" stroke="black" d="M197.37,-143.83C197.37,-143.83 197.37,-119.93 197.37,-119.93"/>
<polygon fill="black" stroke="black" points="200.87,-119.93 197.37,-109.93 193.87,-119.93 200.87,-119.93"/>
</g>
<!-- E -->
<g id="node5" class="node">
<title>E</title>
<polygon fill="#87ceeb" stroke="black" points="238.43,-36 156.31,-36 156.31,0 238.43,0 238.43,-36"/>
<text xml:space="preserve" text-anchor="middle" x="197.37" y="-13.8" font-family="Arial" font-size="14.00" fill="#4682b4">From Data</text>
</g>
<!-- D&#45;&gt;E -->
<g id="edge4" class="edge">
<title>D&#45;&gt;E</title>
<path fill="none" stroke="black" d="M197.37,-71.83C197.37,-71.83 197.37,-47.93 197.37,-47.93"/>
<polygon fill="black" stroke="black" points="200.87,-47.93 197.37,-37.93 193.87,-47.93 200.87,-47.93"/>
</g>
</g>
</svg>
