<?xml version="1.0" encoding="UTF-8" standalone="no"?>
<!DOCTYPE svg PUBLIC "-//W3C//DTD SVG 1.1//EN"
 "http://www.w3.org/Graphics/SVG/1.1/DTD/svg11.dtd">
<!-- Generated by graphviz version 14.0.2 (0)
 -->
<!-- Title: Jupiter Pages: 1 -->
<svg width="229pt" height="260pt"
 viewBox="0.00 0.00 229.00 260.00" xmlns="http://www.w3.org/2000/svg" xmlns:xlink="http://www.w3.org/1999/xlink">
<g id="graph0" class="graph" transform="scale(1 1) rotate(0) translate(4 256)">
<title>Jupiter</title>
<polygon fill="white" stroke="none" points="-4,4 -4,-256 224.61,-256 224.61,4 -4,4"/>
<!-- A -->
<g id="node1" class="node">
<title>A</title>
<polygon fill="#87ceeb" stroke="black" points="116.71,-252 6.56,-252 6.56,-216 116.71,-216 116.71,-252"/>
<text xml:space="preserve" text-anchor="middle" x="61.63" y="-229.8" font-family="Arial" font-size="14.00" fill="#4682b4">Is Jupiter Gas?</text>
</g>
<!-- B -->
<g id="node2" class="node">
<title>B</title>
<polygon fill="#87ceeb" stroke="black" points="99.26,-36 0,-36 0,0 99.26,0 99.26,-36"/>
<text xml:space="preserve" text-anchor="middle" x="49.63" y="-13.8" font-family="Arial" font-size="14.00" fill="#4682b4">Planet is Gas</text>
</g>
<!-- A&#45;&gt;B -->
<g id="edge1" class="edge">
<title>A&#45;&gt;B</title>
<path fill="none" stroke="black" d="M28.39,-215.58C28.39,-215.58 28.39,-47.88 28.39,-47.88"/>
<polygon fill="black" stroke="black" points="31.89,-47.88 28.39,-37.88 24.89,-47.88 31.89,-47.88"/>
</g>
<!-- C -->
<g id="node3" class="node">
<title>C</title>
<polygon fill="#87ceeb" stroke="black" points="151.03,-180 50.23,-180 50.23,-144 151.03,-144 151.03,-180"/>
<text xml:space="preserve" text-anchor="middle" x="100.63" y="-157.8" font-family="Arial" font-size="14.00" fill="#4682b4">Gravity High?</text>
</g>
<!-- A&#45;&gt;C -->
<g id="edge2" class="edge">
<title>A&#45;&gt;C</title>
<path fill="none" stroke="black" d="M83.47,-215.83C83.47,-215.83 83.47,-191.93 83.47,-191.93"/>
<polygon fill="black" stroke="black" points="86.97,-191.93 83.47,-181.93 79.97,-191.93 86.97,-191.93"/>
</g>
<!-- C&#45;&gt;B -->
<g id="edge3" class="edge">
<title>C&#45;&gt;B</title>
<path fill="none" stroke="black" d="M69.44,-143.76C69.44,-143.76 69.44,-47.6 69.44,-47.6"/>
<polygon fill="black" stroke="black" points="72.94,-47.6 69.44,-37.6 65.94,-47.6 72.94,-47.6"/>
</g>
<!-- D -->
<g id="node4" class="node">
<title>D</title>
<polygon fill="#87ceeb" stroke="black" points="220.61,-108 88.66,-108 88.66,-72 220.61,-72 220.61,-108"/>
<text xml:space="preserve" text-anchor="middle" x="154.63" y="-85.8" font-family="Arial" font-size="14.00" fill="#4682b4">Atmosphere Held?</text>
</g>
<!-- C&#45;&gt;D -->
<g id="edge4" class="edge">
<title>C&#45;&gt;D</title>
<path fill="none" stroke="black" d="M119.84,-143.83C119.84,-143.83 119.84,-119.93 119.84,-119.93"/>
<polygon fill="black" stroke="black" points="123.34,-119.93 119.84,-109.93 116.34,-119.93 123.34,-119.93"/>
</g>
<!-- D&#45;&gt;B -->
<g id="edge6" class="edge">
<title>D&#45;&gt;B</title>
<path fill="none" stroke="black" d="M93.96,-71.83C93.96,-71.83 93.96,-47.93 93.96,-47.93"/>
<polygon fill="black" stroke="black" points="97.46,-47.93 93.96,-37.93 90.46,-47.93 97.46,-47.93"/>
</g>
<!-- E -->
<g id="node5" class="node">
<title>E</title>
<polygon fill="#87ceeb" stroke="black" points="214.48,-36 116.79,-36 116.79,0 214.48,0 214.48,-36"/>
<text xml:space="preserve" text-anchor="middle" x="165.63" y="-13.8" font-family="Arial" font-size="14.00" fill="#4682b4">Earth Gravity</text>
</g>
<!-- D&#45;&gt;E -->
<g id="edge5" class="edge">
<title>D&#45;&gt;E</title>
<path fill="none" stroke="black" d="M165.63,-71.83C165.63,-71.83 165.63,-47.93 165.63,-47.93"/>
<polygon fill="black" stroke="black" points="169.13,-47.93 165.63,-37.93 162.13,-47.93 169.13,-47.93"/>
</g>
</g>
</svg>
