<?xml version="1.0" encoding="UTF-8" standalone="no"?>
<!DOCTYPE svg PUBLIC "-//W3C//DTD SVG 1.1//EN"
 "http://www.w3.org/Graphics/SVG/1.1/DTD/svg11.dtd">
<!-- Generated by graphviz version 14.0.2 (0)
 -->
<!-- Title: Logo Pages: 1 -->
<svg width="719pt" height="332pt"
 viewBox="0.00 0.00 719.00 332.00" xmlns="http://www.w3.org/2000/svg" xmlns:xlink="http://www.w3.org/1999/xlink">
<g id="graph0" class="graph" transform="scale(1 1) rotate(0) translate(4 328)">
<title>Logo</title>
<polygon fill="white" stroke="none" points="-4,4 -4,-328 715.36,-328 715.36,4 -4,4"/>
<!-- A -->
<g id="node1" class="node">
<title>A</title>
<polygon fill="#87ceeb" stroke="black" points="418.3,-324 323.69,-324 323.69,-288 418.3,-288 418.3,-324"/>
<text xml:space="preserve" text-anchor="middle" x="370.99" y="-301.8" font-family="Arial" font-size="14.00" fill="#4682b4">Logo Design</text>
</g>
<!-- B -->
<g id="node2" class="node">
<title>B</title>
<polygon fill="#87ceeb" stroke="black" points="221.04,-252 64.95,-252 64.95,-216 221.04,-216 221.04,-252"/>
<text xml:space="preserve" text-anchor="middle" x="142.99" y="-229.8" font-family="Arial" font-size="14.00" fill="#4682b4">Create Logo Concepts</text>
</g>
<!-- A&#45;&gt;B -->
<g id="edge1" class="edge">
<title>A&#45;&gt;B</title>
<path fill="none" stroke="black" d="M323.2,-306C256.34,-306 142.99,-306 142.99,-306 142.99,-306 142.99,-263.68 142.99,-263.68"/>
<polygon fill="black" stroke="black" points="146.49,-263.68 142.99,-253.68 139.49,-263.68 146.49,-263.68"/>
</g>
<!-- D -->
<g id="node4" class="node">
<title>D</title>
<polygon fill="#87ceeb" stroke="black" points="364.46,-252 267.53,-252 267.53,-216 364.46,-216 364.46,-252"/>
<text xml:space="preserve" text-anchor="middle" x="315.99" y="-229.8" font-family="Arial" font-size="14.00" fill="#4682b4">Color Palette</text>
</g>
<!-- A&#45;&gt;D -->
<g id="edge3" class="edge">
<title>A&#45;&gt;D</title>
<path fill="none" stroke="black" d="M344.07,-287.83C344.07,-287.83 344.07,-263.93 344.07,-263.93"/>
<polygon fill="black" stroke="black" points="347.57,-263.93 344.07,-253.93 340.57,-263.93 347.57,-263.93"/>
</g>
<!-- H -->
<g id="node8" class="node">
<title>H</title>
<polygon fill="#87ceeb" stroke="black" points="485.96,-252 396.03,-252 396.03,-216 485.96,-216 485.96,-252"/>
<text xml:space="preserve" text-anchor="middle" x="440.99" y="-229.8" font-family="Arial" font-size="14.00" fill="#4682b4">Typography</text>
</g>
<!-- A&#45;&gt;H -->
<g id="edge7" class="edge">
<title>A&#45;&gt;H</title>
<path fill="none" stroke="black" d="M407.16,-287.83C407.16,-287.83 407.16,-263.93 407.16,-263.93"/>
<polygon fill="black" stroke="black" points="410.66,-263.93 407.16,-253.93 403.66,-263.93 410.66,-263.93"/>
</g>
<!-- L -->
<g id="node12" class="node">
<title>L</title>
<polygon fill="#87ceeb" stroke="black" points="640.62,-252 541.36,-252 541.36,-216 640.62,-216 640.62,-252"/>
<text xml:space="preserve" text-anchor="middle" x="590.99" y="-229.8" font-family="Arial" font-size="14.00" fill="#4682b4">Brand Assets</text>
</g>
<!-- A&#45;&gt;L -->
<g id="edge11" class="edge">
<title>A&#45;&gt;L</title>
<path fill="none" stroke="black" d="M418.73,-306C483.43,-306 590.99,-306 590.99,-306 590.99,-306 590.99,-263.68 590.99,-263.68"/>
<polygon fill="black" stroke="black" points="594.49,-263.68 590.99,-253.68 587.49,-263.68 594.49,-263.68"/>
</g>
<!-- C -->
<g id="node3" class="node">
<title>C</title>
<polygon fill="#87ceeb" stroke="black" points="215.99,-180 0,-180 0,-144 215.99,-144 215.99,-180"/>
<text xml:space="preserve" text-anchor="middle" x="107.99" y="-157.8" font-family="Arial" font-size="14.00" fill="#4682b4">Memorable, Versatile, Resonate</text>
</g>
<!-- B&#45;&gt;C -->
<g id="edge2" class="edge">
<title>B&#45;&gt;C</title>
<path fill="none" stroke="black" d="M140.47,-215.83C140.47,-215.83 140.47,-191.93 140.47,-191.93"/>
<polygon fill="black" stroke="black" points="143.97,-191.93 140.47,-181.93 136.97,-191.93 143.97,-191.93"/>
</g>
<!-- E -->
<g id="node5" class="node">
<title>E</title>
<polygon fill="#87ceeb" stroke="black" points="383.52,-180 234.46,-180 234.46,-144 383.52,-144 383.52,-180"/>
<text xml:space="preserve" text-anchor="middle" x="308.99" y="-157.8" font-family="Arial" font-size="14.00" fill="#4682b4">Define Color Scheme</text>
</g>
<!-- D&#45;&gt;E -->
<g id="edge4" class="edge">
<title>D&#45;&gt;E</title>
<path fill="none" stroke="black" d="M315.99,-215.83C315.99,-215.83 315.99,-191.93 315.99,-191.93"/>
<polygon fill="black" stroke="black" points="319.49,-191.93 315.99,-181.93 312.49,-191.93 319.49,-191.93"/>
</g>
<!-- F -->
<g id="node6" class="node">
<title>F</title>
<polygon fill="#87ceeb" stroke="black" points="364.98,-108 191.01,-108 191.01,-72 364.98,-72 364.98,-108"/>
<text xml:space="preserve" text-anchor="middle" x="277.99" y="-85.8" font-family="Arial" font-size="14.00" fill="#4682b4">Reflect Brand Personality</text>
</g>
<!-- E&#45;&gt;F -->
<g id="edge5" class="edge">
<title>E&#45;&gt;F</title>
<path fill="none" stroke="black" d="M299.72,-143.83C299.72,-143.83 299.72,-119.93 299.72,-119.93"/>
<polygon fill="black" stroke="black" points="303.22,-119.93 299.72,-109.93 296.22,-119.93 303.22,-119.93"/>
</g>
<!-- G -->
<g id="node7" class="node">
<title>G</title>
<polygon fill="#87ceeb" stroke="black" points="340.07,-36 215.91,-36 215.91,0 340.07,0 340.07,-36"/>
<text xml:space="preserve" text-anchor="middle" x="277.99" y="-13.8" font-family="Arial" font-size="14.00" fill="#4682b4">Evokes Emotions</text>
</g>
<!-- F&#45;&gt;G -->
<g id="edge6" class="edge">
<title>F&#45;&gt;G</title>
<path fill="none" stroke="black" d="M277.99,-71.83C277.99,-71.83 277.99,-47.93 277.99,-47.93"/>
<polygon fill="black" stroke="black" points="281.49,-47.93 277.99,-37.93 274.49,-47.93 281.49,-47.93"/>
</g>
<!-- I -->
<g id="node9" class="node">
<title>I</title>
<polygon fill="#87ceeb" stroke="black" points="494.9,-180 401.09,-180 401.09,-144 494.9,-144 494.9,-180"/>
<text xml:space="preserve" text-anchor="middle" x="447.99" y="-157.8" font-family="Arial" font-size="14.00" fill="#4682b4">Select Fonts</text>
</g>
<!-- H&#45;&gt;I -->
<g id="edge8" class="edge">
<title>H&#45;&gt;I</title>
<path fill="none" stroke="black" d="M443.52,-215.83C443.52,-215.83 443.52,-191.93 443.52,-191.93"/>
<polygon fill="black" stroke="black" points="447.02,-191.93 443.52,-181.93 440.02,-191.93 447.02,-191.93"/>
</g>
<!-- J -->
<g id="node10" class="node">
<title>J</title>
<polygon fill="#87ceeb" stroke="black" points="513.19,-108 382.79,-108 382.79,-72 513.19,-72 513.19,-108"/>
<text xml:space="preserve" text-anchor="middle" x="447.99" y="-85.8" font-family="Arial" font-size="14.00" fill="#4682b4">Complement Logo</text>
</g>
<!-- I&#45;&gt;J -->
<g id="edge9" class="edge">
<title>I&#45;&gt;J</title>
<path fill="none" stroke="black" d="M447.99,-143.83C447.99,-143.83 447.99,-119.93 447.99,-119.93"/>
<polygon fill="black" stroke="black" points="451.49,-119.93 447.99,-109.93 444.49,-119.93 451.49,-119.93"/>
</g>
<!-- K -->
<g id="node11" class="node">
<title>K</title>
<polygon fill="#87ceeb" stroke="black" points="532.2,-36 359.78,-36 359.78,0 532.2,0 532.2,-36"/>
<text xml:space="preserve" text-anchor="middle" x="445.99" y="-13.8" font-family="Arial" font-size="14.00" fill="#4682b4">Enhance Communication</text>
</g>
<!-- J&#45;&gt;K -->
<g id="edge10" class="edge">
<title>J&#45;&gt;K</title>
<path fill="none" stroke="black" d="M447.99,-71.83C447.99,-71.83 447.99,-47.93 447.99,-47.93"/>
<polygon fill="black" stroke="black" points="451.49,-47.93 447.99,-37.93 444.49,-47.93 451.49,-47.93"/>
</g>
<!-- M -->
<g id="node13" class="node">
<title>M</title>
<polygon fill="#87ceeb" stroke="black" points="663.91,-180 542.08,-180 542.08,-144 663.91,-144 663.91,-180"/>
<text xml:space="preserve" text-anchor="middle" x="602.99" y="-157.8" font-family="Arial" font-size="14.00" fill="#4682b4">Design Elements</text>
</g>
<!-- L&#45;&gt;M -->
<g id="edge12" class="edge">
<title>L&#45;&gt;M</title>
<path fill="none" stroke="black" d="M591.35,-215.83C591.35,-215.83 591.35,-191.93 591.35,-191.93"/>
<polygon fill="black" stroke="black" points="594.85,-191.93 591.35,-181.93 587.85,-191.93 594.85,-191.93"/>
</g>
<!-- N -->
<g id="node14" class="node">
<title>N</title>
<polygon fill="#87ceeb" stroke="black" points="705.86,-108 538.13,-108 538.13,-72 705.86,-72 705.86,-108"/>
<text xml:space="preserve" text-anchor="middle" x="621.99" y="-85.8" font-family="Arial" font-size="14.00" fill="#4682b4">Patterns, Icons, Imagery</text>
</g>
<!-- M&#45;&gt;N -->
<g id="edge13" class="edge">
<title>M&#45;&gt;N</title>
<path fill="none" stroke="black" d="M602.99,-143.83C602.99,-143.83 602.99,-119.93 602.99,-119.93"/>
<polygon fill="black" stroke="black" points="606.49,-119.93 602.99,-109.93 599.49,-119.93 606.49,-119.93"/>
</g>
<!-- O -->
<g id="node15" class="node">
<title>O</title>
<polygon fill="#87ceeb" stroke="black" points="711.36,-36 550.63,-36 550.63,0 711.36,0 711.36,-36"/>
<text xml:space="preserve" text-anchor="middle" x="630.99" y="-13.8" font-family="Arial" font-size="14.00" fill="#4682b4">Build Brand Ecosystem</text>
</g>
<!-- N&#45;&gt;O -->
<g id="edge14" class="edge">
<title>N&#45;&gt;O</title>
<path fill="none" stroke="black" d="M628.24,-71.83C628.24,-71.83 628.24,-47.93 628.24,-47.93"/>
<polygon fill="black" stroke="black" points="631.74,-47.93 628.24,-37.93 624.74,-47.93 631.74,-47.93"/>
</g>
</g>
</svg>
