<?xml version="1.0" encoding="UTF-8" standalone="no"?>
<!DOCTYPE svg PUBLIC "-//W3C//DTD SVG 1.1//EN"
 "http://www.w3.org/Graphics/SVG/1.1/DTD/svg11.dtd">
<!-- Generated by graphviz version 14.0.2 (0)
 -->
<!-- Title: Manager Pages: 1 -->
<svg width="566pt" height="188pt"
 viewBox="0.00 0.00 566.00 188.00" xmlns="http://www.w3.org/2000/svg" xmlns:xlink="http://www.w3.org/1999/xlink">
<g id="graph0" class="graph" transform="scale(1 1) rotate(0) translate(4 184)">
<title>Manager</title>
<polygon fill="white" stroke="none" points="-4,4 -4,-184 562.38,-184 562.38,4 -4,4"/>
<!-- A -->
<g id="node1" class="node">
<title>A</title>
<polygon fill="#87ceeb" stroke="black" points="299.32,-180 196.94,-180 196.94,-144 299.32,-144 299.32,-180"/>
<text xml:space="preserve" text-anchor="middle" x="248.13" y="-157.8" font-family="Arial" font-size="14.00" fill="#4682b4">Manager L&amp;D</text>
</g>
<!-- B -->
<g id="node2" class="node">
<title>B</title>
<polygon fill="#87ceeb" stroke="black" points="92.26,-108 0,-108 0,-72 92.26,-72 92.26,-108"/>
<text xml:space="preserve" text-anchor="middle" x="46.13" y="-85.8" font-family="Arial" font-size="14.00" fill="#4682b4">Reliance Jio</text>
</g>
<!-- A&#45;&gt;B -->
<g id="edge1" class="edge">
<title>A&#45;&gt;B</title>
<path fill="none" stroke="black" d="M196.64,-162C136.79,-162 46.13,-162 46.13,-162 46.13,-162 46.13,-119.68 46.13,-119.68"/>
<polygon fill="black" stroke="black" points="49.63,-119.68 46.13,-109.68 42.63,-119.68 49.63,-119.68"/>
</g>
<!-- C -->
<g id="node3" class="node">
<title>C</title>
<polygon fill="#87ceeb" stroke="black" points="189.65,-108 110.61,-108 110.61,-72 189.65,-72 189.65,-108"/>
<text xml:space="preserve" text-anchor="middle" x="150.13" y="-85.8" font-family="Arial" font-size="14.00" fill="#4682b4">Cognizant</text>
</g>
<!-- A&#45;&gt;C -->
<g id="edge2" class="edge">
<title>A&#45;&gt;C</title>
<path fill="none" stroke="black" d="M202.2,-143.83C202.2,-122.5 202.2,-90 202.2,-90 202.2,-90 200.99,-90 200.99,-90"/>
<polygon fill="black" stroke="black" points="201.64,-86.5 191.64,-90 201.64,-93.5 201.64,-86.5"/>
</g>
<!-- D -->
<g id="node4" class="node">
<title>D</title>
<polygon fill="#87ceeb" stroke="black" points="288.8,-108 207.46,-108 207.46,-72 288.8,-72 288.8,-108"/>
<text xml:space="preserve" text-anchor="middle" x="248.13" y="-85.8" font-family="Arial" font-size="14.00" fill="#4682b4">HDFC Life</text>
</g>
<!-- A&#45;&gt;D -->
<g id="edge3" class="edge">
<title>A&#45;&gt;D</title>
<path fill="none" stroke="black" d="M248.13,-143.83C248.13,-143.83 248.13,-119.93 248.13,-119.93"/>
<polygon fill="black" stroke="black" points="251.63,-119.93 248.13,-109.93 244.63,-119.93 251.63,-119.93"/>
</g>
<!-- E -->
<g id="node5" class="node">
<title>E</title>
<polygon fill="#87ceeb" stroke="black" points="413.65,-108 306.61,-108 306.61,-72 413.65,-72 413.65,-108"/>
<text xml:space="preserve" text-anchor="middle" x="360.13" y="-85.8" font-family="Arial" font-size="14.00" fill="#4682b4">MAX Fashions</text>
</g>
<!-- A&#45;&gt;E -->
<g id="edge4" class="edge">
<title>A&#45;&gt;E</title>
<path fill="none" stroke="black" d="M294.06,-143.83C294.06,-122.5 294.06,-90 294.06,-90 294.06,-90 295.27,-90 295.27,-90"/>
<polygon fill="black" stroke="black" points="294.67,-93.5 304.67,-90 294.67,-86.5 294.67,-93.5"/>
</g>
<!-- F -->
<g id="node6" class="node">
<title>F</title>
<polygon fill="#87ceeb" stroke="black" points="558.38,-108 431.89,-108 431.89,-72 558.38,-72 558.38,-108"/>
<text xml:space="preserve" text-anchor="middle" x="495.13" y="-85.8" font-family="Arial" font-size="14.00" fill="#4682b4">Freelance Trainer</text>
</g>
<!-- A&#45;&gt;F -->
<g id="edge5" class="edge">
<title>A&#45;&gt;F</title>
<path fill="none" stroke="black" d="M299.61,-162C372,-162 495.13,-162 495.13,-162 495.13,-162 495.13,-119.68 495.13,-119.68"/>
<polygon fill="black" stroke="black" points="498.63,-119.68 495.13,-109.68 491.63,-119.68 498.63,-119.68"/>
</g>
<!-- G -->
<g id="node7" class="node">
<title>G</title>
<polygon fill="#87ceeb" stroke="black" points="275.13,-36 221.13,-36 221.13,0 275.13,0 275.13,-36"/>
<text xml:space="preserve" text-anchor="middle" x="248.13" y="-13.8" font-family="Arial" font-size="14.00" fill="#4682b4">G</text>
</g>
<!-- B&#45;&gt;G -->
<g id="edge6" class="edge">
<title>B&#45;&gt;G</title>
<path fill="none" stroke="black" d="M46.13,-71.52C46.13,-48.45 46.13,-12 46.13,-12 46.13,-12 209.37,-12 209.37,-12"/>
<polygon fill="black" stroke="black" points="209.37,-15.5 219.37,-12 209.37,-8.5 209.37,-15.5"/>
</g>
<!-- C&#45;&gt;G -->
<g id="edge7" class="edge">
<title>C&#45;&gt;G</title>
<path fill="none" stroke="black" d="M150.13,-71.62C150.13,-52.09 150.13,-24 150.13,-24 150.13,-24 209.32,-24 209.32,-24"/>
<polygon fill="black" stroke="black" points="209.32,-27.5 219.32,-24 209.32,-20.5 209.32,-27.5"/>
</g>
<!-- D&#45;&gt;G -->
<g id="edge8" class="edge">
<title>D&#45;&gt;G</title>
<path fill="none" stroke="black" d="M248.13,-71.83C248.13,-71.83 248.13,-47.93 248.13,-47.93"/>
<polygon fill="black" stroke="black" points="251.63,-47.93 248.13,-37.93 244.63,-47.93 251.63,-47.93"/>
</g>
<!-- E&#45;&gt;G -->
<g id="edge9" class="edge">
<title>E&#45;&gt;G</title>
<path fill="none" stroke="black" d="M360.13,-71.62C360.13,-52.09 360.13,-24 360.13,-24 360.13,-24 287.04,-24 287.04,-24"/>
<polygon fill="black" stroke="black" points="287.04,-20.5 277.04,-24 287.04,-27.5 287.04,-20.5"/>
</g>
<!-- F&#45;&gt;G -->
<g id="edge10" class="edge">
<title>F&#45;&gt;G</title>
<path fill="none" stroke="black" d="M495.13,-71.52C495.13,-48.45 495.13,-12 495.13,-12 495.13,-12 287.02,-12 287.02,-12"/>
<polygon fill="black" stroke="black" points="287.02,-8.5 277.02,-12 287.02,-15.5 287.02,-8.5"/>
</g>
</g>
</svg>
