<?xml version="1.0" encoding="UTF-8" standalone="no"?>
<!DOCTYPE svg PUBLIC "-//W3C//DTD SVG 1.1//EN"
 "http://www.w3.org/Graphics/SVG/1.1/DTD/svg11.dtd">
<!-- Generated by graphviz version 14.0.2 (0)
 -->
<!-- Title: reverse&#45;edge&#45;merging&#45;3 Pages: 1 -->
<svg width="254pt" height="188pt"
 viewBox="0.00 0.00 254.00 188.00" xmlns="http://www.w3.org/2000/svg" xmlns:xlink="http://www.w3.org/1999/xlink">
<g id="graph0" class="graph" transform="scale(1 1) rotate(0) translate(4 184)">
<title>reverse&#45;edge&#45;merging&#45;3</title>
<polygon fill="white" stroke="none" points="-4,4 -4,-184 250.11,-184 250.11,4 -4,4"/>
<!-- A -->
<g id="node1" class="node">
<title>A</title>
<ellipse fill="#90ee90" stroke="black" cx="98.29" cy="-162" rx="31.43" ry="18"/>
<text xml:space="preserve" text-anchor="middle" x="98.29" y="-157.8" font-family="Arial" font-size="14.00" fill="#228b22">Start</text>
</g>
<!-- B -->
<g id="node2" class="node">
<title>B</title>
<polygon fill="#ffd700" stroke="black" points="157.29,-108 83.98,-90 157.29,-72 230.6,-90 157.29,-108"/>
<text xml:space="preserve" text-anchor="middle" x="157.29" y="-85.8" font-family="Arial" font-size="14.00" fill="#daa520">Condition</text>
</g>
<!-- A&#45;&gt;B -->
<g id="edge1" class="edge">
<title>A&#45;&gt;B</title>
<path fill="none" stroke="black" d="M106.85,-144.2C106.85,-144.2 106.85,-107.64 106.85,-107.64"/>
<polygon fill="black" stroke="black" points="110.35,-107.64 106.85,-97.64 103.35,-107.64 110.35,-107.64"/>
</g>
<!-- C -->
<g id="node3" class="node">
<title>C</title>
<polygon fill="#87ceeb" stroke="black" points="66.59,-36 0,-36 0,0 66.59,0 66.59,-36"/>
<text xml:space="preserve" text-anchor="middle" x="33.29" y="-13.8" font-family="Arial" font-size="14.00" fill="#4682b4">Action 1</text>
</g>
<!-- B&#45;&gt;C -->
<g id="edge2" class="edge">
<title>B&#45;&gt;C</title>
<path fill="none" stroke="black" d="M81.95,-90C55.98,-90 33.29,-90 33.29,-90 33.29,-90 33.29,-47.68 33.29,-47.68"/>
<polygon fill="black" stroke="black" points="36.79,-47.68 33.29,-37.68 29.79,-47.68 36.79,-47.68"/>
</g>
<!-- A1 -->
<g id="node4" class="node">
<title>A1</title>
<ellipse fill="#90ee90" stroke="black" cx="165.29" cy="-18" rx="80.81" ry="18"/>
<text xml:space="preserve" text-anchor="middle" x="165.29" y="-13.8" font-family="Arial" font-size="14.00" fill="#228b22">Go back to Start</text>
</g>
<!-- B&#45;&gt;A1 -->
<g id="edge3" class="edge">
<title>B&#45;&gt;A1</title>
<path fill="none" stroke="black" d="M181.9,-77.79C181.9,-77.79 181.9,-47.47 181.9,-47.47"/>
<polygon fill="black" stroke="black" points="185.4,-47.47 181.9,-37.47 178.4,-47.47 185.4,-47.47"/>
</g>
<!-- C&#45;&gt;A -->
<g id="edge5" class="edge">
<title>C&#45;&gt;A</title>
<path fill="none" stroke="black" d="M66.9,-18C71.9,-18 75.42,-18 75.42,-18 75.42,-18 75.42,-137.71 75.42,-137.71"/>
<polygon fill="black" stroke="black" points="71.92,-137.71 75.42,-147.71 78.92,-137.71 71.92,-137.71"/>
</g>
<!-- A1&#45;&gt;B -->
<g id="edge4" class="edge">
<title>A1&#45;&gt;B</title>
<path fill="none" stroke="black" d="M133.19,-34.7C133.19,-34.7 133.19,-66.15 133.19,-66.15"/>
<polygon fill="black" stroke="black" points="129.69,-66.15 133.19,-76.15 136.69,-66.15 129.69,-66.15"/>
</g>
</g>
</svg>
