<?xml version="1.0" encoding="UTF-8" standalone="no"?>
<!DOCTYPE svg PUBLIC "-//W3C//DTD SVG 1.1//EN"
 "http://www.w3.org/Graphics/SVG/1.1/DTD/svg11.dtd">
<!-- Generated by graphviz version 14.0.2 (0)
 -->
<!-- Title: reverse&#45;edge&#45;merging&#45;1 Pages: 1 -->
<svg width="408pt" height="260pt"
 viewBox="0.00 0.00 408.00 260.00" xmlns="http://www.w3.org/2000/svg" xmlns:xlink="http://www.w3.org/1999/xlink">
<g id="graph0" class="graph" transform="scale(1 1) rotate(0) translate(4 256)">
<title>reverse&#45;edge&#45;merging&#45;1</title>
<polygon fill="white" stroke="none" points="-4,4 -4,-256 404.04,-256 404.04,4 -4,4"/>
<!-- A -->
<g id="node1" class="node">
<title>A</title>
<polygon fill="#ffd700" stroke="black" points="143.86,-252 32.61,-234 143.86,-216 255.11,-234 143.86,-252"/>
<text xml:space="preserve" text-anchor="middle" x="143.86" y="-229.8" font-family="Arial" font-size="14.00" fill="#daa520">Lamp Working?</text>
</g>
<!-- B -->
<g id="node2" class="node">
<title>B</title>
<polygon fill="#ffd700" stroke="black" points="143.86,-180 18.16,-162 143.86,-144 269.56,-162 143.86,-180"/>
<text xml:space="preserve" text-anchor="middle" x="143.86" y="-157.8" font-family="Arial" font-size="14.00" fill="#daa520">Is Lamp Plugged?</text>
</g>
<!-- A&#45;&gt;B -->
<g id="edge1" class="edge">
<title>A&#45;&gt;B</title>
<path fill="none" stroke="black" d="M143.86,-215.83C143.86,-215.83 143.86,-191.93 143.86,-191.93"/>
<polygon fill="black" stroke="black" points="147.36,-191.93 143.86,-181.93 140.36,-191.93 147.36,-191.93"/>
</g>
<!-- C -->
<g id="node3" class="node">
<title>C</title>
<polygon fill="#ffd700" stroke="black" points="257.86,-108 133.68,-90 257.86,-72 382.04,-90 257.86,-108"/>
<text xml:space="preserve" text-anchor="middle" x="257.86" y="-85.8" font-family="Arial" font-size="14.00" fill="#daa520">Bulb Burned Out?</text>
</g>
<!-- B&#45;&gt;C -->
<g id="edge2" class="edge">
<title>B&#45;&gt;C</title>
<path fill="none" stroke="black" d="M201.62,-151.99C201.62,-151.99 201.62,-111.44 201.62,-111.44"/>
<polygon fill="black" stroke="black" points="205.12,-111.44 201.62,-101.44 198.12,-111.44 205.12,-111.44"/>
</g>
<!-- D -->
<g id="node4" class="node">
<title>D</title>
<polygon fill="#87ceeb" stroke="black" points="115.72,-108 18,-108 18,-72 115.72,-72 115.72,-108"/>
<text xml:space="preserve" text-anchor="middle" x="66.86" y="-85.8" font-family="Arial" font-size="14.00" fill="#4682b4">Plug in Lamp</text>
</g>
<!-- B&#45;&gt;D -->
<g id="edge3" class="edge">
<title>B&#45;&gt;D</title>
<path fill="none" stroke="black" d="M50.68,-157.28C50.68,-157.28 50.68,-119.82 50.68,-119.82"/>
<polygon fill="black" stroke="black" points="54.18,-119.82 50.68,-109.82 47.18,-119.82 54.18,-119.82"/>
</g>
<!-- E -->
<g id="node5" class="node">
<title>E</title>
<polygon fill="#87ceeb" stroke="black" points="191.5,-36 92.22,-36 92.22,0 191.5,0 191.5,-36"/>
<text xml:space="preserve" text-anchor="middle" x="141.86" y="-13.8" font-family="Arial" font-size="14.00" fill="#4682b4">Replace Bulb</text>
</g>
<!-- C&#45;&gt;E -->
<g id="edge4" class="edge">
<title>C&#45;&gt;E</title>
<path fill="none" stroke="black" d="M162.59,-85.71C162.59,-85.71 162.59,-47.8 162.59,-47.8"/>
<polygon fill="black" stroke="black" points="166.09,-47.8 162.59,-37.8 159.09,-47.8 166.09,-47.8"/>
</g>
<!-- F -->
<g id="node6" class="node">
<title>F</title>
<polygon fill="#87ceeb" stroke="black" points="381.93,-36 285.78,-36 285.78,0 381.93,0 381.93,-36"/>
<text xml:space="preserve" text-anchor="middle" x="333.86" y="-13.8" font-family="Arial" font-size="14.00" fill="#4682b4">Repair Lamp</text>
</g>
<!-- C&#45;&gt;F -->
<g id="edge5" class="edge">
<title>C&#45;&gt;F</title>
<path fill="none" stroke="black" d="M333.86,-82.57C333.86,-82.57 333.86,-48.01 333.86,-48.01"/>
<polygon fill="black" stroke="black" points="337.36,-48.01 333.86,-38.01 330.36,-48.01 337.36,-48.01"/>
</g>
<!-- D&#45;&gt;B -->
<g id="edge6" class="edge">
<title>D&#45;&gt;B</title>
<path fill="none" stroke="black" d="M83.2,-108.17C83.2,-108.17 83.2,-140.74 83.2,-140.74"/>
<polygon fill="black" stroke="black" points="79.7,-140.74 83.2,-150.74 86.7,-140.74 79.7,-140.74"/>
</g>
<!-- E&#45;&gt;A -->
<g id="edge7" class="edge">
<title>E&#45;&gt;A</title>
<path fill="none" stroke="black" d="M91.84,-18C51,-18 0,-18 0,-18 0,-18 0,-234 0,-234 0,-234 18.29,-234 18.29,-234"/>
<polygon fill="black" stroke="black" points="18.29,-237.5 28.29,-234 18.29,-230.5 18.29,-237.5"/>
</g>
<!-- F&#45;&gt;A -->
<g id="edge8" class="edge">
<title>F&#45;&gt;A</title>
<path fill="none" stroke="black" d="M382.3,-18C392.39,-18 400.04,-18 400.04,-18 400.04,-18 400.04,-234 400.04,-234 400.04,-234 269.6,-234 269.6,-234"/>
<polygon fill="black" stroke="black" points="269.6,-230.5 259.6,-234 269.6,-237.5 269.6,-230.5"/>
</g>
</g>
</svg>
