<?xml version="1.0" encoding="UTF-8" standalone="no"?>
<!DOCTYPE svg PUBLIC "-//W3C//DTD SVG 1.1//EN"
 "http://www.w3.org/Graphics/SVG/1.1/DTD/svg11.dtd">
<!-- Generated by graphviz version 14.0.2 (0)
 -->
<!-- Title: reverse&#45;edge&#45;merging&#45;2 Pages: 1 -->
<svg width="382pt" height="548pt"
 viewBox="0.00 0.00 382.00 548.00" xmlns="http://www.w3.org/2000/svg" xmlns:xlink="http://www.w3.org/1999/xlink">
<g id="graph0" class="graph" transform="scale(1 1) rotate(0) translate(4 544)">
<title>reverse&#45;edge&#45;merging&#45;2</title>
<polygon fill="white" stroke="none" points="-4,4 -4,-544 378.25,-544 378.25,4 -4,4"/>
<!-- A -->
<g id="node1" class="node">
<title>A</title>
<polygon fill="#87ceeb" stroke="black" points="346.23,-540 201.05,-540 201.05,-504 346.23,-504 346.23,-540"/>
<text xml:space="preserve" text-anchor="middle" x="273.64" y="-517.8" font-family="Arial" font-size="14.00" fill="#4682b4">Establish Agreement</text>
</g>
<!-- B -->
<g id="node2" class="node">
<title>B</title>
<polygon fill="#87ceeb" stroke="black" points="321.72,-468 225.56,-468 225.56,-432 321.72,-432 321.72,-468"/>
<text xml:space="preserve" text-anchor="middle" x="273.64" y="-445.8" font-family="Arial" font-size="14.00" fill="#4682b4">Propose Edit</text>
</g>
<!-- A&#45;&gt;B -->
<g id="edge1" class="edge">
<title>A&#45;&gt;B</title>
<path fill="none" stroke="black" d="M273.64,-503.83C273.64,-503.83 273.64,-479.93 273.64,-479.93"/>
<polygon fill="black" stroke="black" points="277.14,-479.93 273.64,-469.93 270.14,-479.93 277.14,-479.93"/>
</g>
<!-- C -->
<g id="node3" class="node">
<title>C</title>
<polygon fill="#87ceeb" stroke="black" points="211.32,-396 101.95,-396 101.95,-360 211.32,-360 211.32,-396"/>
<text xml:space="preserve" text-anchor="middle" x="156.64" y="-373.8" font-family="Arial" font-size="14.00" fill="#4682b4">Implement Edit</text>
</g>
<!-- B&#45;&gt;C -->
<g id="edge2" class="edge">
<title>B&#45;&gt;C</title>
<path fill="none" stroke="black" d="M225.33,-450C214.52,-450 206.18,-450 206.18,-450 206.18,-450 206.18,-407.68 206.18,-407.68"/>
<polygon fill="black" stroke="black" points="209.69,-407.68 206.18,-397.68 202.69,-407.68 209.69,-407.68"/>
</g>
<!-- D -->
<g id="node4" class="node">
<title>D</title>
<polygon fill="#ffd700" stroke="black" points="122.64,-324 0,-306 122.64,-288 245.27,-306 122.64,-324"/>
<text xml:space="preserve" text-anchor="middle" x="122.64" y="-301.8" font-family="Arial" font-size="14.00" fill="#daa520">Others Disagree?</text>
</g>
<!-- C&#45;&gt;D -->
<g id="edge3" class="edge">
<title>C&#45;&gt;D</title>
<path fill="none" stroke="black" d="M156.64,-359.83C156.64,-359.83 156.64,-330.68 156.64,-330.68"/>
<polygon fill="black" stroke="black" points="160.14,-330.68 156.64,-320.68 153.14,-330.68 160.14,-330.68"/>
</g>
<!-- E -->
<g id="node5" class="node">
<title>E</title>
<polygon fill="#87ceeb" stroke="black" points="210.21,-108 79.06,-108 79.06,-72 210.21,-72 210.21,-108"/>
<text xml:space="preserve" text-anchor="middle" x="144.64" y="-85.8" font-family="Arial" font-size="14.00" fill="#4682b4">Seek Compromise</text>
</g>
<!-- D&#45;&gt;E -->
<g id="edge4" class="edge">
<title>D&#45;&gt;E</title>
<path fill="none" stroke="black" d="M110,-289.41C110,-289.41 110,-119.98 110,-119.98"/>
<polygon fill="black" stroke="black" points="113.5,-119.98 110,-109.98 106.5,-119.98 113.5,-119.98"/>
</g>
<!-- F -->
<g id="node6" class="node">
<title>F</title>
<polygon fill="#87ceeb" stroke="black" points="288.43,-252 144.84,-252 144.84,-216 288.43,-216 288.43,-252"/>
<text xml:space="preserve" text-anchor="middle" x="216.64" y="-229.8" font-family="Arial" font-size="14.00" fill="#4682b4">Ask for Further Edits</text>
</g>
<!-- D&#45;&gt;F -->
<g id="edge5" class="edge">
<title>D&#45;&gt;F</title>
<path fill="none" stroke="black" d="M195.06,-298.29C195.06,-298.29 195.06,-263.86 195.06,-263.86"/>
<polygon fill="black" stroke="black" points="198.56,-263.86 195.06,-253.86 191.56,-263.86 198.56,-263.86"/>
</g>
<!-- F&#45;&gt;B -->
<g id="edge6" class="edge">
<title>F&#45;&gt;B</title>
<path fill="none" stroke="black" d="M266.85,-252.42C266.85,-252.42 266.85,-420.12 266.85,-420.12"/>
<polygon fill="black" stroke="black" points="263.35,-420.12 266.85,-430.12 270.35,-420.12 263.35,-420.12"/>
</g>
<!-- G -->
<g id="node7" class="node">
<title>G</title>
<polygon fill="#87ceeb" stroke="black" points="292.34,-180 140.93,-180 140.93,-144 292.34,-144 292.34,-180"/>
<text xml:space="preserve" text-anchor="middle" x="216.64" y="-157.8" font-family="Arial" font-size="14.00" fill="#4682b4">Vote on Current State</text>
</g>
<!-- F&#45;&gt;G -->
<g id="edge7" class="edge">
<title>F&#45;&gt;G</title>
<path fill="none" stroke="black" d="M216.64,-215.83C216.64,-215.83 216.64,-191.93 216.64,-191.93"/>
<polygon fill="black" stroke="black" points="220.14,-191.93 216.64,-181.93 213.14,-191.93 220.14,-191.93"/>
</g>
<!-- G&#45;&gt;E -->
<g id="edge9" class="edge">
<title>G&#45;&gt;E</title>
<path fill="none" stroke="black" d="M175.57,-143.83C175.57,-143.83 175.57,-119.93 175.57,-119.93"/>
<polygon fill="black" stroke="black" points="179.07,-119.93 175.57,-109.93 172.07,-119.93 179.07,-119.93"/>
</g>
<!-- H -->
<g id="node8" class="node">
<title>H</title>
<polygon fill="#87ceeb" stroke="black" points="362.61,-108 244.67,-108 244.67,-72 362.61,-72 362.61,-108"/>
<text xml:space="preserve" text-anchor="middle" x="303.64" y="-85.8" font-family="Arial" font-size="14.00" fill="#4682b4">New Consensus</text>
</g>
<!-- G&#45;&gt;H -->
<g id="edge8" class="edge">
<title>G&#45;&gt;H</title>
<path fill="none" stroke="black" d="M268.51,-143.83C268.51,-143.83 268.51,-119.93 268.51,-119.93"/>
<polygon fill="black" stroke="black" points="272.01,-119.93 268.51,-109.93 265.01,-119.93 272.01,-119.93"/>
</g>
<!-- H&#45;&gt;B -->
<g id="edge11" class="edge">
<title>H&#45;&gt;B</title>
<path fill="none" stroke="black" d="M307.03,-108.35C307.03,-108.35 307.03,-420.18 307.03,-420.18"/>
<polygon fill="black" stroke="black" points="303.53,-420.18 307.03,-430.18 310.53,-420.18 303.53,-420.18"/>
</g>
<!-- I -->
<g id="node9" class="node">
<title>I</title>
<ellipse fill="#ffb6c1" stroke="black" cx="303.64" cy="-18" rx="70.61" ry="18"/>
<text xml:space="preserve" text-anchor="middle" x="303.64" y="-13.8" font-family="Arial" font-size="14.00" fill="#c71585">Process Ends</text>
</g>
<!-- H&#45;&gt;I -->
<g id="edge10" class="edge">
<title>H&#45;&gt;I</title>
<path fill="none" stroke="black" d="M303.64,-71.83C303.64,-71.83 303.64,-47.93 303.64,-47.93"/>
<polygon fill="black" stroke="black" points="307.14,-47.93 303.64,-37.93 300.14,-47.93 307.14,-47.93"/>
</g>
</g>
</svg>
