<?xml version="1.0" encoding="UTF-8" standalone="no"?>
<!DOCTYPE svg PUBLIC "-//W3C//DTD SVG 1.1//EN"
 "http://www.w3.org/Graphics/SVG/1.1/DTD/svg11.dtd">
<!-- Generated by graphviz version 14.0.2 (0)
 -->
<!-- Title: Setup Pages: 1 -->
<svg width="193pt" height="476pt"
 viewBox="0.00 0.00 193.00 476.00" xmlns="http://www.w3.org/2000/svg" xmlns:xlink="http://www.w3.org/1999/xlink">
<g id="graph0" class="graph" transform="scale(1 1) rotate(0) translate(4 472)">
<title>Setup</title>
<polygon fill="white" stroke="none" points="-4,4 -4,-472 188.63,-472 188.63,4 -4,4"/>
<!-- A -->
<g id="node1" class="node">
<title>A</title>
<polygon fill="#87ceeb" stroke="black" points="143.32,-468 89.32,-468 89.32,-432 143.32,-432 143.32,-468"/>
<text xml:space="preserve" text-anchor="middle" x="116.32" y="-445.8" font-family="Arial" font-size="14.00" fill="#4682b4">Setup</text>
</g>
<!-- B -->
<g id="node2" class="node">
<title>B</title>
<polygon fill="#87ceeb" stroke="black" points="166.34,-396 66.29,-396 66.29,-360 166.34,-360 166.34,-396"/>
<text xml:space="preserve" text-anchor="middle" x="116.32" y="-373.8" font-family="Arial" font-size="14.00" fill="#4682b4">Set Pin Mode</text>
</g>
<!-- A&#45;&gt;B -->
<g id="edge1" class="edge">
<title>A&#45;&gt;B</title>
<path fill="none" stroke="black" d="M116.32,-431.83C116.32,-431.83 116.32,-407.93 116.32,-407.93"/>
<polygon fill="black" stroke="black" points="119.82,-407.93 116.32,-397.93 112.82,-407.93 119.82,-407.93"/>
</g>
<!-- C -->
<g id="node3" class="node">
<title>C</title>
<polygon fill="#87ceeb" stroke="black" points="143.32,-324 89.32,-324 89.32,-288 143.32,-288 143.32,-324"/>
<text xml:space="preserve" text-anchor="middle" x="116.32" y="-301.8" font-family="Arial" font-size="14.00" fill="#4682b4">Loop</text>
</g>
<!-- B&#45;&gt;C -->
<g id="edge2" class="edge">
<title>B&#45;&gt;C</title>
<path fill="none" stroke="black" d="M116.32,-359.83C116.32,-359.83 116.32,-335.93 116.32,-335.93"/>
<polygon fill="black" stroke="black" points="119.82,-335.93 116.32,-325.93 112.82,-335.93 119.82,-335.93"/>
</g>
<!-- D -->
<g id="node4" class="node">
<title>D</title>
<polygon fill="#87ceeb" stroke="black" points="127.72,-252 26.92,-252 26.92,-216 127.72,-216 127.72,-252"/>
<text xml:space="preserve" text-anchor="middle" x="77.32" y="-229.8" font-family="Arial" font-size="14.00" fill="#4682b4">Turn LED ON</text>
</g>
<!-- C&#45;&gt;D -->
<g id="edge3" class="edge">
<title>C&#45;&gt;D</title>
<path fill="none" stroke="black" d="M108.52,-287.83C108.52,-287.83 108.52,-263.93 108.52,-263.93"/>
<polygon fill="black" stroke="black" points="112.02,-263.93 108.52,-253.93 105.02,-263.93 112.02,-263.93"/>
</g>
<!-- E -->
<g id="node5" class="node">
<title>E</title>
<polygon fill="#87ceeb" stroke="black" points="136.63,-180 0,-180 0,-144 136.63,-144 136.63,-180"/>
<text xml:space="preserve" text-anchor="middle" x="68.32" y="-157.8" font-family="Arial" font-size="14.00" fill="#4682b4">Pause for a second</text>
</g>
<!-- D&#45;&gt;E -->
<g id="edge4" class="edge">
<title>D&#45;&gt;E</title>
<path fill="none" stroke="black" d="M77.32,-215.83C77.32,-215.83 77.32,-191.93 77.32,-191.93"/>
<polygon fill="black" stroke="black" points="80.82,-191.93 77.32,-181.93 73.82,-191.93 80.82,-191.93"/>
</g>
<!-- F -->
<g id="node6" class="node">
<title>F</title>
<polygon fill="#87ceeb" stroke="black" points="129.21,-108 21.42,-108 21.42,-72 129.21,-72 129.21,-108"/>
<text xml:space="preserve" text-anchor="middle" x="75.32" y="-85.8" font-family="Arial" font-size="14.00" fill="#4682b4">Turn LED OFF</text>
</g>
<!-- E&#45;&gt;F -->
<g id="edge5" class="edge">
<title>E&#45;&gt;F</title>
<path fill="none" stroke="black" d="M75.32,-143.83C75.32,-143.83 75.32,-119.93 75.32,-119.93"/>
<polygon fill="black" stroke="black" points="78.82,-119.93 75.32,-109.93 71.82,-119.93 78.82,-119.93"/>
</g>
<!-- G -->
<g id="node7" class="node">
<title>G</title>
<polygon fill="#87ceeb" stroke="black" points="184.63,-36 48,-36 48,0 184.63,0 184.63,-36"/>
<text xml:space="preserve" text-anchor="middle" x="116.32" y="-13.8" font-family="Arial" font-size="14.00" fill="#4682b4">Pause for a second</text>
</g>
<!-- F&#45;&gt;G -->
<g id="edge6" class="edge">
<title>F&#45;&gt;G</title>
<path fill="none" stroke="black" d="M88.61,-71.83C88.61,-71.83 88.61,-47.93 88.61,-47.93"/>
<polygon fill="black" stroke="black" points="92.11,-47.93 88.61,-37.93 85.11,-47.93 92.11,-47.93"/>
</g>
<!-- G&#45;&gt;C -->
<g id="edge7" class="edge">
<title>G&#45;&gt;C</title>
<path fill="none" stroke="black" d="M154.83,-36.45C154.83,-100.02 154.83,-306 154.83,-306 154.83,-306 153.69,-306 153.69,-306"/>
<polygon fill="black" stroke="black" points="155,-302.5 145,-306 155,-309.5 155,-302.5"/>
</g>
</g>
</svg>
