<?xml version="1.0" encoding="UTF-8" standalone="no"?>
<!DOCTYPE svg PUBLIC "-//W3C//DTD SVG 1.1//EN"
 "http://www.w3.org/Graphics/SVG/1.1/DTD/svg11.dtd">
<!-- Generated by graphviz version 14.0.2 (0)
 -->
<!-- Title: Simple Pages: 1 -->
<svg width="254pt" height="116pt"
 viewBox="0.00 0.00 254.00 116.00" xmlns="http://www.w3.org/2000/svg" xmlns:xlink="http://www.w3.org/1999/xlink">
<g id="graph0" class="graph" transform="scale(1 1) rotate(0) translate(4 112)">
<title>Simple</title>
<polygon fill="white" stroke="none" points="-4,4 -4,-112 250.08,-112 250.08,4 -4,4"/>
<!-- AB -->
<g id="node1" class="node">
<title>AB</title>
<polygon fill="#87ceeb" stroke="black" points="113.31,-108 30.38,-108 30.38,-72 113.31,-72 113.31,-108"/>
<text xml:space="preserve" text-anchor="middle" x="71.84" y="-85.8" font-family="Arial" font-size="14.00" fill="#4682b4">Source AB</text>
</g>
<!-- A -->
<g id="node2" class="node">
<title>A</title>
<polygon fill="#87ceeb" stroke="black" points="69.69,-36 0,-36 0,0 69.69,0 69.69,-36"/>
<text xml:space="preserve" text-anchor="middle" x="34.84" y="-13.8" font-family="Arial" font-size="14.00" fill="#4682b4">Target A</text>
</g>
<!-- AB&#45;&gt;A -->
<g id="edge1" class="edge">
<title>AB&#45;&gt;A</title>
<path fill="none" stroke="black" d="M50.04,-71.83C50.04,-71.83 50.04,-47.93 50.04,-47.93"/>
<polygon fill="black" stroke="black" points="53.54,-47.93 50.04,-37.93 46.54,-47.93 53.54,-47.93"/>
</g>
<!-- B -->
<g id="node3" class="node">
<title>B</title>
<polygon fill="#87ceeb" stroke="black" points="157.69,-36 88,-36 88,0 157.69,0 157.69,-36"/>
<text xml:space="preserve" text-anchor="middle" x="122.84" y="-13.8" font-family="Arial" font-size="14.00" fill="#4682b4">Target B</text>
</g>
<!-- AB&#45;&gt;B -->
<g id="edge2" class="edge">
<title>AB&#45;&gt;B</title>
<path fill="none" stroke="black" d="M100.65,-71.83C100.65,-71.83 100.65,-47.93 100.65,-47.93"/>
<polygon fill="black" stroke="black" points="104.15,-47.93 100.65,-37.93 97.15,-47.93 104.15,-47.93"/>
</g>
<!-- BC -->
<g id="node4" class="node">
<title>BC</title>
<polygon fill="#87ceeb" stroke="black" points="233.69,-108 150,-108 150,-72 233.69,-72 233.69,-108"/>
<text xml:space="preserve" text-anchor="middle" x="191.84" y="-85.8" font-family="Arial" font-size="14.00" fill="#4682b4">Source BC</text>
</g>
<!-- BC&#45;&gt;B -->
<g id="edge3" class="edge">
<title>BC&#45;&gt;B</title>
<path fill="none" stroke="black" d="M153.84,-71.83C153.84,-71.83 153.84,-47.93 153.84,-47.93"/>
<polygon fill="black" stroke="black" points="157.34,-47.93 153.84,-37.93 150.34,-47.93 157.34,-47.93"/>
</g>
<!-- C -->
<g id="node5" class="node">
<title>C</title>
<polygon fill="#87ceeb" stroke="black" points="246.08,-36 175.61,-36 175.61,0 246.08,0 246.08,-36"/>
<text xml:space="preserve" text-anchor="middle" x="210.84" y="-13.8" font-family="Arial" font-size="14.00" fill="#4682b4">Target C</text>
</g>
<!-- BC&#45;&gt;C -->
<g id="edge4" class="edge">
<title>BC&#45;&gt;C</title>
<path fill="none" stroke="black" d="M204.65,-71.83C204.65,-71.83 204.65,-47.93 204.65,-47.93"/>
<polygon fill="black" stroke="black" points="208.15,-47.93 204.65,-37.93 201.15,-47.93 208.15,-47.93"/>
</g>
</g>
</svg>
