<?xml version="1.0" encoding="UTF-8" standalone="no"?>
<!DOCTYPE svg PUBLIC "-//W3C//DTD SVG 1.1//EN"
 "http://www.w3.org/Graphics/SVG/1.1/DTD/svg11.dtd">
<!-- Generated by graphviz version 14.0.2 (0)
 -->
<!-- Title: simple&#45;complex&#45;1 Pages: 1 -->
<svg width="381pt" height="188pt"
 viewBox="0.00 0.00 381.00 188.00" xmlns="http://www.w3.org/2000/svg" xmlns:xlink="http://www.w3.org/1999/xlink">
<g id="graph0" class="graph" transform="scale(1 1) rotate(0) translate(4 184)">
<title>simple&#45;complex&#45;1</title>
<polygon fill="white" stroke="none" points="-4,4 -4,-184 376.84,-184 376.84,4 -4,4"/>
<!-- A -->
<g id="node1" class="node">
<title>A</title>
<ellipse fill="#90ee90" stroke="black" cx="186.42" cy="-162" rx="31.43" ry="18"/>
<text xml:space="preserve" text-anchor="middle" x="186.42" y="-157.8" font-family="Arial" font-size="14.00" fill="#228b22">Start</text>
</g>
<!-- B -->
<g id="node2" class="node">
<title>B</title>
<polygon fill="#ffd700" stroke="black" points="186.42,-108 0,-90 186.42,-72 372.84,-90 186.42,-108"/>
<text xml:space="preserve" text-anchor="middle" x="186.42" y="-85.8" font-family="Arial" font-size="14.00" fill="#daa520">Is object inside a decorator?</text>
</g>
<!-- A&#45;&gt;B -->
<g id="edge1" class="edge">
<title>A&#45;&gt;B</title>
<path fill="none" stroke="black" d="M175.94,-144.57C175.94,-144.57 175.94,-118.78 175.94,-118.78"/>
<polygon fill="black" stroke="black" points="179.44,-118.78 175.94,-108.78 172.44,-118.78 179.44,-118.78"/>
</g>
<!-- B&#45;&gt;A -->
<g id="edge3" class="edge">
<title>B&#45;&gt;A</title>
<path fill="none" stroke="black" d="M196.9,-107.43C196.9,-107.43 196.9,-133.22 196.9,-133.22"/>
<polygon fill="black" stroke="black" points="193.4,-133.22 196.9,-143.22 200.4,-133.22 193.4,-133.22"/>
</g>
<!-- C -->
<g id="node3" class="node">
<title>C</title>
<polygon fill="#87ceeb" stroke="black" points="258.23,-36 114.61,-36 114.61,0 258.23,0 258.23,-36"/>
<text xml:space="preserve" text-anchor="middle" x="186.42" y="-13.8" font-family="Arial" font-size="14.00" fill="#4682b4">Translate/Edit object</text>
</g>
<!-- B&#45;&gt;C -->
<g id="edge2" class="edge">
<title>B&#45;&gt;C</title>
<path fill="none" stroke="black" d="M186.42,-71.83C186.42,-71.83 186.42,-47.93 186.42,-47.93"/>
<polygon fill="black" stroke="black" points="189.92,-47.93 186.42,-37.93 182.92,-47.93 189.92,-47.93"/>
</g>
</g>
</svg>
