<?xml version="1.0" encoding="UTF-8" standalone="no"?>
<!DOCTYPE svg PUBLIC "-//W3C//DTD SVG 1.1//EN"
 "http://www.w3.org/Graphics/SVG/1.1/DTD/svg11.dtd">
<!-- Generated by graphviz version 14.0.2 (0)
 -->
<!-- Title: Thank Pages: 1 -->
<svg width="358pt" height="332pt"
 viewBox="0.00 0.00 358.00 332.00" xmlns="http://www.w3.org/2000/svg" xmlns:xlink="http://www.w3.org/1999/xlink">
<g id="graph0" class="graph" transform="scale(1 1) rotate(0) translate(4 328)">
<title>Thank</title>
<polygon fill="white" stroke="none" points="-4,4 -4,-328 354.39,-328 354.39,4 -4,4"/>
<!-- A -->
<g id="node1" class="node">
<title>A</title>
<polygon fill="#87ceeb" stroke="black" points="204.04,-324 122.67,-324 122.67,-288 204.04,-288 204.04,-324"/>
<text xml:space="preserve" text-anchor="middle" x="163.36" y="-301.8" font-family="Arial" font-size="14.00" fill="#4682b4">Thank you</text>
</g>
<!-- B -->
<g id="node2" class="node">
<title>B</title>
<polygon fill="#87ceeb" stroke="black" points="216.88,-252 109.83,-252 109.83,-216 216.88,-216 216.88,-252"/>
<text xml:space="preserve" text-anchor="middle" x="163.36" y="-229.8" font-family="Arial" font-size="14.00" fill="#4682b4">Part of journey</text>
</g>
<!-- A&#45;&gt;B -->
<g id="edge1" class="edge">
<title>A&#45;&gt;B</title>
<path fill="none" stroke="black" d="M163.36,-287.83C163.36,-287.83 163.36,-263.93 163.36,-263.93"/>
<polygon fill="black" stroke="black" points="166.86,-263.93 163.36,-253.93 159.86,-263.93 166.86,-263.93"/>
</g>
<!-- C -->
<g id="node3" class="node">
<title>C</title>
<polygon fill="#87ceeb" stroke="black" points="234,-180 92.72,-180 92.72,-144 234,-144 234,-180"/>
<text xml:space="preserve" text-anchor="middle" x="163.36" y="-157.8" font-family="Arial" font-size="14.00" fill="#4682b4">Project not come far</text>
</g>
<!-- B&#45;&gt;C -->
<g id="edge2" class="edge">
<title>B&#45;&gt;C</title>
<path fill="none" stroke="black" d="M163.36,-215.83C163.36,-215.83 163.36,-191.93 163.36,-191.93"/>
<polygon fill="black" stroke="black" points="166.86,-191.93 163.36,-181.93 159.86,-191.93 166.86,-191.93"/>
</g>
<!-- D -->
<g id="node4" class="node">
<title>D</title>
<polygon fill="#87ceeb" stroke="black" points="223.9,-108 102.82,-108 102.82,-72 223.9,-72 223.9,-108"/>
<text xml:space="preserve" text-anchor="middle" x="163.36" y="-85.8" font-family="Arial" font-size="14.00" fill="#4682b4">Valuable support</text>
</g>
<!-- C&#45;&gt;D -->
<g id="edge3" class="edge">
<title>C&#45;&gt;D</title>
<path fill="none" stroke="black" d="M163.36,-143.83C163.36,-143.83 163.36,-119.93 163.36,-119.93"/>
<polygon fill="black" stroke="black" points="166.86,-119.93 163.36,-109.93 159.86,-119.93 166.86,-119.93"/>
</g>
<!-- E -->
<g id="node5" class="node">
<title>E</title>
<polygon fill="#87ceeb" stroke="black" points="118.72,-36 0,-36 0,0 118.72,0 118.72,-36"/>
<text xml:space="preserve" text-anchor="middle" x="59.36" y="-13.8" font-family="Arial" font-size="14.00" fill="#4682b4">Enterprise Sales</text>
</g>
<!-- D&#45;&gt;E -->
<g id="edge4" class="edge">
<title>D&#45;&gt;E</title>
<path fill="none" stroke="black" d="M110.77,-71.83C110.77,-71.83 110.77,-47.93 110.77,-47.93"/>
<polygon fill="black" stroke="black" points="114.27,-47.93 110.77,-37.93 107.27,-47.93 114.27,-47.93"/>
</g>
<!-- F -->
<g id="node6" class="node">
<title>F</title>
<polygon fill="#87ceeb" stroke="black" points="190.36,-36 136.36,-36 136.36,0 190.36,0 190.36,-36"/>
<text xml:space="preserve" text-anchor="middle" x="163.36" y="-13.8" font-family="Arial" font-size="14.00" fill="#4682b4">HR</text>
</g>
<!-- D&#45;&gt;F -->
<g id="edge5" class="edge">
<title>D&#45;&gt;F</title>
<path fill="none" stroke="black" d="M163.36,-71.83C163.36,-71.83 163.36,-47.93 163.36,-47.93"/>
<polygon fill="black" stroke="black" points="166.86,-47.93 163.36,-37.93 159.86,-47.93 166.86,-47.93"/>
</g>
<!-- G -->
<g id="node7" class="node">
<title>G</title>
<polygon fill="#87ceeb" stroke="black" points="350.39,-36 208.33,-36 208.33,0 350.39,0 350.39,-36"/>
<text xml:space="preserve" text-anchor="middle" x="279.36" y="-13.8" font-family="Arial" font-size="14.00" fill="#4682b4">Enterprise Academy</text>
</g>
<!-- D&#45;&gt;G -->
<g id="edge6" class="edge">
<title>D&#45;&gt;G</title>
<path fill="none" stroke="black" d="M216.11,-71.83C216.11,-71.83 216.11,-47.93 216.11,-47.93"/>
<polygon fill="black" stroke="black" points="219.61,-47.93 216.11,-37.93 212.61,-47.93 219.61,-47.93"/>
</g>
</g>
</svg>
