<?xml version="1.0" encoding="UTF-8" standalone="no"?>
<!DOCTYPE svg PUBLIC "-//W3C//DTD SVG 1.1//EN"
 "http://www.w3.org/Graphics/SVG/1.1/DTD/svg11.dtd">
<!-- Generated by graphviz version 14.0.2 (0)
 -->
<!-- Title: Training Pages: 1 -->
<svg width="356pt" height="116pt"
 viewBox="0.00 0.00 356.00 116.00" xmlns="http://www.w3.org/2000/svg" xmlns:xlink="http://www.w3.org/1999/xlink">
<g id="graph0" class="graph" transform="scale(1 1) rotate(0) translate(4 112)">
<title>Training</title>
<polygon fill="white" stroke="none" points="-4,4 -4,-112 352,-112 352,4 -4,4"/>
<!-- A -->
<g id="node1" class="node">
<title>A</title>
<polygon fill="#87ceeb" stroke="black" points="214.52,-108 93.48,-108 93.48,-72 214.52,-72 214.52,-108"/>
<text xml:space="preserve" text-anchor="middle" x="154" y="-85.8" font-family="Arial" font-size="14.00" fill="#4682b4">Training Delivery</text>
</g>
<!-- B -->
<g id="node2" class="node">
<title>B</title>
<polygon fill="#87ceeb" stroke="black" points="54,-36 0,-36 0,0 54,0 54,-36"/>
<text xml:space="preserve" text-anchor="middle" x="27" y="-13.8" font-family="Arial" font-size="14.00" fill="#4682b4">ILT</text>
</g>
<!-- A&#45;&gt;B -->
<g id="edge1" class="edge">
<title>A&#45;&gt;B</title>
<path fill="none" stroke="black" d="M93.1,-90C60.51,-90 27,-90 27,-90 27,-90 27,-47.68 27,-47.68"/>
<polygon fill="black" stroke="black" points="30.5,-47.68 27,-37.68 23.5,-47.68 30.5,-47.68"/>
</g>
<!-- C -->
<g id="node3" class="node">
<title>C</title>
<polygon fill="#87ceeb" stroke="black" points="126,-36 72,-36 72,0 126,0 126,-36"/>
<text xml:space="preserve" text-anchor="middle" x="99" y="-13.8" font-family="Arial" font-size="14.00" fill="#4682b4">VILT</text>
</g>
<!-- A&#45;&gt;C -->
<g id="edge2" class="edge">
<title>A&#45;&gt;C</title>
<path fill="none" stroke="black" d="M109.74,-71.83C109.74,-71.83 109.74,-47.93 109.74,-47.93"/>
<polygon fill="black" stroke="black" points="113.24,-47.93 109.74,-37.93 106.24,-47.93 113.24,-47.93"/>
</g>
<!-- D -->
<g id="node4" class="node">
<title>D</title>
<polygon fill="#87ceeb" stroke="black" points="276.35,-36 143.65,-36 143.65,0 276.35,0 276.35,-36"/>
<text xml:space="preserve" text-anchor="middle" x="210" y="-13.8" font-family="Arial" font-size="14.00" fill="#4682b4">Flipped Classroom</text>
</g>
<!-- A&#45;&gt;D -->
<g id="edge3" class="edge">
<title>A&#45;&gt;D</title>
<path fill="none" stroke="black" d="M179.08,-71.83C179.08,-71.83 179.08,-47.93 179.08,-47.93"/>
<polygon fill="black" stroke="black" points="182.58,-47.93 179.08,-37.93 175.58,-47.93 182.58,-47.93"/>
</g>
<!-- E -->
<g id="node5" class="node">
<title>E</title>
<polygon fill="#87ceeb" stroke="black" points="348,-36 294,-36 294,0 348,0 348,-36"/>
<text xml:space="preserve" text-anchor="middle" x="321" y="-13.8" font-family="Arial" font-size="14.00" fill="#4682b4">OJT</text>
</g>
<!-- A&#45;&gt;E -->
<g id="edge4" class="edge">
<title>A&#45;&gt;E</title>
<path fill="none" stroke="black" d="M214.76,-90C262.51,-90 321,-90 321,-90 321,-90 321,-47.68 321,-47.68"/>
<polygon fill="black" stroke="black" points="324.5,-47.68 321,-37.68 317.5,-47.68 324.5,-47.68"/>
</g>
</g>
</svg>
