<?xml version="1.0" encoding="UTF-8" standalone="no"?>
<!DOCTYPE svg PUBLIC "-//W3C//DTD SVG 1.1//EN"
 "http://www.w3.org/Graphics/SVG/1.1/DTD/svg11.dtd">
<!-- Generated by graphviz version 14.0.2 (0)
 -->
<!-- Title: Under Pages: 1 -->
<svg width="270pt" height="188pt"
 viewBox="0.00 0.00 270.00 188.00" xmlns="http://www.w3.org/2000/svg" xmlns:xlink="http://www.w3.org/1999/xlink">
<g id="graph0" class="graph" transform="scale(1 1) rotate(0) translate(4 184)">
<title>Under</title>
<polygon fill="white" stroke="none" points="-4,4 -4,-184 265.81,-184 265.81,4 -4,4"/>
<!-- A -->
<g id="node1" class="node">
<title>A</title>
<polygon fill="#87ceeb" stroke="black" points="191.04,-180 63,-180 63,-144 191.04,-144 191.04,-180"/>
<text xml:space="preserve" text-anchor="middle" x="127.02" y="-157.8" font-family="Arial" font-size="14.00" fill="#4682b4">Under Performer?</text>
</g>
<!-- B -->
<g id="node2" class="node">
<title>B</title>
<polygon fill="#87ceeb" stroke="black" points="114.03,-108 0,-108 0,-72 114.03,-72 114.03,-108"/>
<text xml:space="preserve" text-anchor="middle" x="57.02" y="-85.8" font-family="Arial" font-size="14.00" fill="#4682b4">Help to Perform</text>
</g>
<!-- A&#45;&gt;B -->
<g id="edge1" class="edge">
<title>A&#45;&gt;B</title>
<path fill="none" stroke="black" d="M88.52,-143.83C88.52,-143.83 88.52,-119.93 88.52,-119.93"/>
<polygon fill="black" stroke="black" points="92.02,-119.93 88.52,-109.93 85.02,-119.93 92.02,-119.93"/>
</g>
<!-- C -->
<g id="node3" class="node">
<title>C</title>
<polygon fill="#87ceeb" stroke="black" points="261.81,-108 132.22,-108 132.22,-72 261.81,-72 261.81,-108"/>
<text xml:space="preserve" text-anchor="middle" x="197.02" y="-85.8" font-family="Arial" font-size="14.00" fill="#4682b4">Already Performer</text>
</g>
<!-- A&#45;&gt;C -->
<g id="edge2" class="edge">
<title>A&#45;&gt;C</title>
<path fill="none" stroke="black" d="M161.63,-143.83C161.63,-143.83 161.63,-119.93 161.63,-119.93"/>
<polygon fill="black" stroke="black" points="165.13,-119.93 161.63,-109.93 158.13,-119.93 165.13,-119.93"/>
</g>
<!-- D -->
<g id="node4" class="node">
<title>D</title>
<polygon fill="#87ceeb" stroke="black" points="186.77,-36 67.26,-36 67.26,0 186.77,0 186.77,-36"/>
<text xml:space="preserve" text-anchor="middle" x="127.02" y="-13.8" font-family="Arial" font-size="14.00" fill="#4682b4">No Help Needed</text>
</g>
<!-- B&#45;&gt;D -->
<g id="edge4" class="edge">
<title>B&#45;&gt;D</title>
<path fill="none" stroke="black" d="M90.65,-71.83C90.65,-71.83 90.65,-47.93 90.65,-47.93"/>
<polygon fill="black" stroke="black" points="94.15,-47.93 90.65,-37.93 87.15,-47.93 94.15,-47.93"/>
</g>
<!-- C&#45;&gt;D -->
<g id="edge3" class="edge">
<title>C&#45;&gt;D</title>
<path fill="none" stroke="black" d="M159.5,-71.83C159.5,-71.83 159.5,-47.93 159.5,-47.93"/>
<polygon fill="black" stroke="black" points="163,-47.93 159.5,-37.93 156,-47.93 163,-47.93"/>
</g>
</g>
</svg>
