<?xml version="1.0" encoding="UTF-8" standalone="no"?>
<!DOCTYPE svg PUBLIC "-//W3C//DTD SVG 1.1//EN"
 "http://www.w3.org/Graphics/SVG/1.1/DTD/svg11.dtd">
<!-- Generated by graphviz version 14.0.2 (0)
 -->
<!-- Title: What Pages: 1 -->
<svg width="180pt" height="260pt"
 viewBox="0.00 0.00 180.00 260.00" xmlns="http://www.w3.org/2000/svg" xmlns:xlink="http://www.w3.org/1999/xlink">
<g id="graph0" class="graph" transform="scale(1 1) rotate(0) translate(4 256)">
<title>What</title>
<polygon fill="white" stroke="none" points="-4,4 -4,-256 176.29,-256 176.29,4 -4,4"/>
<!-- A -->
<g id="node1" class="node">
<title>A</title>
<polygon fill="#87ceeb" stroke="black" points="155.94,-252 59.02,-252 59.02,-216 155.94,-216 155.94,-252"/>
<text xml:space="preserve" text-anchor="middle" x="107.48" y="-229.8" font-family="Arial" font-size="14.00" fill="#4682b4">What is PIP?</text>
</g>
<!-- B -->
<g id="node2" class="node">
<title>B</title>
<polygon fill="#87ceeb" stroke="black" points="172.29,-180 42.67,-180 42.67,-144 172.29,-144 172.29,-180"/>
<text xml:space="preserve" text-anchor="middle" x="107.48" y="-157.8" font-family="Arial" font-size="14.00" fill="#4682b4">Package Manager</text>
</g>
<!-- A&#45;&gt;B -->
<g id="edge1" class="edge">
<title>A&#45;&gt;B</title>
<path fill="none" stroke="black" d="M107.48,-215.83C107.48,-215.83 107.48,-191.93 107.48,-191.93"/>
<polygon fill="black" stroke="black" points="110.98,-191.93 107.48,-181.93 103.98,-191.93 110.98,-191.93"/>
</g>
<!-- C -->
<g id="node3" class="node">
<title>C</title>
<polygon fill="#87ceeb" stroke="black" points="124.96,-108 0,-108 0,-72 124.96,-72 124.96,-108"/>
<text xml:space="preserve" text-anchor="middle" x="62.48" y="-85.8" font-family="Arial" font-size="14.00" fill="#4682b4">Python Packages</text>
</g>
<!-- B&#45;&gt;C -->
<g id="edge2" class="edge">
<title>B&#45;&gt;C</title>
<path fill="none" stroke="black" d="M83.81,-143.83C83.81,-143.83 83.81,-119.93 83.81,-119.93"/>
<polygon fill="black" stroke="black" points="87.31,-119.93 83.81,-109.93 80.31,-119.93 87.31,-119.93"/>
</g>
<!-- D -->
<g id="node4" class="node">
<title>D</title>
<polygon fill="#87ceeb" stroke="black" points="141.94,-36 73.02,-36 73.02,0 141.94,0 141.94,-36"/>
<text xml:space="preserve" text-anchor="middle" x="107.48" y="-13.8" font-family="Arial" font-size="14.00" fill="#4682b4">Modules</text>
</g>
<!-- B&#45;&gt;D -->
<g id="edge3" class="edge">
<title>B&#45;&gt;D</title>
<path fill="none" stroke="black" d="M133.45,-143.76C133.45,-143.76 133.45,-47.6 133.45,-47.6"/>
<polygon fill="black" stroke="black" points="136.95,-47.6 133.45,-37.6 129.95,-47.6 136.95,-47.6"/>
</g>
<!-- C&#45;&gt;D -->
<g id="edge4" class="edge">
<title>C&#45;&gt;D</title>
<path fill="none" stroke="black" d="M98.99,-71.83C98.99,-71.83 98.99,-47.93 98.99,-47.93"/>
<polygon fill="black" stroke="black" points="102.49,-47.93 98.99,-37.93 95.49,-47.93 102.49,-47.93"/>
</g>
</g>
</svg>
