<?xml version="1.0" encoding="utf-8" standalone="yes"?>
<!DOCTYPE svg PUBLIC "-//W3C//DTD SVG 1.1//EN" "http://www.w3.org/Graphics/SVG/1.1/DTD/svg11.dtd">
<svg version="1.1" xmlns="http://www.w3.org/2000/svg" xmlns:xlink="http://www.w3.org/1999/xlink" width="1014" height="592" viewBox="0 0 1014 592" style="fill:none; stroke:none; fill-rule:evenodd; clip-rule:evenodd; stroke-linecap:round; stroke-linejoin:round; stroke-miterlimit:1.5;">
<style class="text-font-style fontImports" data-font-family="Roboto">
@import url(https://fonts.googleapis.com/css2?family=Roboto:wght@400;700&amp;display=block);
</style>
<g id="items" style="isolation:isolate;">
<g id="blend" style="mix-blend-mode:normal;">
<g id="g-root-ro_1qbyi53g69uyr-fill" data-item-order="-30240" transform="translate(424.0, 366.0)">
<g id="ro_1qbyi53g69uyr-fill" stroke="none" fill="#e8f9ff" fill-opacity="1.0">
<g>
<path d="M 22 10L 178 10C 178 10 190 10 190 22L 190 166C 190 166 190 178 178 178L 22 178C 22 178 10 178 10 166L 10 22C 10 22 10 10 22 10"></path>
</g>
</g>
</g>
<g id="g-root-ro_5uzbrg69ukv-fill" data-item-order="-30240" transform="translate(14.0, 366.0)">
<g id="ro_5uzbrg69ukv-fill" stroke="none" fill="#e8f9ff" fill-opacity="1.0">
<g>
<path d="M 22 10L 178 10C 178 10 190 10 190 22L 190 166C 190 166 190 178 178 178L 22 178C 22 178 10 178 10 166L 10 22C 10 22 10 10 22 10"></path>
</g>
</g>
</g>
<g id="g-root-ro_me7g47g69t6w-fill" data-item-order="-28224" transform="translate(812.0, 366.0)">
<g id="ro_me7g47g69t6w-fill" stroke="none" fill="#e8f9ff" fill-opacity="1.0">
<g>
<path d="M 22 10L 166 10C 166 10 178 10 178 22L 178 166C 178 166 178 178 166 178L 22 178C 22 178 10 178 10 166L 10 22C 10 22 10 10 22 10"></path>
</g>
</g>
</g>
<g id="g-root-ro_1qbyi53g69vk0-fill" data-item-order="-28224" transform="translate(624.0, 366.0)">
<g id="ro_1qbyi53g69vk0-fill" stroke="none" fill="#e8f9ff" fill-opacity="1.0">
<g>
<path d="M 22 10L 166 10C 166 10 178 10 178 22L 178 166C 178 166 178 178 166 178L 22 178C 22 178 10 178 10 166L 10 22C 10 22 10 10 22 10"></path>
</g>
</g>
</g>
<g id="g-root-ro_v97z9zg69tl9-fill" data-item-order="-28224" transform="translate(236.0, 366.0)">
<g id="ro_v97z9zg69tl9-fill" stroke="none" fill="#e8f9ff" fill-opacity="1.0">
<g>
<path d="M 22 10L 166 10C 166 10 178 10 178 22L 178 166C 178 166 178 178 166 178L 22 178C 22 178 10 178 10 166L 10 22C 10 22 10 10 22 10"></path>
</g>
</g>
</g>
<g id="g-root-ro_5uzbrg69tz7-fill" data-item-order="-24192" transform="translate(20.0, 166.0)">
<g id="ro_5uzbrg69tz7-fill" stroke="none" fill="#e8f9ff" fill-opacity="1.0">
<g>
<path d="M 22 10L 166 10C 166 10 178 10 178 22L 178 142C 178 142 178 154 166 154L 22 154C 22 154 10 154 10 142L 10 22C 10 22 10 10 22 10"></path>
</g>
</g>
</g>
<g id="g-root-ro_qteh5jg69szz-fill" data-item-order="-22464" transform="translate(536.0, 166.0)">
<g id="ro_qteh5jg69szz-fill" stroke="none" fill="#e8f9ff" fill-opacity="1.0">
<g>
<path d="M 22 10L 154 10C 154 10 166 10 166 22L 166 142C 166 142 166 154 154 154L 22 154C 22 154 10 154 10 142L 10 22C 10 22 10 10 22 10"></path>
</g>
</g>
</g>
<g id="g-root-ro_1ur5j6fg69uyr-fill" data-item-order="-22464" transform="translate(208.0, 166.0)">
<g id="ro_1ur5j6fg69uyr-fill" stroke="none" fill="#e8f9ff" fill-opacity="1.0">
<g>
<path d="M 22 10L 154 10C 154 10 166 10 166 22L 166 142C 166 142 166 154 154 154L 22 154C 22 154 10 154 10 142L 10 22C 10 22 10 10 22 10"></path>
</g>
</g>
</g>
<g id="g-root-ro_qss02fg69vkf-fill" data-item-order="-19008" transform="translate(384.0, 166.0)">
<g id="ro_qss02fg69vkf-fill" stroke="none" fill="#e8f9ff" fill-opacity="1.0">
<g>
<path d="M 22 10L 130 10C 130 10 142 10 142 22L 142 142C 142 142 142 154 130 154L 22 154C 22 154 10 154 10 142L 10 22C 10 22 10 10 22 10"></path>
</g>
</g>
</g>
<g id="g-root-ro_v8li6vg69t6t-fill" data-item-order="-10368" transform="translate(302.0, 38.0)">
<g id="ro_v8li6vg69t6t-fill" stroke="none" fill="#f5f5f5" fill-opacity="1.0">
<g>
<path d="M 22 10L 142 10C 142 10 154 10 154 22L 154 70C 154 70 154 82 142 82L 22 82C 22 82 10 82 10 70L 10 22C 10 22 10 10 22 10"></path>
</g>
</g>
</g>
<g id="g-root-cu_1usehcng69ukg-fill" data-item-order="2" transform="translate(320.0, 310.0)"></g>
<g id="g-root-cu_1hgxyzbg69ukq-fill" data-item-order="2" transform="translate(374.0, 110.0)"></g>
<g id="g-root-cu_92qxqvg69url-fill" data-item-order="2" transform="translate(514.0, 310.0)"></g>
<g id="g-root-cu_18layqfg69ukk-fill" data-item-order="2" transform="translate(374.0, 110.0)"></g>
<g id="g-root-cu_v9ugd3g69ukr-fill" data-item-order="2" transform="translate(286.0, 110.0)"></g>
<g id="g-root-cu_hydxzrg69urq-fill" data-item-order="2" transform="translate(614.0, 310.0)"></g>
<g id="g-root-cu_hydxzrg69ukj-fill" data-item-order="2" transform="translate(104.0, 310.0)"></g>
<g id="g-root-cu_qu0y8ng69urv-fill" data-item-order="2" transform="translate(614.0, 310.0)"></g>
<g id="g-root-cu_1qckz87g69udj-fill" data-item-order="2" transform="translate(104.0, 110.0)"></g>
<g id="g-root-ic__1d14guvg69szq-fill" data-item-order="1000000000" transform="translate(824.0, 435.0)"></g>
<g id="g-root-tx_shortvid_v97z9zg69vr4-fill" data-item-order="1000000000" transform="translate(860.0, 378.0)">
<g id="tx_shortvid_v97z9zg69vr4-fill" stroke="none" fill="#1eabda" fill-opacity="1.0">
<g>
<text transform="translate(10.0, 70.0)" style="font-size:20px; font-family:'Roboto', sans-serif; white-space:pre;">
<tspan x="2" y="-36" dominant-baseline="ideographic">Short Videos,</tspan>
<tspan x="2" y="-12" dominant-baseline="ideographic"> Youtube</tspan>
<tspan x="2" y="12" dominant-baseline="ideographic"> Videos,</tspan>
<tspan x="2" y="36" dominant-baseline="ideographic"> Interviews,</tspan>
<tspan x="2" y="60" dominant-baseline="ideographic"> Podcasts</tspan>
</text>
</g>
</g>
</g>
<g id="g-root-ic__dhxys7g69vk8-fill" data-item-order="1000000000" transform="translate(636.0, 435.0)"></g>
<g id="g-root-tx_producta_144uzivg69v67-fill" data-item-order="1000000000" transform="translate(672.0, 414.0)">
<g id="tx_producta_144uzivg69v67-fill" stroke="none" fill="#1eabda" fill-opacity="1.0">
<g>
<text transform="translate(10.0, 34.0)" style="font-size:20px; font-family:'Roboto', sans-serif; white-space:pre;">
<tspan x="2" y="0" dominant-baseline="ideographic">Product,</tspan>
<tspan x="2" y="24" dominant-baseline="ideographic"> Architecture</tspan>
</text>
</g>
</g>
</g>
<g id="g-root-ic__144uzivg69urz-fill" data-item-order="1000000000" transform="translate(436.0, 435.0)"></g>
<g id="g-root-tx_shortfil_6hgevg69ts8-fill" data-item-order="1000000000" transform="translate(472.0, 414.0)">
<g id="tx_shortfil_6hgevg69ts8-fill" stroke="none" fill="#1eabda" fill-opacity="1.0">
<g>
<text transform="translate(10.0, 34.0)" style="font-size:20px; font-family:'Roboto', sans-serif; white-space:pre;">
<tspan x="2" y="0" dominant-baseline="ideographic">Short Films,</tspan>
<tspan x="2" y="24" dominant-baseline="ideographic"> Feature Films</tspan>
</text>
</g>
</g>
</g>
<g id="g-root-ic__1lw500ng69te1-fill" data-item-order="1000000000" transform="translate(248.0, 435.0)"></g>
<g id="g-root-tx_weddingp_1urs09jg69szx-fill" data-item-order="1000000000" transform="translate(284.0, 390.0)">
<g id="tx_weddingp_1urs09jg69szx-fill" stroke="none" fill="#1eabda" fill-opacity="1.0">
<g>
<text transform="translate(10.0, 58.0)" style="font-size:20px; font-family:'Roboto', sans-serif; white-space:pre;">
<tspan x="2" y="-24" dominant-baseline="ideographic">Wedding,</tspan>
<tspan x="2" y="0" dominant-baseline="ideographic"> Prewedding,</tspan>
<tspan x="2" y="24" dominant-baseline="ideographic"> Special Life</tspan>
<tspan x="2" y="48" dominant-baseline="ideographic"> Events</tspan>
</text>
</g>
</g>
</g>
<g id="g-root-ic__1hgbhw7g69ssm-fill" data-item-order="1000000000" transform="translate(548.0, 223.0)"></g>
<g id="g-root-tx_services_1ur5j6fg69vke-fill" data-item-order="1000000000" transform="translate(584.0, 178.0)">
<g id="tx_services_1ur5j6fg69vke-fill" stroke="none" fill="#1eabda" fill-opacity="1.0">
<g>
<text transform="translate(10.0, 58.0)" style="font-size:20px; font-family:'Roboto', sans-serif; white-space:pre;">
<tspan x="2" y="-24" dominant-baseline="ideographic">Services:</tspan>
<tspan x="2" y="0" dominant-baseline="ideographic"> Photoshoot</tspan>
<tspan x="2" y="24" dominant-baseline="ideographic"> &amp;amp;</tspan>
<tspan x="2" y="48" dominant-baseline="ideographic"> Videoshoot</tspan>
</text>
</g>
</g>
</g>
<g id="g-root-ic__1hfp0t3g69vda-fill" data-item-order="1000000000" transform="translate(396.0, 223.0)"></g>
<g id="g-root-ic__hx4ztjg69uyy-fill" data-item-order="1000000000" transform="translate(220.0, 223.0)"></g>
<g id="g-root-tx_taglinel_18k20k7g69ukl-fill" data-item-order="1000000000" transform="translate(256.0, 190.0)">
<g id="tx_taglinel_18k20k7g69ukl-fill" stroke="none" fill="#1eabda" fill-opacity="1.0">
<g>
<text transform="translate(10.0, 46.0)" style="font-size:20px; font-family:'Roboto', sans-serif; white-space:pre;">
<tspan x="2" y="-12" dominant-baseline="ideographic">Tagline:</tspan>
<tspan x="2" y="12" dominant-baseline="ideographic"> Lovin&amp;#39;</tspan>
<tspan x="2" y="36" dominant-baseline="ideographic"> every pixel!</tspan>
</text>
</g>
</g>
</g>
<g id="g-root-ic__mcyhxzg69udq-fill" data-item-order="1000000000" transform="translate(26.0, 435.0)"></g>
<g id="g-root-tx_eventswe_18k20k7g69tze-fill" data-item-order="1000000000" transform="translate(62.0, 402.0)">
<g id="tx_eventswe_18k20k7g69tze-fill" stroke="none" fill="#1eabda" fill-opacity="1.0">
<g>
<text transform="translate(10.0, 46.0)" style="font-size:20px; font-family:'Roboto', sans-serif; white-space:pre;">
<tspan x="2" y="-12" dominant-baseline="ideographic">Events,</tspan>
<tspan x="2" y="12" dominant-baseline="ideographic"> Weddings,</tspan>
<tspan x="2" y="36" dominant-baseline="ideographic"> Travel, Nature</tspan>
</text>
</g>
</g>
</g>
<g id="g-root-ic__4lohg7g69tsa-fill" data-item-order="1000000000" transform="translate(32.0, 223.0)"></g>
<g id="g-root-tx_photosho_mcyhxzg69tdw-fill" data-item-order="1000000000" transform="translate(68.0, 190.0)">
<g id="tx_photosho_mcyhxzg69tdw-fill" stroke="none" fill="#1eabda" fill-opacity="1.0">
<g>
<text transform="translate(10.0, 46.0)" style="font-size:20px; font-family:'Roboto', sans-serif; white-space:pre;">
<tspan x="2" y="-12" dominant-baseline="ideographic">Photoshoots</tspan>
<tspan x="2" y="12" dominant-baseline="ideographic"> &amp;amp;</tspan>
<tspan x="2" y="36" dominant-baseline="ideographic"> Videoshoots</tspan>
</text>
</g>
</g>
</g>
<g id="g-root-ic__5uzbrg69szr-fill" data-item-order="1000000000" transform="translate(314.0, 59.0)"></g>
<g id="g-root-tx_captures_1uqj23bg69vk1-fill" data-item-order="1000000000" transform="translate(350.0, 50.0)">
<g id="tx_captures_1uqj23bg69vk1-fill" stroke="none" fill="#969696" fill-opacity="1.0">
<g>
<text transform="translate(10.0, 22.0)" style="font-size:20px; font-family:'Roboto', sans-serif; white-space:pre;">
<tspan x="2" y="12" dominant-baseline="ideographic">captures</tspan>
</text>
</g>
</g>
</g>
<g id="g-root-tx_toolsphy_zof0bbg69v5s-fill" data-item-order="1000000000" transform="translate(432.0, 190.0)">
<g id="tx_toolsphy_zof0bbg69v5s-fill" stroke="none" fill="#1eabda" fill-opacity="1.0">
<g>
<text transform="translate(10.0, 46.0)" style="font-size:20px; font-family:'Roboto', sans-serif; white-space:pre;">
<tspan x="2" y="-12" dominant-baseline="ideographic">Tools:</tspan>
<tspan x="2" y="12" dominant-baseline="ideographic"> Physical</tspan>
<tspan x="2" y="36" dominant-baseline="ideographic"> Camera</tspan>
</text>
</g>
</g>
</g>
<g id="g-root-ro_1qbyi53g69uyr-stroke" data-item-order="-30240" transform="translate(424.0, 366.0)">
<g id="ro_1qbyi53g69uyr-stroke" fill="none" stroke-linecap="round" stroke-linejoin="round" stroke-miterlimit="4" stroke="#1eabda" stroke-width="2" stroke-opacity="1.0">
<g>
<path d="M 22 10L 178 10C 178 10 190 10 190 22L 190 166C 190 166 190 178 178 178L 22 178C 22 178 10 178 10 166L 10 22C 10 22 10 10 22 10"></path>
</g>
</g>
</g>
<g id="g-root-ro_5uzbrg69ukv-stroke" data-item-order="-30240" transform="translate(14.0, 366.0)">
<g id="ro_5uzbrg69ukv-stroke" fill="none" stroke-linecap="round" stroke-linejoin="round" stroke-miterlimit="4" stroke="#1eabda" stroke-width="2" stroke-opacity="1.0">
<g>
<path d="M 22 10L 178 10C 178 10 190 10 190 22L 190 166C 190 166 190 178 178 178L 22 178C 22 178 10 178 10 166L 10 22C 10 22 10 10 22 10"></path>
</g>
</g>
</g>
<g id="g-root-ro_me7g47g69t6w-stroke" data-item-order="-28224" transform="translate(812.0, 366.0)">
<g id="ro_me7g47g69t6w-stroke" fill="none" stroke-linecap="round" stroke-linejoin="round" stroke-miterlimit="4" stroke="#1eabda" stroke-width="2" stroke-opacity="1.0">
<g>
<path d="M 22 10L 166 10C 166 10 178 10 178 22L 178 166C 178 166 178 178 166 178L 22 178C 22 178 10 178 10 166L 10 22C 10 22 10 10 22 10"></path>
</g>
</g>
</g>
<g id="g-root-ro_1qbyi53g69vk0-stroke" data-item-order="-28224" transform="translate(624.0, 366.0)">
<g id="ro_1qbyi53g69vk0-stroke" fill="none" stroke-linecap="round" stroke-linejoin="round" stroke-miterlimit="4" stroke="#1eabda" stroke-width="2" stroke-opacity="1.0">
<g>
<path d="M 22 10L 166 10C 166 10 178 10 178 22L 178 166C 178 166 178 178 166 178L 22 178C 22 178 10 178 10 166L 10 22C 10 22 10 10 22 10"></path>
</g>
</g>
</g>
<g id="g-root-ro_v97z9zg69tl9-stroke" data-item-order="-28224" transform="translate(236.0, 366.0)">
<g id="ro_v97z9zg69tl9-stroke" fill="none" stroke-linecap="round" stroke-linejoin="round" stroke-miterlimit="4" stroke="#1eabda" stroke-width="2" stroke-opacity="1.0">
<g>
<path d="M 22 10L 166 10C 166 10 178 10 178 22L 178 166C 178 166 178 178 166 178L 22 178C 22 178 10 178 10 166L 10 22C 10 22 10 10 22 10"></path>
</g>
</g>
</g>
<g id="g-root-ro_5uzbrg69tz7-stroke" data-item-order="-24192" transform="translate(20.0, 166.0)">
<g id="ro_5uzbrg69tz7-stroke" fill="none" stroke-linecap="round" stroke-linejoin="round" stroke-miterlimit="4" stroke="#1eabda" stroke-width="2" stroke-opacity="1.0">
<g>
<path d="M 22 10L 166 10C 166 10 178 10 178 22L 178 142C 178 142 178 154 166 154L 22 154C 22 154 10 154 10 142L 10 22C 10 22 10 10 22 10"></path>
</g>
</g>
</g>
<g id="g-root-ro_qteh5jg69szz-stroke" data-item-order="-22464" transform="translate(536.0, 166.0)">
<g id="ro_qteh5jg69szz-stroke" fill="none" stroke-linecap="round" stroke-linejoin="round" stroke-miterlimit="4" stroke="#1eabda" stroke-width="2" stroke-opacity="1.0">
<g>
<path d="M 22 10L 154 10C 154 10 166 10 166 22L 166 142C 166 142 166 154 154 154L 22 154C 22 154 10 154 10 142L 10 22C 10 22 10 10 22 10"></path>
</g>
</g>
</g>
<g id="g-root-ro_1ur5j6fg69uyr-stroke" data-item-order="-22464" transform="translate(208.0, 166.0)">
<g id="ro_1ur5j6fg69uyr-stroke" fill="none" stroke-linecap="round" stroke-linejoin="round" stroke-miterlimit="4" stroke="#1eabda" stroke-width="2" stroke-opacity="1.0">
<g>
<path d="M 22 10L 154 10C 154 10 166 10 166 22L 166 142C 166 142 166 154 154 154L 22 154C 22 154 10 154 10 142L 10 22C 10 22 10 10 22 10"></path>
</g>
</g>
</g>
<g id="g-root-ro_qss02fg69vkf-stroke" data-item-order="-19008" transform="translate(384.0, 166.0)">
<g id="ro_qss02fg69vkf-stroke" fill="none" stroke-linecap="round" stroke-linejoin="round" stroke-miterlimit="4" stroke="#1eabda" stroke-width="2" stroke-opacity="1.0">
<g>
<path d="M 22 10L 130 10C 130 10 142 10 142 22L 142 142C 142 142 142 154 130 154L 22 154C 22 154 10 154 10 142L 10 22C 10 22 10 10 22 10"></path>
</g>
</g>
</g>
<g id="g-root-ro_v8li6vg69t6t-stroke" data-item-order="-10368" transform="translate(302.0, 38.0)">
<g id="ro_v8li6vg69t6t-stroke" fill="none" stroke-linecap="round" stroke-linejoin="round" stroke-miterlimit="4" stroke="#969696" stroke-width="2" stroke-opacity="1.0">
<g>
<path d="M 22 10L 142 10C 142 10 154 10 154 22L 154 70C 154 70 154 82 142 82L 22 82C 22 82 10 82 10 70L 10 22C 10 22 10 10 22 10"></path>
</g>
</g>
</g>
<g id="g-root-cu_1usehcng69ukg-stroke" data-item-order="2" transform="translate(320.0, 310.0)">
<g id="cu_1usehcng69ukg-stroke" fill="none" stroke-linecap="round" stroke-linejoin="round" stroke-miterlimit="4" stroke="#484848" stroke-width="2" stroke-opacity="1.0">
<g>
<path d="M 304 10L 304 24L 304 38L 157 38L 10 38L 10 52L 10 64"></path>
<path d="M 3.5 58L 10 64.5L 16.5 58" stroke-dasharray="none"></path>
</g>
</g>
</g>
<g id="g-root-cu_1hgxyzbg69ukq-stroke" data-item-order="2" transform="translate(374.0, 110.0)">
<g id="cu_1hgxyzbg69ukq-stroke" fill="none" stroke-linecap="round" stroke-linejoin="round" stroke-miterlimit="4" stroke="#484848" stroke-width="2" stroke-opacity="1.0">
<g>
<path d="M 10 10L 10 24L 10 38L 130 38L 250 38L 250 52L 250 64"></path>
<path d="M 243.5 58L 250 64.5L 256.5 58" stroke-dasharray="none"></path>
</g>
</g>
</g>
<g id="g-root-cu_92qxqvg69url-stroke" data-item-order="2" transform="translate(514.0, 310.0)">
<g id="cu_92qxqvg69url-stroke" fill="none" stroke-linecap="round" stroke-linejoin="round" stroke-miterlimit="4" stroke="#484848" stroke-width="2" stroke-opacity="1.0">
<g>
<path d="M 110 10L 110 24L 110 38L 60 38L 10 38L 10 52L 10 64"></path>
<path d="M 3.5 58L 10 64.5L 16.5 58" stroke-dasharray="none"></path>
</g>
</g>
</g>
<g id="g-root-cu_18layqfg69ukk-stroke" data-item-order="2" transform="translate(374.0, 110.0)">
<g id="cu_18layqfg69ukk-stroke" fill="none" stroke-linecap="round" stroke-linejoin="round" stroke-miterlimit="4" stroke="#484848" stroke-width="2" stroke-opacity="1.0">
<g>
<path d="M 10 10L 10 24L 10 38L 48 38L 86 38L 86 52L 86 64"></path>
<path d="M 79.5 58L 86 64.5L 92.5 58" stroke-dasharray="none"></path>
</g>
</g>
</g>
<g id="g-root-cu_v9ugd3g69ukr-stroke" data-item-order="2" transform="translate(286.0, 110.0)">
<g id="cu_v9ugd3g69ukr-stroke" fill="none" stroke-linecap="round" stroke-linejoin="round" stroke-miterlimit="4" stroke="#484848" stroke-width="2" stroke-opacity="1.0">
<g>
<path d="M 98 10L 98 24L 98 38L 54 38L 10 38L 10 52L 10 64"></path>
<path d="M 3.5 58L 10 64.5L 16.5 58" stroke-dasharray="none"></path>
</g>
</g>
</g>
<g id="g-root-cu_hydxzrg69urq-stroke" data-item-order="2" transform="translate(614.0, 310.0)">
<g id="cu_hydxzrg69urq-stroke" fill="none" stroke-linecap="round" stroke-linejoin="round" stroke-miterlimit="4" stroke="#484848" stroke-width="2" stroke-opacity="1.0">
<g>
<path d="M 10 10L 10 24L 10 38L 57 38L 104 38L 104 52L 104 64"></path>
<path d="M 97.5 58L 104 64.5L 110.5 58" stroke-dasharray="none"></path>
</g>
</g>
</g>
<g id="g-root-cu_hydxzrg69ukj-stroke" data-item-order="2" transform="translate(104.0, 310.0)">
<g id="cu_hydxzrg69ukj-stroke" fill="none" stroke-linecap="round" stroke-linejoin="round" stroke-miterlimit="4" stroke="#484848" stroke-width="2" stroke-opacity="1.0">
<g>
<path d="M 10 10L 10 38L 10 64"></path>
<path d="M 3.5 58L 10 64.5L 16.5 58" stroke-dasharray="none"></path>
</g>
</g>
</g>
<g id="g-root-cu_qu0y8ng69urv-stroke" data-item-order="2" transform="translate(614.0, 310.0)">
<g id="cu_qu0y8ng69urv-stroke" fill="none" stroke-linecap="round" stroke-linejoin="round" stroke-miterlimit="4" stroke="#484848" stroke-width="2" stroke-opacity="1.0">
<g>
<path d="M 10 10L 10 24L 10 38L 151 38L 292 38L 292 52L 292 64"></path>
<path d="M 285.5 58L 292 64.5L 298.5 58" stroke-dasharray="none"></path>
</g>
</g>
</g>
<g id="g-root-cu_1qckz87g69udj-stroke" data-item-order="2" transform="translate(104.0, 110.0)">
<g id="cu_1qckz87g69udj-stroke" fill="none" stroke-linecap="round" stroke-linejoin="round" stroke-miterlimit="4" stroke="#484848" stroke-width="2" stroke-opacity="1.0">
<g>
<path d="M 280 10L 280 24L 280 38L 145 38L 10 38L 10 52L 10 64"></path>
<path d="M 3.5 58L 10 64.5L 16.5 58" stroke-dasharray="none"></path>
</g>
</g>
</g>
<g id="g-root-ic__1d14guvg69szq-stroke" data-item-order="1000000000" transform="translate(824.0, 435.0)">
<g id="ic__1d14guvg69szq-stroke" fill="none" stroke-linecap="round" stroke-linejoin="round" stroke-miterlimit="4" stroke="#1eabda" stroke-width="2" stroke-opacity="1.0">
<g>
<path d="M 10 10L 40 10L 40 40L 10 40Z"></path>
</g>
</g>
</g>
<g id="g-root-tx_shortvid_v97z9zg69vr4-stroke" data-item-order="1000000000" transform="translate(860.0, 378.0)"></g>
<g id="g-root-ic__dhxys7g69vk8-stroke" data-item-order="1000000000" transform="translate(636.0, 435.0)">
<g id="ic__dhxys7g69vk8-stroke" fill="none" stroke-linecap="round" stroke-linejoin="round" stroke-miterlimit="4" stroke="#1eabda" stroke-width="2" stroke-opacity="1.0">
<g>
<path d="M 10 10L 40 10L 40 40L 10 40Z"></path>
</g>
</g>
</g>
<g id="g-root-tx_producta_144uzivg69v67-stroke" data-item-order="1000000000" transform="translate(672.0, 414.0)"></g>
<g id="g-root-ic__144uzivg69urz-stroke" data-item-order="1000000000" transform="translate(436.0, 435.0)">
<g id="ic__144uzivg69urz-stroke" fill="none" stroke-linecap="round" stroke-linejoin="round" stroke-miterlimit="4" stroke="#1eabda" stroke-width="2" stroke-opacity="1.0">
<g>
<path d="M 10 10L 40 10L 40 40L 10 40Z"></path>
</g>
</g>
</g>
<g id="g-root-tx_shortfil_6hgevg69ts8-stroke" data-item-order="1000000000" transform="translate(472.0, 414.0)"></g>
<g id="g-root-ic__1lw500ng69te1-stroke" data-item-order="1000000000" transform="translate(248.0, 435.0)">
<g id="ic__1lw500ng69te1-stroke" fill="none" stroke-linecap="round" stroke-linejoin="round" stroke-miterlimit="4" stroke="#1eabda" stroke-width="2" stroke-opacity="1.0">
<g>
<path d="M 10 10L 40 10L 40 40L 10 40Z"></path>
</g>
</g>
</g>
<g id="g-root-tx_weddingp_1urs09jg69szx-stroke" data-item-order="1000000000" transform="translate(284.0, 390.0)"></g>
<g id="g-root-ic__1hgbhw7g69ssm-stroke" data-item-order="1000000000" transform="translate(548.0, 223.0)">
<g id="ic__1hgbhw7g69ssm-stroke" fill="none" stroke-linecap="round" stroke-linejoin="round" stroke-miterlimit="4" stroke="#1eabda" stroke-width="2" stroke-opacity="1.0">
<g>
<path d="M 10 10L 40 10L 40 40L 10 40Z"></path>
</g>
</g>
</g>
<g id="g-root-tx_services_1ur5j6fg69vke-stroke" data-item-order="1000000000" transform="translate(584.0, 178.0)"></g>
<g id="g-root-ic__1hfp0t3g69vda-stroke" data-item-order="1000000000" transform="translate(396.0, 223.0)">
<g id="ic__1hfp0t3g69vda-stroke" fill="none" stroke-linecap="round" stroke-linejoin="round" stroke-miterlimit="4" stroke="#1eabda" stroke-width="2" stroke-opacity="1.0">
<g>
<path d="M 10 10L 40 10L 40 40L 10 40Z"></path>
</g>
</g>
</g>
<g id="g-root-ic__hx4ztjg69uyy-stroke" data-item-order="1000000000" transform="translate(220.0, 223.0)">
<g id="ic__hx4ztjg69uyy-stroke" fill="none" stroke-linecap="round" stroke-linejoin="round" stroke-miterlimit="4" stroke="#1eabda" stroke-width="2" stroke-opacity="1.0">
<g>
<path d="M 10 10L 40 10L 40 40L 10 40Z"></path>
</g>
</g>
</g>
<g id="g-root-tx_taglinel_18k20k7g69ukl-stroke" data-item-order="1000000000" transform="translate(256.0, 190.0)"></g>
<g id="g-root-ic__mcyhxzg69udq-stroke" data-item-order="1000000000" transform="translate(26.0, 435.0)">
<g id="ic__mcyhxzg69udq-stroke" fill="none" stroke-linecap="round" stroke-linejoin="round" stroke-miterlimit="4" stroke="#1eabda" stroke-width="2" stroke-opacity="1.0">
<g>
<path d="M 10 10L 40 10L 40 40L 10 40Z"></path>
</g>
</g>
</g>
<g id="g-root-tx_eventswe_18k20k7g69tze-stroke" data-item-order="1000000000" transform="translate(62.0, 402.0)"></g>
<g id="g-root-ic__4lohg7g69tsa-stroke" data-item-order="1000000000" transform="translate(32.0, 223.0)">
<g id="ic__4lohg7g69tsa-stroke" fill="none" stroke-linecap="round" stroke-linejoin="round" stroke-miterlimit="4" stroke="#1eabda" stroke-width="2" stroke-opacity="1.0">
<g>
<path d="M 10 10L 40 10L 40 40L 10 40Z"></path>
</g>
</g>
</g>
<g id="g-root-tx_photosho_mcyhxzg69tdw-stroke" data-item-order="1000000000" transform="translate(68.0, 190.0)"></g>
<g id="g-root-ic__5uzbrg69szr-stroke" data-item-order="1000000000" transform="translate(314.0, 59.0)">
<g id="ic__5uzbrg69szr-stroke" fill="none" stroke-linecap="round" stroke-linejoin="round" stroke-miterlimit="4" stroke="#969696" stroke-width="2" stroke-opacity="1.0">
<g>
<path d="M 10 10L 40 10L 40 40L 10 40Z"></path>
</g>
</g>
</g>
<g id="g-root-tx_captures_1uqj23bg69vk1-stroke" data-item-order="1000000000" transform="translate(350.0, 50.0)"></g>
<g id="g-root-tx_toolsphy_zof0bbg69v5s-stroke" data-item-order="1000000000" transform="translate(432.0, 190.0)"></g>
</g>
</g>
<path id="w244t3g6ba4p" d="M65.283 12.757a.35.35 0 0 0 .584.157l5.203-5.141-6.183 3.523.396 1.461zm-2.216-11.7a.35.35 0 0 0-.522.305v3.111l3.276-1.868-2.754-1.548zm3.728 2.105l-4.25 2.421v2.445l6.391-3.644-2.141-1.222zm4.708 3.303a.35.35 0 0 0 0-.609l-1.592-.9-7.365 4.199v1.782a.35.35 0 0 0 .523.305l8.435-4.777z M44.542 2.513c0-.433.355-.783.792-.783s.792.35.792.783-.355.783-.792.783-.792-.35-.792-.783zm59.171 0c0-.433.355-.783.792-.783s.792.35.792.783-.355.783-.792.783-.792-.35-.792-.783zm-85.951 7.636h-1.27v-.487c-.276.201-.864.609-1.881.609-1.202 0-2.274-.794-2.137-2.078.118-1.106 1.153-1.584 1.848-1.727l2.17-.345c0-.539-.29-.956-1.064-1.006s-1.21.305-1.571 1.017l-1.124-.605c1.218-2.631 5.029-1.764 5.029.414v4.207zm-1.27-2.86c.006.396-.062 1.112-.819 1.59-.587.37-1.841.299-1.903-.395-.049-.555.461-.791.906-.898l1.816-.297zm72.662 2.86h-1.27v-.487c-.276.201-.864.609-1.881.609-1.202 0-2.274-.794-2.137-2.078.118-1.106 1.153-1.584 1.848-1.727l2.17-.345c0-.539-.29-.956-1.064-1.006s-1.21.305-1.571 1.017l-1.124-.605c1.218-2.631 5.029-1.764 5.029.414v4.207zm-1.27-2.86c.006.396-.062 1.112-.82 1.59-.587.37-1.841.299-1.903-.395-.049-.555.461-.791.906-.898l1.816-.297zM99.096 10.149H97.85v-8.45h1.246v4.895l2.68-2.559h1.738l-2.633 2.535 2.715 3.578h-1.556l-2.077-2.707-.867.844v1.863zm6.053-6.114h-1.255v6.113h1.255V4.035zm-59.2 0h-1.255v6.113h1.255V4.035zm5.584 6.113V1.697h1.255v2.695c.361-.346 1-.485 1.47-.485 1.452 0 2.477 1.082 2.457 2.448v3.792h-1.27v-3.68c0-.408-.214-1.339-1.315-1.339-.968 0-1.342.756-1.342 1.339v3.681h-1.255zm-4.76-4.894V4.039h.621a.45.45 0 0 0 .45-.45v-.855h1.251v1.305h1.309v1.215h-1.309v3.109c0 .293.105.664.648.664.365 0 .531-.035.736-.07v1.137s-.361.113-.857.113c-1.398 0-1.777-1.051-1.777-1.788V5.254h-1.071zM36.528 4.039h-1.394l2.191 6.106h1.125l1.234-3.918 1.238 3.918h1.129l2.188-6.106h-1.383l-1.359 3.93-1.256-3.93h-1.124l-1.242 3.957-1.348-3.957zM26.212 7.141c-.02 1.566 1.187 3.129 3.223 3.129 1.566 0 2.383-.918 2.734-1.719L31.172 8c-.315.399-.801 1.094-1.738 1.094-1.145 0-1.825-.781-1.891-1.52h4.625c.074-.284.148-.995-.03-1.559-.336-1.064-1.221-2.102-2.839-2.102s-3.088 1.152-3.088 3.227zm1.363-.75h3.348c-.055-.43-.566-1.301-1.623-1.301a1.79 1.79 0 0 0-1.725 1.301zm-8.758.75c.038 1.758 1.277 3.133 3.145 3.133 1.074 0 1.723-.477 1.961-.672v.547h1.242V1.703h-1.258v2.888c-.414-.36-1.062-.68-1.93-.68-1.91 0-3.198 1.473-3.16 3.23zm1.309-.08c0 1.119.723 1.978 1.836 1.978a1.88 1.88 0 0 0 1.94-1.904c0-1.371-1.011-1.99-1.972-1.99s-1.805.798-1.805 1.916zm76.683-.028C96.771 5.275 95.532 3.9 93.664 3.9c-1.074 0-1.723.477-1.961.672v-.547h-1.242v8.22h1.258V9.583c.414.36 1.063.68 1.93.68 1.91 0 3.198-1.473 3.16-3.23zm-1.309.08c0-1.119-.723-1.978-1.836-1.978a1.88 1.88 0 0 0-1.94 1.904c0 1.371 1.011 1.99 1.972 1.99S95.5 8.231 95.5 7.113zM106.441 10.173V4.036h1.254v.382c.361-.346 1-.485 1.47-.485 1.452 0 2.477 1.082 2.457 2.448v3.792h-1.27V6.492c0-.408-.214-1.339-1.315-1.339-.969 0-1.342.756-1.342 1.339v3.681h-1.254zm-30.383-.021V1.824h1.084l4.215 5.777V1.824h1.32v8.328h-1.094l-4.207-5.796v5.796h-1.319zM5.24 10.149H4V2.377h1.014l2.664 3.597 2.654-3.592h1.03v7.766h-1.256V4.762L7.678 8.068 5.24 4.742v5.407z" transform="translate(17.0, 561.0)" fill="#80808088" stroke="none"></path>
</svg>