<?xml version="1.0" encoding="utf-8" standalone="yes"?>
<!DOCTYPE svg PUBLIC "-//W3C//DTD SVG 1.1//EN" "http://www.w3.org/Graphics/SVG/1.1/DTD/svg11.dtd">
<svg version="1.1" xmlns="http://www.w3.org/2000/svg" xmlns:xlink="http://www.w3.org/1999/xlink" width="417" height="1208" viewBox="0 0 417 1208" style="fill:none; stroke:none; fill-rule:evenodd; clip-rule:evenodd; stroke-linecap:round; stroke-linejoin:round; stroke-miterlimit:1.5;">
<style class="text-font-style fontImports" data-font-family="Roboto">
@import url(https://fonts.googleapis.com/css2?family=Roboto:wght@400;700&amp;display=block);
</style>
<g id="items" style="isolation:isolate;">
<g id="blend" style="mix-blend-mode:normal;">
<g id="g-root-di_hte8gng5x79f-fill" data-item-order="-27648" transform="translate(14.0, 165.99998474121094)">
<g id="di_hte8gng5x79f-fill" stroke="none" fill="#fff2e5" fill-opacity="1.0">
<g>
<path d="M 10 82L 106 154L 202 82L 106 10Z"></path>
</g>
</g>
</g>
<g id="g-root-ro_140hr2vg5x8gf-fill" data-item-order="-16128" transform="translate(26.000015258789062, 518.0)">
<g id="ro_140hr2vg5x8gf-fill" stroke="none" fill="#e8f9ff" fill-opacity="1.0">
<g>
<path d="M 22 10L 166 10C 166 10 178 10 178 22L 178 94C 178 94 178 106 166 106L 22 106C 22 106 10 106 10 94L 10 22C 10 22 10 10 22 10"></path>
</g>
</g>
</g>
<g id="g-root-ro_1cw4rbrg5x824-fill" data-item-order="-16128" transform="translate(214.0, 366.0)">
<g id="ro_1cw4rbrg5x824-fill" stroke="none" fill="#e8f9ff" fill-opacity="1.0">
<g>
<path d="M 21.999992 10L 165.999992 10C 165.999992 10 177.999992 10 177.999992 22L 177.999992 94C 177.999992 94 177.999992 106 165.999992 106L 21.999992 106C 21.999992 106 9.999992 106 9.999992 94L 9.999992 22C 9.999992 22 9.999992 10 21.999992 10"></path>
</g>
</g>
</g>
<g id="g-root-ro_1q7l9p3g5x7ny-fill" data-item-order="-16128" transform="translate(26.000015258789062, 366.0)">
<g id="ro_1q7l9p3g5x7ny-fill" stroke="none" fill="#e8f9ff" fill-opacity="1.0">
<g>
<path d="M 22 10L 166 10C 166 10 178 10 178 22L 178 94C 178 94 178 106 166 106L 22 106C 22 106 10 106 10 94L 10 22C 10 22 10 10 22 10"></path>
</g>
</g>
</g>
<g id="g-root-ro_v5h7x3g5x6gz-fill" data-item-order="-14976" transform="translate(32.00001525878906, 926.0)">
<g id="ro_v5h7x3g5x6gz-fill" stroke="none" fill="#e8f9ff" fill-opacity="1.0">
<g>
<path d="M 22 10L 154 10C 154 10 166 10 166 22L 166 94C 166 94 166 106 154 106L 22 106C 22 106 10 106 10 94L 10 22C 10 22 10 10 22 10"></path>
</g>
</g>
</g>
<g id="g-root-ro_qpnpsng5x5oh-fill" data-item-order="-11232" transform="translate(32.00001525878906, 670.0)">
<g id="ro_qpnpsng5x5oh-fill" stroke="none" fill="#e8f9ff" fill-opacity="1.0">
<g>
<path d="M 22 10L 154 10C 154 10 166 10 166 22L 166 70C 166 70 166 82 154 82L 22 82C 22 82 10 82 10 70L 10 22C 10 22 10 10 22 10"></path>
</g>
</g>
</g>
<g id="g-root-ro_18gxqafg5x62q-fill" data-item-order="-10368" transform="translate(38.00001525878906, 798.0)">
<g id="ro_18gxqafg5x62q-fill" stroke="none" fill="#e8f9ff" fill-opacity="1.0">
<g>
<path d="M 22 10L 142 10C 142 10 154 10 154 22L 154 70C 154 70 154 82 142 82L 22 82C 22 82 10 82 10 70L 10 22C 10 22 10 10 22 10"></path>
</g>
</g>
</g>
<g id="g-root-ro_1lse8nrg5x6od-fill" data-item-order="-8640" transform="translate(177.0, 1078.0)">
<g id="ro_1lse8nrg5x6od-fill" stroke="none" fill="#e8f9ff" fill-opacity="1.0">
<g>
<path d="M 22 10L 118 10C 118 10 130 10 130 22L 130 70C 130 70 130 82 118 82L 22 82C 22 82 10 82 10 70L 10 22C 10 22 10 10 22 10"></path>
</g>
</g>
</g>
<g id="g-root-ro_1hby9g7g5x6o6-fill" data-item-order="-7776" transform="translate(56.00001525878906, 38.0)">
<g id="ro_1hby9g7g5x6o6-fill" stroke="none" fill="#f5f5f5" fill-opacity="1.0">
<g>
<path d="M 22 10L 106 10C 106 10 118 10 118 22L 118 70C 118 70 118 82 106 82L 22 82C 22 82 10 82 10 70L 10 22C 10 22 10 10 22 10"></path>
</g>
</g>
</g>
<g id="g-root-tx_no_zlaq1jg5x894-fill" data-item-order="0" transform="translate(206.00003051757812, 250.0)">
<g id="tx_no_zlaq1jg5x894-fill" stroke="none" fill="#484848" fill-opacity="1.0">
<g>
<text transform="translate(10.0, 10.0)" style="font-size:15px; font-family:'Roboto', sans-serif; white-space:pre;">
<tspan x="2" y="18" dominant-baseline="ideographic">No</tspan>
</text>
</g>
</g>
</g>
<g id="g-root-tx_yes_m9u7o7g5x8gd-fill" data-item-order="0" transform="translate(122.00001525878906, 310.0)">
<g id="tx_yes_m9u7o7g5x8gd-fill" stroke="none" fill="#484848" fill-opacity="1.0">
<g>
<text transform="translate(10.0, 10.0)" style="font-size:15px; font-family:'Roboto', sans-serif; white-space:pre;">
<tspan x="2" y="18" dominant-baseline="ideographic">Yes</tspan>
</text>
</g>
</g>
</g>
<g id="g-root-cu_de77fbg5x8nj-fill" data-item-order="2" transform="translate(110.00001525878906, 110.0)"></g>
<g id="g-root-cu_1lt0pqvg5x5vw-fill" data-item-order="2" transform="translate(110.00001525878906, 310.0)"></g>
<g id="g-root-cu_8z06dzg5x69s-fill" data-item-order="2" transform="translate(110.00001525878906, 1022.0)"></g>
<g id="g-root-cu_141qp93g5x630-fill" data-item-order="2" transform="translate(110.00001525878906, 614.0)"></g>
<g id="g-root-cu_4j6o9jg5x62v-fill" data-item-order="2" transform="translate(206.00003051757812, 238.0)"></g>
<g id="g-root-cu_1uonpzrg5x62s-fill" data-item-order="2" transform="translate(110.00001525878906, 870.0)"></g>
<g id="g-root-cu_hun6mvg5x6a5-fill" data-item-order="2" transform="translate(237.0, 462.0)"></g>
<g id="g-root-cu_1hd77mfg5x62x-fill" data-item-order="2" transform="translate(110.00001525878906, 742.0)"></g>
<g id="g-root-cu_qqa6vrg5x631-fill" data-item-order="2" transform="translate(110.00001525878906, 462.0)"></g>
<g id="g-root-ic__v5h7x3g5x6oc-fill" data-item-order="1000000000" transform="translate(189.0, 1099.0)"></g>
<g id="g-root-tx_finish_1lse8nrg5x6h3-fill" data-item-order="1000000000" transform="translate(225.0, 1090.0)">
<g id="tx_finish_1lse8nrg5x6h3-fill" stroke="none" fill="#1eabda" fill-opacity="1.0">
<g>
<text transform="translate(10.0, 22.0)" style="font-size:20px; font-family:'Roboto', sans-serif; white-space:pre;">
<tspan x="2" y="12" dominant-baseline="ideographic">Finish</tspan>
</text>
</g>
</g>
</g>
<g id="g-root-ic__2qp1zg5x6ha-fill" data-item-order="1000000000" transform="translate(44.00001525878906, 959.0)"></g>
<g id="g-root-tx_checktyr_4ik76fg5x6a4-fill" data-item-order="1000000000" transform="translate(80.00001525878906, 938.0)">
<g id="tx_checktyr_4ik76fg5x6a4-fill" stroke="none" fill="#1eabda" fill-opacity="1.0">
<g>
<text transform="translate(10.0, 34.0)" style="font-size:20px; font-family:'Roboto', sans-serif; white-space:pre;">
<tspan x="2" y="0" dominant-baseline="ideographic">Check tyre</tspan>
<tspan x="2" y="24" dominant-baseline="ideographic"> pressure</tspan>
</text>
</g>
</g>
</g>
<g id="g-root-ic__8ydpavg5x630-fill" data-item-order="1000000000" transform="translate(50.00001525878906, 819.0)"></g>
<g id="g-root-tx_lowercar_1q87qs7g5x5oh-fill" data-item-order="1000000000" transform="translate(86.00001525878906, 810.0)">
<g id="tx_lowercar_1q87qs7g5x5oh-fill" stroke="none" fill="#1eabda" fill-opacity="1.0">
<g>
<text transform="translate(10.0, 22.0)" style="font-size:20px; font-family:'Roboto', sans-serif; white-space:pre;">
<tspan x="2" y="12" dominant-baseline="ideographic">Lower car</tspan>
</text>
</g>
</g>
</g>
<g id="g-root-ic__1q7l9p3g5x8nd-fill" data-item-order="1000000000" transform="translate(44.00001525878906, 691.0)"></g>
<g id="g-root-tx_securety_4hxq3bg5x8nd-fill" data-item-order="1000000000" transform="translate(80.00001525878906, 682.0)">
<g id="tx_securety_4hxq3bg5x8nd-fill" stroke="none" fill="#1eabda" fill-opacity="1.0">
<g>
<text transform="translate(10.0, 22.0)" style="font-size:20px; font-family:'Roboto', sans-serif; white-space:pre;">
<tspan x="2" y="12" dominant-baseline="ideographic">Secure tyre</tspan>
</text>
</g>
</g>
</g>
<g id="g-root-ic__8xr87rg5x8gd-fill" data-item-order="1000000000" transform="translate(38.00001525878906, 551.0)"></g>
<g id="g-root-tx_putonspa_ddkqc7g5x893-fill" data-item-order="1000000000" transform="translate(74.00001525878906, 530.0)">
<g id="tx_putonspa_ddkqc7g5x893-fill" stroke="none" fill="#1eabda" fill-opacity="1.0">
<g>
<text transform="translate(10.0, 34.0)" style="font-size:20px; font-family:'Roboto', sans-serif; white-space:pre;">
<tspan x="2" y="0" dominant-baseline="ideographic">Put on spare</tspan>
<tspan x="2" y="24" dominant-baseline="ideographic"> tyre</tspan>
</text>
</g>
</g>
</g>
<g id="g-root-ic__hte8gng5x81x-fill" data-item-order="1000000000" transform="translate(226.0, 399.0)"></g>
<g id="g-root-tx_callforh_m97ql3g5x7v1-fill" data-item-order="1000000000" transform="translate(262.0, 390.0)">
<g id="tx_callforh_m97ql3g5x7v1-fill" stroke="none" fill="#1eabda" fill-opacity="1.0">
<g>
<text transform="translate(10.0, 22.0)" style="font-size:20px; font-family:'Roboto', sans-serif; white-space:pre;">
<tspan x="2" y="12" dominant-baseline="ideographic">Call for help</tspan>
</text>
</g>
</g>
</g>
<g id="g-root-ic__hte8gng5x7nv-fill" data-item-order="1000000000" transform="translate(38.00001525878906, 399.0)"></g>
<g id="g-root-tx_removefl_hte8gng5x7gk-fill" data-item-order="1000000000" transform="translate(74.00001525878906, 378.0)">
<g id="tx_removefl_hte8gng5x7gk-fill" stroke="none" fill="#1eabda" fill-opacity="1.0">
<g>
<text transform="translate(10.0, 34.0)" style="font-size:20px; font-family:'Roboto', sans-serif; white-space:pre;">
<tspan x="2" y="0" dominant-baseline="ideographic">Remove flat</tspan>
<tspan x="2" y="24" dominant-baseline="ideographic"> tyre</tspan>
</text>
</g>
</g>
</g>
<g id="g-root-tx_istherea_v4uqtzg5x6v5-fill" data-item-order="1000000000" transform="translate(62.000030517578125, 201.99998474121094)">
<g id="tx_istherea_v4uqtzg5x6v5-fill" stroke="none" fill="#de8431" fill-opacity="1.0">
<g>
<text transform="translate(58.0, 34.0)" style="font-size:20px; font-family:'Roboto', sans-serif; white-space:pre;">
<tspan x="-36.57" y="0" dominant-baseline="ideographic">Is there a</tspan>
<tspan x="-43.03" y="24" dominant-baseline="ideographic"> spare tyre?</tspan>
</text>
</g>
</g>
</g>
<g id="g-root-ic__1q6yslzg5x8ga-fill" data-item-order="1000000000" transform="translate(68.00001525878906, 59.0)"></g>
<g id="g-root-tx_start_zk1rvbg5x892-fill" data-item-order="1000000000" transform="translate(104.00001525878906, 50.0)">
<g id="tx_start_zk1rvbg5x892-fill" stroke="none" fill="#969696" fill-opacity="1.0">
<g>
<text transform="translate(10.0, 22.0)" style="font-size:20px; font-family:'Roboto', sans-serif; white-space:pre;">
<tspan x="2" y="12" dominant-baseline="ideographic">Start</tspan>
</text>
</g>
</g>
</g>
<g id="g-root-di_hte8gng5x79f-stroke" data-item-order="-27648" transform="translate(14.0, 165.99998474121094)">
<g id="di_hte8gng5x79f-stroke" fill="none" stroke-linecap="round" stroke-linejoin="round" stroke-miterlimit="4" stroke="#de8431" stroke-width="2" stroke-opacity="1.0">
<g>
<path d="M 10 82L 106 154L 202 82L 106 10Z"></path>
</g>
</g>
</g>
<g id="g-root-ro_140hr2vg5x8gf-stroke" data-item-order="-16128" transform="translate(26.000015258789062, 518.0)">
<g id="ro_140hr2vg5x8gf-stroke" fill="none" stroke-linecap="round" stroke-linejoin="round" stroke-miterlimit="4" stroke="#1eabda" stroke-width="2" stroke-opacity="1.0">
<g>
<path d="M 22 10L 166 10C 166 10 178 10 178 22L 178 94C 178 94 178 106 166 106L 22 106C 22 106 10 106 10 94L 10 22C 10 22 10 10 22 10"></path>
</g>
</g>
</g>
<g id="g-root-ro_1cw4rbrg5x824-stroke" data-item-order="-16128" transform="translate(214.0, 366.0)">
<g id="ro_1cw4rbrg5x824-stroke" fill="none" stroke-linecap="round" stroke-linejoin="round" stroke-miterlimit="4" stroke="#1eabda" stroke-width="2" stroke-opacity="1.0">
<g>
<path d="M 21.999992 10L 165.999992 10C 165.999992 10 177.999992 10 177.999992 22L 177.999992 94C 177.999992 94 177.999992 106 165.999992 106L 21.999992 106C 21.999992 106 9.999992 106 9.999992 94L 9.999992 22C 9.999992 22 9.999992 10 21.999992 10"></path>
</g>
</g>
</g>
<g id="g-root-ro_1q7l9p3g5x7ny-stroke" data-item-order="-16128" transform="translate(26.000015258789062, 366.0)">
<g id="ro_1q7l9p3g5x7ny-stroke" fill="none" stroke-linecap="round" stroke-linejoin="round" stroke-miterlimit="4" stroke="#1eabda" stroke-width="2" stroke-opacity="1.0">
<g>
<path d="M 22 10L 166 10C 166 10 178 10 178 22L 178 94C 178 94 178 106 166 106L 22 106C 22 106 10 106 10 94L 10 22C 10 22 10 10 22 10"></path>
</g>
</g>
</g>
<g id="g-root-ro_v5h7x3g5x6gz-stroke" data-item-order="-14976" transform="translate(32.00001525878906, 926.0)">
<g id="ro_v5h7x3g5x6gz-stroke" fill="none" stroke-linecap="round" stroke-linejoin="round" stroke-miterlimit="4" stroke="#1eabda" stroke-width="2" stroke-opacity="1.0">
<g>
<path d="M 22 10L 154 10C 154 10 166 10 166 22L 166 94C 166 94 166 106 154 106L 22 106C 22 106 10 106 10 94L 10 22C 10 22 10 10 22 10"></path>
</g>
</g>
</g>
<g id="g-root-ro_qpnpsng5x5oh-stroke" data-item-order="-11232" transform="translate(32.00001525878906, 670.0)">
<g id="ro_qpnpsng5x5oh-stroke" fill="none" stroke-linecap="round" stroke-linejoin="round" stroke-miterlimit="4" stroke="#1eabda" stroke-width="2" stroke-opacity="1.0">
<g>
<path d="M 22 10L 154 10C 154 10 166 10 166 22L 166 70C 166 70 166 82 154 82L 22 82C 22 82 10 82 10 70L 10 22C 10 22 10 10 22 10"></path>
</g>
</g>
</g>
<g id="g-root-ro_18gxqafg5x62q-stroke" data-item-order="-10368" transform="translate(38.00001525878906, 798.0)">
<g id="ro_18gxqafg5x62q-stroke" fill="none" stroke-linecap="round" stroke-linejoin="round" stroke-miterlimit="4" stroke="#1eabda" stroke-width="2" stroke-opacity="1.0">
<g>
<path d="M 22 10L 142 10C 142 10 154 10 154 22L 154 70C 154 70 154 82 142 82L 22 82C 22 82 10 82 10 70L 10 22C 10 22 10 10 22 10"></path>
</g>
</g>
</g>
<g id="g-root-ro_1lse8nrg5x6od-stroke" data-item-order="-8640" transform="translate(177.0, 1078.0)">
<g id="ro_1lse8nrg5x6od-stroke" fill="none" stroke-linecap="round" stroke-linejoin="round" stroke-miterlimit="4" stroke="#1eabda" stroke-width="2" stroke-opacity="1.0">
<g>
<path d="M 22 10L 118 10C 118 10 130 10 130 22L 130 70C 130 70 130 82 118 82L 22 82C 22 82 10 82 10 70L 10 22C 10 22 10 10 22 10"></path>
</g>
</g>
</g>
<g id="g-root-ro_1hby9g7g5x6o6-stroke" data-item-order="-7776" transform="translate(56.00001525878906, 38.0)">
<g id="ro_1hby9g7g5x6o6-stroke" fill="none" stroke-linecap="round" stroke-linejoin="round" stroke-miterlimit="4" stroke="#969696" stroke-width="2" stroke-opacity="1.0">
<g>
<path d="M 22 10L 106 10C 106 10 118 10 118 22L 118 70C 118 70 118 82 106 82L 22 82C 22 82 10 82 10 70L 10 22C 10 22 10 10 22 10"></path>
</g>
</g>
</g>
<g id="g-root-tx_no_zlaq1jg5x894-stroke" data-item-order="0" transform="translate(206.00003051757812, 250.0)"></g>
<g id="g-root-tx_yes_m9u7o7g5x8gd-stroke" data-item-order="0" transform="translate(122.00001525878906, 310.0)"></g>
<g id="g-root-cu_de77fbg5x8nj-stroke" data-item-order="2" transform="translate(110.00001525878906, 110.0)">
<g id="cu_de77fbg5x8nj-stroke" fill="none" stroke-linecap="round" stroke-linejoin="round" stroke-miterlimit="4" stroke="#484848" stroke-width="2" stroke-opacity="1.0">
<g>
<path d="M 10 10L 10 38L 10 64"></path>
<path d="M 3.5 58L 10 64.5L 16.5 58" stroke-dasharray="none"></path>
</g>
</g>
</g>
<g id="g-root-cu_1lt0pqvg5x5vw-stroke" data-item-order="2" transform="translate(110.00001525878906, 310.0)">
<g id="cu_1lt0pqvg5x5vw-stroke" fill="none" stroke-linecap="round" stroke-linejoin="round" stroke-miterlimit="4" stroke="#484848" stroke-width="2" stroke-opacity="1.0">
<g>
<path d="M 10 10L 10 38L 10 64"></path>
<path d="M 3.5 58L 10 64.5L 16.5 58" stroke-dasharray="none"></path>
</g>
</g>
</g>
<g id="g-root-cu_8z06dzg5x69s-stroke" data-item-order="2" transform="translate(110.00001525878906, 1022.0)">
<g id="cu_8z06dzg5x69s-stroke" fill="none" stroke-linecap="round" stroke-linejoin="round" stroke-miterlimit="4" stroke="#484848" stroke-width="2" stroke-opacity="1.0">
<g>
<path d="M 10 10L 10 24L 10 38L 73.5 38L 137 38L 137 52L 137 64"></path>
<path d="M 130.5 58L 137 64.5L 143.5 58" stroke-dasharray="none"></path>
</g>
</g>
</g>
<g id="g-root-cu_141qp93g5x630-stroke" data-item-order="2" transform="translate(110.00001525878906, 614.0)">
<g id="cu_141qp93g5x630-stroke" fill="none" stroke-linecap="round" stroke-linejoin="round" stroke-miterlimit="4" stroke="#484848" stroke-width="2" stroke-opacity="1.0">
<g>
<path d="M 10 10L 10 38L 10 64"></path>
<path d="M 3.5 58L 10 64.5L 16.5 58" stroke-dasharray="none"></path>
</g>
</g>
</g>
<g id="g-root-cu_4j6o9jg5x62v-stroke" data-item-order="2" transform="translate(206.00003051757812, 238.0)">
<g id="cu_4j6o9jg5x62v-stroke" fill="none" stroke-linecap="round" stroke-linejoin="round" stroke-miterlimit="4" stroke="#484848" stroke-width="2" stroke-opacity="1.0">
<g>
<path d="M 10 10L 56 10L 102 10L 102 74L 102 136"></path>
<path d="M 95.5 130L 102 136.5L 108.5 130" stroke-dasharray="none"></path>
</g>
</g>
</g>
<g id="g-root-cu_1uonpzrg5x62s-stroke" data-item-order="2" transform="translate(110.00001525878906, 870.0)">
<g id="cu_1uonpzrg5x62s-stroke" fill="none" stroke-linecap="round" stroke-linejoin="round" stroke-miterlimit="4" stroke="#484848" stroke-width="2" stroke-opacity="1.0">
<g>
<path d="M 10 10L 10 38L 10 64"></path>
<path d="M 3.5 58L 10 64.5L 16.5 58" stroke-dasharray="none"></path>
</g>
</g>
</g>
<g id="g-root-cu_hun6mvg5x6a5-stroke" data-item-order="2" transform="translate(237.0, 462.0)">
<g id="cu_hun6mvg5x6a5-stroke" fill="none" stroke-linecap="round" stroke-linejoin="round" stroke-miterlimit="4" stroke="#484848" stroke-width="2" stroke-opacity="1.0">
<g>
<path d="M 71 10L 71 304L 71 598L 40.5 598L 10 598L 10 612L 10 624"></path>
<path d="M 3.5 618L 10 624.5L 16.5 618" stroke-dasharray="none"></path>
</g>
</g>
</g>
<g id="g-root-cu_1hd77mfg5x62x-stroke" data-item-order="2" transform="translate(110.00001525878906, 742.0)">
<g id="cu_1hd77mfg5x62x-stroke" fill="none" stroke-linecap="round" stroke-linejoin="round" stroke-miterlimit="4" stroke="#484848" stroke-width="2" stroke-opacity="1.0">
<g>
<path d="M 10 10L 10 38L 10 64"></path>
<path d="M 3.5 58L 10 64.5L 16.5 58" stroke-dasharray="none"></path>
</g>
</g>
</g>
<g id="g-root-cu_qqa6vrg5x631-stroke" data-item-order="2" transform="translate(110.00001525878906, 462.0)">
<g id="cu_qqa6vrg5x631-stroke" fill="none" stroke-linecap="round" stroke-linejoin="round" stroke-miterlimit="4" stroke="#484848" stroke-width="2" stroke-opacity="1.0">
<g>
<path d="M 10 10L 10 38L 10 64"></path>
<path d="M 3.5 58L 10 64.5L 16.5 58" stroke-dasharray="none"></path>
</g>
</g>
</g>
<g id="g-root-ic__v5h7x3g5x6oc-stroke" data-item-order="1000000000" transform="translate(189.0, 1099.0)">
<g id="ic__v5h7x3g5x6oc-stroke" fill="none" stroke-linecap="round" stroke-linejoin="round" stroke-miterlimit="4" stroke="#1eabda" stroke-width="2" stroke-opacity="1.0">
<g>
<path d="M 10 10L 40 10L 40 40L 10 40Z"></path>
</g>
</g>
</g>
<g id="g-root-tx_finish_1lse8nrg5x6h3-stroke" data-item-order="1000000000" transform="translate(225.0, 1090.0)"></g>
<g id="g-root-ic__2qp1zg5x6ha-stroke" data-item-order="1000000000" transform="translate(44.00001525878906, 959.0)">
<g id="ic__2qp1zg5x6ha-stroke" fill="none" stroke-linecap="round" stroke-linejoin="round" stroke-miterlimit="4" stroke="#1eabda" stroke-width="2" stroke-opacity="1.0">
<g>
<path d="M 10 10L 40 10L 40 40L 10 40Z"></path>
</g>
</g>
</g>
<g id="g-root-tx_checktyr_4ik76fg5x6a4-stroke" data-item-order="1000000000" transform="translate(80.00001525878906, 938.0)"></g>
<g id="g-root-ic__8ydpavg5x630-stroke" data-item-order="1000000000" transform="translate(50.00001525878906, 819.0)">
<g id="ic__8ydpavg5x630-stroke" fill="none" stroke-linecap="round" stroke-linejoin="round" stroke-miterlimit="4" stroke="#1eabda" stroke-width="2" stroke-opacity="1.0">
<g>
<path d="M 10 10L 40 10L 40 40L 10 40Z"></path>
</g>
</g>
</g>
<g id="g-root-tx_lowercar_1q87qs7g5x5oh-stroke" data-item-order="1000000000" transform="translate(86.00001525878906, 810.0)"></g>
<g id="g-root-ic__1q7l9p3g5x8nd-stroke" data-item-order="1000000000" transform="translate(44.00001525878906, 691.0)">
<g id="ic__1q7l9p3g5x8nd-stroke" fill="none" stroke-linecap="round" stroke-linejoin="round" stroke-miterlimit="4" stroke="#1eabda" stroke-width="2" stroke-opacity="1.0">
<g>
<path d="M 10 10L 40 10L 40 40L 10 40Z"></path>
</g>
</g>
</g>
<g id="g-root-tx_securety_4hxq3bg5x8nd-stroke" data-item-order="1000000000" transform="translate(80.00001525878906, 682.0)"></g>
<g id="g-root-ic__8xr87rg5x8gd-stroke" data-item-order="1000000000" transform="translate(38.00001525878906, 551.0)">
<g id="ic__8xr87rg5x8gd-stroke" fill="none" stroke-linecap="round" stroke-linejoin="round" stroke-miterlimit="4" stroke="#1eabda" stroke-width="2" stroke-opacity="1.0">
<g>
<path d="M 10 10L 40 10L 40 40L 10 40Z"></path>
</g>
</g>
</g>
<g id="g-root-tx_putonspa_ddkqc7g5x893-stroke" data-item-order="1000000000" transform="translate(74.00001525878906, 530.0)"></g>
<g id="g-root-ic__hte8gng5x81x-stroke" data-item-order="1000000000" transform="translate(226.0, 399.0)">
<g id="ic__hte8gng5x81x-stroke" fill="none" stroke-linecap="round" stroke-linejoin="round" stroke-miterlimit="4" stroke="#1eabda" stroke-width="2" stroke-opacity="1.0">
<g>
<path d="M 10 10L 40 10L 40 40L 10 40Z"></path>
</g>
</g>
</g>
<g id="g-root-tx_callforh_m97ql3g5x7v1-stroke" data-item-order="1000000000" transform="translate(262.0, 390.0)"></g>
<g id="g-root-ic__hte8gng5x7nv-stroke" data-item-order="1000000000" transform="translate(38.00001525878906, 399.0)">
<g id="ic__hte8gng5x7nv-stroke" fill="none" stroke-linecap="round" stroke-linejoin="round" stroke-miterlimit="4" stroke="#1eabda" stroke-width="2" stroke-opacity="1.0">
<g>
<path d="M 10 10L 40 10L 40 40L 10 40Z"></path>
</g>
</g>
</g>
<g id="g-root-tx_removefl_hte8gng5x7gk-stroke" data-item-order="1000000000" transform="translate(74.00001525878906, 378.0)"></g>
<g id="g-root-tx_istherea_v4uqtzg5x6v5-stroke" data-item-order="1000000000" transform="translate(62.000030517578125, 201.99998474121094)"></g>
<g id="g-root-ic__1q6yslzg5x8ga-stroke" data-item-order="1000000000" transform="translate(68.00001525878906, 59.0)">
<g id="ic__1q6yslzg5x8ga-stroke" fill="none" stroke-linecap="round" stroke-linejoin="round" stroke-miterlimit="4" stroke="#969696" stroke-width="2" stroke-opacity="1.0">
<g>
<path d="M 10 10L 40 10L 40 40L 10 40Z"></path>
</g>
</g>
</g>
<g id="g-root-tx_start_zk1rvbg5x892-stroke" data-item-order="1000000000" transform="translate(104.00001525878906, 50.0)"></g>
</g>
</g>
<path id="w1lwrk9jg5x6o7" d="M65.283 12.757a.35.35 0 0 0 .584.157l5.203-5.141-6.183 3.523.396 1.461zm-2.216-11.7a.35.35 0 0 0-.522.305v3.111l3.276-1.868-2.754-1.548zm3.728 2.105l-4.25 2.421v2.445l6.391-3.644-2.141-1.222zm4.708 3.303a.35.35 0 0 0 0-.609l-1.592-.9-7.365 4.199v1.782a.35.35 0 0 0 .523.305l8.435-4.777z M44.542 2.513c0-.433.355-.783.792-.783s.792.35.792.783-.355.783-.792.783-.792-.35-.792-.783zm59.171 0c0-.433.355-.783.792-.783s.792.35.792.783-.355.783-.792.783-.792-.35-.792-.783zm-85.951 7.636h-1.27v-.487c-.276.201-.864.609-1.881.609-1.202 0-2.274-.794-2.137-2.078.118-1.106 1.153-1.584 1.848-1.727l2.17-.345c0-.539-.29-.956-1.064-1.006s-1.21.305-1.571 1.017l-1.124-.605c1.218-2.631 5.029-1.764 5.029.414v4.207zm-1.27-2.86c.006.396-.062 1.112-.819 1.59-.587.37-1.841.299-1.903-.395-.049-.555.461-.791.906-.898l1.816-.297zm72.662 2.86h-1.27v-.487c-.276.201-.864.609-1.881.609-1.202 0-2.274-.794-2.137-2.078.118-1.106 1.153-1.584 1.848-1.727l2.17-.345c0-.539-.29-.956-1.064-1.006s-1.21.305-1.571 1.017l-1.124-.605c1.218-2.631 5.029-1.764 5.029.414v4.207zm-1.27-2.86c.006.396-.062 1.112-.82 1.59-.587.37-1.841.299-1.903-.395-.049-.555.461-.791.906-.898l1.816-.297zM99.096 10.149H97.85v-8.45h1.246v4.895l2.68-2.559h1.738l-2.633 2.535 2.715 3.578h-1.556l-2.077-2.707-.867.844v1.863zm6.053-6.114h-1.255v6.113h1.255V4.035zm-59.2 0h-1.255v6.113h1.255V4.035zm5.584 6.113V1.697h1.255v2.695c.361-.346 1-.485 1.47-.485 1.452 0 2.477 1.082 2.457 2.448v3.792h-1.27v-3.68c0-.408-.214-1.339-1.315-1.339-.968 0-1.342.756-1.342 1.339v3.681h-1.255zm-4.76-4.894V4.039h.621a.45.45 0 0 0 .45-.45v-.855h1.251v1.305h1.309v1.215h-1.309v3.109c0 .293.105.664.648.664.365 0 .531-.035.736-.07v1.137s-.361.113-.857.113c-1.398 0-1.777-1.051-1.777-1.788V5.254h-1.071zM36.528 4.039h-1.394l2.191 6.106h1.125l1.234-3.918 1.238 3.918h1.129l2.188-6.106h-1.383l-1.359 3.93-1.256-3.93h-1.124l-1.242 3.957-1.348-3.957zM26.212 7.141c-.02 1.566 1.187 3.129 3.223 3.129 1.566 0 2.383-.918 2.734-1.719L31.172 8c-.315.399-.801 1.094-1.738 1.094-1.145 0-1.825-.781-1.891-1.52h4.625c.074-.284.148-.995-.03-1.559-.336-1.064-1.221-2.102-2.839-2.102s-3.088 1.152-3.088 3.227zm1.363-.75h3.348c-.055-.43-.566-1.301-1.623-1.301a1.79 1.79 0 0 0-1.725 1.301zm-8.758.75c.038 1.758 1.277 3.133 3.145 3.133 1.074 0 1.723-.477 1.961-.672v.547h1.242V1.703h-1.258v2.888c-.414-.36-1.062-.68-1.93-.68-1.91 0-3.198 1.473-3.16 3.23zm1.309-.08c0 1.119.723 1.978 1.836 1.978a1.88 1.88 0 0 0 1.94-1.904c0-1.371-1.011-1.99-1.972-1.99s-1.805.798-1.805 1.916zm76.683-.028C96.771 5.275 95.532 3.9 93.664 3.9c-1.074 0-1.723.477-1.961.672v-.547h-1.242v8.22h1.258V9.583c.414.36 1.063.68 1.93.68 1.91 0 3.198-1.473 3.16-3.23zm-1.309.08c0-1.119-.723-1.978-1.836-1.978a1.88 1.88 0 0 0-1.94 1.904c0 1.371 1.011 1.99 1.972 1.99S95.5 8.231 95.5 7.113zM106.441 10.173V4.036h1.254v.382c.361-.346 1-.485 1.47-.485 1.452 0 2.477 1.082 2.457 2.448v3.792h-1.27V6.492c0-.408-.214-1.339-1.315-1.339-.969 0-1.342.756-1.342 1.339v3.681h-1.254zm-30.383-.021V1.824h1.084l4.215 5.777V1.824h1.32v8.328h-1.094l-4.207-5.796v5.796h-1.319zM5.24 10.149H4V2.377h1.014l2.664 3.597 2.654-3.592h1.03v7.766h-1.256V4.762L7.678 8.068 5.24 4.742v5.407z" transform="translate(20.0, 1174.0)" fill="#80808088" stroke="none"></path>
</svg>