<?xml version="1.0" encoding="utf-8" standalone="yes"?>
<!DOCTYPE svg PUBLIC "-//W3C//DTD SVG 1.1//EN" "http://www.w3.org/Graphics/SVG/1.1/DTD/svg11.dtd">
<svg version="1.1" xmlns="http://www.w3.org/2000/svg" xmlns:xlink="http://www.w3.org/1999/xlink" width="593" height="1297" viewBox="0 0 593 1297" style="fill:none; stroke:none; fill-rule:evenodd; clip-rule:evenodd; stroke-linecap:round; stroke-linejoin:round; stroke-miterlimit:1.5;">
<style class="text-font-style fontImports" data-font-family="Roboto">
@import url(https://fonts.googleapis.com/css2?family=Roboto:wght@400;700&amp;display=block);
</style>
<g id="items" style="isolation:isolate;">
<g id="blend" style="mix-blend-mode:normal;">
<g id="g-root-di_1ha2u6vg5zytf-fill" data-item-order="-34560" transform="translate(195.99998474121094, 438.0001220703125)">
<g id="di_1ha2u6vg5zytf-fill" stroke="none" fill="#fff2e5" fill-opacity="1.0">
<g>
<path d="M 10 82L 130 154L 250 82L 130 10Z"></path>
</g>
</g>
</g>
<g id="g-root-di_4pff4ng5ymtc-fill" data-item-order="-32256" transform="translate(14.0, 190.0)">
<g id="di_4pff4ng5ymtc-fill" stroke="none" fill="#fff2e5" fill-opacity="1.0">
<g>
<path d="M 10 106L 94 202L 178 106L 94 10Z"></path>
</g>
</g>
</g>
<g id="g-root-di_8spjg6007g-fill" data-item-order="-24192" transform="translate(231.99996948242188, 814.0001220703125)">
<g id="di_8spjg6007g-fill" stroke="none" fill="#fff2e5" fill-opacity="1.0">
<g>
<path d="M 10.000092 82L 94.000092 154L 178.000092 82L 94.000092 10Z"></path>
</g>
</g>
</g>
<g id="g-root-ro_8vvsyfg6016z-fill" data-item-order="-18720" transform="translate(20.0, 638.0001220703125)">
<g id="ro_8vvsyfg6016z-fill" stroke="none" fill="#e8f9ff" fill-opacity="1.0">
<g>
<path d="M 22 10L 154 10C 154 10 166 10 166 22L 166 118C 166 118 166 130 154 130L 22 130C 22 130 10 130 10 118L 10 22C 10 22 10 10 22 10"></path>
</g>
</g>
</g>
<g id="g-root-ro_4pff4ng5yn7y-fill" data-item-order="-18720" transform="translate(20.0, 438.0001220703125)">
<g id="ro_4pff4ng5yn7y-fill" stroke="none" fill="#e8f9ff" fill-opacity="1.0">
<g>
<path d="M 22 10L 154 10C 154 10 166 10 166 22L 166 118C 166 118 166 130 154 130L 22 130C 22 130 10 130 10 118L 10 22C 10 22 10 10 22 10"></path>
</g>
</g>
</g>
<g id="g-root-ro_qn5tg7g5zzeu-fill" data-item-order="-18720" transform="translate(238.00006103515625, 638.0001220703125)">
<g id="ro_qn5tg7g5zzeu-fill" stroke="none" fill="#e8f9ff" fill-opacity="1.0">
<g>
<path d="M 22 10L 154 10C 154 10 166 10 166 22L 166 118C 166 118 166 130 154 130L 22 130C 22 130 10 130 10 118L 10 22C 10 22 10 10 22 10"></path>
</g>
</g>
</g>
<g id="g-root-ro_m7cbbrg5zzt3-fill" data-item-order="-17280" transform="translate(414.00006103515625, 638.0001220703125)">
<g id="ro_m7cbbrg5zzt3-fill" stroke="none" fill="#e8f9ff" fill-opacity="1.0">
<g>
<path d="M 22 10L 142 10C 142 10 154 10 154 22L 154 118C 154 118 154 130 142 130L 22 130C 22 130 10 130 10 118L 10 22C 10 22 10 10 22 10"></path>
</g>
</g>
</g>
<g id="g-root-ro_qn5tg7g600so-fill" data-item-order="-16128" transform="translate(14.0, 1014.0001220703125)">
<g id="ro_qn5tg7g600so-fill" stroke="none" fill="#e8f9ff" fill-opacity="1.0">
<g>
<path d="M 22 10L 166 10C 166 10 178 10 178 22L 178 94C 178 94 178 106 166 106L 22 106C 22 106 10 106 10 94L 10 22C 10 22 10 10 22 10"></path>
</g>
</g>
</g>
<g id="g-root-ro_4pff4ng5ymf5-fill" data-item-order="-14976" transform="translate(20.0, 38.0)">
<g id="ro_4pff4ng5ymf5-fill" stroke="none" fill="#f5f5f5" fill-opacity="1.0">
<g>
<path d="M 22 10L 154 10C 154 10 166 10 166 22L 166 94C 166 94 166 106 154 106L 22 106C 22 106 10 106 10 94L 10 22C 10 22 10 10 22 10"></path>
</g>
</g>
</g>
<g id="g-root-ro_1lpwcbbg600em-fill" data-item-order="-10368" transform="translate(171.00003051757812, 1166.0001220703125)">
<g id="ro_1lpwcbbg600em-fill" stroke="none" fill="#e8f9ff" fill-opacity="1.0">
<g>
<path d="M 22 10L 142 10C 142 10 154 10 154 22L 154 70C 154 70 154 82 142 82L 22 82C 22 82 10 82 10 70L 10 22C 10 22 10 10 22 10"></path>
</g>
</g>
</g>
<g id="g-root-tx_no_1q6cbivg5zz7l-fill" data-item-order="0" transform="translate(182.00001525878906, 298.00006103515625)">
<g id="tx_no_1q6cbivg5zz7l-fill" stroke="none" fill="#484848" fill-opacity="1.0">
<g>
<text transform="translate(10.0, 10.0)" style="font-size:15px; font-family:'Roboto', sans-serif; white-space:pre;">
<tspan x="2" y="18" dominant-baseline="ideographic">no</tspan>
</text>
</g>
</g>
</g>
<g id="g-root-tx_yes_1q6cbivg5zzev-fill" data-item-order="0" transform="translate(110.0, 382.0001220703125)">
<g id="tx_yes_1q6cbivg5zzev-fill" stroke="none" fill="#484848" fill-opacity="1.0">
<g>
<text transform="translate(10.0, 10.0)" style="font-size:15px; font-family:'Roboto', sans-serif; white-space:pre;">
<tspan x="2" y="18" dominant-baseline="ideographic">yes</tspan>
</text>
</g>
</g>
</g>
<g id="g-root-tx_no_v3lsnrg5zzm7-fill" data-item-order="0" transform="translate(436.0001220703125, 522.0001220703125)">
<g id="tx_no_v3lsnrg5zzm7-fill" stroke="none" fill="#484848" fill-opacity="1.0">
<g>
<text transform="translate(10.0, 10.0)" style="font-size:15px; font-family:'Roboto', sans-serif; white-space:pre;">
<tspan x="2" y="18" dominant-baseline="ideographic">no</tspan>
</text>
</g>
</g>
</g>
<g id="g-root-tx_yes_1um5tnbg5zzm6-fill" data-item-order="0" transform="translate(328.00006103515625, 582.0001220703125)">
<g id="tx_yes_1um5tnbg5zzm6-fill" stroke="none" fill="#484848" fill-opacity="1.0">
<g>
<text transform="translate(10.0, 10.0)" style="font-size:15px; font-family:'Roboto', sans-serif; white-space:pre;">
<tspan x="2" y="18" dominant-baseline="ideographic">yes</tspan>
</text>
</g>
</g>
</g>
<g id="g-root-tx_no_18f2b13g60008-fill" data-item-order="0" transform="translate(196.00006103515625, 898.0001220703125)">
<g id="tx_no_18f2b13g60008-fill" stroke="none" fill="#484848" fill-opacity="1.0">
<g>
<text transform="translate(10.0, 10.0)" style="font-size:15px; font-family:'Roboto', sans-serif; white-space:pre;">
<tspan x="2" y="18" dominant-baseline="ideographic">no</tspan>
</text>
</g>
</g>
</g>
<g id="g-root-tx_yes_dcbs5zg60074-fill" data-item-order="0" transform="translate(328.00006103515625, 958.0001220703125)">
<g id="tx_yes_dcbs5zg60074-fill" stroke="none" fill="#484848" fill-opacity="1.0">
<g>
<text transform="translate(10.0, 10.0)" style="font-size:15px; font-family:'Roboto', sans-serif; white-space:pre;">
<tspan x="2" y="18" dominant-baseline="ideographic">yes</tspan>
</text>
</g>
</g>
</g>
<g id="g-root-cu_4gorx3g600ea-fill" data-item-order="2" transform="translate(98.0, 382.0001220703125)"></g>
<g id="g-root-cu_1cuvt5jg6007j-fill" data-item-order="2" transform="translate(98.0, 134.0)"></g>
<g id="g-root-cu_hs5aafg600ea-fill" data-item-order="2" transform="translate(182.00001525878906, 286.00006103515625)"></g>
<g id="g-root-cu_qnsajbg600lr-fill" data-item-order="2" transform="translate(98.0, 1110.0001220703125)"></g>
<g id="g-root-cu_1hapb9zg600ed-fill" data-item-order="2" transform="translate(316.00006103515625, 758.0001220703125)"></g>
<g id="g-root-cu_qnsajbg600em-fill" data-item-order="2" transform="translate(316.00006103515625, 582.0001220703125)"></g>
<g id="g-root-cu_13z8swng600ei-fill" data-item-order="2" transform="translate(436.0001220703125, 510.0001220703125)"></g>
<g id="g-root-cu_hs5aafg600lh-fill" data-item-order="2" transform="translate(98.0, 558.0001220703125)"></g>
<g id="g-root-cu_4gorx3g600ln-fill" data-item-order="2" transform="translate(98.0, 886.0001220703125)"></g>
<g id="g-root-cu_1um5tnbg600e8-fill" data-item-order="2" transform="translate(243.00003051757812, 958.0001220703125)"></g>
<g id="g-root-ic__1ha2u6vg600zt-fill" data-item-order="1000000000" transform="translate(32.0, 683.0001220703125)"></g>
<g id="g-root-tx_followwh_1lpwcbbg600sp-fill" data-item-order="1000000000" transform="translate(68.0, 650.0001220703125)">
<g id="tx_followwh_1lpwcbbg600sp-fill" stroke="none" fill="#1eabda" fill-opacity="1.0">
<g>
<text transform="translate(10.0, 46.0)" style="font-size:20px; font-family:'Roboto', sans-serif; white-space:pre;">
<tspan x="2" y="-12" dominant-baseline="ideographic">Follow</tspan>
<tspan x="2" y="12" dominant-baseline="ideographic"> WhatsApp</tspan>
<tspan x="2" y="36" dominant-baseline="ideographic"> Process</tspan>
</text>
</g>
</g>
</g>
<g id="g-root-tx_makephon_hrit7bg600lf-fill" data-item-order="1000000000" transform="translate(62.0, 1026.0001220703125)">
<g id="tx_makephon_hrit7bg600lf-fill" stroke="none" fill="#1eabda" fill-opacity="1.0">
<g>
<text transform="translate(10.0, 34.0)" style="font-size:20px; font-family:'Roboto', sans-serif; white-space:pre;">
<tspan x="2" y="0" dominant-baseline="ideographic">Make Phone</tspan>
<tspan x="2" y="24" dominant-baseline="ideographic"> Call</tspan>
</text>
</g>
</g>
</g>
<g id="g-root-ic__v2zbkng600ei-fill" data-item-order="1000000000" transform="translate(183.00003051757812, 1187.0001220703125)"></g>
<g id="g-root-tx_followup_18eftxzg6007c-fill" data-item-order="1000000000" transform="translate(219.00003051757812, 1178.0001220703125)">
<g id="tx_followup_18eftxzg6007c-fill" stroke="none" fill="#1eabda" fill-opacity="1.0">
<g>
<text transform="translate(10.0, 22.0)" style="font-size:20px; font-family:'Roboto', sans-serif; white-space:pre;">
<tspan x="2" y="12" dominant-baseline="ideographic">Follow Up</tspan>
</text>
</g>
</g>
</g>
<g id="g-root-tx_response_1lpwcbbg5zzsx-fill" data-item-order="1000000000" transform="translate(274.00006103515625, 850.0001220703125)">
<g id="tx_response_1lpwcbbg5zzsx-fill" stroke="none" fill="#de8431" fill-opacity="1.0">
<g>
<text transform="translate(52.0, 34.0)" style="font-size:20px; font-family:'Roboto', sans-serif; white-space:pre;">
<tspan x="-38.4" y="0" dominant-baseline="ideographic">Response</tspan>
<tspan x="-39.3" y="24" dominant-baseline="ideographic"> Received?</tspan>
</text>
</g>
</g>
</g>
<g id="g-root-ic__1q5pufrg5zzlv-fill" data-item-order="1000000000" transform="translate(426.00006103515625, 683.0001220703125)"></g>
<g id="g-root-tx_noaction_1uljck7g5zzf3-fill" data-item-order="1000000000" transform="translate(462.00006103515625, 674.0001220703125)">
<g id="tx_noaction_1uljck7g5zzf3-fill" stroke="none" fill="#1eabda" fill-opacity="1.0">
<g>
<text transform="translate(10.0, 22.0)" style="font-size:20px; font-family:'Roboto', sans-serif; white-space:pre;">
<tspan x="2" y="12" dominant-baseline="ideographic">No Action</tspan>
</text>
</g>
</g>
</g>
<g id="g-root-ic__1lpwcbbg5zz7n-fill" data-item-order="1000000000" transform="translate(250.00006103515625, 683.0001220703125)"></g>
<g id="g-root-tx_sendintr_13ymbtjg5zz0u-fill" data-item-order="1000000000" transform="translate(286.00006103515625, 662.0001220703125)">
<g id="tx_sendintr_13ymbtjg5zz0u-fill" stroke="none" fill="#1eabda" fill-opacity="1.0">
<g>
<text transform="translate(10.0, 34.0)" style="font-size:20px; font-family:'Roboto', sans-serif; white-space:pre;">
<tspan x="2" y="0" dominant-baseline="ideographic">Send Intro</tspan>
<tspan x="2" y="24" dominant-baseline="ideographic"> Email</tspan>
</text>
</g>
</g>
</g>
<g id="g-root-tx_emailadd_vccfvbg5yn7z-fill" data-item-order="1000000000" transform="translate(256.0, 474.0001220703125)">
<g id="tx_emailadd_vccfvbg5yn7z-fill" stroke="none" fill="#de8431" fill-opacity="1.0">
<g>
<text transform="translate(70.0, 34.0)" style="font-size:20px; font-family:'Roboto', sans-serif; white-space:pre;">
<tspan x="-56.36" y="0" dominant-baseline="ideographic">Email Address</tspan>
<tspan x="-38.48" y="24" dominant-baseline="ideographic"> Provided?</tspan>
</text>
</g>
</g>
</g>
<g id="g-root-ic__1d3mgd3g5yn0j-fill" data-item-order="1000000000" transform="translate(32.0, 483.0001220703125)"></g>
<g id="g-root-tx_sendwhat_18nsy8ng5ymtm-fill" data-item-order="1000000000" transform="translate(68.0, 450.0001220703125)">
<g id="tx_sendwhat_18nsy8ng5ymtm-fill" stroke="none" fill="#1eabda" fill-opacity="1.0">
<g>
<text transform="translate(10.0, 46.0)" style="font-size:20px; font-family:'Roboto', sans-serif; white-space:pre;">
<tspan x="2" y="-12" dominant-baseline="ideographic">Send</tspan>
<tspan x="2" y="12" dominant-baseline="ideographic"> WhatsApp</tspan>
<tspan x="2" y="36" dominant-baseline="ideographic"> Message</tspan>
</text>
</g>
</g>
</g>
<g id="g-root-tx_contactn_147zg47g5ymfg-fill" data-item-order="1000000000" transform="translate(56.0, 238.00006103515625)">
<g id="tx_contactn_147zg47g5ymfg-fill" stroke="none" fill="#de8431" fill-opacity="1.0">
<g>
<text transform="translate(52.0, 46.0)" style="font-size:20px; font-family:'Roboto', sans-serif; white-space:pre;">
<tspan x="-30.61" y="-12" dominant-baseline="ideographic">Contact</tspan>
<tspan x="-31.31" y="12" dominant-baseline="ideographic"> Number</tspan>
<tspan x="-38.48" y="36" dominant-baseline="ideographic"> Provided?</tspan>
</text>
</g>
</g>
</g>
<g id="g-root-ic__dl2fdjg5ym88-fill" data-item-order="1000000000" transform="translate(32.0, 71.0)"></g>
<g id="g-root-tx_leadform_qwixqvg5ylu6-fill" data-item-order="1000000000" transform="translate(68.0, 50.0)">
<g id="tx_leadform_qwixqvg5ylu6-fill" stroke="none" fill="#969696" fill-opacity="1.0">
<g>
<text transform="translate(10.0, 34.0)" style="font-size:20px; font-family:'Roboto', sans-serif; white-space:pre;">
<tspan x="2" y="0" dominant-baseline="ideographic">Lead Form</tspan>
<tspan x="2" y="24" dominant-baseline="ideographic"> Created</tspan>
</text>
</g>
</g>
</g>
<g id="g-root-ic__8spjg600ss-fill" data-item-order="1000000000" transform="translate(26.0, 1047.0001220703125)"></g>
<g id="g-root-di_1ha2u6vg5zytf-stroke" data-item-order="-34560" transform="translate(195.99998474121094, 438.0001220703125)">
<g id="di_1ha2u6vg5zytf-stroke" fill="none" stroke-linecap="round" stroke-linejoin="round" stroke-miterlimit="4" stroke="#de8431" stroke-width="2" stroke-opacity="1.0">
<g>
<path d="M 10 82L 130 154L 250 82L 130 10Z"></path>
</g>
</g>
</g>
<g id="g-root-di_4pff4ng5ymtc-stroke" data-item-order="-32256" transform="translate(14.0, 190.0)">
<g id="di_4pff4ng5ymtc-stroke" fill="none" stroke-linecap="round" stroke-linejoin="round" stroke-miterlimit="4" stroke="#de8431" stroke-width="2" stroke-opacity="1.0">
<g>
<path d="M 10 106L 94 202L 178 106L 94 10Z"></path>
</g>
</g>
</g>
<g id="g-root-di_8spjg6007g-stroke" data-item-order="-24192" transform="translate(231.99996948242188, 814.0001220703125)">
<g id="di_8spjg6007g-stroke" fill="none" stroke-linecap="round" stroke-linejoin="round" stroke-miterlimit="4" stroke="#de8431" stroke-width="2" stroke-opacity="1.0">
<g>
<path d="M 10.000092 82L 94.000092 154L 178.000092 82L 94.000092 10Z"></path>
</g>
</g>
</g>
<g id="g-root-ro_8vvsyfg6016z-stroke" data-item-order="-18720" transform="translate(20.0, 638.0001220703125)">
<g id="ro_8vvsyfg6016z-stroke" fill="none" stroke-linecap="round" stroke-linejoin="round" stroke-miterlimit="4" stroke="#1eabda" stroke-width="2" stroke-opacity="1.0">
<g>
<path d="M 22 10L 154 10C 154 10 166 10 166 22L 166 118C 166 118 166 130 154 130L 22 130C 22 130 10 130 10 118L 10 22C 10 22 10 10 22 10"></path>
</g>
</g>
</g>
<g id="g-root-ro_4pff4ng5yn7y-stroke" data-item-order="-18720" transform="translate(20.0, 438.0001220703125)">
<g id="ro_4pff4ng5yn7y-stroke" fill="none" stroke-linecap="round" stroke-linejoin="round" stroke-miterlimit="4" stroke="#1eabda" stroke-width="2" stroke-opacity="1.0">
<g>
<path d="M 22 10L 154 10C 154 10 166 10 166 22L 166 118C 166 118 166 130 154 130L 22 130C 22 130 10 130 10 118L 10 22C 10 22 10 10 22 10"></path>
</g>
</g>
</g>
<g id="g-root-ro_qn5tg7g5zzeu-stroke" data-item-order="-18720" transform="translate(238.00006103515625, 638.0001220703125)">
<g id="ro_qn5tg7g5zzeu-stroke" fill="none" stroke-linecap="round" stroke-linejoin="round" stroke-miterlimit="4" stroke="#1eabda" stroke-width="2" stroke-opacity="1.0">
<g>
<path d="M 22 10L 154 10C 154 10 166 10 166 22L 166 118C 166 118 166 130 154 130L 22 130C 22 130 10 130 10 118L 10 22C 10 22 10 10 22 10"></path>
</g>
</g>
</g>
<g id="g-root-ro_m7cbbrg5zzt3-stroke" data-item-order="-17280" transform="translate(414.00006103515625, 638.0001220703125)">
<g id="ro_m7cbbrg5zzt3-stroke" fill="none" stroke-linecap="round" stroke-linejoin="round" stroke-miterlimit="4" stroke="#1eabda" stroke-width="2" stroke-opacity="1.0">
<g>
<path d="M 22 10L 142 10C 142 10 154 10 154 22L 154 118C 154 118 154 130 142 130L 22 130C 22 130 10 130 10 118L 10 22C 10 22 10 10 22 10"></path>
</g>
</g>
</g>
<g id="g-root-ro_qn5tg7g600so-stroke" data-item-order="-16128" transform="translate(14.0, 1014.0001220703125)">
<g id="ro_qn5tg7g600so-stroke" fill="none" stroke-linecap="round" stroke-linejoin="round" stroke-miterlimit="4" stroke="#1eabda" stroke-width="2" stroke-opacity="1.0">
<g>
<path d="M 22 10L 166 10C 166 10 178 10 178 22L 178 94C 178 94 178 106 166 106L 22 106C 22 106 10 106 10 94L 10 22C 10 22 10 10 22 10"></path>
</g>
</g>
</g>
<g id="g-root-ro_4pff4ng5ymf5-stroke" data-item-order="-14976" transform="translate(20.0, 38.0)">
<g id="ro_4pff4ng5ymf5-stroke" fill="none" stroke-linecap="round" stroke-linejoin="round" stroke-miterlimit="4" stroke="#969696" stroke-width="2" stroke-opacity="1.0">
<g>
<path d="M 22 10L 154 10C 154 10 166 10 166 22L 166 94C 166 94 166 106 154 106L 22 106C 22 106 10 106 10 94L 10 22C 10 22 10 10 22 10"></path>
</g>
</g>
</g>
<g id="g-root-ro_1lpwcbbg600em-stroke" data-item-order="-10368" transform="translate(171.00003051757812, 1166.0001220703125)">
<g id="ro_1lpwcbbg600em-stroke" fill="none" stroke-linecap="round" stroke-linejoin="round" stroke-miterlimit="4" stroke="#1eabda" stroke-width="2" stroke-opacity="1.0">
<g>
<path d="M 22 10L 142 10C 142 10 154 10 154 22L 154 70C 154 70 154 82 142 82L 22 82C 22 82 10 82 10 70L 10 22C 10 22 10 10 22 10"></path>
</g>
</g>
</g>
<g id="g-root-tx_no_1q6cbivg5zz7l-stroke" data-item-order="0" transform="translate(182.00001525878906, 298.00006103515625)"></g>
<g id="g-root-tx_yes_1q6cbivg5zzev-stroke" data-item-order="0" transform="translate(110.0, 382.0001220703125)"></g>
<g id="g-root-tx_no_v3lsnrg5zzm7-stroke" data-item-order="0" transform="translate(436.0001220703125, 522.0001220703125)"></g>
<g id="g-root-tx_yes_1um5tnbg5zzm6-stroke" data-item-order="0" transform="translate(328.00006103515625, 582.0001220703125)"></g>
<g id="g-root-tx_no_18f2b13g60008-stroke" data-item-order="0" transform="translate(196.00006103515625, 898.0001220703125)"></g>
<g id="g-root-tx_yes_dcbs5zg60074-stroke" data-item-order="0" transform="translate(328.00006103515625, 958.0001220703125)"></g>
<g id="g-root-cu_4gorx3g600ea-stroke" data-item-order="2" transform="translate(98.0, 382.0001220703125)">
<g id="cu_4gorx3g600ea-stroke" fill="none" stroke-linecap="round" stroke-linejoin="round" stroke-miterlimit="4" stroke="#484848" stroke-width="2" stroke-opacity="1.0">
<g>
<path d="M 10 10L 10 38L 10 64"></path>
<path d="M 3.5 58L 10 64.5L 16.5 58" stroke-dasharray="none"></path>
</g>
</g>
</g>
<g id="g-root-cu_1cuvt5jg6007j-stroke" data-item-order="2" transform="translate(98.0, 134.0)">
<g id="cu_1cuvt5jg6007j-stroke" fill="none" stroke-linecap="round" stroke-linejoin="round" stroke-miterlimit="4" stroke="#484848" stroke-width="2" stroke-opacity="1.0">
<g>
<path d="M 10 10L 10 38L 10 64"></path>
<path d="M 3.5 58L 10 64.5L 16.5 58" stroke-dasharray="none"></path>
</g>
</g>
</g>
<g id="g-root-cu_hs5aafg600ea-stroke" data-item-order="2" transform="translate(182.00001525878906, 286.00006103515625)">
<g id="cu_hs5aafg600ea-stroke" fill="none" stroke-linecap="round" stroke-linejoin="round" stroke-miterlimit="4" stroke="#484848" stroke-width="2" stroke-opacity="1.0">
<g>
<path d="M 10 10L 77 10L 144 10L 144 86L 144 160"></path>
<path d="M 137.5 154L 144 160.5L 150.5 154" stroke-dasharray="none"></path>
</g>
</g>
</g>
<g id="g-root-cu_qnsajbg600lr-stroke" data-item-order="2" transform="translate(98.0, 1110.0001220703125)">
<g id="cu_qnsajbg600lr-stroke" fill="none" stroke-linecap="round" stroke-linejoin="round" stroke-miterlimit="4" stroke="#484848" stroke-width="2" stroke-opacity="1.0">
<g>
<path d="M 10 10L 10 24L 10 38L 82.5 38L 155 38L 155 52L 155 64"></path>
<path d="M 148.5 58L 155 64.5L 161.5 58" stroke-dasharray="none"></path>
</g>
</g>
</g>
<g id="g-root-cu_1hapb9zg600ed-stroke" data-item-order="2" transform="translate(316.00006103515625, 758.0001220703125)">
<g id="cu_1hapb9zg600ed-stroke" fill="none" stroke-linecap="round" stroke-linejoin="round" stroke-miterlimit="4" stroke="#484848" stroke-width="2" stroke-opacity="1.0">
<g>
<path d="M 10 10L 10 38L 10 64"></path>
<path d="M 3.5 58L 10 64.5L 16.5 58" stroke-dasharray="none"></path>
</g>
</g>
</g>
<g id="g-root-cu_qnsajbg600em-stroke" data-item-order="2" transform="translate(316.00006103515625, 582.0001220703125)">
<g id="cu_qnsajbg600em-stroke" fill="none" stroke-linecap="round" stroke-linejoin="round" stroke-miterlimit="4" stroke="#484848" stroke-width="2" stroke-opacity="1.0">
<g>
<path d="M 10 10L 10 38L 10 64"></path>
<path d="M 3.5 58L 10 64.5L 16.5 58" stroke-dasharray="none"></path>
</g>
</g>
</g>
<g id="g-root-cu_13z8swng600ei-stroke" data-item-order="2" transform="translate(436.0001220703125, 510.0001220703125)">
<g id="cu_13z8swng600ei-stroke" fill="none" stroke-linecap="round" stroke-linejoin="round" stroke-miterlimit="4" stroke="#484848" stroke-width="2" stroke-opacity="1.0">
<g>
<path d="M 10 10L 35 10L 60 10L 60 74L 60 136"></path>
<path d="M 53.5 130L 60 136.5L 66.5 130" stroke-dasharray="none"></path>
</g>
</g>
</g>
<g id="g-root-cu_hs5aafg600lh-stroke" data-item-order="2" transform="translate(98.0, 558.0001220703125)">
<g id="cu_hs5aafg600lh-stroke" fill="none" stroke-linecap="round" stroke-linejoin="round" stroke-miterlimit="4" stroke="#484848" stroke-width="2" stroke-opacity="1.0">
<g>
<path d="M 10 10L 10 50L 10 88"></path>
<path d="M 3.5 82L 10 88.5L 16.5 82" stroke-dasharray="none"></path>
</g>
</g>
</g>
<g id="g-root-cu_4gorx3g600ln-stroke" data-item-order="2" transform="translate(98.0, 886.0001220703125)">
<g id="cu_4gorx3g600ln-stroke" fill="none" stroke-linecap="round" stroke-linejoin="round" stroke-miterlimit="4" stroke="#484848" stroke-width="2" stroke-opacity="1.0">
<g>
<path d="M 144 10L 77 10L 10 10L 10 74L 10 136"></path>
<path d="M 3.5 130L 10 136.5L 16.5 130" stroke-dasharray="none"></path>
</g>
</g>
</g>
<g id="g-root-cu_1um5tnbg600e8-stroke" data-item-order="2" transform="translate(243.00003051757812, 958.0001220703125)">
<g id="cu_1um5tnbg600e8-stroke" fill="none" stroke-linecap="round" stroke-linejoin="round" stroke-miterlimit="4" stroke="#484848" stroke-width="2" stroke-opacity="1.0">
<g>
<path d="M 83 10L 83 100L 83 190L 46.5 190L 10 190L 10 204L 10 216"></path>
<path d="M 3.5 210L 10 216.5L 16.5 210" stroke-dasharray="none"></path>
</g>
</g>
</g>
<g id="g-root-ic__1ha2u6vg600zt-stroke" data-item-order="1000000000" transform="translate(32.0, 683.0001220703125)">
<g id="ic__1ha2u6vg600zt-stroke" fill="none" stroke-linecap="round" stroke-linejoin="round" stroke-miterlimit="4" stroke="#1eabda" stroke-width="2" stroke-opacity="1.0">
<g>
<path d="M 10 10L 40 10L 40 40L 10 40Z"></path>
</g>
</g>
</g>
<g id="g-root-tx_followwh_1lpwcbbg600sp-stroke" data-item-order="1000000000" transform="translate(68.0, 650.0001220703125)"></g>
<g id="g-root-tx_makephon_hrit7bg600lf-stroke" data-item-order="1000000000" transform="translate(62.0, 1026.0001220703125)"></g>
<g id="g-root-ic__v2zbkng600ei-stroke" data-item-order="1000000000" transform="translate(183.00003051757812, 1187.0001220703125)">
<g id="ic__v2zbkng600ei-stroke" fill="none" stroke-linecap="round" stroke-linejoin="round" stroke-miterlimit="4" stroke="#1eabda" stroke-width="2" stroke-opacity="1.0">
<g>
<path d="M 10 10L 40 10L 40 40L 10 40Z"></path>
</g>
</g>
</g>
<g id="g-root-tx_followup_18eftxzg6007c-stroke" data-item-order="1000000000" transform="translate(219.00003051757812, 1178.0001220703125)"></g>
<g id="g-root-tx_response_1lpwcbbg5zzsx-stroke" data-item-order="1000000000" transform="translate(274.00006103515625, 850.0001220703125)"></g>
<g id="g-root-ic__1q5pufrg5zzlv-stroke" data-item-order="1000000000" transform="translate(426.00006103515625, 683.0001220703125)">
<g id="ic__1q5pufrg5zzlv-stroke" fill="none" stroke-linecap="round" stroke-linejoin="round" stroke-miterlimit="4" stroke="#1eabda" stroke-width="2" stroke-opacity="1.0">
<g>
<path d="M 10 10L 40 10L 40 40L 10 40Z"></path>
</g>
</g>
</g>
<g id="g-root-tx_noaction_1uljck7g5zzf3-stroke" data-item-order="1000000000" transform="translate(462.00006103515625, 674.0001220703125)"></g>
<g id="g-root-ic__1lpwcbbg5zz7n-stroke" data-item-order="1000000000" transform="translate(250.00006103515625, 683.0001220703125)">
<g id="ic__1lpwcbbg5zz7n-stroke" fill="none" stroke-linecap="round" stroke-linejoin="round" stroke-miterlimit="4" stroke="#1eabda" stroke-width="2" stroke-opacity="1.0">
<g>
<path d="M 10 10L 40 10L 40 40L 10 40Z"></path>
</g>
</g>
</g>
<g id="g-root-tx_sendintr_13ymbtjg5zz0u-stroke" data-item-order="1000000000" transform="translate(286.00006103515625, 662.0001220703125)"></g>
<g id="g-root-tx_emailadd_vccfvbg5yn7z-stroke" data-item-order="1000000000" transform="translate(256.0, 474.0001220703125)"></g>
<g id="g-root-ic__1d3mgd3g5yn0j-stroke" data-item-order="1000000000" transform="translate(32.0, 483.0001220703125)">
<g id="ic__1d3mgd3g5yn0j-stroke" fill="none" stroke-linecap="round" stroke-linejoin="round" stroke-miterlimit="4" stroke="#1eabda" stroke-width="2" stroke-opacity="1.0">
<g>
<path d="M 10 10L 40 10L 40 40L 10 40Z"></path>
</g>
</g>
</g>
<g id="g-root-tx_sendwhat_18nsy8ng5ymtm-stroke" data-item-order="1000000000" transform="translate(68.0, 450.0001220703125)"></g>
<g id="g-root-tx_contactn_147zg47g5ymfg-stroke" data-item-order="1000000000" transform="translate(56.0, 238.00006103515625)"></g>
<g id="g-root-ic__dl2fdjg5ym88-stroke" data-item-order="1000000000" transform="translate(32.0, 71.0)">
<g id="ic__dl2fdjg5ym88-stroke" fill="none" stroke-linecap="round" stroke-linejoin="round" stroke-miterlimit="4" stroke="#969696" stroke-width="2" stroke-opacity="1.0">
<g>
<path d="M 10 10L 40 10L 40 40L 10 40Z"></path>
</g>
</g>
</g>
<g id="g-root-tx_leadform_qwixqvg5ylu6-stroke" data-item-order="1000000000" transform="translate(68.0, 50.0)"></g>
<g id="g-root-ic__8spjg600ss-stroke" data-item-order="1000000000" transform="translate(26.0, 1047.0001220703125)">
<g id="ic__8spjg600ss-stroke" fill="none" stroke-linecap="round" stroke-linejoin="round" stroke-miterlimit="4" stroke="#1eabda" stroke-width="2" stroke-opacity="1.0">
<g>
<path d="M 10 10L 40 10L 40 40L 10 40Z"></path>
</g>
</g>
</g>
</g>
</g>
<path id="wv7z49jg5zzt3" d="M65.283 12.757a.35.35 0 0 0 .584.157l5.203-5.141-6.183 3.523.396 1.461zm-2.216-11.7a.35.35 0 0 0-.522.305v3.111l3.276-1.868-2.754-1.548zm3.728 2.105l-4.25 2.421v2.445l6.391-3.644-2.141-1.222zm4.708 3.303a.35.35 0 0 0 0-.609l-1.592-.9-7.365 4.199v1.782a.35.35 0 0 0 .523.305l8.435-4.777z M44.542 2.513c0-.433.355-.783.792-.783s.792.35.792.783-.355.783-.792.783-.792-.35-.792-.783zm59.171 0c0-.433.355-.783.792-.783s.792.35.792.783-.355.783-.792.783-.792-.35-.792-.783zm-85.951 7.636h-1.27v-.487c-.276.201-.864.609-1.881.609-1.202 0-2.274-.794-2.137-2.078.118-1.106 1.153-1.584 1.848-1.727l2.17-.345c0-.539-.29-.956-1.064-1.006s-1.21.305-1.571 1.017l-1.124-.605c1.218-2.631 5.029-1.764 5.029.414v4.207zm-1.27-2.86c.006.396-.062 1.112-.819 1.59-.587.37-1.841.299-1.903-.395-.049-.555.461-.791.906-.898l1.816-.297zm72.662 2.86h-1.27v-.487c-.276.201-.864.609-1.881.609-1.202 0-2.274-.794-2.137-2.078.118-1.106 1.153-1.584 1.848-1.727l2.17-.345c0-.539-.29-.956-1.064-1.006s-1.21.305-1.571 1.017l-1.124-.605c1.218-2.631 5.029-1.764 5.029.414v4.207zm-1.27-2.86c.006.396-.062 1.112-.82 1.59-.587.37-1.841.299-1.903-.395-.049-.555.461-.791.906-.898l1.816-.297zM99.096 10.149H97.85v-8.45h1.246v4.895l2.68-2.559h1.738l-2.633 2.535 2.715 3.578h-1.556l-2.077-2.707-.867.844v1.863zm6.053-6.114h-1.255v6.113h1.255V4.035zm-59.2 0h-1.255v6.113h1.255V4.035zm5.584 6.113V1.697h1.255v2.695c.361-.346 1-.485 1.47-.485 1.452 0 2.477 1.082 2.457 2.448v3.792h-1.27v-3.68c0-.408-.214-1.339-1.315-1.339-.968 0-1.342.756-1.342 1.339v3.681h-1.255zm-4.76-4.894V4.039h.621a.45.45 0 0 0 .45-.45v-.855h1.251v1.305h1.309v1.215h-1.309v3.109c0 .293.105.664.648.664.365 0 .531-.035.736-.07v1.137s-.361.113-.857.113c-1.398 0-1.777-1.051-1.777-1.788V5.254h-1.071zM36.528 4.039h-1.394l2.191 6.106h1.125l1.234-3.918 1.238 3.918h1.129l2.188-6.106h-1.383l-1.359 3.93-1.256-3.93h-1.124l-1.242 3.957-1.348-3.957zM26.212 7.141c-.02 1.566 1.187 3.129 3.223 3.129 1.566 0 2.383-.918 2.734-1.719L31.172 8c-.315.399-.801 1.094-1.738 1.094-1.145 0-1.825-.781-1.891-1.52h4.625c.074-.284.148-.995-.03-1.559-.336-1.064-1.221-2.102-2.839-2.102s-3.088 1.152-3.088 3.227zm1.363-.75h3.348c-.055-.43-.566-1.301-1.623-1.301a1.79 1.79 0 0 0-1.725 1.301zm-8.758.75c.038 1.758 1.277 3.133 3.145 3.133 1.074 0 1.723-.477 1.961-.672v.547h1.242V1.703h-1.258v2.888c-.414-.36-1.062-.68-1.93-.68-1.91 0-3.198 1.473-3.16 3.23zm1.309-.08c0 1.119.723 1.978 1.836 1.978a1.88 1.88 0 0 0 1.94-1.904c0-1.371-1.011-1.99-1.972-1.99s-1.805.798-1.805 1.916zm76.683-.028C96.771 5.275 95.532 3.9 93.664 3.9c-1.074 0-1.723.477-1.961.672v-.547h-1.242v8.22h1.258V9.583c.414.36 1.063.68 1.93.68 1.91 0 3.198-1.473 3.16-3.23zm-1.309.08c0-1.119-.723-1.978-1.836-1.978a1.88 1.88 0 0 0-1.94 1.904c0 1.371 1.011 1.99 1.972 1.99S95.5 8.231 95.5 7.113zM106.441 10.173V4.036h1.254v.382c.361-.346 1-.485 1.47-.485 1.452 0 2.477 1.082 2.457 2.448v3.792h-1.27V6.492c0-.408-.214-1.339-1.315-1.339-.969 0-1.342.756-1.342 1.339v3.681h-1.254zm-30.383-.021V1.824h1.084l4.215 5.777V1.824h1.32v8.328h-1.094l-4.207-5.796v5.796h-1.319zM5.24 10.149H4V2.377h1.014l2.664 3.597 2.654-3.592h1.03v7.766h-1.256V4.762L7.678 8.068 5.24 4.742v5.407z" transform="translate(456.00006103515625, 1262.0001220703125)" fill="#80808088" stroke="none"></path>
</svg>