<?xml version="1.0" encoding="utf-8" standalone="yes"?>
<!DOCTYPE svg PUBLIC "-//W3C//DTD SVG 1.1//EN" "http://www.w3.org/Graphics/SVG/1.1/DTD/svg11.dtd">
<svg version="1.1" xmlns="http://www.w3.org/2000/svg" xmlns:xlink="http://www.w3.org/1999/xlink" width="544" height="1002" viewBox="0 0 544 1002" style="fill:none; stroke:none; fill-rule:evenodd; clip-rule:evenodd; stroke-linecap:round; stroke-linejoin:round; stroke-miterlimit:1.5;">
<style class="text-font-style fontImports" data-font-family="Roboto">
@import url(https://fonts.googleapis.com/css2?family=Roboto:wght@400;700&amp;display=block);
</style>
<g id="items" style="isolation:isolate;">
<g id="blend" style="mix-blend-mode:normal;">
<g id="g-root-di_v6q63bg5ymma-fill" data-item-order="-38016" transform="translate(213.8822479248047, 671.7055053710938)">
<g id="di_v6q63bg5ymma-fill" stroke="none" fill="#fff2e5" fill-opacity="1.0">
<g>
<path d="M 10 82.000183L 142 154.000183L 274 82.000183L 142 10.000183Z"></path>
</g>
</g>
</g>
<g id="g-root-di_dfg5ljg5ylu2-fill" data-item-order="-23047" transform="translate(100.0, 366.0)">
<g id="di_dfg5ljg5ylu2-fill" stroke="none" fill="#fff2e5" fill-opacity="1.0">
<g>
<path d="M 10 58.85L 127.94 107.71L 245.88 58.85L 127.94 10Z"></path>
</g>
</g>
</g>
<g id="g-root-di_1cy06l3g5yl1c-fill" data-item-order="-20736" transform="translate(295.88226318359375, 165.99998474121094)">
<g id="di_1cy06l3g5yl1c-fill" stroke="none" fill="#fff2e5" fill-opacity="1.0">
<g>
<path d="M 10 82.000031L 82 154.000031L 154 82.000031L 82 10.000031Z"></path>
</g>
</g>
</g>
<g id="g-root-ro_1ltn6tzg5ylfx-fill" data-item-order="-13824" transform="translate(273.88226318359375, 519.7056884765625)">
<g id="ro_1ltn6tzg5ylfx-fill" stroke="none" fill="#e8f9ff" fill-opacity="1.0">
<g>
<path d="M 22 10L 142 10C 142 10 154 10 154 22L 154 94C 154 94 154 106 142 106L 22 106C 22 106 10 106 10 94L 10 22C 10 22 10 10 22 10"></path>
</g>
</g>
</g>
<g id="g-root-ro_zmjo7rg5ykg9-fill" data-item-order="-11232" transform="translate(289.88226318359375, 38.0)">
<g id="ro_zmjo7rg5ykg9-fill" stroke="none" fill="#f5f5f5" fill-opacity="1.0">
<g>
<path d="M 22 10L 154 10C 154 10 166 10 166 22L 166 70C 166 70 166 82 154 82L 22 82C 22 82 10 82 10 70L 10 22C 10 22 10 10 22 10"></path>
</g>
</g>
</g>
<g id="g-root-ro_1ltn6tzg5ym0z-fill" data-item-order="-10368" transform="translate(14.0, 519.7056884765625)">
<g id="ro_1ltn6tzg5ym0z-fill" stroke="none" fill="#e8f9ff" fill-opacity="1.0">
<g>
<path d="M 22 10L 106 10C 106 10 118 10 118 22L 118 94C 118 94 118 106 106 106L 22 106C 22 106 10 106 10 94L 10 22C 10 22 10 10 22 10"></path>
</g>
</g>
</g>
<g id="g-root-ro_4jt5cng5yn0t-fill" data-item-order="-6912" transform="translate(297.88226318359375, 871.7057495117188)">
<g id="ro_4jt5cng5yn0t-fill" stroke="none" fill="#e8f9ff" fill-opacity="1.0">
<g>
<path d="M 22 10L 94 10C 94 10 106 10 106 22L 106 70C 106 70 106 82 94 82L 22 82C 22 82 10 82 10 70L 10 22C 10 22 10 10 22 10"></path>
</g>
</g>
</g>
<g id="g-root-tx_no_4m4bbg5ylfo-fill" data-item-order="0" transform="translate(259.88226318359375, 250.0)">
<g id="tx_no_4m4bbg5ylfo-fill" stroke="none" fill="#484848" fill-opacity="1.0">
<g>
<text transform="translate(10.0, 10.0)" style="font-size:15px; font-family:'Roboto', sans-serif; white-space:pre;">
<tspan x="2" y="18" dominant-baseline="ideographic">No</tspan>
</text>
</g>
</g>
</g>
<g id="g-root-tx_yes_4kfmfrg5ylmw-fill" data-item-order="0" transform="translate(379.88226318359375, 310.0)">
<g id="tx_yes_4kfmfrg5ylmw-fill" stroke="none" fill="#484848" fill-opacity="1.0">
<g>
<text transform="translate(10.0, 10.0)" style="font-size:15px; font-family:'Roboto', sans-serif; white-space:pre;">
<tspan x="2" y="18" dominant-baseline="ideographic">Yes</tspan>
</text>
</g>
</g>
</g>
<g id="g-root-tx_no_1cymno7g5ylmo-fill" data-item-order="0" transform="translate(64.0, 426.85284423828125)">
<g id="tx_no_1cymno7g5ylmo-fill" stroke="none" fill="#484848" fill-opacity="1.0">
<g>
<text transform="translate(10.0, 10.0)" style="font-size:15px; font-family:'Roboto', sans-serif; white-space:pre;">
<tspan x="2" y="18" dominant-baseline="ideographic">No</tspan>
</text>
</g>
</g>
</g>
<g id="g-root-tx_yes_dg2mong5yltw-fill" data-item-order="0" transform="translate(229.94113159179688, 463.7056884765625)">
<g id="tx_yes_dg2mong5yltw-fill" stroke="none" fill="#484848" fill-opacity="1.0">
<g>
<text transform="translate(10.0, 10.0)" style="font-size:15px; font-family:'Roboto', sans-serif; white-space:pre;">
<tspan x="2" y="18" dominant-baseline="ideographic">Yes</tspan>
</text>
</g>
</g>
</g>
<g id="g-root-tx_no_1cymno7g5ylu0-fill" data-item-order="0" transform="translate(477.8822937011719, 755.7056884765625)">
<g id="tx_no_1cymno7g5ylu0-fill" stroke="none" fill="#484848" fill-opacity="1.0">
<g>
<text transform="translate(10.0, 10.0)" style="font-size:15px; font-family:'Roboto', sans-serif; white-space:pre;">
<tspan x="2" y="18" dominant-baseline="ideographic">No</tspan>
</text>
</g>
</g>
</g>
<g id="g-root-tx_yes_dg2mong5ym10-fill" data-item-order="0" transform="translate(357.88226318359375, 815.7057495117188)">
<g id="tx_yes_dg2mong5ym10-fill" stroke="none" fill="#484848" fill-opacity="1.0">
<g>
<text transform="translate(10.0, 10.0)" style="font-size:15px; font-family:'Roboto', sans-serif; white-space:pre;">
<tspan x="2" y="18" dominant-baseline="ideographic">Yes</tspan>
</text>
</g>
</g>
</g>
<g id="g-root-cu_dg2mong5ymff-fill" data-item-order="2" transform="translate(345.88226318359375, 615.7056884765625)"></g>
<g id="g-root-cu_qrj51zg5ymfe-fill" data-item-order="2" transform="translate(345.88226318359375, 815.7057495117188)"></g>
<g id="g-root-cu_142znfbg5ymfc-fill" data-item-order="2" transform="translate(367.88226318359375, 138.0)"></g>
<g id="g-root-cu_1cymno7g5ym1a-fill" data-item-order="2" transform="translate(367.88226318359375, 110.0)"></g>
<g id="g-root-cu_1qa361jg5ym88-fill" data-item-order="2" transform="translate(68.0, 414.85284423828125)"></g>
<g id="g-root-cu_mbpmxjg5ym8f-fill" data-item-order="2" transform="translate(345.88226318359375, 310.0)"></g>
<g id="g-root-cu_142znfbg5ym84-fill" data-item-order="2" transform="translate(217.94113159179688, 238.0)"></g>
<g id="g-root-cu_1heg5sng5ym84-fill" data-item-order="2" transform="translate(217.94113159179688, 463.7056884765625)"></g>
<g id="g-root-ic__1cy06l3g5ymti-fill" data-item-order="1000000000" transform="translate(309.88226318359375, 892.7057495117188)"></g>
<g id="g-root-tx_wordcomp_dfg5ljg5ym86-fill" data-item-order="1000000000" transform="translate(279.8822021484375, 707.7057495117188)">
<g id="tx_wordcomp_dfg5ljg5ym86-fill" stroke="none" fill="#de8431" fill-opacity="1.0">
<g>
<text transform="translate(76.0, 34.0)" style="font-size:20px; font-family:'Roboto', sans-serif; white-space:pre;">
<tspan x="-20.67" y="0" dominant-baseline="ideographic">Word</tspan>
<tspan x="-59.26" y="24" dominant-baseline="ideographic"> Complete? &amp;gt;</tspan>
</text>
</g>
</g>
</g>
<g id="g-root-ic__qqwnyvg5ym16-fill" data-item-order="1000000000" transform="translate(26.0, 552.7056884765625)"></g>
<g id="g-root-tx_lose_1cy06l3g5ylu2-fill" data-item-order="1000000000" transform="translate(62.0, 543.7056884765625)">
<g id="tx_lose_1cy06l3g5ylu2-fill" stroke="none" fill="#1eabda" fill-opacity="1.0">
<g>
<text transform="translate(10.0, 22.0)" style="font-size:20px; font-family:'Roboto', sans-serif; white-space:pre;">
<tspan x="2" y="12" dominant-baseline="ideographic">Lose</tspan>
</text>
</g>
</g>
</g>
<g id="g-root-tx_attempts_hv9npzg5ylmx-fill" data-item-order="1000000000" transform="translate(157.9411163330078, 390.85284423828125)">
<g id="tx_attempts_hv9npzg5ylmx-fill" stroke="none" fill="#de8431" fill-opacity="1.0">
<g>
<text transform="translate(70.0, 22.0)" style="font-size:20px; font-family:'Roboto', sans-serif; white-space:pre;">
<tspan x="-57.87" y="12" dominant-baseline="ideographic">Attempts Left?</tspan>
</text>
</g>
</g>
</g>
<g id="g-root-ic__mb35ufg5ylfk-fill" data-item-order="1000000000" transform="translate(285.88226318359375, 552.7056884765625)"></g>
<g id="g-root-tx_continue_qqwnyvg5yl8m-fill" data-item-order="1000000000" transform="translate(321.88226318359375, 531.7056884765625)">
<g id="tx_continue_qqwnyvg5yl8m-fill" stroke="none" fill="#1eabda" fill-opacity="1.0">
<g>
<text transform="translate(10.0, 34.0)" style="font-size:20px; font-family:'Roboto', sans-serif; white-space:pre;">
<tspan x="2" y="0" dominant-baseline="ideographic">Continue</tspan>
<tspan x="2" y="24" dominant-baseline="ideographic"> Game</tspan>
</text>
</g>
</g>
</g>
<g id="g-root-tx_correctg_18i6ogng5ykn4-fill" data-item-order="1000000000" transform="translate(331.88226318359375, 202.0)">
<g id="tx_correctg_18i6ogng5ykn4-fill" stroke="none" fill="#de8431" fill-opacity="1.0">
<g>
<text transform="translate(46.0, 34.0)" style="font-size:20px; font-family:'Roboto', sans-serif; white-space:pre;">
<tspan x="-28.71" y="0" dominant-baseline="ideographic">Correct</tspan>
<tspan x="-28.59" y="24" dominant-baseline="ideographic"> Guess?</tspan>
</text>
</g>
</g>
</g>
<g id="g-root-ic__hv9npzg5yk90-fill" data-item-order="1000000000" transform="translate(301.88226318359375, 59.0)"></g>
<g id="g-root-tx_startgam_1cxdphzg5ymth-fill" data-item-order="1000000000" transform="translate(337.88226318359375, 50.0)">
<g id="tx_startgam_1cxdphzg5ymth-fill" stroke="none" fill="#969696" fill-opacity="1.0">
<g>
<text transform="translate(10.0, 22.0)" style="font-size:20px; font-family:'Roboto', sans-serif; white-space:pre;">
<tspan x="2" y="12" dominant-baseline="ideographic">Start Game</tspan>
</text>
</g>
</g>
</g>
<g id="g-root-tx_win_3zn87g5ymtd-fill" data-item-order="1000000000" transform="translate(345.88226318359375, 883.7057495117188)">
<g id="tx_win_3zn87g5ymtd-fill" stroke="none" fill="#1eabda" fill-opacity="1.0">
<g>
<text transform="translate(10.0, 22.0)" style="font-size:20px; font-family:'Roboto', sans-serif; white-space:pre;">
<tspan x="2" y="12" dominant-baseline="ideographic">Win</tspan>
</text>
</g>
</g>
</g>
<g id="g-root-di_v6q63bg5ymma-stroke" data-item-order="-38016" transform="translate(213.8822479248047, 671.7055053710938)">
<g id="di_v6q63bg5ymma-stroke" fill="none" stroke-linecap="round" stroke-linejoin="round" stroke-miterlimit="4" stroke="#de8431" stroke-width="2" stroke-opacity="1.0">
<g>
<path d="M 10 82.000183L 142 154.000183L 274 82.000183L 142 10.000183Z"></path>
</g>
</g>
</g>
<g id="g-root-di_dfg5ljg5ylu2-stroke" data-item-order="-23047" transform="translate(100.0, 366.0)">
<g id="di_dfg5ljg5ylu2-stroke" fill="none" stroke-linecap="round" stroke-linejoin="round" stroke-miterlimit="4" stroke="#de8431" stroke-width="2" stroke-opacity="1.0">
<g>
<path d="M 10 58.85L 127.94 107.71L 245.88 58.85L 127.94 10Z"></path>
</g>
</g>
</g>
<g id="g-root-di_1cy06l3g5yl1c-stroke" data-item-order="-20736" transform="translate(295.88226318359375, 165.99998474121094)">
<g id="di_1cy06l3g5yl1c-stroke" fill="none" stroke-linecap="round" stroke-linejoin="round" stroke-miterlimit="4" stroke="#de8431" stroke-width="2" stroke-opacity="1.0">
<g>
<path d="M 10 82.000031L 82 154.000031L 154 82.000031L 82 10.000031Z"></path>
</g>
</g>
</g>
<g id="g-root-ro_1ltn6tzg5ylfx-stroke" data-item-order="-13824" transform="translate(273.88226318359375, 519.7056884765625)">
<g id="ro_1ltn6tzg5ylfx-stroke" fill="none" stroke-linecap="round" stroke-linejoin="round" stroke-miterlimit="4" stroke="#1eabda" stroke-width="2" stroke-opacity="1.0">
<g>
<path d="M 22 10L 142 10C 142 10 154 10 154 22L 154 94C 154 94 154 106 142 106L 22 106C 22 106 10 106 10 94L 10 22C 10 22 10 10 22 10"></path>
</g>
</g>
</g>
<g id="g-root-ro_zmjo7rg5ykg9-stroke" data-item-order="-11232" transform="translate(289.88226318359375, 38.0)">
<g id="ro_zmjo7rg5ykg9-stroke" fill="none" stroke-linecap="round" stroke-linejoin="round" stroke-miterlimit="4" stroke="#969696" stroke-width="2" stroke-opacity="1.0">
<g>
<path d="M 22 10L 154 10C 154 10 166 10 166 22L 166 70C 166 70 166 82 154 82L 22 82C 22 82 10 82 10 70L 10 22C 10 22 10 10 22 10"></path>
</g>
</g>
</g>
<g id="g-root-ro_1ltn6tzg5ym0z-stroke" data-item-order="-10368" transform="translate(14.0, 519.7056884765625)">
<g id="ro_1ltn6tzg5ym0z-stroke" fill="none" stroke-linecap="round" stroke-linejoin="round" stroke-miterlimit="4" stroke="#1eabda" stroke-width="2" stroke-opacity="1.0">
<g>
<path d="M 22 10L 106 10C 106 10 118 10 118 22L 118 94C 118 94 118 106 106 106L 22 106C 22 106 10 106 10 94L 10 22C 10 22 10 10 22 10"></path>
</g>
</g>
</g>
<g id="g-root-ro_4jt5cng5yn0t-stroke" data-item-order="-6912" transform="translate(297.88226318359375, 871.7057495117188)">
<g id="ro_4jt5cng5yn0t-stroke" fill="none" stroke-linecap="round" stroke-linejoin="round" stroke-miterlimit="4" stroke="#1eabda" stroke-width="2" stroke-opacity="1.0">
<g>
<path d="M 22 10L 94 10C 94 10 106 10 106 22L 106 70C 106 70 106 82 94 82L 22 82C 22 82 10 82 10 70L 10 22C 10 22 10 10 22 10"></path>
</g>
</g>
</g>
<g id="g-root-tx_no_4m4bbg5ylfo-stroke" data-item-order="0" transform="translate(259.88226318359375, 250.0)"></g>
<g id="g-root-tx_yes_4kfmfrg5ylmw-stroke" data-item-order="0" transform="translate(379.88226318359375, 310.0)"></g>
<g id="g-root-tx_no_1cymno7g5ylmo-stroke" data-item-order="0" transform="translate(64.0, 426.85284423828125)"></g>
<g id="g-root-tx_yes_dg2mong5yltw-stroke" data-item-order="0" transform="translate(229.94113159179688, 463.7056884765625)"></g>
<g id="g-root-tx_no_1cymno7g5ylu0-stroke" data-item-order="0" transform="translate(477.8822937011719, 755.7056884765625)"></g>
<g id="g-root-tx_yes_dg2mong5ym10-stroke" data-item-order="0" transform="translate(357.88226318359375, 815.7057495117188)"></g>
<g id="g-root-cu_dg2mong5ymff-stroke" data-item-order="2" transform="translate(345.88226318359375, 615.7056884765625)">
<g id="cu_dg2mong5ymff-stroke" fill="none" stroke-linecap="round" stroke-linejoin="round" stroke-miterlimit="4" stroke="#484848" stroke-width="2" stroke-opacity="1.0">
<g>
<path d="M 10 10L 10 38L 10 64"></path>
<path d="M 3.5 58L 10 64.5L 16.5 58" stroke-dasharray="none"></path>
</g>
</g>
</g>
<g id="g-root-cu_qrj51zg5ymfe-stroke" data-item-order="2" transform="translate(345.88226318359375, 815.7057495117188)">
<g id="cu_qrj51zg5ymfe-stroke" fill="none" stroke-linecap="round" stroke-linejoin="round" stroke-miterlimit="4" stroke="#484848" stroke-width="2" stroke-opacity="1.0">
<g>
<path d="M 10 10L 10 38L 10 64"></path>
<path d="M 3.5 58L 10 64.5L 16.5 58" stroke-dasharray="none"></path>
</g>
</g>
</g>
<g id="g-root-cu_142znfbg5ymfc-stroke" data-item-order="2" transform="translate(367.88226318359375, 138.0)">
<g id="cu_142znfbg5ymfc-stroke" fill="none" stroke-linecap="round" stroke-linejoin="round" stroke-miterlimit="4" stroke="#484848" stroke-width="2" stroke-opacity="1.0">
<g>
<path d="M 120 615.7L 136 615.7L 152 615.7L 152 312.9L 152 10L 81 10L 10 10L 10 24L 10 36"></path>
<path d="M 3.5 30L 10 36.5L 16.5 30" stroke-dasharray="none"></path>
</g>
</g>
</g>
<g id="g-root-cu_1cymno7g5ym1a-stroke" data-item-order="2" transform="translate(367.88226318359375, 110.0)">
<g id="cu_1cymno7g5ym1a-stroke" fill="none" stroke-linecap="round" stroke-linejoin="round" stroke-miterlimit="4" stroke="#484848" stroke-width="2" stroke-opacity="1.0">
<g>
<path d="M 10 10L 10 38L 10 64"></path>
<path d="M 3.5 58L 10 64.5L 16.5 58" stroke-dasharray="none"></path>
</g>
</g>
</g>
<g id="g-root-cu_1qa361jg5ym88-stroke" data-item-order="2" transform="translate(68.0, 414.85284423828125)">
<g id="cu_1qa361jg5ym88-stroke" fill="none" stroke-linecap="round" stroke-linejoin="round" stroke-miterlimit="4" stroke="#484848" stroke-width="2" stroke-opacity="1.0">
<g>
<path d="M 42 10L 26 10L 10 10L 10 62.4L 10 112.9"></path>
<path d="M 3.5 106.9L 10 113.4L 16.5 106.9" stroke-dasharray="none"></path>
</g>
</g>
</g>
<g id="g-root-cu_mbpmxjg5ym8f-stroke" data-item-order="2" transform="translate(345.88226318359375, 310.0)">
<g id="cu_mbpmxjg5ym8f-stroke" fill="none" stroke-linecap="round" stroke-linejoin="round" stroke-miterlimit="4" stroke="#484848" stroke-width="2" stroke-opacity="1.0">
<g>
<path d="M 32 10L 32 100.9L 32 191.7L 21 191.7L 10 191.7L 10 205.7L 10 217.7"></path>
<path d="M 3.5 211.7L 10 218.2L 16.5 211.7" stroke-dasharray="none"></path>
</g>
</g>
</g>
<g id="g-root-cu_142znfbg5ym84-stroke" data-item-order="2" transform="translate(217.94113159179688, 238.0)">
<g id="cu_142znfbg5ym84-stroke" fill="none" stroke-linecap="round" stroke-linejoin="round" stroke-miterlimit="4" stroke="#484848" stroke-width="2" stroke-opacity="1.0">
<g>
<path d="M 87.9 10L 49 10L 10 10L 10 74L 10 136"></path>
<path d="M 3.5 130L 10 136.5L 16.5 130" stroke-dasharray="none"></path>
</g>
</g>
</g>
<g id="g-root-cu_1heg5sng5ym84-stroke" data-item-order="2" transform="translate(217.94113159179688, 463.7056884765625)">
<g id="cu_1heg5sng5ym84-stroke" fill="none" stroke-linecap="round" stroke-linejoin="round" stroke-miterlimit="4" stroke="#484848" stroke-width="2" stroke-opacity="1.0">
<g>
<path d="M 10 9.999969L 10 23.999969L 10 37.999969L 74 37.999969L 137.9 37.999969L 137.9 51.999969L 137.9 63.999969"></path>
<path d="M 131.4 57.999969L 137.9 64.499969L 144.4 57.999969" stroke-dasharray="none"></path>
</g>
</g>
</g>
<g id="g-root-ic__1cy06l3g5ymti-stroke" data-item-order="1000000000" transform="translate(309.88226318359375, 892.7057495117188)">
<g id="ic__1cy06l3g5ymti-stroke" fill="none" stroke-linecap="round" stroke-linejoin="round" stroke-miterlimit="4" stroke="#1eabda" stroke-width="2" stroke-opacity="1.0">
<g>
<path d="M 10 10L 40 10L 40 40L 10 40Z"></path>
</g>
</g>
</g>
<g id="g-root-tx_wordcomp_dfg5ljg5ym86-stroke" data-item-order="1000000000" transform="translate(279.8822021484375, 707.7057495117188)"></g>
<g id="g-root-ic__qqwnyvg5ym16-stroke" data-item-order="1000000000" transform="translate(26.0, 552.7056884765625)">
<g id="ic__qqwnyvg5ym16-stroke" fill="none" stroke-linecap="round" stroke-linejoin="round" stroke-miterlimit="4" stroke="#1eabda" stroke-width="2" stroke-opacity="1.0">
<g>
<path d="M 10 10L 40 10L 40 40L 10 40Z"></path>
</g>
</g>
</g>
<g id="g-root-tx_lose_1cy06l3g5ylu2-stroke" data-item-order="1000000000" transform="translate(62.0, 543.7056884765625)"></g>
<g id="g-root-tx_attempts_hv9npzg5ylmx-stroke" data-item-order="1000000000" transform="translate(157.9411163330078, 390.85284423828125)"></g>
<g id="g-root-ic__mb35ufg5ylfk-stroke" data-item-order="1000000000" transform="translate(285.88226318359375, 552.7056884765625)">
<g id="ic__mb35ufg5ylfk-stroke" fill="none" stroke-linecap="round" stroke-linejoin="round" stroke-miterlimit="4" stroke="#1eabda" stroke-width="2" stroke-opacity="1.0">
<g>
<path d="M 10 10L 40 10L 40 40L 10 40Z"></path>
</g>
</g>
</g>
<g id="g-root-tx_continue_qqwnyvg5yl8m-stroke" data-item-order="1000000000" transform="translate(321.88226318359375, 531.7056884765625)"></g>
<g id="g-root-tx_correctg_18i6ogng5ykn4-stroke" data-item-order="1000000000" transform="translate(331.88226318359375, 202.0)"></g>
<g id="g-root-ic__hv9npzg5yk90-stroke" data-item-order="1000000000" transform="translate(301.88226318359375, 59.0)">
<g id="ic__hv9npzg5yk90-stroke" fill="none" stroke-linecap="round" stroke-linejoin="round" stroke-miterlimit="4" stroke="#969696" stroke-width="2" stroke-opacity="1.0">
<g>
<path d="M 10 10L 40 10L 40 40L 10 40Z"></path>
</g>
</g>
</g>
<g id="g-root-tx_startgam_1cxdphzg5ymth-stroke" data-item-order="1000000000" transform="translate(337.88226318359375, 50.0)"></g>
<g id="g-root-tx_win_3zn87g5ymtd-stroke" data-item-order="1000000000" transform="translate(345.88226318359375, 883.7057495117188)"></g>
</g>
</g>
<path id="whzmzbrg5ym89" d="M65.283 12.757a.35.35 0 0 0 .584.157l5.203-5.141-6.183 3.523.396 1.461zm-2.216-11.7a.35.35 0 0 0-.522.305v3.111l3.276-1.868-2.754-1.548zm3.728 2.105l-4.25 2.421v2.445l6.391-3.644-2.141-1.222zm4.708 3.303a.35.35 0 0 0 0-.609l-1.592-.9-7.365 4.199v1.782a.35.35 0 0 0 .523.305l8.435-4.777z M44.542 2.513c0-.433.355-.783.792-.783s.792.35.792.783-.355.783-.792.783-.792-.35-.792-.783zm59.171 0c0-.433.355-.783.792-.783s.792.35.792.783-.355.783-.792.783-.792-.35-.792-.783zm-85.951 7.636h-1.27v-.487c-.276.201-.864.609-1.881.609-1.202 0-2.274-.794-2.137-2.078.118-1.106 1.153-1.584 1.848-1.727l2.17-.345c0-.539-.29-.956-1.064-1.006s-1.21.305-1.571 1.017l-1.124-.605c1.218-2.631 5.029-1.764 5.029.414v4.207zm-1.27-2.86c.006.396-.062 1.112-.819 1.59-.587.37-1.841.299-1.903-.395-.049-.555.461-.791.906-.898l1.816-.297zm72.662 2.86h-1.27v-.487c-.276.201-.864.609-1.881.609-1.202 0-2.274-.794-2.137-2.078.118-1.106 1.153-1.584 1.848-1.727l2.17-.345c0-.539-.29-.956-1.064-1.006s-1.21.305-1.571 1.017l-1.124-.605c1.218-2.631 5.029-1.764 5.029.414v4.207zm-1.27-2.86c.006.396-.062 1.112-.82 1.59-.587.37-1.841.299-1.903-.395-.049-.555.461-.791.906-.898l1.816-.297zM99.096 10.149H97.85v-8.45h1.246v4.895l2.68-2.559h1.738l-2.633 2.535 2.715 3.578h-1.556l-2.077-2.707-.867.844v1.863zm6.053-6.114h-1.255v6.113h1.255V4.035zm-59.2 0h-1.255v6.113h1.255V4.035zm5.584 6.113V1.697h1.255v2.695c.361-.346 1-.485 1.47-.485 1.452 0 2.477 1.082 2.457 2.448v3.792h-1.27v-3.68c0-.408-.214-1.339-1.315-1.339-.968 0-1.342.756-1.342 1.339v3.681h-1.255zm-4.76-4.894V4.039h.621a.45.45 0 0 0 .45-.45v-.855h1.251v1.305h1.309v1.215h-1.309v3.109c0 .293.105.664.648.664.365 0 .531-.035.736-.07v1.137s-.361.113-.857.113c-1.398 0-1.777-1.051-1.777-1.788V5.254h-1.071zM36.528 4.039h-1.394l2.191 6.106h1.125l1.234-3.918 1.238 3.918h1.129l2.188-6.106h-1.383l-1.359 3.93-1.256-3.93h-1.124l-1.242 3.957-1.348-3.957zM26.212 7.141c-.02 1.566 1.187 3.129 3.223 3.129 1.566 0 2.383-.918 2.734-1.719L31.172 8c-.315.399-.801 1.094-1.738 1.094-1.145 0-1.825-.781-1.891-1.52h4.625c.074-.284.148-.995-.03-1.559-.336-1.064-1.221-2.102-2.839-2.102s-3.088 1.152-3.088 3.227zm1.363-.75h3.348c-.055-.43-.566-1.301-1.623-1.301a1.79 1.79 0 0 0-1.725 1.301zm-8.758.75c.038 1.758 1.277 3.133 3.145 3.133 1.074 0 1.723-.477 1.961-.672v.547h1.242V1.703h-1.258v2.888c-.414-.36-1.062-.68-1.93-.68-1.91 0-3.198 1.473-3.16 3.23zm1.309-.08c0 1.119.723 1.978 1.836 1.978a1.88 1.88 0 0 0 1.94-1.904c0-1.371-1.011-1.99-1.972-1.99s-1.805.798-1.805 1.916zm76.683-.028C96.771 5.275 95.532 3.9 93.664 3.9c-1.074 0-1.723.477-1.961.672v-.547h-1.242v8.22h1.258V9.583c.414.36 1.063.68 1.93.68 1.91 0 3.198-1.473 3.16-3.23zm-1.309.08c0-1.119-.723-1.978-1.836-1.978a1.88 1.88 0 0 0-1.94 1.904c0 1.371 1.011 1.99 1.972 1.99S95.5 8.231 95.5 7.113zM106.441 10.173V4.036h1.254v.382c.361-.346 1-.485 1.47-.485 1.452 0 2.477 1.082 2.457 2.448v3.792h-1.27V6.492c0-.408-.214-1.339-1.315-1.339-.969 0-1.342.756-1.342 1.339v3.681h-1.254zm-30.383-.021V1.824h1.084l4.215 5.777V1.824h1.32v8.328h-1.094l-4.207-5.796v5.796h-1.319zM5.24 10.149H4V2.377h1.014l2.664 3.597 2.654-3.592h1.03v7.766h-1.256V4.762L7.678 8.068 5.24 4.742v5.407z" transform="translate(20.0, 967.7057495117188)" fill="#80808088" stroke="none"></path>
</svg>