<?xml version="1.0" encoding="utf-8" standalone="yes"?>
<!DOCTYPE svg PUBLIC "-//W3C//DTD SVG 1.1//EN" "http://www.w3.org/Graphics/SVG/1.1/DTD/svg11.dtd">
<svg version="1.1" xmlns="http://www.w3.org/2000/svg" xmlns:xlink="http://www.w3.org/1999/xlink" width="461" height="1224" viewBox="0 0 461 1224" style="fill:none; stroke:none; fill-rule:evenodd; clip-rule:evenodd; stroke-linecap:round; stroke-linejoin:round; stroke-miterlimit:1.5;">
<style class="text-font-style fontImports" data-font-family="Roboto">
@import url(https://fonts.googleapis.com/css2?family=Roboto:wght@400;700&amp;display=block);
</style>
<g id="items" style="isolation:isolate;">
<g id="blend" style="mix-blend-mode:normal;">
<g id="g-root-di_m7cbbrg62scr-fill" data-item-order="-46080" transform="translate(13.999969482421875, 493.99993896484375)">
<g id="di_m7cbbrg62scr-fill" stroke="none" fill="#fff2e5" fill-opacity="1.0">
<g>
<path d="M 10.000031 106.000061L 130.000031 202.000061L 250.000031 106.000061L 130.000031 10.000061Z"></path>
</g>
</g>
</g>
<g id="g-root-di_958x93g61g5g-fill" data-item-order="-31104" transform="translate(178.0000457763672, 294.0)">
<g id="di_958x93g61g5g-fill" stroke="none" fill="#fff2e5" fill-opacity="1.0">
<g>
<path d="M 10.000076 82.000015L 118.000076 154.000015L 226.000076 82.000015L 118.000076 10.000015Z"></path>
</g>
</g>
</g>
<g id="g-root-di_qn5tg7g62sxt-fill" data-item-order="-27648" transform="translate(190.00010681152344, 894.0)">
<g id="di_qn5tg7g62sxt-fill" stroke="none" fill="#fff2e5" fill-opacity="1.0">
<g>
<path d="M 10.000015 82L 106.000015 154L 202.000015 82L 106.000015 10Z"></path>
</g>
</g>
</g>
<g id="g-root-ro_18eftxzg62ryd-fill" data-item-order="-13824" transform="translate(214.0001220703125, 741.9999389648438)">
<g id="ro_18eftxzg62ryd-fill" stroke="none" fill="#e8f9ff" fill-opacity="1.0">
<g>
<path d="M 22 10L 142 10C 142 10 154 10 154 22L 154 94C 154 94 154 106 142 106L 22 106C 22 106 10 106 10 94L 10 22C 10 22 10 10 22 10"></path>
</g>
</g>
</g>
<g id="g-root-ro_mgpfmfg61fr4-fill" data-item-order="-12960" transform="translate(196.0001220703125, 166.0)">
<g id="ro_mgpfmfg61fr4-fill" stroke="none" fill="#e8f9ff" fill-opacity="1.0">
<g>
<path d="M 22 10L 178 10C 178 10 190 10 190 22L 190 70C 190 70 190 82 178 82L 22 82C 22 82 10 82 10 70L 10 22C 10 22 10 10 22 10"></path>
</g>
</g>
</g>
<g id="g-root-ro_1qf2yqfg61f66-fill" data-item-order="-11232" transform="translate(208.0001220703125, 38.0)">
<g id="ro_1qf2yqfg61f66-fill" stroke="none" fill="#f5f5f5" fill-opacity="1.0">
<g>
<path d="M 22 10L 154 10C 154 10 166 10 166 22L 166 70C 166 70 166 82 154 82L 22 82C 22 82 10 82 10 70L 10 22C 10 22 10 10 22 10"></path>
</g>
</g>
</g>
<g id="g-root-ro_1ha2u6vg62sjt-fill" data-item-order="-10368" transform="translate(80.00006103515625, 741.9999389648438)">
<g id="ro_1ha2u6vg62sjt-fill" stroke="none" fill="#e8f9ff" fill-opacity="1.0">
<g>
<path d="M 22 10L 106 10C 106 10 118 10 118 22L 118 94C 118 94 118 106 106 106L 22 106C 22 106 10 106 10 94L 10 22C 10 22 10 10 22 10"></path>
</g>
</g>
</g>
<g id="g-root-ro_1uljck7g62t5b-fill" data-item-order="-6912" transform="translate(238.0001220703125, 1094.0)">
<g id="ro_1uljck7g62t5b-fill" stroke="none" fill="#e8f9ff" fill-opacity="1.0">
<g>
<path d="M 22 10L 94 10C 94 10 106 10 106 22L 106 70C 106 70 106 82 94 82L 22 82C 22 82 10 82 10 70L 10 22C 10 22 10 10 22 10"></path>
</g>
</g>
</g>
<g id="g-root-tx_no_zistp3g62uiy-fill" data-item-order="0" transform="translate(142.0001220703125, 378.0)">
<g id="tx_no_zistp3g62uiy-fill" stroke="none" fill="#484848" fill-opacity="1.0">
<g>
<text transform="translate(10.0, 10.0)" style="font-size:15px; font-family:'Roboto', sans-serif; white-space:pre;">
<tspan x="2" y="18" dominant-baseline="ideographic">No</tspan>
</text>
</g>
</g>
</g>
<g id="g-root-tx_yes_hrit7bg62uwy-fill" data-item-order="0" transform="translate(298.0001220703125, 438.0000305175781)">
<g id="tx_yes_hrit7bg62uwy-fill" stroke="none" fill="#484848" fill-opacity="1.0">
<g>
<text transform="translate(10.0, 10.0)" style="font-size:15px; font-family:'Roboto', sans-serif; white-space:pre;">
<tspan x="2" y="18" dominant-baseline="ideographic">Yes</tspan>
</text>
</g>
</g>
</g>
<g id="g-root-tx_no_1ha2u6vg62ux9-fill" data-item-order="0" transform="translate(254.0001220703125, 602.0)">
<g id="tx_no_1ha2u6vg62ux9-fill" stroke="none" fill="#484848" fill-opacity="1.0">
<g>
<text transform="translate(10.0, 10.0)" style="font-size:15px; font-family:'Roboto', sans-serif; white-space:pre;">
<tspan x="2" y="18" dominant-baseline="ideographic">No</tspan>
</text>
</g>
</g>
</g>
<g id="g-root-tx_yes_hs5aafg62ryh-fill" data-item-order="0" transform="translate(146.00006103515625, 685.9999389648438)">
<g id="tx_yes_hs5aafg62ryh-fill" stroke="none" fill="#484848" fill-opacity="1.0">
<g>
<text transform="translate(10.0, 10.0)" style="font-size:15px; font-family:'Roboto', sans-serif; white-space:pre;">
<tspan x="2" y="18" dominant-baseline="ideographic">Yes</tspan>
</text>
</g>
</g>
</g>
<g id="g-root-tx_no_1hapb9zg62rya-fill" data-item-order="0" transform="translate(382.0001220703125, 978.0)">
<g id="tx_no_1hapb9zg62rya-fill" stroke="none" fill="#484848" fill-opacity="1.0">
<g>
<text transform="translate(10.0, 10.0)" style="font-size:15px; font-family:'Roboto', sans-serif; white-space:pre;">
<tspan x="2" y="18" dominant-baseline="ideographic">No</tspan>
</text>
</g>
</g>
</g>
<g id="g-root-tx_yes_m7ysevg62s5m-fill" data-item-order="0" transform="translate(298.0001220703125, 1038.0)">
<g id="tx_yes_m7ysevg62s5m-fill" stroke="none" fill="#484848" fill-opacity="1.0">
<g>
<text transform="translate(10.0, 10.0)" style="font-size:15px; font-family:'Roboto', sans-serif; white-space:pre;">
<tspan x="2" y="18" dominant-baseline="ideographic">Yes</tspan>
</text>
</g>
</g>
</g>
<g id="g-root-cu_1um5tnbg62s5j-fill" data-item-order="2" transform="translate(286.0001220703125, 110.0)"></g>
<g id="g-root-cu_hs5aafg62sco-fill" data-item-order="2" transform="translate(286.0001220703125, 238.0)"></g>
<g id="g-root-cu_v3lsnrg62scv-fill" data-item-order="2" transform="translate(286.0001220703125, 438.00006103515625)"></g>
<g id="g-root-cu_18f2b13g62scq-fill" data-item-order="2" transform="translate(134.00006103515625, 366.0)"></g>
<g id="g-root-cu_8wia1jg62sjp-fill" data-item-order="2" transform="translate(254.00010681152344, 590.0)"></g>
<g id="g-root-cu_v3lsnrg62sjs-fill" data-item-order="2" transform="translate(134.00006103515625, 685.9999389648438)"></g>
<g id="g-root-cu_1hapb9zg62sjp-fill" data-item-order="2" transform="translate(286.0001220703125, 838.0)"></g>
<g id="g-root-cu_4gorx3g62sqp-fill" data-item-order="2" transform="translate(286.0001220703125, 1038.0)"></g>
<g id="g-root-cu_dcbs5zg62sr1-fill" data-item-order="2" transform="translate(286.0001220703125, 138.0)"></g>
<g id="g-root-tx_makeague_18nsy8ng61fcw-fill" data-item-order="1000000000" transform="translate(244.0001220703125, 178.0)">
<g id="tx_makeague_18nsy8ng61fcw-fill" stroke="none" fill="#1eabda" fill-opacity="1.0">
<g>
<text transform="translate(10.0, 22.0)" style="font-size:20px; font-family:'Roboto', sans-serif; white-space:pre;">
<tspan x="2" y="12" dominant-baseline="ideographic">Make a Guess</tspan>
</text>
</g>
</g>
</g>
<g id="g-root-tx_maxincor_4g2atzg62s5j-fill" data-item-order="1000000000" transform="translate(74.00001525878906, 542.0)">
<g id="tx_maxincor_4g2atzg62s5j-fill" stroke="none" fill="#de8431" fill-opacity="1.0">
<g>
<text transform="translate(70.0, 46.0)" style="font-size:20px; font-family:'Roboto', sans-serif; white-space:pre;">
<tspan x="-54.04" y="-12" dominant-baseline="ideographic">Max Incorrect</tspan>
<tspan x="-33.59" y="12" dominant-baseline="ideographic"> Guesses</tspan>
<tspan x="-37.9" y="36" dominant-baseline="ideographic"> Reached?</tspan>
</text>
</g>
</g>
</g>
<g id="g-root-ic__18nsy8ng61fk1-fill" data-item-order="1000000000" transform="translate(208.0001220703125, 187.0)"></g>
<g id="g-root-tx_lose_1lpwcbbg62sck-fill" data-item-order="1000000000" transform="translate(128.00006103515625, 765.9999389648438)">
<g id="tx_lose_1lpwcbbg62sck-fill" stroke="none" fill="#1eabda" fill-opacity="1.0">
<g>
<text transform="translate(10.0, 22.0)" style="font-size:20px; font-family:'Roboto', sans-serif; white-space:pre;">
<tspan x="2" y="12" dominant-baseline="ideographic">Lose</tspan>
</text>
</g>
</g>
</g>
<g id="g-root-ic__qn5tg7g62sjr-fill" data-item-order="1000000000" transform="translate(92.00006103515625, 774.9999389648438)"></g>
<g id="g-root-tx_startgam_zs5xzrg61erm-fill" data-item-order="1000000000" transform="translate(256.0001220703125, 50.0)">
<g id="tx_startgam_zs5xzrg61erm-fill" stroke="none" fill="#969696" fill-opacity="1.0">
<g>
<text transform="translate(10.0, 22.0)" style="font-size:20px; font-family:'Roboto', sans-serif; white-space:pre;">
<tspan x="2" y="12" dominant-baseline="ideographic">Start Game</tspan>
</text>
</g>
</g>
</g>
<g id="g-root-tx_wordfull_8vvsyfg62sqt-fill" data-item-order="1000000000" transform="translate(238.00015258789062, 930.0)">
<g id="tx_wordfull_8vvsyfg62sqt-fill" stroke="none" fill="#de8431" fill-opacity="1.0">
<g>
<text transform="translate(58.0, 34.0)" style="font-size:20px; font-family:'Roboto', sans-serif; white-space:pre;">
<tspan x="-41.2" y="0" dominant-baseline="ideographic">Word Fully</tspan>
<tspan x="-38.17" y="24" dominant-baseline="ideographic"> Guessed?</tspan>
</text>
</g>
</g>
</g>
<g id="g-root-ic__9lx07g61f5v-fill" data-item-order="1000000000" transform="translate(220.0001220703125, 59.0)"></g>
<g id="g-root-tx_win_1q5pufrg62sxz-fill" data-item-order="1000000000" transform="translate(286.0001220703125, 1106.0)">
<g id="tx_win_1q5pufrg62sxz-fill" stroke="none" fill="#1eabda" fill-opacity="1.0">
<g>
<text transform="translate(10.0, 22.0)" style="font-size:20px; font-family:'Roboto', sans-serif; white-space:pre;">
<tspan x="2" y="12" dominant-baseline="ideographic">Win</tspan>
</text>
</g>
</g>
</g>
<g id="g-root-ic__13ymbtjg62t4y-fill" data-item-order="1000000000" transform="translate(250.0001220703125, 1115.0)"></g>
<g id="g-root-ic__dbpb2vg62ryb-fill" data-item-order="1000000000" transform="translate(226.0001220703125, 774.9999389648438)"></g>
<g id="g-root-tx_isthegue_1qf2yqfg61frg-fill" data-item-order="1000000000" transform="translate(232.0001220703125, 330.0)">
<g id="tx_isthegue_1qf2yqfg61frg-fill" stroke="none" fill="#de8431" fill-opacity="1.0">
<g>
<text transform="translate(64.0, 34.0)" style="font-size:20px; font-family:'Roboto', sans-serif; white-space:pre;">
<tspan x="-48.65" y="0" dominant-baseline="ideographic">Is the Guess</tspan>
<tspan x="-32.85" y="24" dominant-baseline="ideographic"> Correct?</tspan>
</text>
</g>
</g>
</g>
<g id="g-root-tx_continue_18nsy8ng61g5f-fill" data-item-order="1000000000" transform="translate(262.0001220703125, 753.9999389648438)">
<g id="tx_continue_18nsy8ng61g5f-fill" stroke="none" fill="#1eabda" fill-opacity="1.0">
<g>
<text transform="translate(10.0, 34.0)" style="font-size:20px; font-family:'Roboto', sans-serif; white-space:pre;">
<tspan x="2" y="0" dominant-baseline="ideographic">Continue</tspan>
<tspan x="2" y="24" dominant-baseline="ideographic"> Guessing</tspan>
</text>
</g>
</g>
</g>
<g id="g-root-di_m7cbbrg62scr-stroke" data-item-order="-46080" transform="translate(13.999969482421875, 493.99993896484375)">
<g id="di_m7cbbrg62scr-stroke" fill="none" stroke-linecap="round" stroke-linejoin="round" stroke-miterlimit="4" stroke="#de8431" stroke-width="2" stroke-opacity="1.0">
<g>
<path d="M 10.000031 106.000061L 130.000031 202.000061L 250.000031 106.000061L 130.000031 10.000061Z"></path>
</g>
</g>
</g>
<g id="g-root-di_958x93g61g5g-stroke" data-item-order="-31104" transform="translate(178.0000457763672, 294.0)">
<g id="di_958x93g61g5g-stroke" fill="none" stroke-linecap="round" stroke-linejoin="round" stroke-miterlimit="4" stroke="#de8431" stroke-width="2" stroke-opacity="1.0">
<g>
<path d="M 10.000076 82.000015L 118.000076 154.000015L 226.000076 82.000015L 118.000076 10.000015Z"></path>
</g>
</g>
</g>
<g id="g-root-di_qn5tg7g62sxt-stroke" data-item-order="-27648" transform="translate(190.00010681152344, 894.0)">
<g id="di_qn5tg7g62sxt-stroke" fill="none" stroke-linecap="round" stroke-linejoin="round" stroke-miterlimit="4" stroke="#de8431" stroke-width="2" stroke-opacity="1.0">
<g>
<path d="M 10.000015 82L 106.000015 154L 202.000015 82L 106.000015 10Z"></path>
</g>
</g>
</g>
<g id="g-root-ro_18eftxzg62ryd-stroke" data-item-order="-13824" transform="translate(214.0001220703125, 741.9999389648438)">
<g id="ro_18eftxzg62ryd-stroke" fill="none" stroke-linecap="round" stroke-linejoin="round" stroke-miterlimit="4" stroke="#1eabda" stroke-width="2" stroke-opacity="1.0">
<g>
<path d="M 22 10L 142 10C 142 10 154 10 154 22L 154 94C 154 94 154 106 142 106L 22 106C 22 106 10 106 10 94L 10 22C 10 22 10 10 22 10"></path>
</g>
</g>
</g>
<g id="g-root-ro_mgpfmfg61fr4-stroke" data-item-order="-12960" transform="translate(196.0001220703125, 166.0)">
<g id="ro_mgpfmfg61fr4-stroke" fill="none" stroke-linecap="round" stroke-linejoin="round" stroke-miterlimit="4" stroke="#1eabda" stroke-width="2" stroke-opacity="1.0">
<g>
<path d="M 22 10L 178 10C 178 10 190 10 190 22L 190 70C 190 70 190 82 178 82L 22 82C 22 82 10 82 10 70L 10 22C 10 22 10 10 22 10"></path>
</g>
</g>
</g>
<g id="g-root-ro_1qf2yqfg61f66-stroke" data-item-order="-11232" transform="translate(208.0001220703125, 38.0)">
<g id="ro_1qf2yqfg61f66-stroke" fill="none" stroke-linecap="round" stroke-linejoin="round" stroke-miterlimit="4" stroke="#969696" stroke-width="2" stroke-opacity="1.0">
<g>
<path d="M 22 10L 154 10C 154 10 166 10 166 22L 166 70C 166 70 166 82 154 82L 22 82C 22 82 10 82 10 70L 10 22C 10 22 10 10 22 10"></path>
</g>
</g>
</g>
<g id="g-root-ro_1ha2u6vg62sjt-stroke" data-item-order="-10368" transform="translate(80.00006103515625, 741.9999389648438)">
<g id="ro_1ha2u6vg62sjt-stroke" fill="none" stroke-linecap="round" stroke-linejoin="round" stroke-miterlimit="4" stroke="#1eabda" stroke-width="2" stroke-opacity="1.0">
<g>
<path d="M 22 10L 106 10C 106 10 118 10 118 22L 118 94C 118 94 118 106 106 106L 22 106C 22 106 10 106 10 94L 10 22C 10 22 10 10 22 10"></path>
</g>
</g>
</g>
<g id="g-root-ro_1uljck7g62t5b-stroke" data-item-order="-6912" transform="translate(238.0001220703125, 1094.0)">
<g id="ro_1uljck7g62t5b-stroke" fill="none" stroke-linecap="round" stroke-linejoin="round" stroke-miterlimit="4" stroke="#1eabda" stroke-width="2" stroke-opacity="1.0">
<g>
<path d="M 22 10L 94 10C 94 10 106 10 106 22L 106 70C 106 70 106 82 94 82L 22 82C 22 82 10 82 10 70L 10 22C 10 22 10 10 22 10"></path>
</g>
</g>
</g>
<g id="g-root-tx_no_zistp3g62uiy-stroke" data-item-order="0" transform="translate(142.0001220703125, 378.0)"></g>
<g id="g-root-tx_yes_hrit7bg62uwy-stroke" data-item-order="0" transform="translate(298.0001220703125, 438.0000305175781)"></g>
<g id="g-root-tx_no_1ha2u6vg62ux9-stroke" data-item-order="0" transform="translate(254.0001220703125, 602.0)"></g>
<g id="g-root-tx_yes_hs5aafg62ryh-stroke" data-item-order="0" transform="translate(146.00006103515625, 685.9999389648438)"></g>
<g id="g-root-tx_no_1hapb9zg62rya-stroke" data-item-order="0" transform="translate(382.0001220703125, 978.0)"></g>
<g id="g-root-tx_yes_m7ysevg62s5m-stroke" data-item-order="0" transform="translate(298.0001220703125, 1038.0)"></g>
<g id="g-root-cu_1um5tnbg62s5j-stroke" data-item-order="2" transform="translate(286.0001220703125, 110.0)">
<g id="cu_1um5tnbg62s5j-stroke" fill="none" stroke-linecap="round" stroke-linejoin="round" stroke-miterlimit="4" stroke="#484848" stroke-width="2" stroke-opacity="1.0">
<g>
<path d="M 10 10L 10 38L 10 64"></path>
<path d="M 3.5 58L 10 64.5L 16.5 58" stroke-dasharray="none"></path>
</g>
</g>
</g>
<g id="g-root-cu_hs5aafg62sco-stroke" data-item-order="2" transform="translate(286.0001220703125, 238.0)">
<g id="cu_hs5aafg62sco-stroke" fill="none" stroke-linecap="round" stroke-linejoin="round" stroke-miterlimit="4" stroke="#484848" stroke-width="2" stroke-opacity="1.0">
<g>
<path d="M 10 10L 10 38L 10 64"></path>
<path d="M 3.5 58L 10 64.5L 16.5 58" stroke-dasharray="none"></path>
</g>
</g>
</g>
<g id="g-root-cu_v3lsnrg62scv-stroke" data-item-order="2" transform="translate(286.0001220703125, 438.00006103515625)">
<g id="cu_v3lsnrg62scv-stroke" fill="none" stroke-linecap="round" stroke-linejoin="round" stroke-miterlimit="4" stroke="#484848" stroke-width="2" stroke-opacity="1.0">
<g>
<path d="M 10 9.999969L 10 161.999969L 10 311.999969"></path>
<path d="M 3.5 305.999969L 10 312.499969L 16.5 305.999969" stroke-dasharray="none"></path>
</g>
</g>
</g>
<g id="g-root-cu_18f2b13g62scq-stroke" data-item-order="2" transform="translate(134.00006103515625, 366.0)">
<g id="cu_18f2b13g62scq-stroke" fill="none" stroke-linecap="round" stroke-linejoin="round" stroke-miterlimit="4" stroke="#484848" stroke-width="2" stroke-opacity="1.0">
<g>
<path d="M 54 10L 32 10L 10 10L 10 74L 10 136"></path>
<path d="M 3.5 130L 10 136.5L 16.5 130" stroke-dasharray="none"></path>
</g>
</g>
</g>
<g id="g-root-cu_8wia1jg62sjp-stroke" data-item-order="2" transform="translate(254.00010681152344, 590.0)">
<g id="cu_8wia1jg62sjp-stroke" fill="none" stroke-linecap="round" stroke-linejoin="round" stroke-miterlimit="4" stroke="#484848" stroke-width="2" stroke-opacity="1.0">
<g>
<path d="M 10.000015 10L 26.000015 10L 42.000015 10L 42.000015 86L 42.000015 160"></path>
<path d="M 35.500015 154L 42.000015 160.5L 48.500015 154" stroke-dasharray="none"></path>
</g>
</g>
</g>
<g id="g-root-cu_v3lsnrg62sjs-stroke" data-item-order="2" transform="translate(134.00006103515625, 685.9999389648438)">
<g id="cu_v3lsnrg62sjs-stroke" fill="none" stroke-linecap="round" stroke-linejoin="round" stroke-miterlimit="4" stroke="#484848" stroke-width="2" stroke-opacity="1.0">
<g>
<path d="M 10 10L 10 38L 10 64"></path>
<path d="M 3.5 58L 10 64.5L 16.5 58" stroke-dasharray="none"></path>
</g>
</g>
</g>
<g id="g-root-cu_1hapb9zg62sjp-stroke" data-item-order="2" transform="translate(286.0001220703125, 838.0)">
<g id="cu_1hapb9zg62sjp-stroke" fill="none" stroke-linecap="round" stroke-linejoin="round" stroke-miterlimit="4" stroke="#484848" stroke-width="2" stroke-opacity="1.0">
<g>
<path d="M 10 9.999939L 10 37.999939L 10 63.999939"></path>
<path d="M 3.5 57.999939L 10 64.499939L 16.5 57.999939" stroke-dasharray="none"></path>
</g>
</g>
</g>
<g id="g-root-cu_4gorx3g62sqp-stroke" data-item-order="2" transform="translate(286.0001220703125, 1038.0)">
<g id="cu_4gorx3g62sqp-stroke" fill="none" stroke-linecap="round" stroke-linejoin="round" stroke-miterlimit="4" stroke="#484848" stroke-width="2" stroke-opacity="1.0">
<g>
<path d="M 10 10L 10 38L 10 64"></path>
<path d="M 3.5 58L 10 64.5L 16.5 58" stroke-dasharray="none"></path>
</g>
</g>
</g>
<g id="g-root-cu_dcbs5zg62sr1-stroke" data-item-order="2" transform="translate(286.0001220703125, 138.0)">
<g id="cu_dcbs5zg62sr1-stroke" fill="none" stroke-linecap="round" stroke-linejoin="round" stroke-miterlimit="4" stroke="#484848" stroke-width="2" stroke-opacity="1.0">
<g>
<path d="M 106 838L 128 838L 150 838L 150 424L 150 10L 80 10L 10 10L 10 24L 10 36"></path>
<path d="M 3.5 30L 10 36.5L 16.5 30" stroke-dasharray="none"></path>
</g>
</g>
</g>
<g id="g-root-tx_makeague_18nsy8ng61fcw-stroke" data-item-order="1000000000" transform="translate(244.0001220703125, 178.0)"></g>
<g id="g-root-tx_maxincor_4g2atzg62s5j-stroke" data-item-order="1000000000" transform="translate(74.00001525878906, 542.0)"></g>
<g id="g-root-ic__18nsy8ng61fk1-stroke" data-item-order="1000000000" transform="translate(208.0001220703125, 187.0)">
<g id="ic__18nsy8ng61fk1-stroke" fill="none" stroke-linecap="round" stroke-linejoin="round" stroke-miterlimit="4" stroke="#1eabda" stroke-width="2" stroke-opacity="1.0">
<g>
<path d="M 10 10L 40 10L 40 40L 10 40Z"></path>
</g>
</g>
</g>
<g id="g-root-tx_lose_1lpwcbbg62sck-stroke" data-item-order="1000000000" transform="translate(128.00006103515625, 765.9999389648438)"></g>
<g id="g-root-ic__qn5tg7g62sjr-stroke" data-item-order="1000000000" transform="translate(92.00006103515625, 774.9999389648438)">
<g id="ic__qn5tg7g62sjr-stroke" fill="none" stroke-linecap="round" stroke-linejoin="round" stroke-miterlimit="4" stroke="#1eabda" stroke-width="2" stroke-opacity="1.0">
<g>
<path d="M 10 10L 40 10L 40 40L 10 40Z"></path>
</g>
</g>
</g>
<g id="g-root-tx_startgam_zs5xzrg61erm-stroke" data-item-order="1000000000" transform="translate(256.0001220703125, 50.0)"></g>
<g id="g-root-tx_wordfull_8vvsyfg62sqt-stroke" data-item-order="1000000000" transform="translate(238.00015258789062, 930.0)"></g>
<g id="g-root-ic__9lx07g61f5v-stroke" data-item-order="1000000000" transform="translate(220.0001220703125, 59.0)">
<g id="ic__9lx07g61f5v-stroke" fill="none" stroke-linecap="round" stroke-linejoin="round" stroke-miterlimit="4" stroke="#969696" stroke-width="2" stroke-opacity="1.0">
<g>
<path d="M 10 10L 40 10L 40 40L 10 40Z"></path>
</g>
</g>
</g>
<g id="g-root-tx_win_1q5pufrg62sxz-stroke" data-item-order="1000000000" transform="translate(286.0001220703125, 1106.0)"></g>
<g id="g-root-ic__13ymbtjg62t4y-stroke" data-item-order="1000000000" transform="translate(250.0001220703125, 1115.0)">
<g id="ic__13ymbtjg62t4y-stroke" fill="none" stroke-linecap="round" stroke-linejoin="round" stroke-miterlimit="4" stroke="#1eabda" stroke-width="2" stroke-opacity="1.0">
<g>
<path d="M 10 10L 40 10L 40 40L 10 40Z"></path>
</g>
</g>
</g>
<g id="g-root-ic__dbpb2vg62ryb-stroke" data-item-order="1000000000" transform="translate(226.0001220703125, 774.9999389648438)">
<g id="ic__dbpb2vg62ryb-stroke" fill="none" stroke-linecap="round" stroke-linejoin="round" stroke-miterlimit="4" stroke="#1eabda" stroke-width="2" stroke-opacity="1.0">
<g>
<path d="M 10 10L 40 10L 40 40L 10 40Z"></path>
</g>
</g>
</g>
<g id="g-root-tx_isthegue_1qf2yqfg61frg-stroke" data-item-order="1000000000" transform="translate(232.0001220703125, 330.0)"></g>
<g id="g-root-tx_continue_18nsy8ng61g5f-stroke" data-item-order="1000000000" transform="translate(262.0001220703125, 753.9999389648438)"></g>
</g>
</g>
<path id="w3zn87g62uiv" d="M65.283 12.757a.35.35 0 0 0 .584.157l5.203-5.141-6.183 3.523.396 1.461zm-2.216-11.7a.35.35 0 0 0-.522.305v3.111l3.276-1.868-2.754-1.548zm3.728 2.105l-4.25 2.421v2.445l6.391-3.644-2.141-1.222zm4.708 3.303a.35.35 0 0 0 0-.609l-1.592-.9-7.365 4.199v1.782a.35.35 0 0 0 .523.305l8.435-4.777z M44.542 2.513c0-.433.355-.783.792-.783s.792.35.792.783-.355.783-.792.783-.792-.35-.792-.783zm59.171 0c0-.433.355-.783.792-.783s.792.35.792.783-.355.783-.792.783-.792-.35-.792-.783zm-85.951 7.636h-1.27v-.487c-.276.201-.864.609-1.881.609-1.202 0-2.274-.794-2.137-2.078.118-1.106 1.153-1.584 1.848-1.727l2.17-.345c0-.539-.29-.956-1.064-1.006s-1.21.305-1.571 1.017l-1.124-.605c1.218-2.631 5.029-1.764 5.029.414v4.207zm-1.27-2.86c.006.396-.062 1.112-.819 1.59-.587.37-1.841.299-1.903-.395-.049-.555.461-.791.906-.898l1.816-.297zm72.662 2.86h-1.27v-.487c-.276.201-.864.609-1.881.609-1.202 0-2.274-.794-2.137-2.078.118-1.106 1.153-1.584 1.848-1.727l2.17-.345c0-.539-.29-.956-1.064-1.006s-1.21.305-1.571 1.017l-1.124-.605c1.218-2.631 5.029-1.764 5.029.414v4.207zm-1.27-2.86c.006.396-.062 1.112-.82 1.59-.587.37-1.841.299-1.903-.395-.049-.555.461-.791.906-.898l1.816-.297zM99.096 10.149H97.85v-8.45h1.246v4.895l2.68-2.559h1.738l-2.633 2.535 2.715 3.578h-1.556l-2.077-2.707-.867.844v1.863zm6.053-6.114h-1.255v6.113h1.255V4.035zm-59.2 0h-1.255v6.113h1.255V4.035zm5.584 6.113V1.697h1.255v2.695c.361-.346 1-.485 1.47-.485 1.452 0 2.477 1.082 2.457 2.448v3.792h-1.27v-3.68c0-.408-.214-1.339-1.315-1.339-.968 0-1.342.756-1.342 1.339v3.681h-1.255zm-4.76-4.894V4.039h.621a.45.45 0 0 0 .45-.45v-.855h1.251v1.305h1.309v1.215h-1.309v3.109c0 .293.105.664.648.664.365 0 .531-.035.736-.07v1.137s-.361.113-.857.113c-1.398 0-1.777-1.051-1.777-1.788V5.254h-1.071zM36.528 4.039h-1.394l2.191 6.106h1.125l1.234-3.918 1.238 3.918h1.129l2.188-6.106h-1.383l-1.359 3.93-1.256-3.93h-1.124l-1.242 3.957-1.348-3.957zM26.212 7.141c-.02 1.566 1.187 3.129 3.223 3.129 1.566 0 2.383-.918 2.734-1.719L31.172 8c-.315.399-.801 1.094-1.738 1.094-1.145 0-1.825-.781-1.891-1.52h4.625c.074-.284.148-.995-.03-1.559-.336-1.064-1.221-2.102-2.839-2.102s-3.088 1.152-3.088 3.227zm1.363-.75h3.348c-.055-.43-.566-1.301-1.623-1.301a1.79 1.79 0 0 0-1.725 1.301zm-8.758.75c.038 1.758 1.277 3.133 3.145 3.133 1.074 0 1.723-.477 1.961-.672v.547h1.242V1.703h-1.258v2.888c-.414-.36-1.062-.68-1.93-.68-1.91 0-3.198 1.473-3.16 3.23zm1.309-.08c0 1.119.723 1.978 1.836 1.978a1.88 1.88 0 0 0 1.94-1.904c0-1.371-1.011-1.99-1.972-1.99s-1.805.798-1.805 1.916zm76.683-.028C96.771 5.275 95.532 3.9 93.664 3.9c-1.074 0-1.723.477-1.961.672v-.547h-1.242v8.22h1.258V9.583c.414.36 1.063.68 1.93.68 1.91 0 3.198-1.473 3.16-3.23zm-1.309.08c0-1.119-.723-1.978-1.836-1.978a1.88 1.88 0 0 0-1.94 1.904c0 1.371 1.011 1.99 1.972 1.99S95.5 8.231 95.5 7.113zM106.441 10.173V4.036h1.254v.382c.361-.346 1-.485 1.47-.485 1.452 0 2.477 1.082 2.457 2.448v3.792h-1.27V6.492c0-.408-.214-1.339-1.315-1.339-.969 0-1.342.756-1.342 1.339v3.681h-1.254zm-30.383-.021V1.824h1.084l4.215 5.777V1.824h1.32v8.328h-1.094l-4.207-5.796v5.796h-1.319zM5.24 10.149H4V2.377h1.014l2.664 3.597 2.654-3.592h1.03v7.766h-1.256V4.762L7.678 8.068 5.24 4.742v5.407z" transform="translate(20.0, 1190.0)" fill="#80808088" stroke="none"></path>
</svg>