<?xml version="1.0" encoding="utf-8" standalone="yes"?>
<!DOCTYPE svg PUBLIC "-//W3C//DTD SVG 1.1//EN" "http://www.w3.org/Graphics/SVG/1.1/DTD/svg11.dtd">
<svg version="1.1" xmlns="http://www.w3.org/2000/svg" xmlns:xlink="http://www.w3.org/1999/xlink" width="564" height="1528" viewBox="0 0 564 1528" style="fill:none; stroke:none; fill-rule:evenodd; clip-rule:evenodd; stroke-linecap:round; stroke-linejoin:round; stroke-miterlimit:1.5;">
<style class="text-font-style fontImports" data-font-family="Roboto">
@import url(https://fonts.googleapis.com/css2?family=Roboto:wght@400;700&amp;display=block);
</style>
<g id="items" style="isolation:isolate;">
<g id="blend" style="mix-blend-mode:normal;">
<g id="g-root-di_141qp93g61fk4-fill" data-item-order="-31104" transform="translate(141.99990844726562, 822.0)">
<g id="di_141qp93g61fk4-fill" stroke="none" fill="#fff2e5" fill-opacity="1.0">
<g>
<path d="M 10.000107 82L 118.000107 154L 226.000107 82L 118.000107 10Z"></path>
</g>
</g>
</g>
<g id="g-root-di_141qp93g61edk-fill" data-item-order="-31104" transform="translate(282.0, 470.0)">
<g id="di_141qp93g61edk-fill" stroke="none" fill="#fff2e5" fill-opacity="1.0">
<g>
<path d="M 10 82L 118 154L 226 82L 118 10Z"></path>
</g>
</g>
</g>
<g id="g-root-di_18hk7djg61g5r-fill" data-item-order="-27648" transform="translate(13.999908447265625, 1174.0)">
<g id="di_18hk7djg61g5r-fill" stroke="none" fill="#fff2e5" fill-opacity="1.0">
<g>
<path d="M 10.000092 82L 106.000092 154L 202.000092 82L 106.000092 10Z"></path>
</g>
</g>
</g>
<g id="g-root-ro_hun6mvg61eru-fill" data-item-order="-16128" transform="translate(306.0, 1374.0)">
<g id="ro_hun6mvg61eru-fill" stroke="none" fill="#e8f9ff" fill-opacity="1.0">
<g>
<path d="M 22 10L 166 10C 166 10 178 10 178 22L 178 94C 178 94 178 106 166 106L 22 106C 22 106 10 106 10 94L 10 22C 10 22 10 10 22 10"></path>
</g>
</g>
</g>
<g id="g-root-ro_v63p07g61f5z-fill" data-item-order="-16128" transform="translate(166.0, 670.0)">
<g id="ro_v63p07g61f5z-fill" stroke="none" fill="#e8f9ff" fill-opacity="1.0">
<g>
<path d="M 22 10L 166 10C 166 10 178 10 178 22L 178 94C 178 94 178 106 166 106L 22 106C 22 106 10 106 10 94L 10 22C 10 22 10 10 22 10"></path>
</g>
</g>
</g>
<g id="g-root-ro_dfg5ljg61de2-fill" data-item-order="-14976" transform="translate(32.0, 1374.0)">
<g id="ro_dfg5ljg61de2-fill" stroke="none" fill="#e8f9ff" fill-opacity="1.0">
<g>
<path d="M 22 10L 154 10C 154 10 166 10 166 22L 166 94C 166 94 166 106 154 106L 22 106C 22 106 10 106 10 94L 10 22C 10 22 10 10 22 10"></path>
</g>
</g>
</g>
<g id="g-root-ro_4j6o9jg61dlb-fill" data-item-order="-14976" transform="translate(312.0, 38.0)">
<g id="ro_4j6o9jg61dlb-fill" stroke="none" fill="#f5f5f5" fill-opacity="1.0">
<g>
<path d="M 22 10L 154 10C 154 10 166 10 166 22L 166 94C 166 94 166 106 154 106L 22 106C 22 106 10 106 10 94L 10 22C 10 22 10 10 22 10"></path>
</g>
</g>
</g>
<g id="g-root-ro_magorbg61e6f-fill" data-item-order="-14976" transform="translate(312.0, 318.0)">
<g id="ro_magorbg61e6f-fill" stroke="none" fill="#e8f9ff" fill-opacity="1.0">
<g>
<path d="M 22 10L 154 10C 154 10 166 10 166 22L 166 94C 166 94 166 106 154 106L 22 106C 22 106 10 106 10 94L 10 22C 10 22 10 10 22 10"></path>
</g>
</g>
</g>
<g id="g-root-ro_qqa6vrg61fyk-fill" data-item-order="-14976" transform="translate(32.0, 1022.0)">
<g id="ro_qqa6vrg61fyk-fill" stroke="none" fill="#e8f9ff" fill-opacity="1.0">
<g>
<path d="M 22 10L 154 10C 154 10 166 10 166 22L 166 94C 166 94 166 106 154 106L 22 106C 22 106 10 106 10 94L 10 22C 10 22 10 10 22 10"></path>
</g>
</g>
</g>
<g id="g-root-ro_1hd77mfg61dsf-fill" data-item-order="-12096" transform="translate(306.0, 190.0)">
<g id="ro_1hd77mfg61dsf-fill" stroke="none" fill="#e8f9ff" fill-opacity="1.0">
<g>
<path d="M 22 10L 166 10C 166 10 178 10 178 22L 178 70C 178 70 178 82 166 82L 22 82C 22 82 10 82 10 70L 10 22C 10 22 10 10 22 10"></path>
</g>
</g>
</g>
<g id="g-root-tx_no_3zn87g61fkb-fill" data-item-order="0" transform="translate(246.0, 554.0)">
<g id="tx_no_3zn87g61fkb-fill" stroke="none" fill="#484848" fill-opacity="1.0">
<g>
<text transform="translate(10.0, 10.0)" style="font-size:15px; font-family:'Roboto', sans-serif; white-space:pre;">
<tspan x="2" y="18" dominant-baseline="ideographic">no</tspan>
</text>
</g>
</g>
</g>
<g id="g-root-tx_yes_1cy06l3g61fk8-fill" data-item-order="0" transform="translate(402.0, 614.0)">
<g id="tx_yes_1cy06l3g61fk8-fill" stroke="none" fill="#484848" fill-opacity="1.0">
<g>
<text transform="translate(10.0, 10.0)" style="font-size:15px; font-family:'Roboto', sans-serif; white-space:pre;">
<tspan x="2" y="18" dominant-baseline="ideographic">yes</tspan>
</text>
</g>
</g>
</g>
<g id="g-root-tx_no_dfg5ljg61frj-fill" data-item-order="0" transform="translate(106.0, 906.0)">
<g id="tx_no_dfg5ljg61frj-fill" stroke="none" fill="#484848" fill-opacity="1.0">
<g>
<text transform="translate(10.0, 10.0)" style="font-size:15px; font-family:'Roboto', sans-serif; white-space:pre;">
<tspan x="2" y="18" dominant-baseline="ideographic">no</tspan>
</text>
</g>
</g>
</g>
<g id="g-root-tx_yes_1cy06l3g61frb-fill" data-item-order="0" transform="translate(262.0, 966.0)">
<g id="tx_yes_1cy06l3g61frb-fill" stroke="none" fill="#484848" fill-opacity="1.0">
<g>
<text transform="translate(10.0, 10.0)" style="font-size:15px; font-family:'Roboto', sans-serif; white-space:pre;">
<tspan x="2" y="18" dominant-baseline="ideographic">yes</tspan>
</text>
</g>
</g>
</g>
<g id="g-root-tx_no_hv9npzg61fyd-fill" data-item-order="0" transform="translate(206.00003051757812, 1258.0)">
<g id="tx_no_hv9npzg61fyd-fill" stroke="none" fill="#484848" fill-opacity="1.0">
<g>
<text transform="translate(10.0, 10.0)" style="font-size:15px; font-family:'Roboto', sans-serif; white-space:pre;">
<tspan x="2" y="18" dominant-baseline="ideographic">no</tspan>
</text>
</g>
</g>
</g>
<g id="g-root-tx_yes_1hdtopjg61fya-fill" data-item-order="0" transform="translate(122.0, 1318.0)">
<g id="tx_yes_1hdtopjg61fya-fill" stroke="none" fill="#484848" fill-opacity="1.0">
<g>
<text transform="translate(10.0, 10.0)" style="font-size:15px; font-family:'Roboto', sans-serif; white-space:pre;">
<tspan x="2" y="18" dominant-baseline="ideographic">yes</tspan>
</text>
</g>
</g>
</g>
<g id="g-root-cu_zmjo7rg61g5r-fill" data-item-order="2" transform="translate(390.0, 262.0)"></g>
<g id="g-root-cu_1cy06l3g61g5q-fill" data-item-order="2" transform="translate(390.0, 414.0)"></g>
<g id="g-root-cu_1upa72vg61gcr-fill" data-item-order="2" transform="translate(110.0, 1318.0)"></g>
<g id="g-root-cu_1ltn6tzg61gci-fill" data-item-order="2" transform="translate(110.0, 1118.0)"></g>
<g id="g-root-cu_1q9goyfg61g5r-fill" data-item-order="2" transform="translate(390.0, 614.0)"></g>
<g id="g-root-cu_zmjo7rg61gcm-fill" data-item-order="2" transform="translate(250.0, 162.0)"></g>
<g id="g-root-cu_9094k7g61ddw-fill" data-item-order="2" transform="translate(206.00003051757812, 1246.0)"></g>
<g id="g-root-cu_4jt5cng61gcp-fill" data-item-order="2" transform="translate(250.0, 542.0)"></g>
<g id="g-root-cu_18i6ogng61gco-fill" data-item-order="2" transform="translate(110.0, 894.0)"></g>
<g id="g-root-cu_hv9npzg61g5k-fill" data-item-order="2" transform="translate(390.0, 134.0)"></g>
<g id="g-root-cu_hv9npzg61gcv-fill" data-item-order="2" transform="translate(250.0, 766.0)"></g>
<g id="g-root-ic__1lt0pqvg61gcs-fill" data-item-order="1000000000" transform="translate(44.0, 1407.0)"></g>
<g id="g-root-tx_newconse_8z06dzg61gcj-fill" data-item-order="1000000000" transform="translate(80.0, 1386.0)">
<g id="tx_newconse_8z06dzg61gcj-fill" stroke="none" fill="#1eabda" fill-opacity="1.0">
<g>
<text transform="translate(10.0, 34.0)" style="font-size:20px; font-family:'Roboto', sans-serif; white-space:pre;">
<tspan x="2" y="0" dominant-baseline="ideographic">New</tspan>
<tspan x="2" y="24" dominant-baseline="ideographic"> Consensus</tspan>
</text>
</g>
</g>
</g>
<g id="g-root-tx_agreewit_1hd77mfg61fyi-fill" data-item-order="1000000000" transform="translate(62.000030517578125, 1210.0)">
<g id="tx_agreewit_1hd77mfg61fyi-fill" stroke="none" fill="#de8431" fill-opacity="1.0">
<g>
<text transform="translate(58.0, 34.0)" style="font-size:20px; font-family:'Roboto', sans-serif; white-space:pre;">
<tspan x="-41.73" y="0" dominant-baseline="ideographic">Agree with</tspan>
<tspan x="-24.48" y="24" dominant-baseline="ideographic"> State?</tspan>
</text>
</g>
</g>
</g>
<g id="g-root-ic__3d653g61fyf-fill" data-item-order="1000000000" transform="translate(44.0, 1055.0)"></g>
<g id="g-root-tx_voteonag_8z06dzg61fr8-fill" data-item-order="1000000000" transform="translate(80.0, 1034.0)">
<g id="tx_voteonag_8z06dzg61fr8-fill" stroke="none" fill="#1eabda" fill-opacity="1.0">
<g>
<text transform="translate(10.0, 34.0)" style="font-size:20px; font-family:'Roboto', sans-serif; white-space:pre;">
<tspan x="2" y="0" dominant-baseline="ideographic">Vote on</tspan>
<tspan x="2" y="24" dominant-baseline="ideographic"> Agreement</tspan>
</text>
</g>
</g>
</g>
<g id="g-root-tx_needfurt_1q8u7vbg61f61-fill" data-item-order="1000000000" transform="translate(196.00003051757812, 858.0)">
<g id="tx_needfurt_1q8u7vbg61f61-fill" stroke="none" fill="#de8431" fill-opacity="1.0">
<g>
<text transform="translate(64.0, 34.0)" style="font-size:20px; font-family:'Roboto', sans-serif; white-space:pre;">
<tspan x="-50.89" y="0" dominant-baseline="ideographic">Need Further</tspan>
<tspan x="-23.55" y="24" dominant-baseline="ideographic"> Edits?</tspan>
</text>
</g>
</g>
</g>
<g id="g-root-ic__1q8u7vbg61ez3-fill" data-item-order="1000000000" transform="translate(178.0, 703.0)"></g>
<g id="g-root-tx_askforfu_1cxdphzg61erz-fill" data-item-order="1000000000" transform="translate(214.0, 682.0)">
<g id="tx_askforfu_1cxdphzg61erz-fill" stroke="none" fill="#1eabda" fill-opacity="1.0">
<g>
<text transform="translate(10.0, 34.0)" style="font-size:20px; font-family:'Roboto', sans-serif; white-space:pre;">
<tspan x="2" y="0" dominant-baseline="ideographic">Ask for</tspan>
<tspan x="2" y="24" dominant-baseline="ideographic"> Further Edits</tspan>
</text>
</g>
</g>
</g>
<g id="g-root-ic__1lt0pqvg61eku-fill" data-item-order="1000000000" transform="translate(318.0, 1407.0)"></g>
<g id="g-root-tx_seekcomp_4j6o9jg61ekj-fill" data-item-order="1000000000" transform="translate(354.0, 1386.0)">
<g id="tx_seekcomp_4j6o9jg61ekj-fill" stroke="none" fill="#1eabda" fill-opacity="1.0">
<g>
<text transform="translate(10.0, 34.0)" style="font-size:20px; font-family:'Roboto', sans-serif; white-space:pre;">
<tspan x="2" y="0" dominant-baseline="ideographic">Seek</tspan>
<tspan x="2" y="24" dominant-baseline="ideographic"> Compromise</tspan>
</text>
</g>
</g>
</g>
<g id="g-root-tx_disagree_1cxdphzg61e6b-fill" data-item-order="1000000000" transform="translate(336.0, 506.0)">
<g id="tx_disagree_1cxdphzg61e6b-fill" stroke="none" fill="#de8431" fill-opacity="1.0">
<g>
<text transform="translate(64.0, 34.0)" style="font-size:20px; font-family:'Roboto', sans-serif; white-space:pre;">
<tspan x="-51.44" y="0" dominant-baseline="ideographic">Disagreemen</tspan>
<tspan x="-1.28" y="24" dominant-baseline="ideographic">t?</tspan>
</text>
</g>
</g>
</g>
<g id="g-root-ic__1uonpzrg61dzf-fill" data-item-order="1000000000" transform="translate(324.0, 351.0)"></g>
<g id="g-root-tx_implemen_detoifg61dzc-fill" data-item-order="1000000000" transform="translate(360.0, 330.0)">
<g id="tx_implemen_detoifg61dzc-fill" stroke="none" fill="#1eabda" fill-opacity="1.0">
<g>
<text transform="translate(10.0, 34.0)" style="font-size:20px; font-family:'Roboto', sans-serif; white-space:pre;">
<tspan x="2" y="0" dominant-baseline="ideographic">Implement</tspan>
<tspan x="2" y="24" dominant-baseline="ideographic"> Edit</tspan>
</text>
</g>
</g>
</g>
<g id="g-root-ic__qqa6vrg61dsb-fill" data-item-order="1000000000" transform="translate(318.0, 211.0)"></g>
<g id="g-root-tx_proposee_18hk7djg61dl6-fill" data-item-order="1000000000" transform="translate(354.0, 202.0)">
<g id="tx_proposee_18hk7djg61dl6-fill" stroke="none" fill="#1eabda" fill-opacity="1.0">
<g>
<text transform="translate(10.0, 22.0)" style="font-size:20px; font-family:'Roboto', sans-serif; white-space:pre;">
<tspan x="2" y="12" dominant-baseline="ideographic">Propose Edit</tspan>
</text>
</g>
</g>
</g>
<g id="g-root-ic__hun6mvg61ddy-fill" data-item-order="1000000000" transform="translate(324.0, 71.0)"></g>
<g id="g-root-tx_establis_1hckqjbg61g5f-fill" data-item-order="1000000000" transform="translate(360.0, 50.0)">
<g id="tx_establis_1hckqjbg61g5f-fill" stroke="none" fill="#969696" fill-opacity="1.0">
<g>
<text transform="translate(10.0, 34.0)" style="font-size:20px; font-family:'Roboto', sans-serif; white-space:pre;">
<tspan x="2" y="0" dominant-baseline="ideographic">Established</tspan>
<tspan x="2" y="24" dominant-baseline="ideographic"> Agreement</tspan>
</text>
</g>
</g>
</g>
<g id="g-root-di_141qp93g61fk4-stroke" data-item-order="-31104" transform="translate(141.99990844726562, 822.0)">
<g id="di_141qp93g61fk4-stroke" fill="none" stroke-linecap="round" stroke-linejoin="round" stroke-miterlimit="4" stroke="#de8431" stroke-width="2" stroke-opacity="1.0">
<g>
<path d="M 10.000107 82L 118.000107 154L 226.000107 82L 118.000107 10Z"></path>
</g>
</g>
</g>
<g id="g-root-di_141qp93g61edk-stroke" data-item-order="-31104" transform="translate(282.0, 470.0)">
<g id="di_141qp93g61edk-stroke" fill="none" stroke-linecap="round" stroke-linejoin="round" stroke-miterlimit="4" stroke="#de8431" stroke-width="2" stroke-opacity="1.0">
<g>
<path d="M 10 82L 118 154L 226 82L 118 10Z"></path>
</g>
</g>
</g>
<g id="g-root-di_18hk7djg61g5r-stroke" data-item-order="-27648" transform="translate(13.999908447265625, 1174.0)">
<g id="di_18hk7djg61g5r-stroke" fill="none" stroke-linecap="round" stroke-linejoin="round" stroke-miterlimit="4" stroke="#de8431" stroke-width="2" stroke-opacity="1.0">
<g>
<path d="M 10.000092 82L 106.000092 154L 202.000092 82L 106.000092 10Z"></path>
</g>
</g>
</g>
<g id="g-root-ro_hun6mvg61eru-stroke" data-item-order="-16128" transform="translate(306.0, 1374.0)">
<g id="ro_hun6mvg61eru-stroke" fill="none" stroke-linecap="round" stroke-linejoin="round" stroke-miterlimit="4" stroke="#1eabda" stroke-width="2" stroke-opacity="1.0">
<g>
<path d="M 22 10L 166 10C 166 10 178 10 178 22L 178 94C 178 94 178 106 166 106L 22 106C 22 106 10 106 10 94L 10 22C 10 22 10 10 22 10"></path>
</g>
</g>
</g>
<g id="g-root-ro_v63p07g61f5z-stroke" data-item-order="-16128" transform="translate(166.0, 670.0)">
<g id="ro_v63p07g61f5z-stroke" fill="none" stroke-linecap="round" stroke-linejoin="round" stroke-miterlimit="4" stroke="#1eabda" stroke-width="2" stroke-opacity="1.0">
<g>
<path d="M 22 10L 166 10C 166 10 178 10 178 22L 178 94C 178 94 178 106 166 106L 22 106C 22 106 10 106 10 94L 10 22C 10 22 10 10 22 10"></path>
</g>
</g>
</g>
<g id="g-root-ro_dfg5ljg61de2-stroke" data-item-order="-14976" transform="translate(32.0, 1374.0)">
<g id="ro_dfg5ljg61de2-stroke" fill="none" stroke-linecap="round" stroke-linejoin="round" stroke-miterlimit="4" stroke="#1eabda" stroke-width="2" stroke-opacity="1.0">
<g>
<path d="M 22 10L 154 10C 154 10 166 10 166 22L 166 94C 166 94 166 106 154 106L 22 106C 22 106 10 106 10 94L 10 22C 10 22 10 10 22 10"></path>
</g>
</g>
</g>
<g id="g-root-ro_4j6o9jg61dlb-stroke" data-item-order="-14976" transform="translate(312.0, 38.0)">
<g id="ro_4j6o9jg61dlb-stroke" fill="none" stroke-linecap="round" stroke-linejoin="round" stroke-miterlimit="4" stroke="#969696" stroke-width="2" stroke-opacity="1.0">
<g>
<path d="M 22 10L 154 10C 154 10 166 10 166 22L 166 94C 166 94 166 106 154 106L 22 106C 22 106 10 106 10 94L 10 22C 10 22 10 10 22 10"></path>
</g>
</g>
</g>
<g id="g-root-ro_magorbg61e6f-stroke" data-item-order="-14976" transform="translate(312.0, 318.0)">
<g id="ro_magorbg61e6f-stroke" fill="none" stroke-linecap="round" stroke-linejoin="round" stroke-miterlimit="4" stroke="#1eabda" stroke-width="2" stroke-opacity="1.0">
<g>
<path d="M 22 10L 154 10C 154 10 166 10 166 22L 166 94C 166 94 166 106 154 106L 22 106C 22 106 10 106 10 94L 10 22C 10 22 10 10 22 10"></path>
</g>
</g>
</g>
<g id="g-root-ro_qqa6vrg61fyk-stroke" data-item-order="-14976" transform="translate(32.0, 1022.0)">
<g id="ro_qqa6vrg61fyk-stroke" fill="none" stroke-linecap="round" stroke-linejoin="round" stroke-miterlimit="4" stroke="#1eabda" stroke-width="2" stroke-opacity="1.0">
<g>
<path d="M 22 10L 154 10C 154 10 166 10 166 22L 166 94C 166 94 166 106 154 106L 22 106C 22 106 10 106 10 94L 10 22C 10 22 10 10 22 10"></path>
</g>
</g>
</g>
<g id="g-root-ro_1hd77mfg61dsf-stroke" data-item-order="-12096" transform="translate(306.0, 190.0)">
<g id="ro_1hd77mfg61dsf-stroke" fill="none" stroke-linecap="round" stroke-linejoin="round" stroke-miterlimit="4" stroke="#1eabda" stroke-width="2" stroke-opacity="1.0">
<g>
<path d="M 22 10L 166 10C 166 10 178 10 178 22L 178 70C 178 70 178 82 166 82L 22 82C 22 82 10 82 10 70L 10 22C 10 22 10 10 22 10"></path>
</g>
</g>
</g>
<g id="g-root-tx_no_3zn87g61fkb-stroke" data-item-order="0" transform="translate(246.0, 554.0)"></g>
<g id="g-root-tx_yes_1cy06l3g61fk8-stroke" data-item-order="0" transform="translate(402.0, 614.0)"></g>
<g id="g-root-tx_no_dfg5ljg61frj-stroke" data-item-order="0" transform="translate(106.0, 906.0)"></g>
<g id="g-root-tx_yes_1cy06l3g61frb-stroke" data-item-order="0" transform="translate(262.0, 966.0)"></g>
<g id="g-root-tx_no_hv9npzg61fyd-stroke" data-item-order="0" transform="translate(206.00003051757812, 1258.0)"></g>
<g id="g-root-tx_yes_1hdtopjg61fya-stroke" data-item-order="0" transform="translate(122.0, 1318.0)"></g>
<g id="g-root-cu_zmjo7rg61g5r-stroke" data-item-order="2" transform="translate(390.0, 262.0)">
<g id="cu_zmjo7rg61g5r-stroke" fill="none" stroke-linecap="round" stroke-linejoin="round" stroke-miterlimit="4" stroke="#484848" stroke-width="2" stroke-opacity="1.0">
<g>
<path d="M 10 10L 10 38L 10 64"></path>
<path d="M 3.5 58L 10 64.5L 16.5 58" stroke-dasharray="none"></path>
</g>
</g>
</g>
<g id="g-root-cu_1cy06l3g61g5q-stroke" data-item-order="2" transform="translate(390.0, 414.0)">
<g id="cu_1cy06l3g61g5q-stroke" fill="none" stroke-linecap="round" stroke-linejoin="round" stroke-miterlimit="4" stroke="#484848" stroke-width="2" stroke-opacity="1.0">
<g>
<path d="M 10 10L 10 38L 10 64"></path>
<path d="M 3.5 58L 10 64.5L 16.5 58" stroke-dasharray="none"></path>
</g>
</g>
</g>
<g id="g-root-cu_1upa72vg61gcr-stroke" data-item-order="2" transform="translate(110.0, 1318.0)">
<g id="cu_1upa72vg61gcr-stroke" fill="none" stroke-linecap="round" stroke-linejoin="round" stroke-miterlimit="4" stroke="#484848" stroke-width="2" stroke-opacity="1.0">
<g>
<path d="M 10 10L 10 38L 10 64"></path>
<path d="M 3.5 58L 10 64.5L 16.5 58" stroke-dasharray="none"></path>
</g>
</g>
</g>
<g id="g-root-cu_1ltn6tzg61gci-stroke" data-item-order="2" transform="translate(110.0, 1118.0)">
<g id="cu_1ltn6tzg61gci-stroke" fill="none" stroke-linecap="round" stroke-linejoin="round" stroke-miterlimit="4" stroke="#484848" stroke-width="2" stroke-opacity="1.0">
<g>
<path d="M 10 10L 10 38L 10 64"></path>
<path d="M 3.5 58L 10 64.5L 16.5 58" stroke-dasharray="none"></path>
</g>
</g>
</g>
<g id="g-root-cu_1q9goyfg61g5r-stroke" data-item-order="2" transform="translate(390.0, 614.0)">
<g id="cu_1q9goyfg61g5r-stroke" fill="none" stroke-linecap="round" stroke-linejoin="round" stroke-miterlimit="4" stroke="#484848" stroke-width="2" stroke-opacity="1.0">
<g>
<path d="M 10 10L 10 390L 10 768"></path>
<path d="M 3.5 762L 10 768.5L 16.5 762" stroke-dasharray="none"></path>
</g>
</g>
</g>
<g id="g-root-cu_zmjo7rg61gcm-stroke" data-item-order="2" transform="translate(250.0, 162.0)">
<g id="cu_zmjo7rg61gcm-stroke" fill="none" stroke-linecap="round" stroke-linejoin="round" stroke-miterlimit="4" stroke="#484848" stroke-width="2" stroke-opacity="1.0">
<g>
<path d="M 10 814L 10 828L 10 842L 150 842L 290 842L 290 426L 290 10L 220 10L 150 10L 150 24L 150 36"></path>
<path d="M 143.5 30L 150 36.5L 156.5 30" stroke-dasharray="none"></path>
</g>
</g>
</g>
<g id="g-root-cu_9094k7g61ddw-stroke" data-item-order="2" transform="translate(206.00003051757812, 1246.0)">
<g id="cu_9094k7g61ddw-stroke" fill="none" stroke-linecap="round" stroke-linejoin="round" stroke-miterlimit="4" stroke="#484848" stroke-width="2" stroke-opacity="1.0">
<g>
<path d="M 10 10L 102 10L 194 10L 194 74L 194 136"></path>
<path d="M 187.5 130L 194 136.5L 200.5 130" stroke-dasharray="none"></path>
</g>
</g>
</g>
<g id="g-root-cu_4jt5cng61gcp-stroke" data-item-order="2" transform="translate(250.0, 542.0)">
<g id="cu_4jt5cng61gcp-stroke" fill="none" stroke-linecap="round" stroke-linejoin="round" stroke-miterlimit="4" stroke="#484848" stroke-width="2" stroke-opacity="1.0">
<g>
<path d="M 42 10L 26 10L 10 10L 10 74L 10 136"></path>
<path d="M 3.5 130L 10 136.5L 16.5 130" stroke-dasharray="none"></path>
</g>
</g>
</g>
<g id="g-root-cu_18i6ogng61gco-stroke" data-item-order="2" transform="translate(110.0, 894.0)">
<g id="cu_18i6ogng61gco-stroke" fill="none" stroke-linecap="round" stroke-linejoin="round" stroke-miterlimit="4" stroke="#484848" stroke-width="2" stroke-opacity="1.0">
<g>
<path d="M 42 10L 26 10L 10 10L 10 74L 10 136"></path>
<path d="M 3.5 130L 10 136.5L 16.5 130" stroke-dasharray="none"></path>
</g>
</g>
</g>
<g id="g-root-cu_hv9npzg61g5k-stroke" data-item-order="2" transform="translate(390.0, 134.0)">
<g id="cu_hv9npzg61g5k-stroke" fill="none" stroke-linecap="round" stroke-linejoin="round" stroke-miterlimit="4" stroke="#484848" stroke-width="2" stroke-opacity="1.0">
<g>
<path d="M 10 10L 10 38L 10 64"></path>
<path d="M 3.5 58L 10 64.5L 16.5 58" stroke-dasharray="none"></path>
</g>
</g>
</g>
<g id="g-root-cu_hv9npzg61gcv-stroke" data-item-order="2" transform="translate(250.0, 766.0)">
<g id="cu_hv9npzg61gcv-stroke" fill="none" stroke-linecap="round" stroke-linejoin="round" stroke-miterlimit="4" stroke="#484848" stroke-width="2" stroke-opacity="1.0">
<g>
<path d="M 10 10L 10 38L 10 64"></path>
<path d="M 3.5 58L 10 64.5L 16.5 58" stroke-dasharray="none"></path>
</g>
</g>
</g>
<g id="g-root-ic__1lt0pqvg61gcs-stroke" data-item-order="1000000000" transform="translate(44.0, 1407.0)">
<g id="ic__1lt0pqvg61gcs-stroke" fill="none" stroke-linecap="round" stroke-linejoin="round" stroke-miterlimit="4" stroke="#1eabda" stroke-width="2" stroke-opacity="1.0">
<g>
<path d="M 10 10L 40 10L 40 40L 10 40Z"></path>
</g>
</g>
</g>
<g id="g-root-tx_newconse_8z06dzg61gcj-stroke" data-item-order="1000000000" transform="translate(80.0, 1386.0)"></g>
<g id="g-root-tx_agreewit_1hd77mfg61fyi-stroke" data-item-order="1000000000" transform="translate(62.000030517578125, 1210.0)"></g>
<g id="g-root-ic__3d653g61fyf-stroke" data-item-order="1000000000" transform="translate(44.0, 1055.0)">
<g id="ic__3d653g61fyf-stroke" fill="none" stroke-linecap="round" stroke-linejoin="round" stroke-miterlimit="4" stroke="#1eabda" stroke-width="2" stroke-opacity="1.0">
<g>
<path d="M 10 10L 40 10L 40 40L 10 40Z"></path>
</g>
</g>
</g>
<g id="g-root-tx_voteonag_8z06dzg61fr8-stroke" data-item-order="1000000000" transform="translate(80.0, 1034.0)"></g>
<g id="g-root-tx_needfurt_1q8u7vbg61f61-stroke" data-item-order="1000000000" transform="translate(196.00003051757812, 858.0)"></g>
<g id="g-root-ic__1q8u7vbg61ez3-stroke" data-item-order="1000000000" transform="translate(178.0, 703.0)">
<g id="ic__1q8u7vbg61ez3-stroke" fill="none" stroke-linecap="round" stroke-linejoin="round" stroke-miterlimit="4" stroke="#1eabda" stroke-width="2" stroke-opacity="1.0">
<g>
<path d="M 10 10L 40 10L 40 40L 10 40Z"></path>
</g>
</g>
</g>
<g id="g-root-tx_askforfu_1cxdphzg61erz-stroke" data-item-order="1000000000" transform="translate(214.0, 682.0)"></g>
<g id="g-root-ic__1lt0pqvg61eku-stroke" data-item-order="1000000000" transform="translate(318.0, 1407.0)">
<g id="ic__1lt0pqvg61eku-stroke" fill="none" stroke-linecap="round" stroke-linejoin="round" stroke-miterlimit="4" stroke="#1eabda" stroke-width="2" stroke-opacity="1.0">
<g>
<path d="M 10 10L 40 10L 40 40L 10 40Z"></path>
</g>
</g>
</g>
<g id="g-root-tx_seekcomp_4j6o9jg61ekj-stroke" data-item-order="1000000000" transform="translate(354.0, 1386.0)"></g>
<g id="g-root-tx_disagree_1cxdphzg61e6b-stroke" data-item-order="1000000000" transform="translate(336.0, 506.0)"></g>
<g id="g-root-ic__1uonpzrg61dzf-stroke" data-item-order="1000000000" transform="translate(324.0, 351.0)">
<g id="ic__1uonpzrg61dzf-stroke" fill="none" stroke-linecap="round" stroke-linejoin="round" stroke-miterlimit="4" stroke="#1eabda" stroke-width="2" stroke-opacity="1.0">
<g>
<path d="M 10 10L 40 10L 40 40L 10 40Z"></path>
</g>
</g>
</g>
<g id="g-root-tx_implemen_detoifg61dzc-stroke" data-item-order="1000000000" transform="translate(360.0, 330.0)"></g>
<g id="g-root-ic__qqa6vrg61dsb-stroke" data-item-order="1000000000" transform="translate(318.0, 211.0)">
<g id="ic__qqa6vrg61dsb-stroke" fill="none" stroke-linecap="round" stroke-linejoin="round" stroke-miterlimit="4" stroke="#1eabda" stroke-width="2" stroke-opacity="1.0">
<g>
<path d="M 10 10L 40 10L 40 40L 10 40Z"></path>
</g>
</g>
</g>
<g id="g-root-tx_proposee_18hk7djg61dl6-stroke" data-item-order="1000000000" transform="translate(354.0, 202.0)"></g>
<g id="g-root-ic__hun6mvg61ddy-stroke" data-item-order="1000000000" transform="translate(324.0, 71.0)">
<g id="ic__hun6mvg61ddy-stroke" fill="none" stroke-linecap="round" stroke-linejoin="round" stroke-miterlimit="4" stroke="#969696" stroke-width="2" stroke-opacity="1.0">
<g>
<path d="M 10 10L 40 10L 40 40L 10 40Z"></path>
</g>
</g>
</g>
<g id="g-root-tx_establis_1hckqjbg61g5f-stroke" data-item-order="1000000000" transform="translate(360.0, 50.0)"></g>
</g>
</g>
<path id="w4o6gyfg61err" d="M65.283 12.757a.35.35 0 0 0 .584.157l5.203-5.141-6.183 3.523.396 1.461zm-2.216-11.7a.35.35 0 0 0-.522.305v3.111l3.276-1.868-2.754-1.548zm3.728 2.105l-4.25 2.421v2.445l6.391-3.644-2.141-1.222zm4.708 3.303a.35.35 0 0 0 0-.609l-1.592-.9-7.365 4.199v1.782a.35.35 0 0 0 .523.305l8.435-4.777z M44.542 2.513c0-.433.355-.783.792-.783s.792.35.792.783-.355.783-.792.783-.792-.35-.792-.783zm59.171 0c0-.433.355-.783.792-.783s.792.35.792.783-.355.783-.792.783-.792-.35-.792-.783zm-85.951 7.636h-1.27v-.487c-.276.201-.864.609-1.881.609-1.202 0-2.274-.794-2.137-2.078.118-1.106 1.153-1.584 1.848-1.727l2.17-.345c0-.539-.29-.956-1.064-1.006s-1.21.305-1.571 1.017l-1.124-.605c1.218-2.631 5.029-1.764 5.029.414v4.207zm-1.27-2.86c.006.396-.062 1.112-.819 1.59-.587.37-1.841.299-1.903-.395-.049-.555.461-.791.906-.898l1.816-.297zm72.662 2.86h-1.27v-.487c-.276.201-.864.609-1.881.609-1.202 0-2.274-.794-2.137-2.078.118-1.106 1.153-1.584 1.848-1.727l2.17-.345c0-.539-.29-.956-1.064-1.006s-1.21.305-1.571 1.017l-1.124-.605c1.218-2.631 5.029-1.764 5.029.414v4.207zm-1.27-2.86c.006.396-.062 1.112-.82 1.59-.587.37-1.841.299-1.903-.395-.049-.555.461-.791.906-.898l1.816-.297zM99.096 10.149H97.85v-8.45h1.246v4.895l2.68-2.559h1.738l-2.633 2.535 2.715 3.578h-1.556l-2.077-2.707-.867.844v1.863zm6.053-6.114h-1.255v6.113h1.255V4.035zm-59.2 0h-1.255v6.113h1.255V4.035zm5.584 6.113V1.697h1.255v2.695c.361-.346 1-.485 1.47-.485 1.452 0 2.477 1.082 2.457 2.448v3.792h-1.27v-3.68c0-.408-.214-1.339-1.315-1.339-.968 0-1.342.756-1.342 1.339v3.681h-1.255zm-4.76-4.894V4.039h.621a.45.45 0 0 0 .45-.45v-.855h1.251v1.305h1.309v1.215h-1.309v3.109c0 .293.105.664.648.664.365 0 .531-.035.736-.07v1.137s-.361.113-.857.113c-1.398 0-1.777-1.051-1.777-1.788V5.254h-1.071zM36.528 4.039h-1.394l2.191 6.106h1.125l1.234-3.918 1.238 3.918h1.129l2.188-6.106h-1.383l-1.359 3.93-1.256-3.93h-1.124l-1.242 3.957-1.348-3.957zM26.212 7.141c-.02 1.566 1.187 3.129 3.223 3.129 1.566 0 2.383-.918 2.734-1.719L31.172 8c-.315.399-.801 1.094-1.738 1.094-1.145 0-1.825-.781-1.891-1.52h4.625c.074-.284.148-.995-.03-1.559-.336-1.064-1.221-2.102-2.839-2.102s-3.088 1.152-3.088 3.227zm1.363-.75h3.348c-.055-.43-.566-1.301-1.623-1.301a1.79 1.79 0 0 0-1.725 1.301zm-8.758.75c.038 1.758 1.277 3.133 3.145 3.133 1.074 0 1.723-.477 1.961-.672v.547h1.242V1.703h-1.258v2.888c-.414-.36-1.062-.68-1.93-.68-1.91 0-3.198 1.473-3.16 3.23zm1.309-.08c0 1.119.723 1.978 1.836 1.978a1.88 1.88 0 0 0 1.94-1.904c0-1.371-1.011-1.99-1.972-1.99s-1.805.798-1.805 1.916zm76.683-.028C96.771 5.275 95.532 3.9 93.664 3.9c-1.074 0-1.723.477-1.961.672v-.547h-1.242v8.22h1.258V9.583c.414.36 1.063.68 1.93.68 1.91 0 3.198-1.473 3.16-3.23zm-1.309.08c0-1.119-.723-1.978-1.836-1.978a1.88 1.88 0 0 0-1.94 1.904c0 1.371 1.011 1.99 1.972 1.99S95.5 8.231 95.5 7.113zM106.441 10.173V4.036h1.254v.382c.361-.346 1-.485 1.47-.485 1.452 0 2.477 1.082 2.457 2.448v3.792h-1.27V6.492c0-.408-.214-1.339-1.315-1.339-.969 0-1.342.756-1.342 1.339v3.681h-1.254zm-30.383-.021V1.824h1.084l4.215 5.777V1.824h1.32v8.328h-1.094l-4.207-5.796v5.796h-1.319zM5.24 10.149H4V2.377h1.014l2.664 3.597 2.654-3.592h1.03v7.766h-1.256V4.762L7.678 8.068 5.24 4.742v5.407z" transform="translate(437.0, 1503.0)" fill="#80808088" stroke="none"></path>
</svg>