<?xml version="1.0" encoding="utf-8" standalone="yes"?>
<!DOCTYPE svg PUBLIC "-//W3C//DTD SVG 1.1//EN" "http://www.w3.org/Graphics/SVG/1.1/DTD/svg11.dtd">
<svg version="1.1" xmlns="http://www.w3.org/2000/svg" xmlns:xlink="http://www.w3.org/1999/xlink" width="428" height="1920" viewBox="0 0 428 1920" style="fill:none; stroke:none; fill-rule:evenodd; clip-rule:evenodd; stroke-linecap:round; stroke-linejoin:round; stroke-miterlimit:1.5;">
<style class="text-font-style fontImports" data-font-family="Roboto">
@import url(https://fonts.googleapis.com/css2?family=Roboto:wght@400;700&amp;display=block);
</style>
<g id="items" style="isolation:isolate;">
<g id="blend" style="mix-blend-mode:normal;">
<g id="g-root-ro_1lymwd3g671fq-fill" data-item-order="-18432" transform="translate(108.0, 342.0)">
<g id="ro_1lymwd3g671fq-fill" stroke="none" fill="#e8f9ff" fill-opacity="1.0">
<g>
<path d="M 22 10L 190 10C 190 10 202 10 202 22L 202 94C 202 94 202 106 190 106L 22 106C 22 106 10 106 10 94L 10 22C 10 22 10 10 22 10"></path>
</g>
</g>
</g>
<g id="g-root-ro_1lymwd3g66zv0-fill" data-item-order="-17280" transform="translate(114.0, 38.0)">
<g id="ro_1lymwd3g66zv0-fill" stroke="none" fill="#f5f5f5" fill-opacity="1.0">
<g>
<path d="M 22 10L 178 10C 178 10 190 10 190 22L 190 94C 190 94 190 106 178 106L 22 106C 22 106 10 106 10 94L 10 22C 10 22 10 10 22 10"></path>
</g>
</g>
</g>
<g id="g-root-ro_9ltufg67286-fill" data-item-order="-17280" transform="translate(214.0, 1054.0)">
<g id="ro_9ltufg67286-fill" stroke="none" fill="#e8f9ff" fill-opacity="1.0">
<g>
<path d="M 22 10L 178 10C 178 10 190 10 190 22L 190 94C 190 94 190 106 178 106L 22 106C 22 106 10 106 10 94L 10 22C 10 22 10 10 22 10"></path>
</g>
</g>
</g>
<g id="g-root-ro_1lymwd3g672mk-fill" data-item-order="-17280" transform="translate(114.0, 646.0)">
<g id="ro_1lymwd3g672mk-fill" stroke="none" fill="#e8f9ff" fill-opacity="1.0">
<g>
<path d="M 22 10L 178 10C 178 10 190 10 190 22L 190 94C 190 94 190 106 178 106L 22 106C 22 106 10 106 10 94L 10 22C 10 22 10 10 22 10"></path>
</g>
</g>
</g>
<g id="g-root-ro_zisqjbg68gsh-fill" data-item-order="-16128" transform="translate(220.0, 1766.0)">
<g id="ro_zisqjbg68gsh-fill" stroke="none" fill="#e8f9ff" fill-opacity="1.0">
<g>
<path d="M 22 10L 166 10C 166 10 178 10 178 22L 178 94C 178 94 178 106 166 106L 22 106C 22 106 10 106 10 94L 10 22C 10 22 10 10 22 10"></path>
</g>
</g>
</g>
<g id="g-root-ro_1qegehjg670n5-fill" data-item-order="-16128" transform="translate(120.0, 190.0)">
<g id="ro_1qegehjg670n5-fill" stroke="none" fill="#e8f9ff" fill-opacity="1.0">
<g>
<path d="M 22 10L 166 10C 166 10 178 10 178 22L 178 94C 178 94 178 106 166 106L 22 106C 22 106 10 106 10 94L 10 22C 10 22 10 10 22 10"></path>
</g>
</g>
</g>
<g id="g-root-ro_1uuwdp3g672mg-fill" data-item-order="-13824" transform="translate(232.0, 1206.0)">
<g id="ro_1uuwdp3g672mg-fill" stroke="none" fill="#e8f9ff" fill-opacity="1.0">
<g>
<path d="M 22 10L 142 10C 142 10 154 10 154 22L 154 94C 154 94 154 106 142 106L 22 106C 22 106 10 106 10 94L 10 22C 10 22 10 10 22 10"></path>
</g>
</g>
</g>
<g id="g-root-ro_4g27o7g68f0s-fill" data-item-order="-12960" transform="translate(214.0, 1358.0)">
<g id="ro_4g27o7g68f0s-fill" stroke="none" fill="#e8f9ff" fill-opacity="1.0">
<g>
<path d="M 22 10L 178 10C 178 10 190 10 190 22L 190 70C 190 70 190 82 178 82L 22 82C 22 82 10 82 10 70L 10 22C 10 22 10 10 22 10"></path>
</g>
</g>
</g>
<g id="g-root-ro_zs5utzg6711m-fill" data-item-order="-12960" transform="translate(214.0, 798.0)">
<g id="ro_zs5utzg6711m-fill" stroke="none" fill="#e8f9ff" fill-opacity="1.0">
<g>
<path d="M 22 10L 178 10C 178 10 190 10 190 22L 190 70C 190 70 190 82 178 82L 22 82C 22 82 10 82 10 70L 10 22C 10 22 10 10 22 10"></path>
</g>
</g>
</g>
<g id="g-root-ro_9ltufg670g2-fill" data-item-order="-12960" transform="translate(14.0, 798.0)">
<g id="ro_9ltufg670g2-fill" stroke="none" fill="#e8f9ff" fill-opacity="1.0">
<g>
<path d="M 22 10L 178 10C 178 10 190 10 190 22L 190 70C 190 70 190 82 178 82L 22 82C 22 82 10 82 10 70L 10 22C 10 22 10 10 22 10"></path>
</g>
</g>
</g>
<g id="g-root-ro_4g27o7g68g75-fill" data-item-order="-12672" transform="translate(238.0, 1614.0)">
<g id="ro_4g27o7g68g75-fill" stroke="none" fill="#e8f9ff" fill-opacity="1.0">
<g>
<path d="M 22 10L 130 10C 130 10 142 10 142 22L 142 94C 142 94 142 106 130 106L 22 106C 22 106 10 106 10 94L 10 22C 10 22 10 10 22 10"></path>
</g>
</g>
</g>
<g id="g-root-ro_dkfv4ng6720y-fill" data-item-order="-12672" transform="translate(138.0, 494.0)">
<g id="ro_dkfv4ng6720y-fill" stroke="none" fill="#e8f9ff" fill-opacity="1.0">
<g>
<path d="M 22 10L 130 10C 130 10 142 10 142 22L 142 94C 142 94 142 106 130 106L 22 106C 22 106 10 106 10 94L 10 22C 10 22 10 10 22 10"></path>
</g>
</g>
</g>
<g id="g-root-ro_1qf2vkng671fq-fill" data-item-order="-9504" transform="translate(238.0, 926.0)">
<g id="ro_1qf2vkng671fq-fill" stroke="none" fill="#e8f9ff" fill-opacity="1.0">
<g>
<path d="M 22 10L 130 10C 130 10 142 10 142 22L 142 70C 142 70 142 82 130 82L 22 82C 22 82 10 82 10 70L 10 22C 10 22 10 10 22 10"></path>
</g>
</g>
</g>
<g id="g-root-ro_8vvpsng68fm7-fill" data-item-order="-8640" transform="translate(244.0, 1486.0)">
<g id="ro_8vvpsng68fm7-fill" stroke="none" fill="#e8f9ff" fill-opacity="1.0">
<g>
<path d="M 22 10L 118 10C 118 10 130 10 130 22L 130 70C 130 70 130 82 118 82L 22 82C 22 82 10 82 10 70L 10 22C 10 22 10 10 22 10"></path>
</g>
</g>
</g>
<g id="g-root-cu_zjf7mfg68gem-fill" data-item-order="2" transform="translate(104.0, 742.0)"></g>
<g id="g-root-cu_1q6c8d3g68g0c-fill" data-item-order="2" transform="translate(204.0, 134.0)"></g>
<g id="g-root-cu_1cuvpzrg68ge8-fill" data-item-order="2" transform="translate(204.0, 742.0)"></g>
<g id="g-root-cu_1q6c8d3g68ge8-fill" data-item-order="2" transform="translate(304.0, 870.0)"></g>
<g id="g-root-cu_m7yp93g68g7j-fill" data-item-order="2" transform="translate(204.0, 286.0)"></g>
<g id="g-root-cu_8wi6vrg68glg-fill" data-item-order="2" transform="translate(304.0, 998.0)"></g>
<g id="g-root-cu_qns7djg68glg-fill" data-item-order="2" transform="translate(304.0, 1150.0)"></g>
<g id="g-root-cu_18f27vbg68g7a-fill" data-item-order="2" transform="translate(204.0, 438.0)"></g>
<g id="g-root-cu_qns7djg68gei-fill" data-item-order="2" transform="translate(104.0, 742.0)"></g>
<g id="g-root-cu_1q6c8d3g68glf-fill" data-item-order="2" transform="translate(304.0, 1302.0)"></g>
<g id="g-root-cu_1q6c8d3g68g7d-fill" data-item-order="2" transform="translate(204.0, 590.0)"></g>
<g id="g-root-cu_v6mvg68gss-fill" data-item-order="2" transform="translate(304.0, 1302.0)"></g>
<g id="g-root-cu_hs574ng68gsh-fill" data-item-order="2" transform="translate(304.0, 1302.0)"></g>
<g id="g-root-cu_8wi6vrg68gei-fill" data-item-order="2" transform="translate(104.0, 742.0)"></g>
<g id="g-root-cu_13z8pqvg68gsk-fill" data-item-order="2" transform="translate(304.0, 1430.0)"></g>
<g id="g-root-cu_v6mvg68gzm-fill" data-item-order="2" transform="translate(304.0, 1558.0)"></g>
<g id="g-root-cu_hs574ng68gzu-fill" data-item-order="2" transform="translate(304.0, 1710.0)"></g>
<g id="g-root-cu_18f27vbg68glf-fill" data-item-order="2" transform="translate(304.0, 1302.0)"></g>
<g id="g-root-ic__8vvpsng68glh-fill" data-item-order="1000000000" transform="translate(232.0, 1799.0)"></g>
<g id="g-root-tx_testinga_1cu98wng68g7a-fill" data-item-order="1000000000" transform="translate(268.0, 1778.0)">
<g id="tx_testinga_1cu98wng68g7a-fill" stroke="none" fill="#1eabda" fill-opacity="1.0">
<g>
<text transform="translate(10.0, 34.0)" style="font-size:20px; font-family:'Roboto', sans-serif; white-space:pre;">
<tspan x="2" y="0" dominant-baseline="ideographic">Testing and</tspan>
<tspan x="2" y="24" dominant-baseline="ideographic"> Validation</tspan>
</text>
</g>
</g>
</g>
<g id="g-root-ic__dbp7x3g68g0c-fill" data-item-order="1000000000" transform="translate(250.0, 1647.0)"></g>
<g id="g-root-tx_designha_1q5pr9zg68flu-fill" data-item-order="1000000000" transform="translate(286.0, 1626.0)">
<g id="tx_designha_1q5pr9zg68flu-fill" stroke="none" fill="#1eabda" fill-opacity="1.0">
<g>
<text transform="translate(10.0, 34.0)" style="font-size:20px; font-family:'Roboto', sans-serif; white-space:pre;">
<tspan x="2" y="0" dominant-baseline="ideographic">Design</tspan>
<tspan x="2" y="24" dominant-baseline="ideographic"> Handoff</tspan>
</text>
</g>
</g>
</g>
<g id="g-root-ic__m7c85zg68feq-fill" data-item-order="1000000000" transform="translate(256.0, 1507.0)"></g>
<g id="g-root-tx_design_1ulj9efg68f0q-fill" data-item-order="1000000000" transform="translate(292.0, 1498.0)">
<g id="tx_design_1ulj9efg68f0q-fill" stroke="none" fill="#1eabda" fill-opacity="1.0">
<g>
<text transform="translate(10.0, 22.0)" style="font-size:20px; font-family:'Roboto', sans-serif; white-space:pre;">
<tspan x="2" y="12" dominant-baseline="ideographic">Design</tspan>
</text>
</g>
</g>
</g>
<g id="g-root-ic__dbp7x3g68em8-fill" data-item-order="1000000000" transform="translate(226.0, 1379.0)"></g>
<g id="g-root-tx_validate_1lpw95jg68e8f-fill" data-item-order="1000000000" transform="translate(262.0, 1370.0)">
<g id="tx_validate_1lpw95jg68e8f-fill" stroke="none" fill="#1eabda" fill-opacity="1.0">
<g>
<text transform="translate(10.0, 22.0)" style="font-size:20px; font-family:'Roboto', sans-serif; white-space:pre;">
<tspan x="2" y="12" dominant-baseline="ideographic">Validate Ideas</tspan>
</text>
</g>
</g>
</g>
<g id="g-root-ic__1qf2vkng672f4-fill" data-item-order="1000000000" transform="translate(244.0, 1239.0)"></g>
<g id="g-root-tx_generate_18nsv2vg67289-fill" data-item-order="1000000000" transform="translate(280.0, 1218.0)">
<g id="tx_generate_18nsv2vg67289-fill" stroke="none" fill="#1eabda" fill-opacity="1.0">
<g>
<text transform="translate(10.0, 34.0)" style="font-size:20px; font-family:'Roboto', sans-serif; white-space:pre;">
<tspan x="2" y="0" dominant-baseline="ideographic">Generate</tspan>
<tspan x="2" y="24" dominant-baseline="ideographic"> Ideas</tspan>
</text>
</g>
</g>
</g>
<g id="g-root-ic__mgpcgng6720w-fill" data-item-order="1000000000" transform="translate(226.0, 1087.0)"></g>
<g id="g-root-tx_planstru_zs5utzg671n1-fill" data-item-order="1000000000" transform="translate(262.0, 1066.0)">
<g id="tx_planstru_zs5utzg671n1-fill" stroke="none" fill="#1eabda" fill-opacity="1.0">
<g>
<text transform="translate(10.0, 34.0)" style="font-size:20px; font-family:'Roboto', sans-serif; white-space:pre;">
<tspan x="2" y="0" dominant-baseline="ideographic">Plan structure</tspan>
<tspan x="2" y="24" dominant-baseline="ideographic"> of product</tspan>
</text>
</g>
</g>
</g>
<g id="g-root-ic__i0vuc7g671fk-fill" data-item-order="1000000000" transform="translate(250.0, 947.0)"></g>
<g id="g-root-tx_ideation_958u3bg6718t-fill" data-item-order="1000000000" transform="translate(286.0, 938.0)">
<g id="tx_ideation_958u3bg6718t-fill" stroke="none" fill="#1eabda" fill-opacity="1.0">
<g>
<text transform="translate(10.0, 22.0)" style="font-size:20px; font-family:'Roboto', sans-serif; white-space:pre;">
<tspan x="2" y="12" dominant-baseline="ideographic">Ideation</tspan>
</text>
</g>
</g>
</g>
<g id="g-root-ic__18nsv2vg670ui-fill" data-item-order="1000000000" transform="translate(226.0, 819.0)"></g>
<g id="g-root-tx_useranal_mgpcgng670n7-fill" data-item-order="1000000000" transform="translate(262.0, 810.0)">
<g id="tx_useranal_mgpcgng670n7-fill" stroke="none" fill="#1eabda" fill-opacity="1.0">
<g>
<text transform="translate(10.0, 22.0)" style="font-size:20px; font-family:'Roboto', sans-serif; white-space:pre;">
<tspan x="2" y="12" dominant-baseline="ideographic">User analysis</tspan>
</text>
</g>
</g>
</g>
<g id="g-root-ic__958u3bg67091-fill" data-item-order="1000000000" transform="translate(26.0, 819.0)"></g>
<g id="g-root-tx_useranal_958u3bg66zv0-fill" data-item-order="1000000000" transform="translate(62.0, 810.0)">
<g id="tx_useranal_958u3bg66zv0-fill" stroke="none" fill="#1eabda" fill-opacity="1.0">
<g>
<text transform="translate(10.0, 22.0)" style="font-size:20px; font-family:'Roboto', sans-serif; white-space:pre;">
<tspan x="2" y="12" dominant-baseline="ideographic">User analysis</tspan>
</text>
</g>
</g>
</g>
<g id="g-root-ic__147cvvbg672f9-fill" data-item-order="1000000000" transform="translate(126.0, 679.0)"></g>
<g id="g-root-ic__zrjdqvg671tw-fill" data-item-order="1000000000" transform="translate(150.0, 527.0)"></g>
<g id="g-root-tx_productr_qvwdhzg671mp-fill" data-item-order="1000000000" transform="translate(186.0, 506.0)">
<g id="tx_productr_qvwdhzg671mp-fill" stroke="none" fill="#1eabda" fill-opacity="1.0">
<g>
<text transform="translate(10.0, 34.0)" style="font-size:20px; font-family:'Roboto', sans-serif; white-space:pre;">
<tspan x="2" y="0" dominant-baseline="ideographic">Product</tspan>
<tspan x="2" y="24" dominant-baseline="ideographic"> research</tspan>
</text>
</g>
</g>
</g>
<g id="g-root-ic__dkfv4ng671fn-fill" data-item-order="1000000000" transform="translate(120.0, 375.0)"></g>
<g id="g-root-tx_definesu_1d2zw47g670um-fill" data-item-order="1000000000" transform="translate(156.0, 354.0)">
<g id="tx_definesu_1d2zw47g670um-fill" stroke="none" fill="#1eabda" fill-opacity="1.0">
<g>
<text transform="translate(10.0, 34.0)" style="font-size:20px; font-family:'Roboto', sans-serif; white-space:pre;">
<tspan x="2" y="0" dominant-baseline="ideographic">Define Success</tspan>
<tspan x="2" y="24" dominant-baseline="ideographic"> criteria</tspan>
</text>
</g>
</g>
</g>
<g id="g-root-ic__1qegehjg670g3-fill" data-item-order="1000000000" transform="translate(132.0, 223.0)"></g>
<g id="g-root-tx_defineva_8zcrbg67096-fill" data-item-order="1000000000" transform="translate(168.0, 202.0)">
<g id="tx_defineva_8zcrbg67096-fill" stroke="none" fill="#1eabda" fill-opacity="1.0">
<g>
<text transform="translate(10.0, 34.0)" style="font-size:20px; font-family:'Roboto', sans-serif; white-space:pre;">
<tspan x="2" y="0" dominant-baseline="ideographic">Define value</tspan>
<tspan x="2" y="24" dominant-baseline="ideographic"> proposition</tspan>
</text>
</g>
</g>
</g>
<g id="g-root-ic__zqwwnrg672md-fill" data-item-order="1000000000" transform="translate(126.0, 71.0)"></g>
<g id="g-root-tx_defining_93zvx3g671n0-fill" data-item-order="1000000000" transform="translate(162.0, 50.0)">
<g id="tx_defining_93zvx3g671n0-fill" stroke="none" fill="#969696" fill-opacity="1.0">
<g>
<text transform="translate(10.0, 34.0)" style="font-size:20px; font-family:'Roboto', sans-serif; white-space:pre;">
<tspan x="2" y="0" dominant-baseline="ideographic">Defining</tspan>
<tspan x="2" y="24" dominant-baseline="ideographic"> product vision</tspan>
</text>
</g>
</g>
</g>
<g id="g-root-tx_conductu_1lymwd3g67210-fill" data-item-order="1000000000" transform="translate(162.0, 658.0)">
<g id="tx_conductu_1lymwd3g67210-fill" stroke="none" fill="#1eabda" fill-opacity="1.0">
<g>
<text transform="translate(10.0, 34.0)" style="font-size:20px; font-family:'Roboto', sans-serif; white-space:pre;">
<tspan x="2" y="0" dominant-baseline="ideographic">Conduct user</tspan>
<tspan x="2" y="24" dominant-baseline="ideographic"> research</tspan>
</text>
</g>
</g>
</g>
<g id="g-root-ro_1lymwd3g671fq-stroke" data-item-order="-18432" transform="translate(108.0, 342.0)">
<g id="ro_1lymwd3g671fq-stroke" fill="none" stroke-linecap="round" stroke-linejoin="round" stroke-miterlimit="4" stroke="#1eabda" stroke-width="2" stroke-opacity="1.0">
<g>
<path d="M 22 10L 190 10C 190 10 202 10 202 22L 202 94C 202 94 202 106 190 106L 22 106C 22 106 10 106 10 94L 10 22C 10 22 10 10 22 10"></path>
</g>
</g>
</g>
<g id="g-root-ro_1lymwd3g66zv0-stroke" data-item-order="-17280" transform="translate(114.0, 38.0)">
<g id="ro_1lymwd3g66zv0-stroke" fill="none" stroke-linecap="round" stroke-linejoin="round" stroke-miterlimit="4" stroke="#969696" stroke-width="2" stroke-opacity="1.0">
<g>
<path d="M 22 10L 178 10C 178 10 190 10 190 22L 190 94C 190 94 190 106 178 106L 22 106C 22 106 10 106 10 94L 10 22C 10 22 10 10 22 10"></path>
</g>
</g>
</g>
<g id="g-root-ro_9ltufg67286-stroke" data-item-order="-17280" transform="translate(214.0, 1054.0)">
<g id="ro_9ltufg67286-stroke" fill="none" stroke-linecap="round" stroke-linejoin="round" stroke-miterlimit="4" stroke="#1eabda" stroke-width="2" stroke-opacity="1.0">
<g>
<path d="M 22 10L 178 10C 178 10 190 10 190 22L 190 94C 190 94 190 106 178 106L 22 106C 22 106 10 106 10 94L 10 22C 10 22 10 10 22 10"></path>
</g>
</g>
</g>
<g id="g-root-ro_1lymwd3g672mk-stroke" data-item-order="-17280" transform="translate(114.0, 646.0)">
<g id="ro_1lymwd3g672mk-stroke" fill="none" stroke-linecap="round" stroke-linejoin="round" stroke-miterlimit="4" stroke="#1eabda" stroke-width="2" stroke-opacity="1.0">
<g>
<path d="M 22 10L 178 10C 178 10 190 10 190 22L 190 94C 190 94 190 106 178 106L 22 106C 22 106 10 106 10 94L 10 22C 10 22 10 10 22 10"></path>
</g>
</g>
</g>
<g id="g-root-ro_zisqjbg68gsh-stroke" data-item-order="-16128" transform="translate(220.0, 1766.0)">
<g id="ro_zisqjbg68gsh-stroke" fill="none" stroke-linecap="round" stroke-linejoin="round" stroke-miterlimit="4" stroke="#1eabda" stroke-width="2" stroke-opacity="1.0">
<g>
<path d="M 22 10L 166 10C 166 10 178 10 178 22L 178 94C 178 94 178 106 166 106L 22 106C 22 106 10 106 10 94L 10 22C 10 22 10 10 22 10"></path>
</g>
</g>
</g>
<g id="g-root-ro_1qegehjg670n5-stroke" data-item-order="-16128" transform="translate(120.0, 190.0)">
<g id="ro_1qegehjg670n5-stroke" fill="none" stroke-linecap="round" stroke-linejoin="round" stroke-miterlimit="4" stroke="#1eabda" stroke-width="2" stroke-opacity="1.0">
<g>
<path d="M 22 10L 166 10C 166 10 178 10 178 22L 178 94C 178 94 178 106 166 106L 22 106C 22 106 10 106 10 94L 10 22C 10 22 10 10 22 10"></path>
</g>
</g>
</g>
<g id="g-root-ro_1uuwdp3g672mg-stroke" data-item-order="-13824" transform="translate(232.0, 1206.0)">
<g id="ro_1uuwdp3g672mg-stroke" fill="none" stroke-linecap="round" stroke-linejoin="round" stroke-miterlimit="4" stroke="#1eabda" stroke-width="2" stroke-opacity="1.0">
<g>
<path d="M 22 10L 142 10C 142 10 154 10 154 22L 154 94C 154 94 154 106 142 106L 22 106C 22 106 10 106 10 94L 10 22C 10 22 10 10 22 10"></path>
</g>
</g>
</g>
<g id="g-root-ro_4g27o7g68f0s-stroke" data-item-order="-12960" transform="translate(214.0, 1358.0)">
<g id="ro_4g27o7g68f0s-stroke" fill="none" stroke-linecap="round" stroke-linejoin="round" stroke-miterlimit="4" stroke="#1eabda" stroke-width="2" stroke-opacity="1.0">
<g>
<path d="M 22 10L 178 10C 178 10 190 10 190 22L 190 70C 190 70 190 82 178 82L 22 82C 22 82 10 82 10 70L 10 22C 10 22 10 10 22 10"></path>
</g>
</g>
</g>
<g id="g-root-ro_zs5utzg6711m-stroke" data-item-order="-12960" transform="translate(214.0, 798.0)">
<g id="ro_zs5utzg6711m-stroke" fill="none" stroke-linecap="round" stroke-linejoin="round" stroke-miterlimit="4" stroke="#1eabda" stroke-width="2" stroke-opacity="1.0">
<g>
<path d="M 22 10L 178 10C 178 10 190 10 190 22L 190 70C 190 70 190 82 178 82L 22 82C 22 82 10 82 10 70L 10 22C 10 22 10 10 22 10"></path>
</g>
</g>
</g>
<g id="g-root-ro_9ltufg670g2-stroke" data-item-order="-12960" transform="translate(14.0, 798.0)">
<g id="ro_9ltufg670g2-stroke" fill="none" stroke-linecap="round" stroke-linejoin="round" stroke-miterlimit="4" stroke="#1eabda" stroke-width="2" stroke-opacity="1.0">
<g>
<path d="M 22 10L 178 10C 178 10 190 10 190 22L 190 70C 190 70 190 82 178 82L 22 82C 22 82 10 82 10 70L 10 22C 10 22 10 10 22 10"></path>
</g>
</g>
</g>
<g id="g-root-ro_4g27o7g68g75-stroke" data-item-order="-12672" transform="translate(238.0, 1614.0)">
<g id="ro_4g27o7g68g75-stroke" fill="none" stroke-linecap="round" stroke-linejoin="round" stroke-miterlimit="4" stroke="#1eabda" stroke-width="2" stroke-opacity="1.0">
<g>
<path d="M 22 10L 130 10C 130 10 142 10 142 22L 142 94C 142 94 142 106 130 106L 22 106C 22 106 10 106 10 94L 10 22C 10 22 10 10 22 10"></path>
</g>
</g>
</g>
<g id="g-root-ro_dkfv4ng6720y-stroke" data-item-order="-12672" transform="translate(138.0, 494.0)">
<g id="ro_dkfv4ng6720y-stroke" fill="none" stroke-linecap="round" stroke-linejoin="round" stroke-miterlimit="4" stroke="#1eabda" stroke-width="2" stroke-opacity="1.0">
<g>
<path d="M 22 10L 130 10C 130 10 142 10 142 22L 142 94C 142 94 142 106 130 106L 22 106C 22 106 10 106 10 94L 10 22C 10 22 10 10 22 10"></path>
</g>
</g>
</g>
<g id="g-root-ro_1qf2vkng671fq-stroke" data-item-order="-9504" transform="translate(238.0, 926.0)">
<g id="ro_1qf2vkng671fq-stroke" fill="none" stroke-linecap="round" stroke-linejoin="round" stroke-miterlimit="4" stroke="#1eabda" stroke-width="2" stroke-opacity="1.0">
<g>
<path d="M 22 10L 130 10C 130 10 142 10 142 22L 142 70C 142 70 142 82 130 82L 22 82C 22 82 10 82 10 70L 10 22C 10 22 10 10 22 10"></path>
</g>
</g>
</g>
<g id="g-root-ro_8vvpsng68fm7-stroke" data-item-order="-8640" transform="translate(244.0, 1486.0)">
<g id="ro_8vvpsng68fm7-stroke" fill="none" stroke-linecap="round" stroke-linejoin="round" stroke-miterlimit="4" stroke="#1eabda" stroke-width="2" stroke-opacity="1.0">
<g>
<path d="M 22 10L 118 10C 118 10 130 10 130 22L 130 70C 130 70 130 82 118 82L 22 82C 22 82 10 82 10 70L 10 22C 10 22 10 10 22 10"></path>
</g>
</g>
</g>
<g id="g-root-cu_zjf7mfg68gem-stroke" data-item-order="2" transform="translate(104.0, 742.0)">
<g id="cu_zjf7mfg68gem-stroke" fill="none" stroke-linecap="round" stroke-linejoin="round" stroke-miterlimit="4" stroke="#484848" stroke-width="2" stroke-opacity="1.0">
<g>
<path d="M 110 10L 110 24L 110 38L 60 38L 10 38L 10 52L 10 64"></path>
<path d="M 3.5 58L 10 64.5L 16.5 58" stroke-dasharray="none"></path>
</g>
</g>
</g>
<g id="g-root-cu_1q6c8d3g68g0c-stroke" data-item-order="2" transform="translate(204.0, 134.0)">
<g id="cu_1q6c8d3g68g0c-stroke" fill="none" stroke-linecap="round" stroke-linejoin="round" stroke-miterlimit="4" stroke="#484848" stroke-width="2" stroke-opacity="1.0">
<g>
<path d="M 10 10L 10 38L 10 64"></path>
<path d="M 3.5 58L 10 64.5L 16.5 58" stroke-dasharray="none"></path>
</g>
</g>
</g>
<g id="g-root-cu_1cuvpzrg68ge8-stroke" data-item-order="2" transform="translate(204.0, 742.0)">
<g id="cu_1cuvpzrg68ge8-stroke" fill="none" stroke-linecap="round" stroke-linejoin="round" stroke-miterlimit="4" stroke="#484848" stroke-width="2" stroke-opacity="1.0">
<g>
<path d="M 10 10L 10 24L 10 38L 60 38L 110 38L 110 52L 110 64"></path>
<path d="M 103.5 58L 110 64.5L 116.5 58" stroke-dasharray="none"></path>
</g>
</g>
</g>
<g id="g-root-cu_1q6c8d3g68ge8-stroke" data-item-order="2" transform="translate(304.0, 870.0)">
<g id="cu_1q6c8d3g68ge8-stroke" fill="none" stroke-linecap="round" stroke-linejoin="round" stroke-miterlimit="4" stroke="#484848" stroke-width="2" stroke-opacity="1.0">
<g>
<path d="M 10 10L 10 38L 10 64"></path>
<path d="M 3.5 58L 10 64.5L 16.5 58" stroke-dasharray="none"></path>
</g>
</g>
</g>
<g id="g-root-cu_m7yp93g68g7j-stroke" data-item-order="2" transform="translate(204.0, 286.0)">
<g id="cu_m7yp93g68g7j-stroke" fill="none" stroke-linecap="round" stroke-linejoin="round" stroke-miterlimit="4" stroke="#484848" stroke-width="2" stroke-opacity="1.0">
<g>
<path d="M 10 10L 10 38L 10 64"></path>
<path d="M 3.5 58L 10 64.5L 16.5 58" stroke-dasharray="none"></path>
</g>
</g>
</g>
<g id="g-root-cu_8wi6vrg68glg-stroke" data-item-order="2" transform="translate(304.0, 998.0)">
<g id="cu_8wi6vrg68glg-stroke" fill="none" stroke-linecap="round" stroke-linejoin="round" stroke-miterlimit="4" stroke="#484848" stroke-width="2" stroke-opacity="1.0">
<g>
<path d="M 10 10L 10 38L 10 64"></path>
<path d="M 3.5 58L 10 64.5L 16.5 58" stroke-dasharray="none"></path>
</g>
</g>
</g>
<g id="g-root-cu_qns7djg68glg-stroke" data-item-order="2" transform="translate(304.0, 1150.0)">
<g id="cu_qns7djg68glg-stroke" fill="none" stroke-linecap="round" stroke-linejoin="round" stroke-miterlimit="4" stroke="#484848" stroke-width="2" stroke-opacity="1.0">
<g>
<path d="M 10 10L 10 38L 10 64"></path>
<path d="M 3.5 58L 10 64.5L 16.5 58" stroke-dasharray="none"></path>
</g>
</g>
</g>
<g id="g-root-cu_18f27vbg68g7a-stroke" data-item-order="2" transform="translate(204.0, 438.0)">
<g id="cu_18f27vbg68g7a-stroke" fill="none" stroke-linecap="round" stroke-linejoin="round" stroke-miterlimit="4" stroke="#484848" stroke-width="2" stroke-opacity="1.0">
<g>
<path d="M 10 10L 10 38L 10 64"></path>
<path d="M 3.5 58L 10 64.5L 16.5 58" stroke-dasharray="none"></path>
</g>
</g>
</g>
<g id="g-root-cu_qns7djg68gei-stroke" data-item-order="2" transform="translate(104.0, 742.0)">
<g id="cu_qns7djg68gei-stroke" fill="none" stroke-linecap="round" stroke-linejoin="round" stroke-miterlimit="4" stroke="#484848" stroke-width="2" stroke-opacity="1.0">
<g>
<path d="M 110 10L 110 24L 110 38L 60 38L 10 38L 10 52L 10 64"></path>
<path d="M 3.5 58L 10 64.5L 16.5 58" stroke-dasharray="none"></path>
</g>
</g>
</g>
<g id="g-root-cu_1q6c8d3g68glf-stroke" data-item-order="2" transform="translate(304.0, 1302.0)">
<g id="cu_1q6c8d3g68glf-stroke" fill="none" stroke-linecap="round" stroke-linejoin="round" stroke-miterlimit="4" stroke="#484848" stroke-width="2" stroke-opacity="1.0">
<g>
<path d="M 10 10L 10 38L 10 64"></path>
<path d="M 3.5 58L 10 64.5L 16.5 58" stroke-dasharray="none"></path>
</g>
</g>
</g>
<g id="g-root-cu_1q6c8d3g68g7d-stroke" data-item-order="2" transform="translate(204.0, 590.0)">
<g id="cu_1q6c8d3g68g7d-stroke" fill="none" stroke-linecap="round" stroke-linejoin="round" stroke-miterlimit="4" stroke="#484848" stroke-width="2" stroke-opacity="1.0">
<g>
<path d="M 10 10L 10 38L 10 64"></path>
<path d="M 3.5 58L 10 64.5L 16.5 58" stroke-dasharray="none"></path>
</g>
</g>
</g>
<g id="g-root-cu_v6mvg68gss-stroke" data-item-order="2" transform="translate(304.0, 1302.0)">
<g id="cu_v6mvg68gss-stroke" fill="none" stroke-linecap="round" stroke-linejoin="round" stroke-miterlimit="4" stroke="#484848" stroke-width="2" stroke-opacity="1.0">
<g>
<path d="M 10 10L 10 38L 10 64"></path>
<path d="M 3.5 58L 10 64.5L 16.5 58" stroke-dasharray="none"></path>
</g>
</g>
</g>
<g id="g-root-cu_hs574ng68gsh-stroke" data-item-order="2" transform="translate(304.0, 1302.0)">
<g id="cu_hs574ng68gsh-stroke" fill="none" stroke-linecap="round" stroke-linejoin="round" stroke-miterlimit="4" stroke="#484848" stroke-width="2" stroke-opacity="1.0">
<g>
<path d="M 10 10L 10 38L 10 64"></path>
<path d="M 3.5 58L 10 64.5L 16.5 58" stroke-dasharray="none"></path>
</g>
</g>
</g>
<g id="g-root-cu_8wi6vrg68gei-stroke" data-item-order="2" transform="translate(104.0, 742.0)">
<g id="cu_8wi6vrg68gei-stroke" fill="none" stroke-linecap="round" stroke-linejoin="round" stroke-miterlimit="4" stroke="#484848" stroke-width="2" stroke-opacity="1.0">
<g>
<path d="M 110 10L 110 24L 110 38L 60 38L 10 38L 10 52L 10 64"></path>
<path d="M 3.5 58L 10 64.5L 16.5 58" stroke-dasharray="none"></path>
</g>
</g>
</g>
<g id="g-root-cu_13z8pqvg68gsk-stroke" data-item-order="2" transform="translate(304.0, 1430.0)">
<g id="cu_13z8pqvg68gsk-stroke" fill="none" stroke-linecap="round" stroke-linejoin="round" stroke-miterlimit="4" stroke="#484848" stroke-width="2" stroke-opacity="1.0">
<g>
<path d="M 10 10L 10 38L 10 64"></path>
<path d="M 3.5 58L 10 64.5L 16.5 58" stroke-dasharray="none"></path>
</g>
</g>
</g>
<g id="g-root-cu_v6mvg68gzm-stroke" data-item-order="2" transform="translate(304.0, 1558.0)">
<g id="cu_v6mvg68gzm-stroke" fill="none" stroke-linecap="round" stroke-linejoin="round" stroke-miterlimit="4" stroke="#484848" stroke-width="2" stroke-opacity="1.0">
<g>
<path d="M 10 10L 10 38L 10 64"></path>
<path d="M 3.5 58L 10 64.5L 16.5 58" stroke-dasharray="none"></path>
</g>
</g>
</g>
<g id="g-root-cu_hs574ng68gzu-stroke" data-item-order="2" transform="translate(304.0, 1710.0)">
<g id="cu_hs574ng68gzu-stroke" fill="none" stroke-linecap="round" stroke-linejoin="round" stroke-miterlimit="4" stroke="#484848" stroke-width="2" stroke-opacity="1.0">
<g>
<path d="M 10 10L 10 38L 10 64"></path>
<path d="M 3.5 58L 10 64.5L 16.5 58" stroke-dasharray="none"></path>
</g>
</g>
</g>
<g id="g-root-cu_18f27vbg68glf-stroke" data-item-order="2" transform="translate(304.0, 1302.0)">
<g id="cu_18f27vbg68glf-stroke" fill="none" stroke-linecap="round" stroke-linejoin="round" stroke-miterlimit="4" stroke="#484848" stroke-width="2" stroke-opacity="1.0">
<g>
<path d="M 10 10L 10 38L 10 64"></path>
<path d="M 3.5 58L 10 64.5L 16.5 58" stroke-dasharray="none"></path>
</g>
</g>
</g>
<g id="g-root-ic__8vvpsng68glh-stroke" data-item-order="1000000000" transform="translate(232.0, 1799.0)">
<g id="ic__8vvpsng68glh-stroke" fill="none" stroke-linecap="round" stroke-linejoin="round" stroke-miterlimit="4" stroke="#1eabda" stroke-width="2" stroke-opacity="1.0">
<g>
<path d="M 10 10L 40 10L 40 40L 10 40Z"></path>
</g>
</g>
</g>
<g id="g-root-tx_testinga_1cu98wng68g7a-stroke" data-item-order="1000000000" transform="translate(268.0, 1778.0)"></g>
<g id="g-root-ic__dbp7x3g68g0c-stroke" data-item-order="1000000000" transform="translate(250.0, 1647.0)">
<g id="ic__dbp7x3g68g0c-stroke" fill="none" stroke-linecap="round" stroke-linejoin="round" stroke-miterlimit="4" stroke="#1eabda" stroke-width="2" stroke-opacity="1.0">
<g>
<path d="M 10 10L 40 10L 40 40L 10 40Z"></path>
</g>
</g>
</g>
<g id="g-root-tx_designha_1q5pr9zg68flu-stroke" data-item-order="1000000000" transform="translate(286.0, 1626.0)"></g>
<g id="g-root-ic__m7c85zg68feq-stroke" data-item-order="1000000000" transform="translate(256.0, 1507.0)">
<g id="ic__m7c85zg68feq-stroke" fill="none" stroke-linecap="round" stroke-linejoin="round" stroke-miterlimit="4" stroke="#1eabda" stroke-width="2" stroke-opacity="1.0">
<g>
<path d="M 10 10L 40 10L 40 40L 10 40Z"></path>
</g>
</g>
</g>
<g id="g-root-tx_design_1ulj9efg68f0q-stroke" data-item-order="1000000000" transform="translate(292.0, 1498.0)"></g>
<g id="g-root-ic__dbp7x3g68em8-stroke" data-item-order="1000000000" transform="translate(226.0, 1379.0)">
<g id="ic__dbp7x3g68em8-stroke" fill="none" stroke-linecap="round" stroke-linejoin="round" stroke-miterlimit="4" stroke="#1eabda" stroke-width="2" stroke-opacity="1.0">
<g>
<path d="M 10 10L 40 10L 40 40L 10 40Z"></path>
</g>
</g>
</g>
<g id="g-root-tx_validate_1lpw95jg68e8f-stroke" data-item-order="1000000000" transform="translate(262.0, 1370.0)"></g>
<g id="g-root-ic__1qf2vkng672f4-stroke" data-item-order="1000000000" transform="translate(244.0, 1239.0)">
<g id="ic__1qf2vkng672f4-stroke" fill="none" stroke-linecap="round" stroke-linejoin="round" stroke-miterlimit="4" stroke="#1eabda" stroke-width="2" stroke-opacity="1.0">
<g>
<path d="M 10 10L 40 10L 40 40L 10 40Z"></path>
</g>
</g>
</g>
<g id="g-root-tx_generate_18nsv2vg67289-stroke" data-item-order="1000000000" transform="translate(280.0, 1218.0)"></g>
<g id="g-root-ic__mgpcgng6720w-stroke" data-item-order="1000000000" transform="translate(226.0, 1087.0)">
<g id="ic__mgpcgng6720w-stroke" fill="none" stroke-linecap="round" stroke-linejoin="round" stroke-miterlimit="4" stroke="#1eabda" stroke-width="2" stroke-opacity="1.0">
<g>
<path d="M 10 10L 40 10L 40 40L 10 40Z"></path>
</g>
</g>
</g>
<g id="g-root-tx_planstru_zs5utzg671n1-stroke" data-item-order="1000000000" transform="translate(262.0, 1066.0)"></g>
<g id="g-root-ic__i0vuc7g671fk-stroke" data-item-order="1000000000" transform="translate(250.0, 947.0)">
<g id="ic__i0vuc7g671fk-stroke" fill="none" stroke-linecap="round" stroke-linejoin="round" stroke-miterlimit="4" stroke="#1eabda" stroke-width="2" stroke-opacity="1.0">
<g>
<path d="M 10 10L 40 10L 40 40L 10 40Z"></path>
</g>
</g>
</g>
<g id="g-root-tx_ideation_958u3bg6718t-stroke" data-item-order="1000000000" transform="translate(286.0, 938.0)"></g>
<g id="g-root-ic__18nsv2vg670ui-stroke" data-item-order="1000000000" transform="translate(226.0, 819.0)">
<g id="ic__18nsv2vg670ui-stroke" fill="none" stroke-linecap="round" stroke-linejoin="round" stroke-miterlimit="4" stroke="#1eabda" stroke-width="2" stroke-opacity="1.0">
<g>
<path d="M 10 10L 40 10L 40 40L 10 40Z"></path>
</g>
</g>
</g>
<g id="g-root-tx_useranal_mgpcgng670n7-stroke" data-item-order="1000000000" transform="translate(262.0, 810.0)"></g>
<g id="g-root-ic__958u3bg67091-stroke" data-item-order="1000000000" transform="translate(26.0, 819.0)">
<g id="ic__958u3bg67091-stroke" fill="none" stroke-linecap="round" stroke-linejoin="round" stroke-miterlimit="4" stroke="#1eabda" stroke-width="2" stroke-opacity="1.0">
<g>
<path d="M 10 10L 40 10L 40 40L 10 40Z"></path>
</g>
</g>
</g>
<g id="g-root-tx_useranal_958u3bg66zv0-stroke" data-item-order="1000000000" transform="translate(62.0, 810.0)"></g>
<g id="g-root-ic__147cvvbg672f9-stroke" data-item-order="1000000000" transform="translate(126.0, 679.0)">
<g id="ic__147cvvbg672f9-stroke" fill="none" stroke-linecap="round" stroke-linejoin="round" stroke-miterlimit="4" stroke="#1eabda" stroke-width="2" stroke-opacity="1.0">
<g>
<path d="M 10 10L 40 10L 40 40L 10 40Z"></path>
</g>
</g>
</g>
<g id="g-root-ic__zrjdqvg671tw-stroke" data-item-order="1000000000" transform="translate(150.0, 527.0)">
<g id="ic__zrjdqvg671tw-stroke" fill="none" stroke-linecap="round" stroke-linejoin="round" stroke-miterlimit="4" stroke="#1eabda" stroke-width="2" stroke-opacity="1.0">
<g>
<path d="M 10 10L 40 10L 40 40L 10 40Z"></path>
</g>
</g>
</g>
<g id="g-root-tx_productr_qvwdhzg671mp-stroke" data-item-order="1000000000" transform="translate(186.0, 506.0)"></g>
<g id="g-root-ic__dkfv4ng671fn-stroke" data-item-order="1000000000" transform="translate(120.0, 375.0)">
<g id="ic__dkfv4ng671fn-stroke" fill="none" stroke-linecap="round" stroke-linejoin="round" stroke-miterlimit="4" stroke="#1eabda" stroke-width="2" stroke-opacity="1.0">
<g>
<path d="M 10 10L 40 10L 40 40L 10 40Z"></path>
</g>
</g>
</g>
<g id="g-root-tx_definesu_1d2zw47g670um-stroke" data-item-order="1000000000" transform="translate(156.0, 354.0)"></g>
<g id="g-root-ic__1qegehjg670g3-stroke" data-item-order="1000000000" transform="translate(132.0, 223.0)">
<g id="ic__1qegehjg670g3-stroke" fill="none" stroke-linecap="round" stroke-linejoin="round" stroke-miterlimit="4" stroke="#1eabda" stroke-width="2" stroke-opacity="1.0">
<g>
<path d="M 10 10L 40 10L 40 40L 10 40Z"></path>
</g>
</g>
</g>
<g id="g-root-tx_defineva_8zcrbg67096-stroke" data-item-order="1000000000" transform="translate(168.0, 202.0)"></g>
<g id="g-root-ic__zqwwnrg672md-stroke" data-item-order="1000000000" transform="translate(126.0, 71.0)">
<g id="ic__zqwwnrg672md-stroke" fill="none" stroke-linecap="round" stroke-linejoin="round" stroke-miterlimit="4" stroke="#969696" stroke-width="2" stroke-opacity="1.0">
<g>
<path d="M 10 10L 40 10L 40 40L 10 40Z"></path>
</g>
</g>
</g>
<g id="g-root-tx_defining_93zvx3g671n0-stroke" data-item-order="1000000000" transform="translate(162.0, 50.0)"></g>
<g id="g-root-tx_conductu_1lymwd3g67210-stroke" data-item-order="1000000000" transform="translate(162.0, 658.0)"></g>
</g>
</g>
<path id="w1uu9wlzg68glg" d="M65.283 12.757a.35.35 0 0 0 .584.157l5.203-5.141-6.183 3.523.396 1.461zm-2.216-11.7a.35.35 0 0 0-.522.305v3.111l3.276-1.868-2.754-1.548zm3.728 2.105l-4.25 2.421v2.445l6.391-3.644-2.141-1.222zm4.708 3.303a.35.35 0 0 0 0-.609l-1.592-.9-7.365 4.199v1.782a.35.35 0 0 0 .523.305l8.435-4.777z M44.542 2.513c0-.433.355-.783.792-.783s.792.35.792.783-.355.783-.792.783-.792-.35-.792-.783zm59.171 0c0-.433.355-.783.792-.783s.792.35.792.783-.355.783-.792.783-.792-.35-.792-.783zm-85.951 7.636h-1.27v-.487c-.276.201-.864.609-1.881.609-1.202 0-2.274-.794-2.137-2.078.118-1.106 1.153-1.584 1.848-1.727l2.17-.345c0-.539-.29-.956-1.064-1.006s-1.21.305-1.571 1.017l-1.124-.605c1.218-2.631 5.029-1.764 5.029.414v4.207zm-1.27-2.86c.006.396-.062 1.112-.819 1.59-.587.37-1.841.299-1.903-.395-.049-.555.461-.791.906-.898l1.816-.297zm72.662 2.86h-1.27v-.487c-.276.201-.864.609-1.881.609-1.202 0-2.274-.794-2.137-2.078.118-1.106 1.153-1.584 1.848-1.727l2.17-.345c0-.539-.29-.956-1.064-1.006s-1.21.305-1.571 1.017l-1.124-.605c1.218-2.631 5.029-1.764 5.029.414v4.207zm-1.27-2.86c.006.396-.062 1.112-.82 1.59-.587.37-1.841.299-1.903-.395-.049-.555.461-.791.906-.898l1.816-.297zM99.096 10.149H97.85v-8.45h1.246v4.895l2.68-2.559h1.738l-2.633 2.535 2.715 3.578h-1.556l-2.077-2.707-.867.844v1.863zm6.053-6.114h-1.255v6.113h1.255V4.035zm-59.2 0h-1.255v6.113h1.255V4.035zm5.584 6.113V1.697h1.255v2.695c.361-.346 1-.485 1.47-.485 1.452 0 2.477 1.082 2.457 2.448v3.792h-1.27v-3.68c0-.408-.214-1.339-1.315-1.339-.968 0-1.342.756-1.342 1.339v3.681h-1.255zm-4.76-4.894V4.039h.621a.45.45 0 0 0 .45-.45v-.855h1.251v1.305h1.309v1.215h-1.309v3.109c0 .293.105.664.648.664.365 0 .531-.035.736-.07v1.137s-.361.113-.857.113c-1.398 0-1.777-1.051-1.777-1.788V5.254h-1.071zM36.528 4.039h-1.394l2.191 6.106h1.125l1.234-3.918 1.238 3.918h1.129l2.188-6.106h-1.383l-1.359 3.93-1.256-3.93h-1.124l-1.242 3.957-1.348-3.957zM26.212 7.141c-.02 1.566 1.187 3.129 3.223 3.129 1.566 0 2.383-.918 2.734-1.719L31.172 8c-.315.399-.801 1.094-1.738 1.094-1.145 0-1.825-.781-1.891-1.52h4.625c.074-.284.148-.995-.03-1.559-.336-1.064-1.221-2.102-2.839-2.102s-3.088 1.152-3.088 3.227zm1.363-.75h3.348c-.055-.43-.566-1.301-1.623-1.301a1.79 1.79 0 0 0-1.725 1.301zm-8.758.75c.038 1.758 1.277 3.133 3.145 3.133 1.074 0 1.723-.477 1.961-.672v.547h1.242V1.703h-1.258v2.888c-.414-.36-1.062-.68-1.93-.68-1.91 0-3.198 1.473-3.16 3.23zm1.309-.08c0 1.119.723 1.978 1.836 1.978a1.88 1.88 0 0 0 1.94-1.904c0-1.371-1.011-1.99-1.972-1.99s-1.805.798-1.805 1.916zm76.683-.028C96.771 5.275 95.532 3.9 93.664 3.9c-1.074 0-1.723.477-1.961.672v-.547h-1.242v8.22h1.258V9.583c.414.36 1.063.68 1.93.68 1.91 0 3.198-1.473 3.16-3.23zm-1.309.08c0-1.119-.723-1.978-1.836-1.978a1.88 1.88 0 0 0-1.94 1.904c0 1.371 1.011 1.99 1.972 1.99S95.5 8.231 95.5 7.113zM106.441 10.173V4.036h1.254v.382c.361-.346 1-.485 1.47-.485 1.452 0 2.477 1.082 2.457 2.448v3.792h-1.27V6.492c0-.408-.214-1.339-1.315-1.339-.969 0-1.342.756-1.342 1.339v3.681h-1.254zm-30.383-.021V1.824h1.084l4.215 5.777V1.824h1.32v8.328h-1.094l-4.207-5.796v5.796h-1.319zM5.24 10.149H4V2.377h1.014l2.664 3.597 2.654-3.592h1.03v7.766h-1.256V4.762L7.678 8.068 5.24 4.742v5.407z" transform="translate(20.0, 1886.0)" fill="#80808088" stroke="none"></path>
</svg>