<?xml version="1.0" encoding="utf-8" standalone="yes"?>
<!DOCTYPE svg PUBLIC "-//W3C//DTD SVG 1.1//EN" "http://www.w3.org/Graphics/SVG/1.1/DTD/svg11.dtd">
<svg version="1.1" xmlns="http://www.w3.org/2000/svg" xmlns:xlink="http://www.w3.org/1999/xlink" width="804" height="1096" viewBox="0 0 804 1096" style="fill:none; stroke:none; fill-rule:evenodd; clip-rule:evenodd; stroke-linecap:round; stroke-linejoin:round; stroke-miterlimit:1.5;">
<style class="text-font-style fontImports" data-font-family="Roboto">
@import url(https://fonts.googleapis.com/css2?family=Roboto:wght@400;700&amp;display=block);
</style>
<g id="items" style="isolation:isolate;">
<g id="blend" style="mix-blend-mode:normal;">
<g id="g-root-ro_18kohnbg647wq-fill" data-item-order="-27648" transform="translate(378.0, 190.0)">
<g id="ro_18kohnbg647wq-fill" stroke="none" fill="#e8f9ff" fill-opacity="1.0">
<g>
<path d="M 22 10L 190 10C 190 10 202 10 202 22L 202 142C 202 142 202 154 190 154L 22 154C 22 154 10 154 10 142L 10 22C 10 22 10 10 22 10"></path>
</g>
</g>
</g>
<g id="g-root-ro_1hgbhw7g649al-fill" data-item-order="-27648" transform="translate(272.0, 390.0)">
<g id="ro_1hgbhw7g649al-fill" stroke="none" fill="#e8f9ff" fill-opacity="1.0">
<g>
<path d="M 22 10L 190 10C 190 10 202 10 202 22L 202 142C 202 142 202 154 190 154L 22 154C 22 154 10 154 10 142L 10 22C 10 22 10 10 22 10"></path>
</g>
</g>
</g>
<g id="g-root-ro_djte1jg647pf-fill" data-item-order="-25920" transform="translate(590.0, 190.0)">
<g id="ro_djte1jg647pf-fill" stroke="none" fill="#e8f9ff" fill-opacity="1.0">
<g>
<path d="M 22 10L 178 10C 178 10 190 10 190 22L 190 142C 190 142 190 154 178 154L 22 154C 22 154 10 154 10 142L 10 22C 10 22 10 10 22 10"></path>
</g>
</g>
</g>
<g id="g-root-ro_7qel3g647bg-fill" data-item-order="-25920" transform="translate(484.0, 390.0)">
<g id="ro_7qel3g647bg-fill" stroke="none" fill="#e8f9ff" fill-opacity="1.0">
<g>
<path d="M 22 10L 178 10C 178 10 190 10 190 22L 190 142C 190 142 190 154 178 154L 22 154C 22 154 10 154 10 142L 10 22C 10 22 10 10 22 10"></path>
</g>
</g>
</g>
<g id="g-root-ro_1d14guvg648wc-fill" data-item-order="-23040" transform="translate(60.0, 766.0)">
<g id="ro_1d14guvg648wc-fill" stroke="none" fill="#e8f9ff" fill-opacity="1.0">
<g>
<path d="M 22 10L 190 10C 190 10 202 10 202 22L 202 118C 202 118 202 130 190 130L 22 130C 22 130 10 130 10 118L 10 22C 10 22 10 10 22 10"></path>
</g>
</g>
</g>
<g id="g-root-ro_me7g47g647ph-fill" data-item-order="-23040" transform="translate(166.0, 590.0)">
<g id="ro_me7g47g647ph-fill" stroke="none" fill="#e8f9ff" fill-opacity="1.0">
<g>
<path d="M 22 10L 190 10C 190 10 202 10 202 22L 202 118C 202 118 202 130 190 130L 22 130C 22 130 10 130 10 118L 10 22C 10 22 10 10 22 10"></path>
</g>
</g>
</g>
<g id="g-root-ro_1463xp3g648wa-fill" data-item-order="-21600" transform="translate(272.0, 766.0)">
<g id="ro_1463xp3g648wa-fill" stroke="none" fill="#e8f9ff" fill-opacity="1.0">
<g>
<path d="M 22 10L 178 10C 178 10 190 10 190 22L 190 118C 190 118 190 130 178 130L 22 130C 22 130 10 130 10 118L 10 22C 10 22 10 10 22 10"></path>
</g>
</g>
</g>
<g id="g-root-ro_1ut0yfrg647wh-fill" data-item-order="-21600" transform="translate(378.0, 590.0)">
<g id="ro_1ut0yfrg647wh-fill" stroke="none" fill="#e8f9ff" fill-opacity="1.0">
<g>
<path d="M 22 10L 178 10C 178 10 190 10 190 22L 190 118C 190 118 190 130 178 130L 22 130C 22 130 10 130 10 118L 10 22C 10 22 10 10 22 10"></path>
</g>
</g>
</g>
<g id="g-root-ro_1d2df13g646q7-fill" data-item-order="-17280" transform="translate(166.0, 942.0)">
<g id="ro_1d2df13g646q7-fill" stroke="none" fill="#e8f9ff" fill-opacity="1.0">
<g>
<path d="M 22 10L 178 10C 178 10 190 10 190 22L 190 94C 190 94 190 106 178 106L 22 106C 22 106 10 106 10 94L 10 22C 10 22 10 10 22 10"></path>
</g>
</g>
</g>
<g id="g-root-ro_91hzkng649am-fill" data-item-order="-13824" transform="translate(508.0, 38.0)">
<g id="ro_91hzkng649am-fill" stroke="none" fill="#f5f5f5" fill-opacity="1.0">
<g>
<path d="M 22 10L 142 10C 142 10 154 10 154 22L 154 94C 154 94 154 106 142 106L 22 106C 22 106 10 106 10 94L 10 22C 10 22 10 10 22 10"></path>
</g>
</g>
</g>
<g id="g-root-ro_1usehcng649ho-fill" data-item-order="-12672" transform="translate(14.0, 942.0)">
<g id="ro_1usehcng649ho-fill" stroke="none" fill="#e8f9ff" fill-opacity="1.0">
<g>
<path d="M 22 10L 130 10C 130 10 142 10 142 22L 142 94C 142 94 142 106 130 106L 22 106C 22 106 10 106 10 94L 10 22C 10 22 10 10 22 10"></path>
</g>
</g>
</g>
<g id="g-root-cu_1lymwd3g647pl-fill" data-item-order="2" transform="translate(580.0, 134.0)"></g>
<g id="g-root-cu_vbpvmfg647pq-fill" data-item-order="2" transform="translate(156.0, 886.0)"></g>
<g id="g-root-cu_1qegehjg647i9-fill" data-item-order="2" transform="translate(262.0, 710.0)"></g>
<g id="g-root-cu_147cvvbg647ie-fill" data-item-order="2" transform="translate(368.0, 534.0)"></g>
<g id="g-root-cu_i09d93g647id-fill" data-item-order="2" transform="translate(474.0, 334.0)"></g>
<g id="g-root-cu_1qegehjg647b9-fill" data-item-order="2" transform="translate(80.0, 886.0)"></g>
<g id="g-root-cu_147cvvbg647b6-fill" data-item-order="2" transform="translate(156.0, 710.0)"></g>
<g id="g-root-cu_dkfv4ng647be-fill" data-item-order="2" transform="translate(262.0, 534.0)"></g>
<g id="g-root-cu_1lymwd3g64742-fill" data-item-order="2" transform="translate(368.0, 334.0)"></g>
<g id="g-root-cu_1qegehjg646x9-fill" data-item-order="2" transform="translate(474.0, 134.0)"></g>
<g id="g-root-tx_june22ma_1lxdy6vg6483o-fill" data-item-order="1000000000" transform="translate(320.0, 790.0)">
<g id="tx_june22ma_1lxdy6vg6483o-fill" stroke="none" fill="#1eabda" fill-opacity="1.0">
<g>
<text transform="translate(10.0, 34.0)" style="font-size:20px; font-family:'Roboto', sans-serif; white-space:pre;">
<tspan x="2" y="0" dominant-baseline="ideographic">June&amp;#39;22 -</tspan>
<tspan x="2" y="24" dominant-baseline="ideographic"> May&amp;#39;23</tspan>
</text>
</g>
</g>
</g>
<g id="g-root-ic__1hhkg2fg648i5-fill" data-item-order="1000000000" transform="translate(284.0, 811.0)"></g>
<g id="g-root-tx_deputyma_1hgbhw7g6483o-fill" data-item-order="1000000000" transform="translate(320.0, 402.0)">
<g id="tx_deputyma_1hgbhw7g6483o-fill" stroke="none" fill="#1eabda" fill-opacity="1.0">
<g>
<text transform="translate(10.0, 58.0)" style="font-size:20px; font-family:'Roboto', sans-serif; white-space:pre;">
<tspan x="2" y="-24" dominant-baseline="ideographic">Deputy</tspan>
<tspan x="2" y="0" dominant-baseline="ideographic"> Manager</tspan>
<tspan x="2" y="24" dominant-baseline="ideographic"> Learning &amp;amp;</tspan>
<tspan x="2" y="48" dominant-baseline="ideographic"> Development</tspan>
</text>
</g>
</g>
</g>
<g id="g-root-tx_may23pre_zqafkng64938-fill" data-item-order="1000000000" transform="translate(214.0, 954.0)">
<g id="tx_may23pre_zqafkng64938-fill" stroke="none" fill="#1eabda" fill-opacity="1.0">
<g>
<text transform="translate(10.0, 34.0)" style="font-size:20px; font-family:'Roboto', sans-serif; white-space:pre;">
<tspan x="2" y="0" dominant-baseline="ideographic">May&amp;#39;23 -</tspan>
<tspan x="2" y="24" dominant-baseline="ideographic"> Present</tspan>
</text>
</g>
</g>
</g>
<g id="g-root-ic__18lxftjg649he-fill" data-item-order="1000000000" transform="translate(178.0, 975.0)"></g>
<g id="g-root-ic__v97z9zg647pc-fill" data-item-order="1000000000" transform="translate(390.0, 247.0)"></g>
<g id="g-root-tx_july12no_1hi6x5jg646x9-fill" data-item-order="1000000000" transform="translate(638.0, 226.0)">
<g id="tx_july12no_1hi6x5jg646x9-fill" stroke="none" fill="#1eabda" fill-opacity="1.0">
<g>
<text transform="translate(10.0, 34.0)" style="font-size:20px; font-family:'Roboto', sans-serif; white-space:pre;">
<tspan x="2" y="0" dominant-baseline="ideographic">July&amp;#39;12 -</tspan>
<tspan x="2" y="24" dominant-baseline="ideographic"> Nov&amp;#39;16</tspan>
</text>
</g>
</g>
</g>
<g id="g-root-ic__93zvx3g647ig-fill" data-item-order="1000000000" transform="translate(602.0, 247.0)"></g>
<g id="g-root-tx_seniorex_zof0bbg649hd-fill" data-item-order="1000000000" transform="translate(426.0, 202.0)">
<g id="tx_seniorex_zof0bbg649hd-fill" stroke="none" fill="#1eabda" fill-opacity="1.0">
<g>
<text transform="translate(10.0, 58.0)" style="font-size:20px; font-family:'Roboto', sans-serif; white-space:pre;">
<tspan x="2" y="-24" dominant-baseline="ideographic">Senior</tspan>
<tspan x="2" y="0" dominant-baseline="ideographic"> Executive -</tspan>
<tspan x="2" y="24" dominant-baseline="ideographic"> Talent</tspan>
<tspan x="2" y="48" dominant-baseline="ideographic"> Transformation</tspan>
</text>
</g>
</g>
</g>
<g id="g-root-ic__1d0hzrrg6493g-fill" data-item-order="1000000000" transform="translate(284.0, 447.0)"></g>
<g id="g-root-ic__1ut0yfrg647pg-fill" data-item-order="1000000000" transform="translate(390.0, 635.0)"></g>
<g id="g-root-tx_july18ma_1ut0yfrg647b8-fill" data-item-order="1000000000" transform="translate(426.0, 614.0)">
<g id="tx_july18ma_1ut0yfrg647b8-fill" stroke="none" fill="#1eabda" fill-opacity="1.0">
<g>
<text transform="translate(10.0, 34.0)" style="font-size:20px; font-family:'Roboto', sans-serif; white-space:pre;">
<tspan x="2" y="0" dominant-baseline="ideographic">July&amp;#39;18 -</tspan>
<tspan x="2" y="24" dominant-baseline="ideographic"> Mar&amp;#39;22</tspan>
</text>
</g>
</g>
</g>
<g id="g-root-tx_teamlead_18kohnbg649hh-fill" data-item-order="1000000000" transform="translate(214.0, 602.0)">
<g id="tx_teamlead_18kohnbg649hh-fill" stroke="none" fill="#1eabda" fill-opacity="1.0">
<g>
<text transform="translate(10.0, 46.0)" style="font-size:20px; font-family:'Roboto', sans-serif; white-space:pre;">
<tspan x="2" y="-12" dominant-baseline="ideographic">Team Lead</tspan>
<tspan x="2" y="12" dominant-baseline="ideographic"> Learning &amp;amp;</tspan>
<tspan x="2" y="36" dominant-baseline="ideographic"> Development</tspan>
</text>
</g>
</g>
</g>
<g id="g-root-ic__7qel3g64745-fill" data-item-order="1000000000" transform="translate(496.0, 447.0)"></g>
<g id="g-root-tx_dec16feb_1qd7gbbg646iz-fill" data-item-order="1000000000" transform="translate(532.0, 426.0)">
<g id="tx_dec16feb_1qd7gbbg646iz-fill" stroke="none" fill="#1eabda" fill-opacity="1.0">
<g>
<text transform="translate(10.0, 34.0)" style="font-size:20px; font-family:'Roboto', sans-serif; white-space:pre;">
<tspan x="2" y="0" dominant-baseline="ideographic">Dec&amp;#39;16 -</tspan>
<tspan x="2" y="24" dominant-baseline="ideographic"> Feb&amp;#39;18</tspan>
</text>
</g>
</g>
</g>
<g id="g-root-ic__dikfvbg647im-fill" data-item-order="1000000000" transform="translate(178.0, 635.0)"></g>
<g id="g-root-tx_freelanc_hx4ztjg6483l-fill" data-item-order="1000000000" transform="translate(556.0, 50.0)">
<g id="tx_freelanc_hx4ztjg6483l-fill" stroke="none" fill="#969696" fill-opacity="1.0">
<g>
<text transform="translate(10.0, 34.0)" style="font-size:20px; font-family:'Roboto', sans-serif; white-space:pre;">
<tspan x="2" y="0" dominant-baseline="ideographic">Freelance</tspan>
<tspan x="2" y="24" dominant-baseline="ideographic"> Trainer</tspan>
</text>
</g>
</g>
</g>
<g id="g-root-tx_present_18layqfg6493e-fill" data-item-order="1000000000" transform="translate(62.0, 966.0)">
<g id="tx_present_18layqfg6493e-fill" stroke="none" fill="#1eabda" fill-opacity="1.0">
<g>
<text transform="translate(10.0, 22.0)" style="font-size:20px; font-family:'Roboto', sans-serif; white-space:pre;">
<tspan x="2" y="12" dominant-baseline="ideographic">Present</tspan>
</text>
</g>
</g>
</g>
<g id="g-root-ic__mcyhxzg648we-fill" data-item-order="1000000000" transform="translate(520.0, 71.0)"></g>
<g id="g-root-tx_managerl_92qxqvg647wr-fill" data-item-order="1000000000" transform="translate(108.0, 778.0)">
<g id="tx_managerl_92qxqvg647wr-fill" stroke="none" fill="#1eabda" fill-opacity="1.0">
<g>
<text transform="translate(10.0, 46.0)" style="font-size:20px; font-family:'Roboto', sans-serif; white-space:pre;">
<tspan x="2" y="-12" dominant-baseline="ideographic">Manager</tspan>
<tspan x="2" y="12" dominant-baseline="ideographic"> Learning &amp;amp;</tspan>
<tspan x="2" y="36" dominant-baseline="ideographic"> Development</tspan>
</text>
</g>
</g>
</g>
<g id="g-root-ic__18layqfg648pa-fill" data-item-order="1000000000" transform="translate(72.0, 811.0)"></g>
<g id="g-root-ic__1usehcng649ag-fill" data-item-order="1000000000" transform="translate(26.0, 975.0)"></g>
<g id="g-root-ro_18kohnbg647wq-stroke" data-item-order="-27648" transform="translate(378.0, 190.0)">
<g id="ro_18kohnbg647wq-stroke" fill="none" stroke-linecap="round" stroke-linejoin="round" stroke-miterlimit="4" stroke="#1eabda" stroke-width="2" stroke-opacity="1.0">
<g>
<path d="M 22 10L 190 10C 190 10 202 10 202 22L 202 142C 202 142 202 154 190 154L 22 154C 22 154 10 154 10 142L 10 22C 10 22 10 10 22 10"></path>
</g>
</g>
</g>
<g id="g-root-ro_1hgbhw7g649al-stroke" data-item-order="-27648" transform="translate(272.0, 390.0)">
<g id="ro_1hgbhw7g649al-stroke" fill="none" stroke-linecap="round" stroke-linejoin="round" stroke-miterlimit="4" stroke="#1eabda" stroke-width="2" stroke-opacity="1.0">
<g>
<path d="M 22 10L 190 10C 190 10 202 10 202 22L 202 142C 202 142 202 154 190 154L 22 154C 22 154 10 154 10 142L 10 22C 10 22 10 10 22 10"></path>
</g>
</g>
</g>
<g id="g-root-ro_djte1jg647pf-stroke" data-item-order="-25920" transform="translate(590.0, 190.0)">
<g id="ro_djte1jg647pf-stroke" fill="none" stroke-linecap="round" stroke-linejoin="round" stroke-miterlimit="4" stroke="#1eabda" stroke-width="2" stroke-opacity="1.0">
<g>
<path d="M 22 10L 178 10C 178 10 190 10 190 22L 190 142C 190 142 190 154 178 154L 22 154C 22 154 10 154 10 142L 10 22C 10 22 10 10 22 10"></path>
</g>
</g>
</g>
<g id="g-root-ro_7qel3g647bg-stroke" data-item-order="-25920" transform="translate(484.0, 390.0)">
<g id="ro_7qel3g647bg-stroke" fill="none" stroke-linecap="round" stroke-linejoin="round" stroke-miterlimit="4" stroke="#1eabda" stroke-width="2" stroke-opacity="1.0">
<g>
<path d="M 22 10L 178 10C 178 10 190 10 190 22L 190 142C 190 142 190 154 178 154L 22 154C 22 154 10 154 10 142L 10 22C 10 22 10 10 22 10"></path>
</g>
</g>
</g>
<g id="g-root-ro_1d14guvg648wc-stroke" data-item-order="-23040" transform="translate(60.0, 766.0)">
<g id="ro_1d14guvg648wc-stroke" fill="none" stroke-linecap="round" stroke-linejoin="round" stroke-miterlimit="4" stroke="#1eabda" stroke-width="2" stroke-opacity="1.0">
<g>
<path d="M 22 10L 190 10C 190 10 202 10 202 22L 202 118C 202 118 202 130 190 130L 22 130C 22 130 10 130 10 118L 10 22C 10 22 10 10 22 10"></path>
</g>
</g>
</g>
<g id="g-root-ro_me7g47g647ph-stroke" data-item-order="-23040" transform="translate(166.0, 590.0)">
<g id="ro_me7g47g647ph-stroke" fill="none" stroke-linecap="round" stroke-linejoin="round" stroke-miterlimit="4" stroke="#1eabda" stroke-width="2" stroke-opacity="1.0">
<g>
<path d="M 22 10L 190 10C 190 10 202 10 202 22L 202 118C 202 118 202 130 190 130L 22 130C 22 130 10 130 10 118L 10 22C 10 22 10 10 22 10"></path>
</g>
</g>
</g>
<g id="g-root-ro_1463xp3g648wa-stroke" data-item-order="-21600" transform="translate(272.0, 766.0)">
<g id="ro_1463xp3g648wa-stroke" fill="none" stroke-linecap="round" stroke-linejoin="round" stroke-miterlimit="4" stroke="#1eabda" stroke-width="2" stroke-opacity="1.0">
<g>
<path d="M 22 10L 178 10C 178 10 190 10 190 22L 190 118C 190 118 190 130 178 130L 22 130C 22 130 10 130 10 118L 10 22C 10 22 10 10 22 10"></path>
</g>
</g>
</g>
<g id="g-root-ro_1ut0yfrg647wh-stroke" data-item-order="-21600" transform="translate(378.0, 590.0)">
<g id="ro_1ut0yfrg647wh-stroke" fill="none" stroke-linecap="round" stroke-linejoin="round" stroke-miterlimit="4" stroke="#1eabda" stroke-width="2" stroke-opacity="1.0">
<g>
<path d="M 22 10L 178 10C 178 10 190 10 190 22L 190 118C 190 118 190 130 178 130L 22 130C 22 130 10 130 10 118L 10 22C 10 22 10 10 22 10"></path>
</g>
</g>
</g>
<g id="g-root-ro_1d2df13g646q7-stroke" data-item-order="-17280" transform="translate(166.0, 942.0)">
<g id="ro_1d2df13g646q7-stroke" fill="none" stroke-linecap="round" stroke-linejoin="round" stroke-miterlimit="4" stroke="#1eabda" stroke-width="2" stroke-opacity="1.0">
<g>
<path d="M 22 10L 178 10C 178 10 190 10 190 22L 190 94C 190 94 190 106 178 106L 22 106C 22 106 10 106 10 94L 10 22C 10 22 10 10 22 10"></path>
</g>
</g>
</g>
<g id="g-root-ro_91hzkng649am-stroke" data-item-order="-13824" transform="translate(508.0, 38.0)">
<g id="ro_91hzkng649am-stroke" fill="none" stroke-linecap="round" stroke-linejoin="round" stroke-miterlimit="4" stroke="#969696" stroke-width="2" stroke-opacity="1.0">
<g>
<path d="M 22 10L 142 10C 142 10 154 10 154 22L 154 94C 154 94 154 106 142 106L 22 106C 22 106 10 106 10 94L 10 22C 10 22 10 10 22 10"></path>
</g>
</g>
</g>
<g id="g-root-ro_1usehcng649ho-stroke" data-item-order="-12672" transform="translate(14.0, 942.0)">
<g id="ro_1usehcng649ho-stroke" fill="none" stroke-linecap="round" stroke-linejoin="round" stroke-miterlimit="4" stroke="#1eabda" stroke-width="2" stroke-opacity="1.0">
<g>
<path d="M 22 10L 130 10C 130 10 142 10 142 22L 142 94C 142 94 142 106 130 106L 22 106C 22 106 10 106 10 94L 10 22C 10 22 10 10 22 10"></path>
</g>
</g>
</g>
<g id="g-root-cu_1lymwd3g647pl-stroke" data-item-order="2" transform="translate(580.0, 134.0)">
<g id="cu_1lymwd3g647pl-stroke" fill="none" stroke-linecap="round" stroke-linejoin="round" stroke-miterlimit="4" stroke="#484848" stroke-width="2" stroke-opacity="1.0">
<g>
<path d="M 10 10L 10 24L 10 38L 60 38L 110 38L 110 52L 110 64"></path>
<path d="M 103.5 58L 110 64.5L 116.5 58" stroke-dasharray="none"></path>
</g>
</g>
</g>
<g id="g-root-cu_vbpvmfg647pq-stroke" data-item-order="2" transform="translate(156.0, 886.0)">
<g id="cu_vbpvmfg647pq-stroke" fill="none" stroke-linecap="round" stroke-linejoin="round" stroke-miterlimit="4" stroke="#484848" stroke-width="2" stroke-opacity="1.0">
<g>
<path d="M 10 10L 10 24L 10 38L 60 38L 110 38L 110 52L 110 64"></path>
<path d="M 103.5 58L 110 64.5L 116.5 58" stroke-dasharray="none"></path>
</g>
</g>
</g>
<g id="g-root-cu_1qegehjg647i9-stroke" data-item-order="2" transform="translate(262.0, 710.0)">
<g id="cu_1qegehjg647i9-stroke" fill="none" stroke-linecap="round" stroke-linejoin="round" stroke-miterlimit="4" stroke="#484848" stroke-width="2" stroke-opacity="1.0">
<g>
<path d="M 10 10L 10 24L 10 38L 60 38L 110 38L 110 52L 110 64"></path>
<path d="M 103.5 58L 110 64.5L 116.5 58" stroke-dasharray="none"></path>
</g>
</g>
</g>
<g id="g-root-cu_147cvvbg647ie-stroke" data-item-order="2" transform="translate(368.0, 534.0)">
<g id="cu_147cvvbg647ie-stroke" fill="none" stroke-linecap="round" stroke-linejoin="round" stroke-miterlimit="4" stroke="#484848" stroke-width="2" stroke-opacity="1.0">
<g>
<path d="M 10 10L 10 24L 10 38L 60 38L 110 38L 110 52L 110 64"></path>
<path d="M 103.5 58L 110 64.5L 116.5 58" stroke-dasharray="none"></path>
</g>
</g>
</g>
<g id="g-root-cu_i09d93g647id-stroke" data-item-order="2" transform="translate(474.0, 334.0)">
<g id="cu_i09d93g647id-stroke" fill="none" stroke-linecap="round" stroke-linejoin="round" stroke-miterlimit="4" stroke="#484848" stroke-width="2" stroke-opacity="1.0">
<g>
<path d="M 10 10L 10 24L 10 38L 60 38L 110 38L 110 52L 110 64"></path>
<path d="M 103.5 58L 110 64.5L 116.5 58" stroke-dasharray="none"></path>
</g>
</g>
</g>
<g id="g-root-cu_1qegehjg647b9-stroke" data-item-order="2" transform="translate(80.0, 886.0)">
<g id="cu_1qegehjg647b9-stroke" fill="none" stroke-linecap="round" stroke-linejoin="round" stroke-miterlimit="4" stroke="#484848" stroke-width="2" stroke-opacity="1.0">
<g>
<path d="M 86 10L 86 24L 86 38L 48 38L 10 38L 10 52L 10 64"></path>
<path d="M 3.5 58L 10 64.5L 16.5 58" stroke-dasharray="none"></path>
</g>
</g>
</g>
<g id="g-root-cu_147cvvbg647b6-stroke" data-item-order="2" transform="translate(156.0, 710.0)">
<g id="cu_147cvvbg647b6-stroke" fill="none" stroke-linecap="round" stroke-linejoin="round" stroke-miterlimit="4" stroke="#484848" stroke-width="2" stroke-opacity="1.0">
<g>
<path d="M 116 10L 116 24L 116 38L 63 38L 10 38L 10 52L 10 64"></path>
<path d="M 3.5 58L 10 64.5L 16.5 58" stroke-dasharray="none"></path>
</g>
</g>
</g>
<g id="g-root-cu_dkfv4ng647be-stroke" data-item-order="2" transform="translate(262.0, 534.0)">
<g id="cu_dkfv4ng647be-stroke" fill="none" stroke-linecap="round" stroke-linejoin="round" stroke-miterlimit="4" stroke="#484848" stroke-width="2" stroke-opacity="1.0">
<g>
<path d="M 116 10L 116 24L 116 38L 63 38L 10 38L 10 52L 10 64"></path>
<path d="M 3.5 58L 10 64.5L 16.5 58" stroke-dasharray="none"></path>
</g>
</g>
</g>
<g id="g-root-cu_1lymwd3g64742-stroke" data-item-order="2" transform="translate(368.0, 334.0)">
<g id="cu_1lymwd3g64742-stroke" fill="none" stroke-linecap="round" stroke-linejoin="round" stroke-miterlimit="4" stroke="#484848" stroke-width="2" stroke-opacity="1.0">
<g>
<path d="M 116 10L 116 24L 116 38L 63 38L 10 38L 10 52L 10 64"></path>
<path d="M 3.5 58L 10 64.5L 16.5 58" stroke-dasharray="none"></path>
</g>
</g>
</g>
<g id="g-root-cu_1qegehjg646x9-stroke" data-item-order="2" transform="translate(474.0, 134.0)">
<g id="cu_1qegehjg646x9-stroke" fill="none" stroke-linecap="round" stroke-linejoin="round" stroke-miterlimit="4" stroke="#484848" stroke-width="2" stroke-opacity="1.0">
<g>
<path d="M 116 10L 116 24L 116 38L 63 38L 10 38L 10 52L 10 64"></path>
<path d="M 3.5 58L 10 64.5L 16.5 58" stroke-dasharray="none"></path>
</g>
</g>
</g>
<g id="g-root-tx_june22ma_1lxdy6vg6483o-stroke" data-item-order="1000000000" transform="translate(320.0, 790.0)"></g>
<g id="g-root-ic__1hhkg2fg648i5-stroke" data-item-order="1000000000" transform="translate(284.0, 811.0)">
<g id="ic__1hhkg2fg648i5-stroke" fill="none" stroke-linecap="round" stroke-linejoin="round" stroke-miterlimit="4" stroke="#1eabda" stroke-width="2" stroke-opacity="1.0">
<g>
<path d="M 10 10L 40 10L 40 40L 10 40Z"></path>
</g>
</g>
</g>
<g id="g-root-tx_deputyma_1hgbhw7g6483o-stroke" data-item-order="1000000000" transform="translate(320.0, 402.0)"></g>
<g id="g-root-tx_may23pre_zqafkng64938-stroke" data-item-order="1000000000" transform="translate(214.0, 954.0)"></g>
<g id="g-root-ic__18lxftjg649he-stroke" data-item-order="1000000000" transform="translate(178.0, 975.0)">
<g id="ic__18lxftjg649he-stroke" fill="none" stroke-linecap="round" stroke-linejoin="round" stroke-miterlimit="4" stroke="#1eabda" stroke-width="2" stroke-opacity="1.0">
<g>
<path d="M 10 10L 40 10L 40 40L 10 40Z"></path>
</g>
</g>
</g>
<g id="g-root-ic__v97z9zg647pc-stroke" data-item-order="1000000000" transform="translate(390.0, 247.0)">
<g id="ic__v97z9zg647pc-stroke" fill="none" stroke-linecap="round" stroke-linejoin="round" stroke-miterlimit="4" stroke="#1eabda" stroke-width="2" stroke-opacity="1.0">
<g>
<path d="M 10 10L 40 10L 40 40L 10 40Z"></path>
</g>
</g>
</g>
<g id="g-root-tx_july12no_1hi6x5jg646x9-stroke" data-item-order="1000000000" transform="translate(638.0, 226.0)"></g>
<g id="g-root-ic__93zvx3g647ig-stroke" data-item-order="1000000000" transform="translate(602.0, 247.0)">
<g id="ic__93zvx3g647ig-stroke" fill="none" stroke-linecap="round" stroke-linejoin="round" stroke-miterlimit="4" stroke="#1eabda" stroke-width="2" stroke-opacity="1.0">
<g>
<path d="M 10 10L 40 10L 40 40L 10 40Z"></path>
</g>
</g>
</g>
<g id="g-root-tx_seniorex_zof0bbg649hd-stroke" data-item-order="1000000000" transform="translate(426.0, 202.0)"></g>
<g id="g-root-ic__1d0hzrrg6493g-stroke" data-item-order="1000000000" transform="translate(284.0, 447.0)">
<g id="ic__1d0hzrrg6493g-stroke" fill="none" stroke-linecap="round" stroke-linejoin="round" stroke-miterlimit="4" stroke="#1eabda" stroke-width="2" stroke-opacity="1.0">
<g>
<path d="M 10 10L 40 10L 40 40L 10 40Z"></path>
</g>
</g>
</g>
<g id="g-root-ic__1ut0yfrg647pg-stroke" data-item-order="1000000000" transform="translate(390.0, 635.0)">
<g id="ic__1ut0yfrg647pg-stroke" fill="none" stroke-linecap="round" stroke-linejoin="round" stroke-miterlimit="4" stroke="#1eabda" stroke-width="2" stroke-opacity="1.0">
<g>
<path d="M 10 10L 40 10L 40 40L 10 40Z"></path>
</g>
</g>
</g>
<g id="g-root-tx_july18ma_1ut0yfrg647b8-stroke" data-item-order="1000000000" transform="translate(426.0, 614.0)"></g>
<g id="g-root-tx_teamlead_18kohnbg649hh-stroke" data-item-order="1000000000" transform="translate(214.0, 602.0)"></g>
<g id="g-root-ic__7qel3g64745-stroke" data-item-order="1000000000" transform="translate(496.0, 447.0)">
<g id="ic__7qel3g64745-stroke" fill="none" stroke-linecap="round" stroke-linejoin="round" stroke-miterlimit="4" stroke="#1eabda" stroke-width="2" stroke-opacity="1.0">
<g>
<path d="M 10 10L 40 10L 40 40L 10 40Z"></path>
</g>
</g>
</g>
<g id="g-root-tx_dec16feb_1qd7gbbg646iz-stroke" data-item-order="1000000000" transform="translate(532.0, 426.0)"></g>
<g id="g-root-ic__dikfvbg647im-stroke" data-item-order="1000000000" transform="translate(178.0, 635.0)">
<g id="ic__dikfvbg647im-stroke" fill="none" stroke-linecap="round" stroke-linejoin="round" stroke-miterlimit="4" stroke="#1eabda" stroke-width="2" stroke-opacity="1.0">
<g>
<path d="M 10 10L 40 10L 40 40L 10 40Z"></path>
</g>
</g>
</g>
<g id="g-root-tx_freelanc_hx4ztjg6483l-stroke" data-item-order="1000000000" transform="translate(556.0, 50.0)"></g>
<g id="g-root-tx_present_18layqfg6493e-stroke" data-item-order="1000000000" transform="translate(62.0, 966.0)"></g>
<g id="g-root-ic__mcyhxzg648we-stroke" data-item-order="1000000000" transform="translate(520.0, 71.0)">
<g id="ic__mcyhxzg648we-stroke" fill="none" stroke-linecap="round" stroke-linejoin="round" stroke-miterlimit="4" stroke="#969696" stroke-width="2" stroke-opacity="1.0">
<g>
<path d="M 10 10L 40 10L 40 40L 10 40Z"></path>
</g>
</g>
</g>
<g id="g-root-tx_managerl_92qxqvg647wr-stroke" data-item-order="1000000000" transform="translate(108.0, 778.0)"></g>
<g id="g-root-ic__18layqfg648pa-stroke" data-item-order="1000000000" transform="translate(72.0, 811.0)">
<g id="ic__18layqfg648pa-stroke" fill="none" stroke-linecap="round" stroke-linejoin="round" stroke-miterlimit="4" stroke="#1eabda" stroke-width="2" stroke-opacity="1.0">
<g>
<path d="M 10 10L 40 10L 40 40L 10 40Z"></path>
</g>
</g>
</g>
<g id="g-root-ic__1usehcng649ag-stroke" data-item-order="1000000000" transform="translate(26.0, 975.0)">
<g id="ic__1usehcng649ag-stroke" fill="none" stroke-linecap="round" stroke-linejoin="round" stroke-miterlimit="4" stroke="#1eabda" stroke-width="2" stroke-opacity="1.0">
<g>
<path d="M 10 10L 40 10L 40 40L 10 40Z"></path>
</g>
</g>
</g>
</g>
</g>
<path id="w1lxdy6vg65la8" d="M65.283 12.757a.35.35 0 0 0 .584.157l5.203-5.141-6.183 3.523.396 1.461zm-2.216-11.7a.35.35 0 0 0-.522.305v3.111l3.276-1.868-2.754-1.548zm3.728 2.105l-4.25 2.421v2.445l6.391-3.644-2.141-1.222zm4.708 3.303a.35.35 0 0 0 0-.609l-1.592-.9-7.365 4.199v1.782a.35.35 0 0 0 .523.305l8.435-4.777z M44.542 2.513c0-.433.355-.783.792-.783s.792.35.792.783-.355.783-.792.783-.792-.35-.792-.783zm59.171 0c0-.433.355-.783.792-.783s.792.35.792.783-.355.783-.792.783-.792-.35-.792-.783zm-85.951 7.636h-1.27v-.487c-.276.201-.864.609-1.881.609-1.202 0-2.274-.794-2.137-2.078.118-1.106 1.153-1.584 1.848-1.727l2.17-.345c0-.539-.29-.956-1.064-1.006s-1.21.305-1.571 1.017l-1.124-.605c1.218-2.631 5.029-1.764 5.029.414v4.207zm-1.27-2.86c.006.396-.062 1.112-.819 1.59-.587.37-1.841.299-1.903-.395-.049-.555.461-.791.906-.898l1.816-.297zm72.662 2.86h-1.27v-.487c-.276.201-.864.609-1.881.609-1.202 0-2.274-.794-2.137-2.078.118-1.106 1.153-1.584 1.848-1.727l2.17-.345c0-.539-.29-.956-1.064-1.006s-1.21.305-1.571 1.017l-1.124-.605c1.218-2.631 5.029-1.764 5.029.414v4.207zm-1.27-2.86c.006.396-.062 1.112-.82 1.59-.587.37-1.841.299-1.903-.395-.049-.555.461-.791.906-.898l1.816-.297zM99.096 10.149H97.85v-8.45h1.246v4.895l2.68-2.559h1.738l-2.633 2.535 2.715 3.578h-1.556l-2.077-2.707-.867.844v1.863zm6.053-6.114h-1.255v6.113h1.255V4.035zm-59.2 0h-1.255v6.113h1.255V4.035zm5.584 6.113V1.697h1.255v2.695c.361-.346 1-.485 1.47-.485 1.452 0 2.477 1.082 2.457 2.448v3.792h-1.27v-3.68c0-.408-.214-1.339-1.315-1.339-.968 0-1.342.756-1.342 1.339v3.681h-1.255zm-4.76-4.894V4.039h.621a.45.45 0 0 0 .45-.45v-.855h1.251v1.305h1.309v1.215h-1.309v3.109c0 .293.105.664.648.664.365 0 .531-.035.736-.07v1.137s-.361.113-.857.113c-1.398 0-1.777-1.051-1.777-1.788V5.254h-1.071zM36.528 4.039h-1.394l2.191 6.106h1.125l1.234-3.918 1.238 3.918h1.129l2.188-6.106h-1.383l-1.359 3.93-1.256-3.93h-1.124l-1.242 3.957-1.348-3.957zM26.212 7.141c-.02 1.566 1.187 3.129 3.223 3.129 1.566 0 2.383-.918 2.734-1.719L31.172 8c-.315.399-.801 1.094-1.738 1.094-1.145 0-1.825-.781-1.891-1.52h4.625c.074-.284.148-.995-.03-1.559-.336-1.064-1.221-2.102-2.839-2.102s-3.088 1.152-3.088 3.227zm1.363-.75h3.348c-.055-.43-.566-1.301-1.623-1.301a1.79 1.79 0 0 0-1.725 1.301zm-8.758.75c.038 1.758 1.277 3.133 3.145 3.133 1.074 0 1.723-.477 1.961-.672v.547h1.242V1.703h-1.258v2.888c-.414-.36-1.062-.68-1.93-.68-1.91 0-3.198 1.473-3.16 3.23zm1.309-.08c0 1.119.723 1.978 1.836 1.978a1.88 1.88 0 0 0 1.94-1.904c0-1.371-1.011-1.99-1.972-1.99s-1.805.798-1.805 1.916zm76.683-.028C96.771 5.275 95.532 3.9 93.664 3.9c-1.074 0-1.723.477-1.961.672v-.547h-1.242v8.22h1.258V9.583c.414.36 1.063.68 1.93.68 1.91 0 3.198-1.473 3.16-3.23zm-1.309.08c0-1.119-.723-1.978-1.836-1.978a1.88 1.88 0 0 0-1.94 1.904c0 1.371 1.011 1.99 1.972 1.99S95.5 8.231 95.5 7.113zM106.441 10.173V4.036h1.254v.382c.361-.346 1-.485 1.47-.485 1.452 0 2.477 1.082 2.457 2.448v3.792h-1.27V6.492c0-.408-.214-1.339-1.315-1.339-.969 0-1.342.756-1.342 1.339v3.681h-1.254zm-30.383-.021V1.824h1.084l4.215 5.777V1.824h1.32v8.328h-1.094l-4.207-5.796v5.796h-1.319zM5.24 10.149H4V2.377h1.014l2.664 3.597 2.654-3.592h1.03v7.766h-1.256V4.762L7.678 8.068 5.24 4.742v5.407z" transform="translate(668.0, 1062.0)" fill="#80808088" stroke="none"></path>
</svg>