<?xml version="1.0" encoding="utf-8" standalone="yes"?>
<!DOCTYPE svg PUBLIC "-//W3C//DTD SVG 1.1//EN" "http://www.w3.org/Graphics/SVG/1.1/DTD/svg11.dtd">
<svg version="1.1" xmlns="http://www.w3.org/2000/svg" xmlns:xlink="http://www.w3.org/1999/xlink" width="798" height="800" viewBox="0 0 798 800" style="fill:none; stroke:none; fill-rule:evenodd; clip-rule:evenodd; stroke-linecap:round; stroke-linejoin:round; stroke-miterlimit:1.5;">
<style class="text-font-style fontImports" data-font-family="Roboto">
@import url(https://fonts.googleapis.com/css2?family=Roboto:wght@400;700&amp;display=block);
</style>
<g id="items" style="isolation:isolate;">
<g id="blend" style="mix-blend-mode:normal;">
<g id="g-root-ro_v6q2xjg6b950-fill" data-item-order="-20160" transform="translate(14.0, 318.0)">
<g id="ro_v6q2xjg6b950-fill" stroke="none" fill="#e8f9ff" fill-opacity="1.0">
<g>
<path d="M 22 10L 166 10C 166 10 178 10 178 22L 178 118C 178 118 178 130 166 130L 22 130C 22 130 10 130 10 118L 10 22C 10 22 10 10 22 10"></path>
</g>
</g>
</g>
<g id="g-root-ro_mbpjrrg6b8qt-fill" data-item-order="-20160" transform="translate(396.0, 318.0)">
<g id="ro_mbpjrrg6b8qt-fill" stroke="none" fill="#e8f9ff" fill-opacity="1.0">
<g>
<path d="M 22 10L 166 10C 166 10 178 10 178 22L 178 118C 178 118 178 130 166 130L 22 130C 22 130 10 130 10 118L 10 22C 10 22 10 10 22 10"></path>
</g>
</g>
</g>
<g id="g-root-ro_hv9kk7g6ba4q-fill" data-item-order="-20160" transform="translate(202.0, 318.0)">
<g id="ro_hv9kk7g6ba4q-fill" stroke="none" fill="#e8f9ff" fill-opacity="1.0">
<g>
<path d="M 22 10L 166 10C 166 10 178 10 178 22L 178 118C 178 118 178 130 166 130L 22 130C 22 130 10 130 10 118L 10 22C 10 22 10 10 22 10"></path>
</g>
</g>
</g>
<g id="g-root-ro_58i8ng6b7ym-fill" data-item-order="-18432" transform="translate(384.0, 646.0)">
<g id="ro_58i8ng6b7ym-fill" stroke="none" fill="#e8f9ff" fill-opacity="1.0">
<g>
<path d="M 22 10L 190 10C 190 10 202 10 202 22L 202 94C 202 94 202 106 190 106L 22 106C 22 106 10 106 10 94L 10 22C 10 22 10 10 22 10"></path>
</g>
</g>
</g>
<g id="g-root-ro_90vihjg6ba4r-fill" data-item-order="-17280" transform="translate(584.0, 494.0)">
<g id="ro_90vihjg6ba4r-fill" stroke="none" fill="#e8f9ff" fill-opacity="1.0">
<g>
<path d="M 22 10L 178 10C 178 10 190 10 190 22L 190 94C 190 94 190 106 178 106L 22 106C 22 106 10 106 10 94L 10 22C 10 22 10 10 22 10"></path>
</g>
</g>
</g>
<g id="g-root-ro_v7z13rg6b955-fill" data-item-order="-17280" transform="translate(602.0, 318.0)">
<g id="ro_v7z13rg6b955-fill" stroke="none" fill="#e8f9ff" fill-opacity="1.0">
<g>
<path d="M 22 10L 142 10C 142 10 154 10 154 22L 154 118C 154 118 154 130 142 130L 22 130C 22 130 10 130 10 118L 10 22C 10 22 10 10 22 10"></path>
</g>
</g>
</g>
<g id="g-root-ro_znsj87g6b8cn-fill" data-item-order="-17280" transform="translate(584.0, 166.0)">
<g id="ro_znsj87g6b8cn-fill" stroke="none" fill="#e8f9ff" fill-opacity="1.0">
<g>
<path d="M 22 10L 178 10C 178 10 190 10 190 22L 190 94C 190 94 190 106 178 106L 22 106C 22 106 10 106 10 94L 10 22C 10 22 10 10 22 10"></path>
</g>
</g>
</g>
<g id="g-root-ro_1lu9krbg6b7d0-fill" data-item-order="-17280" transform="translate(196.0, 494.0)">
<g id="ro_1lu9krbg6b7d0-fill" stroke="none" fill="#e8f9ff" fill-opacity="1.0">
<g>
<path d="M 22 10L 178 10C 178 10 190 10 190 22L 190 94C 190 94 190 106 178 106L 22 106C 22 106 10 106 10 94L 10 22C 10 22 10 10 22 10"></path>
</g>
</g>
</g>
<g id="g-root-ro_18i6lavg6b8jo-fill" data-item-order="-16128" transform="translate(14.0, 166.0)">
<g id="ro_18i6lavg6b8jo-fill" stroke="none" fill="#e8f9ff" fill-opacity="1.0">
<g>
<path d="M 22 10L 166 10C 166 10 178 10 178 22L 178 94C 178 94 178 106 166 106L 22 106C 22 106 10 106 10 94L 10 22C 10 22 10 10 22 10"></path>
</g>
</g>
</g>
<g id="g-root-ro_142zk9jg6ba4s-fill" data-item-order="-16128" transform="translate(396.0, 494.0)">
<g id="ro_142zk9jg6ba4s-fill" stroke="none" fill="#e8f9ff" fill-opacity="1.0">
<g>
<path d="M 22 10L 166 10C 166 10 178 10 178 22L 178 94C 178 94 178 106 166 106L 22 106C 22 106 10 106 10 94L 10 22C 10 22 10 10 22 10"></path>
</g>
</g>
</g>
<g id="g-root-ro_1cy03fbg6b9jf-fill" data-item-order="-16128" transform="translate(202.0, 166.0)">
<g id="ro_1cy03fbg6b9jf-fill" stroke="none" fill="#e8f9ff" fill-opacity="1.0">
<g>
<path d="M 22 10L 166 10C 166 10 178 10 178 22L 178 94C 178 94 178 106 166 106L 22 106C 22 106 10 106 10 94L 10 22C 10 22 10 10 22 10"></path>
</g>
</g>
</g>
<g id="g-root-ro_1lviixjg6b7k3-fill" data-item-order="-14976" transform="translate(596.0, 646.0)">
<g id="ro_1lviixjg6b7k3-fill" stroke="none" fill="#e8f9ff" fill-opacity="1.0">
<g>
<path d="M 22 10L 154 10C 154 10 166 10 166 22L 166 94C 166 94 166 106 154 106L 22 106C 22 106 10 106 10 94L 10 22C 10 22 10 10 22 10"></path>
</g>
</g>
</g>
<g id="g-root-ro_9091efg6b8co-fill" data-item-order="-14976" transform="translate(402.0, 166.0)">
<g id="ro_9091efg6b8co-fill" stroke="none" fill="#e8f9ff" fill-opacity="1.0">
<g>
<path d="M 22 10L 154 10C 154 10 166 10 166 22L 166 94C 166 94 166 106 154 106L 22 106C 22 106 10 106 10 94L 10 22C 10 22 10 10 22 10"></path>
</g>
</g>
</g>
<g id="g-root-ro_4kfj9zg6b7yi-fill" data-item-order="-13824" transform="translate(214.0, 646.0)">
<g id="ro_4kfj9zg6b7yi-fill" stroke="none" fill="#e8f9ff" fill-opacity="1.0">
<g>
<path d="M 22 10L 142 10C 142 10 154 10 154 22L 154 94C 154 94 154 106 142 106L 22 106C 22 106 10 106 10 94L 10 22C 10 22 10 10 22 10"></path>
</g>
</g>
</g>
<g id="g-root-ro_hv9kk7g6b85j-fill" data-item-order="-12096" transform="translate(302.0, 38.0)">
<g id="ro_hv9kk7g6b85j-fill" stroke="none" fill="#f5f5f5" fill-opacity="1.0">
<g>
<path d="M 22 10L 166 10C 166 10 178 10 178 22L 178 70C 178 70 178 82 166 82L 22 82C 22 82 10 82 10 70L 10 22C 10 22 10 10 22 10"></path>
</g>
</g>
</g>
<g id="g-root-cu_1d0hzrrg6b8qt-fill" data-item-order="2" transform="translate(674.0, 590.0)"></g>
<g id="g-root-cu_924gnrg6b8qo-fill" data-item-order="2" transform="translate(674.0, 438.0)"></g>
<g id="g-root-cu_1qbyi53g6b8js-fill" data-item-order="2" transform="translate(674.0, 262.0)"></g>
<g id="g-root-cu_1hgbhw7g6b8jn-fill" data-item-order="2" transform="translate(386.0, 110.0)"></g>
<g id="g-root-cu_144uzivg6b8jo-fill" data-item-order="2" transform="translate(480.0, 590.0)"></g>
<g id="g-root-cu_qteh5jg6b8jp-fill" data-item-order="2" transform="translate(480.0, 438.0)"></g>
<g id="g-root-cu_dhxys7g6b8jo-fill" data-item-order="2" transform="translate(480.0, 262.0)"></g>
<g id="g-root-cu_6hgevg6b8jz-fill" data-item-order="2" transform="translate(386.0, 110.0)"></g>
<g id="g-root-cu_1lw500ng6b8cv-fill" data-item-order="2" transform="translate(286.0, 590.0)"></g>
<g id="g-root-cu_18kohnbg6b8cv-fill" data-item-order="2" transform="translate(286.0, 438.0)"></g>
<g id="g-root-cu_v97z9zg6b8cp-fill" data-item-order="2" transform="translate(286.0, 262.0)"></g>
<g id="g-root-cu_hxrgwng6b8cq-fill" data-item-order="2" transform="translate(286.0, 110.0)"></g>
<g id="g-root-cu_4mayjbg6b8cg-fill" data-item-order="2" transform="translate(98.0, 262.0)"></g>
<g id="g-root-cu_zp1hefg6b85p-fill" data-item-order="2" transform="translate(98.0, 110.0)"></g>
<g id="g-root-tx_colorpal_4jt26vg6b9c9-fill" data-item-order="1000000000" transform="translate(250.0, 190.0)">
<g id="tx_colorpal_4jt26vg6b9c9-fill" stroke="none" fill="#1eabda" fill-opacity="1.0">
<g>
<text transform="translate(10.0, 22.0)" style="font-size:20px; font-family:'Roboto', sans-serif; white-space:pre;">
<tspan x="2" y="12" dominant-baseline="ideographic">Color Palette</tspan>
</text>
</g>
</g>
</g>
<g id="g-root-tx_brandass_1luw1ufg6b7yc-fill" data-item-order="1000000000" transform="translate(632.0, 190.0)">
<g id="tx_brandass_1luw1ufg6b7yc-fill" stroke="none" fill="#1eabda" fill-opacity="1.0">
<g>
<text transform="translate(10.0, 22.0)" style="font-size:20px; font-family:'Roboto', sans-serif; white-space:pre;">
<tspan x="2" y="12" dominant-baseline="ideographic">Brand Assets</tspan>
</text>
</g>
</g>
</g>
<g id="g-root-tx_logodesi_8zmkbbg6b7k7-fill" data-item-order="1000000000" transform="translate(350.0, 50.0)">
<g id="tx_logodesi_8zmkbbg6b7k7-fill" stroke="none" fill="#969696" fill-opacity="1.0">
<g>
<text transform="translate(10.0, 22.0)" style="font-size:20px; font-family:'Roboto', sans-serif; white-space:pre;">
<tspan x="2" y="12" dominant-baseline="ideographic">Logo Design</tspan>
</text>
</g>
</g>
</g>
<g id="g-root-ic__1ltn3o7g6b8xs-fill" data-item-order="1000000000" transform="translate(26.0, 363.0)"></g>
<g id="g-root-tx_designel_58i8ng6b8qx-fill" data-item-order="1000000000" transform="translate(650.0, 342.0)">
<g id="tx_designel_58i8ng6b8qx-fill" stroke="none" fill="#1eabda" fill-opacity="1.0">
<g>
<text transform="translate(10.0, 34.0)" style="font-size:20px; font-family:'Roboto', sans-serif; white-space:pre;">
<tspan x="2" y="0" dominant-baseline="ideographic">Design</tspan>
<tspan x="2" y="24" dominant-baseline="ideographic"> Elements</tspan>
</text>
</g>
</g>
</g>
<g id="g-root-ic__143m1cng6b8y3-fill" data-item-order="1000000000" transform="translate(614.0, 363.0)"></g>
<g id="g-root-tx_memorabl_dfg2frg6b8qu-fill" data-item-order="1000000000" transform="translate(62.0, 330.0)">
<g id="tx_memorabl_dfg2frg6b8qu-fill" stroke="none" fill="#1eabda" fill-opacity="1.0">
<g>
<text transform="translate(10.0, 46.0)" style="font-size:20px; font-family:'Roboto', sans-serif; white-space:pre;">
<tspan x="2" y="-12" dominant-baseline="ideographic">Memorable,</tspan>
<tspan x="2" y="12" dominant-baseline="ideographic"> Versatile,</tspan>
<tspan x="2" y="36" dominant-baseline="ideographic"> Resonate</tspan>
</text>
</g>
</g>
</g>
<g id="g-root-tx_patterns_dgp0lzg6b9c4-fill" data-item-order="1000000000" transform="translate(632.0, 506.0)">
<g id="tx_patterns_dgp0lzg6b9c4-fill" stroke="none" fill="#1eabda" fill-opacity="1.0">
<g>
<text transform="translate(10.0, 34.0)" style="font-size:20px; font-family:'Roboto', sans-serif; white-space:pre;">
<tspan x="2" y="0" dominant-baseline="ideographic">Patterns,</tspan>
<tspan x="2" y="24" dominant-baseline="ideographic"> Icons, Imagery</tspan>
</text>
</g>
</g>
</g>
<g id="g-root-ic__4l20d3g6b9xc-fill" data-item-order="1000000000" transform="translate(596.0, 527.0)"></g>
<g id="g-root-ic__4jt26vg6b8jl-fill" data-item-order="1000000000" transform="translate(26.0, 199.0)"></g>
<g id="g-root-tx_buildbra_1uqj23bg6ba4o-fill" data-item-order="1000000000" transform="translate(644.0, 658.0)">
<g id="tx_buildbra_1uqj23bg6ba4o-fill" stroke="none" fill="#1eabda" fill-opacity="1.0">
<g>
<text transform="translate(10.0, 34.0)" style="font-size:20px; font-family:'Roboto', sans-serif; white-space:pre;">
<tspan x="2" y="0" dominant-baseline="ideographic">Build Brand</tspan>
<tspan x="2" y="24" dominant-baseline="ideographic"> Ecosystem</tspan>
</text>
</g>
</g>
</g>
<g id="g-root-ic__4lohg7g6b7k8-fill" data-item-order="1000000000" transform="translate(608.0, 679.0)"></g>
<g id="g-root-tx_createlo_1upa3x3g6b85k-fill" data-item-order="1000000000" transform="translate(62.0, 178.0)">
<g id="tx_createlo_1upa3x3g6b85k-fill" stroke="none" fill="#1eabda" fill-opacity="1.0">
<g>
<text transform="translate(10.0, 34.0)" style="font-size:20px; font-family:'Roboto', sans-serif; white-space:pre;">
<tspan x="2" y="0" dominant-baseline="ideographic">Create Logo</tspan>
<tspan x="2" y="24" dominant-baseline="ideographic"> Concepts</tspan>
</text>
</g>
</g>
</g>
<g id="g-root-ic__mcc0uvg6b7r4-fill" data-item-order="1000000000" transform="translate(396.0, 679.0)"></g>
<g id="g-root-tx_enhancec_mbpjrrg6babu-fill" data-item-order="1000000000" transform="translate(432.0, 658.0)">
<g id="tx_enhancec_mbpjrrg6babu-fill" stroke="none" fill="#1eabda" fill-opacity="1.0">
<g>
<text transform="translate(10.0, 34.0)" style="font-size:20px; font-family:'Roboto', sans-serif; white-space:pre;">
<tspan x="2" y="0" dominant-baseline="ideographic">Enhance</tspan>
<tspan x="2" y="24" dominant-baseline="ideographic"> Communication</tspan>
</text>
</g>
</g>
</g>
<g id="g-root-ic__3zk2fg6b7yc-fill" data-item-order="1000000000" transform="translate(314.0, 59.0)"></g>
<g id="g-root-ic__4jt26vg6b9jf-fill" data-item-order="1000000000" transform="translate(214.0, 199.0)"></g>
<g id="g-root-ic__142zk9jg6b9xg-fill" data-item-order="1000000000" transform="translate(408.0, 527.0)"></g>
<g id="g-root-tx_compleme_4m15jg6b950-fill" data-item-order="1000000000" transform="translate(444.0, 506.0)">
<g id="tx_compleme_4m15jg6b950-fill" stroke="none" fill="#1eabda" fill-opacity="1.0">
<g>
<text transform="translate(10.0, 34.0)" style="font-size:20px; font-family:'Roboto', sans-serif; white-space:pre;">
<tspan x="2" y="0" dominant-baseline="ideographic">Complement</tspan>
<tspan x="2" y="24" dominant-baseline="ideographic"> Logo</tspan>
</text>
</g>
</g>
</g>
<g id="g-root-tx_defineco_hv9kk7g6b9q9-fill" data-item-order="1000000000" transform="translate(250.0, 342.0)">
<g id="tx_defineco_hv9kk7g6b9q9-fill" stroke="none" fill="#1eabda" fill-opacity="1.0">
<g>
<text transform="translate(10.0, 34.0)" style="font-size:20px; font-family:'Roboto', sans-serif; white-space:pre;">
<tspan x="2" y="0" dominant-baseline="ideographic">Define Color</tspan>
<tspan x="2" y="24" dominant-baseline="ideographic"> Scheme</tspan>
</text>
</g>
</g>
</g>
<g id="g-root-ic__1cymkifg6b8jp-fill" data-item-order="1000000000" transform="translate(408.0, 363.0)"></g>
<g id="g-root-tx_selectfo_1cymkifg6b8cs-fill" data-item-order="1000000000" transform="translate(444.0, 354.0)">
<g id="tx_selectfo_1cymkifg6b8cs-fill" stroke="none" fill="#1eabda" fill-opacity="1.0">
<g>
<text transform="translate(10.0, 22.0)" style="font-size:20px; font-family:'Roboto', sans-serif; white-space:pre;">
<tspan x="2" y="12" dominant-baseline="ideographic">Select Fonts</tspan>
</text>
</g>
</g>
</g>
<g id="g-root-ic__142d36fg6b9xq-fill" data-item-order="1000000000" transform="translate(214.0, 363.0)"></g>
<g id="g-root-ic__142zk9jg6b85d-fill" data-item-order="1000000000" transform="translate(414.0, 199.0)"></g>
<g id="g-root-tx_typograp_18it2dzg6b7y8-fill" data-item-order="1000000000" transform="translate(450.0, 190.0)">
<g id="tx_typograp_18it2dzg6b7y8-fill" stroke="none" fill="#1eabda" fill-opacity="1.0">
<g>
<text transform="translate(10.0, 22.0)" style="font-size:20px; font-family:'Roboto', sans-serif; white-space:pre;">
<tspan x="2" y="12" dominant-baseline="ideographic">Typography</tspan>
</text>
</g>
</g>
</g>
<g id="g-root-tx_reflectb_1ltn3o7g6ba4p-fill" data-item-order="1000000000" transform="translate(244.0, 506.0)">
<g id="tx_reflectb_1ltn3o7g6ba4p-fill" stroke="none" fill="#1eabda" fill-opacity="1.0">
<g>
<text transform="translate(10.0, 34.0)" style="font-size:20px; font-family:'Roboto', sans-serif; white-space:pre;">
<tspan x="2" y="0" dominant-baseline="ideographic">Reflect Brand</tspan>
<tspan x="2" y="24" dominant-baseline="ideographic"> Personality</tspan>
</text>
</g>
</g>
</g>
<g id="g-root-ic__v7ck0ng6b7rh-fill" data-item-order="1000000000" transform="translate(226.0, 679.0)"></g>
<g id="g-root-tx_evokesem_qrj1w7g6b7k2-fill" data-item-order="1000000000" transform="translate(262.0, 658.0)">
<g id="tx_evokesem_qrj1w7g6b7k2-fill" stroke="none" fill="#1eabda" fill-opacity="1.0">
<g>
<text transform="translate(10.0, 34.0)" style="font-size:20px; font-family:'Roboto', sans-serif; white-space:pre;">
<tspan x="2" y="0" dominant-baseline="ideographic">Evokes</tspan>
<tspan x="2" y="24" dominant-baseline="ideographic"> Emotions</tspan>
</text>
</g>
</g>
</g>
<g id="g-root-ic__9091efg6b7db-fill" data-item-order="1000000000" transform="translate(208.0, 527.0)"></g>
<g id="g-root-ic__1qapjyvg6b85c-fill" data-item-order="1000000000" transform="translate(596.0, 199.0)"></g>
<g id="g-root-ro_v6q2xjg6b950-stroke" data-item-order="-20160" transform="translate(14.0, 318.0)">
<g id="ro_v6q2xjg6b950-stroke" fill="none" stroke-linecap="round" stroke-linejoin="round" stroke-miterlimit="4" stroke="#1eabda" stroke-width="2" stroke-opacity="1.0">
<g>
<path d="M 22 10L 166 10C 166 10 178 10 178 22L 178 118C 178 118 178 130 166 130L 22 130C 22 130 10 130 10 118L 10 22C 10 22 10 10 22 10"></path>
</g>
</g>
</g>
<g id="g-root-ro_mbpjrrg6b8qt-stroke" data-item-order="-20160" transform="translate(396.0, 318.0)">
<g id="ro_mbpjrrg6b8qt-stroke" fill="none" stroke-linecap="round" stroke-linejoin="round" stroke-miterlimit="4" stroke="#1eabda" stroke-width="2" stroke-opacity="1.0">
<g>
<path d="M 22 10L 166 10C 166 10 178 10 178 22L 178 118C 178 118 178 130 166 130L 22 130C 22 130 10 130 10 118L 10 22C 10 22 10 10 22 10"></path>
</g>
</g>
</g>
<g id="g-root-ro_hv9kk7g6ba4q-stroke" data-item-order="-20160" transform="translate(202.0, 318.0)">
<g id="ro_hv9kk7g6ba4q-stroke" fill="none" stroke-linecap="round" stroke-linejoin="round" stroke-miterlimit="4" stroke="#1eabda" stroke-width="2" stroke-opacity="1.0">
<g>
<path d="M 22 10L 166 10C 166 10 178 10 178 22L 178 118C 178 118 178 130 166 130L 22 130C 22 130 10 130 10 118L 10 22C 10 22 10 10 22 10"></path>
</g>
</g>
</g>
<g id="g-root-ro_58i8ng6b7ym-stroke" data-item-order="-18432" transform="translate(384.0, 646.0)">
<g id="ro_58i8ng6b7ym-stroke" fill="none" stroke-linecap="round" stroke-linejoin="round" stroke-miterlimit="4" stroke="#1eabda" stroke-width="2" stroke-opacity="1.0">
<g>
<path d="M 22 10L 190 10C 190 10 202 10 202 22L 202 94C 202 94 202 106 190 106L 22 106C 22 106 10 106 10 94L 10 22C 10 22 10 10 22 10"></path>
</g>
</g>
</g>
<g id="g-root-ro_90vihjg6ba4r-stroke" data-item-order="-17280" transform="translate(584.0, 494.0)">
<g id="ro_90vihjg6ba4r-stroke" fill="none" stroke-linecap="round" stroke-linejoin="round" stroke-miterlimit="4" stroke="#1eabda" stroke-width="2" stroke-opacity="1.0">
<g>
<path d="M 22 10L 178 10C 178 10 190 10 190 22L 190 94C 190 94 190 106 178 106L 22 106C 22 106 10 106 10 94L 10 22C 10 22 10 10 22 10"></path>
</g>
</g>
</g>
<g id="g-root-ro_v7z13rg6b955-stroke" data-item-order="-17280" transform="translate(602.0, 318.0)">
<g id="ro_v7z13rg6b955-stroke" fill="none" stroke-linecap="round" stroke-linejoin="round" stroke-miterlimit="4" stroke="#1eabda" stroke-width="2" stroke-opacity="1.0">
<g>
<path d="M 22 10L 142 10C 142 10 154 10 154 22L 154 118C 154 118 154 130 142 130L 22 130C 22 130 10 130 10 118L 10 22C 10 22 10 10 22 10"></path>
</g>
</g>
</g>
<g id="g-root-ro_znsj87g6b8cn-stroke" data-item-order="-17280" transform="translate(584.0, 166.0)">
<g id="ro_znsj87g6b8cn-stroke" fill="none" stroke-linecap="round" stroke-linejoin="round" stroke-miterlimit="4" stroke="#1eabda" stroke-width="2" stroke-opacity="1.0">
<g>
<path d="M 22 10L 178 10C 178 10 190 10 190 22L 190 94C 190 94 190 106 178 106L 22 106C 22 106 10 106 10 94L 10 22C 10 22 10 10 22 10"></path>
</g>
</g>
</g>
<g id="g-root-ro_1lu9krbg6b7d0-stroke" data-item-order="-17280" transform="translate(196.0, 494.0)">
<g id="ro_1lu9krbg6b7d0-stroke" fill="none" stroke-linecap="round" stroke-linejoin="round" stroke-miterlimit="4" stroke="#1eabda" stroke-width="2" stroke-opacity="1.0">
<g>
<path d="M 22 10L 178 10C 178 10 190 10 190 22L 190 94C 190 94 190 106 178 106L 22 106C 22 106 10 106 10 94L 10 22C 10 22 10 10 22 10"></path>
</g>
</g>
</g>
<g id="g-root-ro_18i6lavg6b8jo-stroke" data-item-order="-16128" transform="translate(14.0, 166.0)">
<g id="ro_18i6lavg6b8jo-stroke" fill="none" stroke-linecap="round" stroke-linejoin="round" stroke-miterlimit="4" stroke="#1eabda" stroke-width="2" stroke-opacity="1.0">
<g>
<path d="M 22 10L 166 10C 166 10 178 10 178 22L 178 94C 178 94 178 106 166 106L 22 106C 22 106 10 106 10 94L 10 22C 10 22 10 10 22 10"></path>
</g>
</g>
</g>
<g id="g-root-ro_142zk9jg6ba4s-stroke" data-item-order="-16128" transform="translate(396.0, 494.0)">
<g id="ro_142zk9jg6ba4s-stroke" fill="none" stroke-linecap="round" stroke-linejoin="round" stroke-miterlimit="4" stroke="#1eabda" stroke-width="2" stroke-opacity="1.0">
<g>
<path d="M 22 10L 166 10C 166 10 178 10 178 22L 178 94C 178 94 178 106 166 106L 22 106C 22 106 10 106 10 94L 10 22C 10 22 10 10 22 10"></path>
</g>
</g>
</g>
<g id="g-root-ro_1cy03fbg6b9jf-stroke" data-item-order="-16128" transform="translate(202.0, 166.0)">
<g id="ro_1cy03fbg6b9jf-stroke" fill="none" stroke-linecap="round" stroke-linejoin="round" stroke-miterlimit="4" stroke="#1eabda" stroke-width="2" stroke-opacity="1.0">
<g>
<path d="M 22 10L 166 10C 166 10 178 10 178 22L 178 94C 178 94 178 106 166 106L 22 106C 22 106 10 106 10 94L 10 22C 10 22 10 10 22 10"></path>
</g>
</g>
</g>
<g id="g-root-ro_1lviixjg6b7k3-stroke" data-item-order="-14976" transform="translate(596.0, 646.0)">
<g id="ro_1lviixjg6b7k3-stroke" fill="none" stroke-linecap="round" stroke-linejoin="round" stroke-miterlimit="4" stroke="#1eabda" stroke-width="2" stroke-opacity="1.0">
<g>
<path d="M 22 10L 154 10C 154 10 166 10 166 22L 166 94C 166 94 166 106 154 106L 22 106C 22 106 10 106 10 94L 10 22C 10 22 10 10 22 10"></path>
</g>
</g>
</g>
<g id="g-root-ro_9091efg6b8co-stroke" data-item-order="-14976" transform="translate(402.0, 166.0)">
<g id="ro_9091efg6b8co-stroke" fill="none" stroke-linecap="round" stroke-linejoin="round" stroke-miterlimit="4" stroke="#1eabda" stroke-width="2" stroke-opacity="1.0">
<g>
<path d="M 22 10L 154 10C 154 10 166 10 166 22L 166 94C 166 94 166 106 154 106L 22 106C 22 106 10 106 10 94L 10 22C 10 22 10 10 22 10"></path>
</g>
</g>
</g>
<g id="g-root-ro_4kfj9zg6b7yi-stroke" data-item-order="-13824" transform="translate(214.0, 646.0)">
<g id="ro_4kfj9zg6b7yi-stroke" fill="none" stroke-linecap="round" stroke-linejoin="round" stroke-miterlimit="4" stroke="#1eabda" stroke-width="2" stroke-opacity="1.0">
<g>
<path d="M 22 10L 142 10C 142 10 154 10 154 22L 154 94C 154 94 154 106 142 106L 22 106C 22 106 10 106 10 94L 10 22C 10 22 10 10 22 10"></path>
</g>
</g>
</g>
<g id="g-root-ro_hv9kk7g6b85j-stroke" data-item-order="-12096" transform="translate(302.0, 38.0)">
<g id="ro_hv9kk7g6b85j-stroke" fill="none" stroke-linecap="round" stroke-linejoin="round" stroke-miterlimit="4" stroke="#969696" stroke-width="2" stroke-opacity="1.0">
<g>
<path d="M 22 10L 166 10C 166 10 178 10 178 22L 178 70C 178 70 178 82 166 82L 22 82C 22 82 10 82 10 70L 10 22C 10 22 10 10 22 10"></path>
</g>
</g>
</g>
<g id="g-root-cu_1d0hzrrg6b8qt-stroke" data-item-order="2" transform="translate(674.0, 590.0)">
<g id="cu_1d0hzrrg6b8qt-stroke" fill="none" stroke-linecap="round" stroke-linejoin="round" stroke-miterlimit="4" stroke="#484848" stroke-width="2" stroke-opacity="1.0">
<g>
<path d="M 10 10L 10 38L 10 64"></path>
<path d="M 3.5 58L 10 64.5L 16.5 58" stroke-dasharray="none"></path>
</g>
</g>
</g>
<g id="g-root-cu_924gnrg6b8qo-stroke" data-item-order="2" transform="translate(674.0, 438.0)">
<g id="cu_924gnrg6b8qo-stroke" fill="none" stroke-linecap="round" stroke-linejoin="round" stroke-miterlimit="4" stroke="#484848" stroke-width="2" stroke-opacity="1.0">
<g>
<path d="M 10 10L 10 38L 10 64"></path>
<path d="M 3.5 58L 10 64.5L 16.5 58" stroke-dasharray="none"></path>
</g>
</g>
</g>
<g id="g-root-cu_1qbyi53g6b8js-stroke" data-item-order="2" transform="translate(674.0, 262.0)">
<g id="cu_1qbyi53g6b8js-stroke" fill="none" stroke-linecap="round" stroke-linejoin="round" stroke-miterlimit="4" stroke="#484848" stroke-width="2" stroke-opacity="1.0">
<g>
<path d="M 10 10L 10 38L 10 64"></path>
<path d="M 3.5 58L 10 64.5L 16.5 58" stroke-dasharray="none"></path>
</g>
</g>
</g>
<g id="g-root-cu_1hgbhw7g6b8jn-stroke" data-item-order="2" transform="translate(386.0, 110.0)">
<g id="cu_1hgbhw7g6b8jn-stroke" fill="none" stroke-linecap="round" stroke-linejoin="round" stroke-miterlimit="4" stroke="#484848" stroke-width="2" stroke-opacity="1.0">
<g>
<path d="M 10 10L 10 24L 10 38L 154 38L 298 38L 298 52L 298 64"></path>
<path d="M 291.5 58L 298 64.5L 304.5 58" stroke-dasharray="none"></path>
</g>
</g>
</g>
<g id="g-root-cu_144uzivg6b8jo-stroke" data-item-order="2" transform="translate(480.0, 590.0)">
<g id="cu_144uzivg6b8jo-stroke" fill="none" stroke-linecap="round" stroke-linejoin="round" stroke-miterlimit="4" stroke="#484848" stroke-width="2" stroke-opacity="1.0">
<g>
<path d="M 10 10L 10 38L 10 64"></path>
<path d="M 3.5 58L 10 64.5L 16.5 58" stroke-dasharray="none"></path>
</g>
</g>
</g>
<g id="g-root-cu_qteh5jg6b8jp-stroke" data-item-order="2" transform="translate(480.0, 438.0)">
<g id="cu_qteh5jg6b8jp-stroke" fill="none" stroke-linecap="round" stroke-linejoin="round" stroke-miterlimit="4" stroke="#484848" stroke-width="2" stroke-opacity="1.0">
<g>
<path d="M 10 10L 10 38L 10 64"></path>
<path d="M 3.5 58L 10 64.5L 16.5 58" stroke-dasharray="none"></path>
</g>
</g>
</g>
<g id="g-root-cu_dhxys7g6b8jo-stroke" data-item-order="2" transform="translate(480.0, 262.0)">
<g id="cu_dhxys7g6b8jo-stroke" fill="none" stroke-linecap="round" stroke-linejoin="round" stroke-miterlimit="4" stroke="#484848" stroke-width="2" stroke-opacity="1.0">
<g>
<path d="M 10 10L 10 38L 10 64"></path>
<path d="M 3.5 58L 10 64.5L 16.5 58" stroke-dasharray="none"></path>
</g>
</g>
</g>
<g id="g-root-cu_6hgevg6b8jz-stroke" data-item-order="2" transform="translate(386.0, 110.0)">
<g id="cu_6hgevg6b8jz-stroke" fill="none" stroke-linecap="round" stroke-linejoin="round" stroke-miterlimit="4" stroke="#484848" stroke-width="2" stroke-opacity="1.0">
<g>
<path d="M 10 10L 10 24L 10 38L 57 38L 104 38L 104 52L 104 64"></path>
<path d="M 97.5 58L 104 64.5L 110.5 58" stroke-dasharray="none"></path>
</g>
</g>
</g>
<g id="g-root-cu_1lw500ng6b8cv-stroke" data-item-order="2" transform="translate(286.0, 590.0)">
<g id="cu_1lw500ng6b8cv-stroke" fill="none" stroke-linecap="round" stroke-linejoin="round" stroke-miterlimit="4" stroke="#484848" stroke-width="2" stroke-opacity="1.0">
<g>
<path d="M 10 10L 10 38L 10 64"></path>
<path d="M 3.5 58L 10 64.5L 16.5 58" stroke-dasharray="none"></path>
</g>
</g>
</g>
<g id="g-root-cu_18kohnbg6b8cv-stroke" data-item-order="2" transform="translate(286.0, 438.0)">
<g id="cu_18kohnbg6b8cv-stroke" fill="none" stroke-linecap="round" stroke-linejoin="round" stroke-miterlimit="4" stroke="#484848" stroke-width="2" stroke-opacity="1.0">
<g>
<path d="M 10 10L 10 38L 10 64"></path>
<path d="M 3.5 58L 10 64.5L 16.5 58" stroke-dasharray="none"></path>
</g>
</g>
</g>
<g id="g-root-cu_v97z9zg6b8cp-stroke" data-item-order="2" transform="translate(286.0, 262.0)">
<g id="cu_v97z9zg6b8cp-stroke" fill="none" stroke-linecap="round" stroke-linejoin="round" stroke-miterlimit="4" stroke="#484848" stroke-width="2" stroke-opacity="1.0">
<g>
<path d="M 10 10L 10 38L 10 64"></path>
<path d="M 3.5 58L 10 64.5L 16.5 58" stroke-dasharray="none"></path>
</g>
</g>
</g>
<g id="g-root-cu_hxrgwng6b8cq-stroke" data-item-order="2" transform="translate(286.0, 110.0)">
<g id="cu_hxrgwng6b8cq-stroke" fill="none" stroke-linecap="round" stroke-linejoin="round" stroke-miterlimit="4" stroke="#484848" stroke-width="2" stroke-opacity="1.0">
<g>
<path d="M 110 10L 110 24L 110 38L 60 38L 10 38L 10 52L 10 64"></path>
<path d="M 3.5 58L 10 64.5L 16.5 58" stroke-dasharray="none"></path>
</g>
</g>
</g>
<g id="g-root-cu_4mayjbg6b8cg-stroke" data-item-order="2" transform="translate(98.0, 262.0)">
<g id="cu_4mayjbg6b8cg-stroke" fill="none" stroke-linecap="round" stroke-linejoin="round" stroke-miterlimit="4" stroke="#484848" stroke-width="2" stroke-opacity="1.0">
<g>
<path d="M 10 10L 10 38L 10 64"></path>
<path d="M 3.5 58L 10 64.5L 16.5 58" stroke-dasharray="none"></path>
</g>
</g>
</g>
<g id="g-root-cu_zp1hefg6b85p-stroke" data-item-order="2" transform="translate(98.0, 110.0)">
<g id="cu_zp1hefg6b85p-stroke" fill="none" stroke-linecap="round" stroke-linejoin="round" stroke-miterlimit="4" stroke="#484848" stroke-width="2" stroke-opacity="1.0">
<g>
<path d="M 298 10L 298 24L 298 38L 154 38L 10 38L 10 52L 10 64"></path>
<path d="M 3.5 58L 10 64.5L 16.5 58" stroke-dasharray="none"></path>
</g>
</g>
</g>
<g id="g-root-tx_colorpal_4jt26vg6b9c9-stroke" data-item-order="1000000000" transform="translate(250.0, 190.0)"></g>
<g id="g-root-tx_brandass_1luw1ufg6b7yc-stroke" data-item-order="1000000000" transform="translate(632.0, 190.0)"></g>
<g id="g-root-tx_logodesi_8zmkbbg6b7k7-stroke" data-item-order="1000000000" transform="translate(350.0, 50.0)"></g>
<g id="g-root-ic__1ltn3o7g6b8xs-stroke" data-item-order="1000000000" transform="translate(26.0, 363.0)">
<g id="ic__1ltn3o7g6b8xs-stroke" fill="none" stroke-linecap="round" stroke-linejoin="round" stroke-miterlimit="4" stroke="#1eabda" stroke-width="2" stroke-opacity="1.0">
<g>
<path d="M 10 10L 40 10L 40 40L 10 40Z"></path>
</g>
</g>
</g>
<g id="g-root-tx_designel_58i8ng6b8qx-stroke" data-item-order="1000000000" transform="translate(650.0, 342.0)"></g>
<g id="g-root-ic__143m1cng6b8y3-stroke" data-item-order="1000000000" transform="translate(614.0, 363.0)">
<g id="ic__143m1cng6b8y3-stroke" fill="none" stroke-linecap="round" stroke-linejoin="round" stroke-miterlimit="4" stroke="#1eabda" stroke-width="2" stroke-opacity="1.0">
<g>
<path d="M 10 10L 40 10L 40 40L 10 40Z"></path>
</g>
</g>
</g>
<g id="g-root-tx_memorabl_dfg2frg6b8qu-stroke" data-item-order="1000000000" transform="translate(62.0, 330.0)"></g>
<g id="g-root-tx_patterns_dgp0lzg6b9c4-stroke" data-item-order="1000000000" transform="translate(632.0, 506.0)"></g>
<g id="g-root-ic__4l20d3g6b9xc-stroke" data-item-order="1000000000" transform="translate(596.0, 527.0)">
<g id="ic__4l20d3g6b9xc-stroke" fill="none" stroke-linecap="round" stroke-linejoin="round" stroke-miterlimit="4" stroke="#1eabda" stroke-width="2" stroke-opacity="1.0">
<g>
<path d="M 10 10L 40 10L 40 40L 10 40Z"></path>
</g>
</g>
</g>
<g id="g-root-ic__4jt26vg6b8jl-stroke" data-item-order="1000000000" transform="translate(26.0, 199.0)">
<g id="ic__4jt26vg6b8jl-stroke" fill="none" stroke-linecap="round" stroke-linejoin="round" stroke-miterlimit="4" stroke="#1eabda" stroke-width="2" stroke-opacity="1.0">
<g>
<path d="M 10 10L 40 10L 40 40L 10 40Z"></path>
</g>
</g>
</g>
<g id="g-root-tx_buildbra_1uqj23bg6ba4o-stroke" data-item-order="1000000000" transform="translate(644.0, 658.0)"></g>
<g id="g-root-ic__4lohg7g6b7k8-stroke" data-item-order="1000000000" transform="translate(608.0, 679.0)">
<g id="ic__4lohg7g6b7k8-stroke" fill="none" stroke-linecap="round" stroke-linejoin="round" stroke-miterlimit="4" stroke="#1eabda" stroke-width="2" stroke-opacity="1.0">
<g>
<path d="M 10 10L 40 10L 40 40L 10 40Z"></path>
</g>
</g>
</g>
<g id="g-root-tx_createlo_1upa3x3g6b85k-stroke" data-item-order="1000000000" transform="translate(62.0, 178.0)"></g>
<g id="g-root-ic__mcc0uvg6b7r4-stroke" data-item-order="1000000000" transform="translate(396.0, 679.0)">
<g id="ic__mcc0uvg6b7r4-stroke" fill="none" stroke-linecap="round" stroke-linejoin="round" stroke-miterlimit="4" stroke="#1eabda" stroke-width="2" stroke-opacity="1.0">
<g>
<path d="M 10 10L 40 10L 40 40L 10 40Z"></path>
</g>
</g>
</g>
<g id="g-root-tx_enhancec_mbpjrrg6babu-stroke" data-item-order="1000000000" transform="translate(432.0, 658.0)"></g>
<g id="g-root-ic__3zk2fg6b7yc-stroke" data-item-order="1000000000" transform="translate(314.0, 59.0)">
<g id="ic__3zk2fg6b7yc-stroke" fill="none" stroke-linecap="round" stroke-linejoin="round" stroke-miterlimit="4" stroke="#969696" stroke-width="2" stroke-opacity="1.0">
<g>
<path d="M 10 10L 40 10L 40 40L 10 40Z"></path>
</g>
</g>
</g>
<g id="g-root-ic__4jt26vg6b9jf-stroke" data-item-order="1000000000" transform="translate(214.0, 199.0)">
<g id="ic__4jt26vg6b9jf-stroke" fill="none" stroke-linecap="round" stroke-linejoin="round" stroke-miterlimit="4" stroke="#1eabda" stroke-width="2" stroke-opacity="1.0">
<g>
<path d="M 10 10L 40 10L 40 40L 10 40Z"></path>
</g>
</g>
</g>
<g id="g-root-ic__142zk9jg6b9xg-stroke" data-item-order="1000000000" transform="translate(408.0, 527.0)">
<g id="ic__142zk9jg6b9xg-stroke" fill="none" stroke-linecap="round" stroke-linejoin="round" stroke-miterlimit="4" stroke="#1eabda" stroke-width="2" stroke-opacity="1.0">
<g>
<path d="M 10 10L 40 10L 40 40L 10 40Z"></path>
</g>
</g>
</g>
<g id="g-root-tx_compleme_4m15jg6b950-stroke" data-item-order="1000000000" transform="translate(444.0, 506.0)"></g>
<g id="g-root-tx_defineco_hv9kk7g6b9q9-stroke" data-item-order="1000000000" transform="translate(250.0, 342.0)"></g>
<g id="g-root-ic__1cymkifg6b8jp-stroke" data-item-order="1000000000" transform="translate(408.0, 363.0)">
<g id="ic__1cymkifg6b8jp-stroke" fill="none" stroke-linecap="round" stroke-linejoin="round" stroke-miterlimit="4" stroke="#1eabda" stroke-width="2" stroke-opacity="1.0">
<g>
<path d="M 10 10L 40 10L 40 40L 10 40Z"></path>
</g>
</g>
</g>
<g id="g-root-tx_selectfo_1cymkifg6b8cs-stroke" data-item-order="1000000000" transform="translate(444.0, 354.0)"></g>
<g id="g-root-ic__142d36fg6b9xq-stroke" data-item-order="1000000000" transform="translate(214.0, 363.0)">
<g id="ic__142d36fg6b9xq-stroke" fill="none" stroke-linecap="round" stroke-linejoin="round" stroke-miterlimit="4" stroke="#1eabda" stroke-width="2" stroke-opacity="1.0">
<g>
<path d="M 10 10L 40 10L 40 40L 10 40Z"></path>
</g>
</g>
</g>
<g id="g-root-ic__142zk9jg6b85d-stroke" data-item-order="1000000000" transform="translate(414.0, 199.0)">
<g id="ic__142zk9jg6b85d-stroke" fill="none" stroke-linecap="round" stroke-linejoin="round" stroke-miterlimit="4" stroke="#1eabda" stroke-width="2" stroke-opacity="1.0">
<g>
<path d="M 10 10L 40 10L 40 40L 10 40Z"></path>
</g>
</g>
</g>
<g id="g-root-tx_typograp_18it2dzg6b7y8-stroke" data-item-order="1000000000" transform="translate(450.0, 190.0)"></g>
<g id="g-root-tx_reflectb_1ltn3o7g6ba4p-stroke" data-item-order="1000000000" transform="translate(244.0, 506.0)"></g>
<g id="g-root-ic__v7ck0ng6b7rh-stroke" data-item-order="1000000000" transform="translate(226.0, 679.0)">
<g id="ic__v7ck0ng6b7rh-stroke" fill="none" stroke-linecap="round" stroke-linejoin="round" stroke-miterlimit="4" stroke="#1eabda" stroke-width="2" stroke-opacity="1.0">
<g>
<path d="M 10 10L 40 10L 40 40L 10 40Z"></path>
</g>
</g>
</g>
<g id="g-root-tx_evokesem_qrj1w7g6b7k2-stroke" data-item-order="1000000000" transform="translate(262.0, 658.0)"></g>
<g id="g-root-ic__9091efg6b7db-stroke" data-item-order="1000000000" transform="translate(208.0, 527.0)">
<g id="ic__9091efg6b7db-stroke" fill="none" stroke-linecap="round" stroke-linejoin="round" stroke-miterlimit="4" stroke="#1eabda" stroke-width="2" stroke-opacity="1.0">
<g>
<path d="M 10 10L 40 10L 40 40L 10 40Z"></path>
</g>
</g>
</g>
<g id="g-root-ic__1qapjyvg6b85c-stroke" data-item-order="1000000000" transform="translate(596.0, 199.0)">
<g id="ic__1qapjyvg6b85c-stroke" fill="none" stroke-linecap="round" stroke-linejoin="round" stroke-miterlimit="4" stroke="#1eabda" stroke-width="2" stroke-opacity="1.0">
<g>
<path d="M 10 10L 40 10L 40 40L 10 40Z"></path>
</g>
</g>
</g>
</g>
</g>
<path id="w1q9glsng6cmx5" d="M65.283 12.757a.35.35 0 0 0 .584.157l5.203-5.141-6.183 3.523.396 1.461zm-2.216-11.7a.35.35 0 0 0-.522.305v3.111l3.276-1.868-2.754-1.548zm3.728 2.105l-4.25 2.421v2.445l6.391-3.644-2.141-1.222zm4.708 3.303a.35.35 0 0 0 0-.609l-1.592-.9-7.365 4.199v1.782a.35.35 0 0 0 .523.305l8.435-4.777z M44.542 2.513c0-.433.355-.783.792-.783s.792.35.792.783-.355.783-.792.783-.792-.35-.792-.783zm59.171 0c0-.433.355-.783.792-.783s.792.35.792.783-.355.783-.792.783-.792-.35-.792-.783zm-85.951 7.636h-1.27v-.487c-.276.201-.864.609-1.881.609-1.202 0-2.274-.794-2.137-2.078.118-1.106 1.153-1.584 1.848-1.727l2.17-.345c0-.539-.29-.956-1.064-1.006s-1.21.305-1.571 1.017l-1.124-.605c1.218-2.631 5.029-1.764 5.029.414v4.207zm-1.27-2.86c.006.396-.062 1.112-.819 1.59-.587.37-1.841.299-1.903-.395-.049-.555.461-.791.906-.898l1.816-.297zm72.662 2.86h-1.27v-.487c-.276.201-.864.609-1.881.609-1.202 0-2.274-.794-2.137-2.078.118-1.106 1.153-1.584 1.848-1.727l2.17-.345c0-.539-.29-.956-1.064-1.006s-1.21.305-1.571 1.017l-1.124-.605c1.218-2.631 5.029-1.764 5.029.414v4.207zm-1.27-2.86c.006.396-.062 1.112-.82 1.59-.587.37-1.841.299-1.903-.395-.049-.555.461-.791.906-.898l1.816-.297zM99.096 10.149H97.85v-8.45h1.246v4.895l2.68-2.559h1.738l-2.633 2.535 2.715 3.578h-1.556l-2.077-2.707-.867.844v1.863zm6.053-6.114h-1.255v6.113h1.255V4.035zm-59.2 0h-1.255v6.113h1.255V4.035zm5.584 6.113V1.697h1.255v2.695c.361-.346 1-.485 1.47-.485 1.452 0 2.477 1.082 2.457 2.448v3.792h-1.27v-3.68c0-.408-.214-1.339-1.315-1.339-.968 0-1.342.756-1.342 1.339v3.681h-1.255zm-4.76-4.894V4.039h.621a.45.45 0 0 0 .45-.45v-.855h1.251v1.305h1.309v1.215h-1.309v3.109c0 .293.105.664.648.664.365 0 .531-.035.736-.07v1.137s-.361.113-.857.113c-1.398 0-1.777-1.051-1.777-1.788V5.254h-1.071zM36.528 4.039h-1.394l2.191 6.106h1.125l1.234-3.918 1.238 3.918h1.129l2.188-6.106h-1.383l-1.359 3.93-1.256-3.93h-1.124l-1.242 3.957-1.348-3.957zM26.212 7.141c-.02 1.566 1.187 3.129 3.223 3.129 1.566 0 2.383-.918 2.734-1.719L31.172 8c-.315.399-.801 1.094-1.738 1.094-1.145 0-1.825-.781-1.891-1.52h4.625c.074-.284.148-.995-.03-1.559-.336-1.064-1.221-2.102-2.839-2.102s-3.088 1.152-3.088 3.227zm1.363-.75h3.348c-.055-.43-.566-1.301-1.623-1.301a1.79 1.79 0 0 0-1.725 1.301zm-8.758.75c.038 1.758 1.277 3.133 3.145 3.133 1.074 0 1.723-.477 1.961-.672v.547h1.242V1.703h-1.258v2.888c-.414-.36-1.062-.68-1.93-.68-1.91 0-3.198 1.473-3.16 3.23zm1.309-.08c0 1.119.723 1.978 1.836 1.978a1.88 1.88 0 0 0 1.94-1.904c0-1.371-1.011-1.99-1.972-1.99s-1.805.798-1.805 1.916zm76.683-.028C96.771 5.275 95.532 3.9 93.664 3.9c-1.074 0-1.723.477-1.961.672v-.547h-1.242v8.22h1.258V9.583c.414.36 1.063.68 1.93.68 1.91 0 3.198-1.473 3.16-3.23zm-1.309.08c0-1.119-.723-1.978-1.836-1.978a1.88 1.88 0 0 0-1.94 1.904c0 1.371 1.011 1.99 1.972 1.99S95.5 8.231 95.5 7.113zM106.441 10.173V4.036h1.254v.382c.361-.346 1-.485 1.47-.485 1.452 0 2.477 1.082 2.457 2.448v3.792h-1.27V6.492c0-.408-.214-1.339-1.315-1.339-.969 0-1.342.756-1.342 1.339v3.681h-1.254zm-30.383-.021V1.824h1.084l4.215 5.777V1.824h1.32v8.328h-1.094l-4.207-5.796v5.796h-1.319zM5.24 10.149H4V2.377h1.014l2.664 3.597 2.654-3.592h1.03v7.766h-1.256V4.762L7.678 8.068 5.24 4.742v5.407z" transform="translate(20.0, 766.0)" fill="#80808088" stroke="none"></path>
</svg>