<?xml version="1.0" encoding="utf-8" standalone="yes"?>
<!DOCTYPE svg PUBLIC "-//W3C//DTD SVG 1.1//EN" "http://www.w3.org/Graphics/SVG/1.1/DTD/svg11.dtd">
<svg version="1.1" xmlns="http://www.w3.org/2000/svg" xmlns:xlink="http://www.w3.org/1999/xlink" width="900" height="1256" viewBox="0 0 900 1256" style="fill:none; stroke:none; fill-rule:evenodd; clip-rule:evenodd; stroke-linecap:round; stroke-linejoin:round; stroke-miterlimit:1.5;">
<style class="text-font-style fontImports" data-font-family="Roboto">
@import url(https://fonts.googleapis.com/css2?family=Roboto:wght@400;700&amp;display=block);
</style>
<g id="items" style="isolation:isolate;">
<g id="blend" style="mix-blend-mode:normal;">
<g id="g-root-di_1qdu0k7g648hw-fill" data-item-order="-24192" transform="translate(201.9999237060547, 470.0)">
<g id="di_1qdu0k7g648hw-fill" stroke="none" fill="#fff2e5" fill-opacity="1.0">
<g>
<path d="M 10.000076 82L 94.000076 154L 178.000076 82L 94.000076 10Z"></path>
</g>
</g>
</g>
<g id="g-root-ro_qv9zkng649hc-fill" data-item-order="-16128" transform="translate(86.0, 822.0)">
<g id="ro_qv9zkng649hc-fill" stroke="none" fill="#e8f9ff" fill-opacity="1.0">
<g>
<path d="M 22 10L 166 10C 166 10 178 10 178 22L 178 94C 178 94 178 106 166 106L 22 106C 22 106 10 106 10 94L 10 22C 10 22 10 10 22 10"></path>
</g>
</g>
</g>
<g id="g-root-ro_146qhxzg64934-fill" data-item-order="-16128" transform="translate(86.0, 670.0)">
<g id="ro_146qhxzg64934-fill" stroke="none" fill="#e8f9ff" fill-opacity="1.0">
<g>
<path d="M 22 10L 166 10C 166 10 178 10 178 22L 178 94C 178 94 178 106 166 106L 22 106C 22 106 10 106 10 94L 10 22C 10 22 10 10 22 10"></path>
</g>
</g>
</g>
<g id="g-root-ro_hzmzbrg648w3-fill" data-item-order="-16128" transform="translate(202.0, 974.0)">
<g id="ro_hzmzbrg648w3-fill" stroke="none" fill="#e8f9ff" fill-opacity="1.0">
<g>
<path d="M 22 10L 166 10C 166 10 178 10 178 22L 178 94C 178 94 178 106 166 106L 22 106C 22 106 10 106 10 94L 10 22C 10 22 10 10 22 10"></path>
</g>
</g>
</g>
<g id="g-root-ro_18n6h5jg646j2-fill" data-item-order="-14976" transform="translate(26.0, 974.0)">
<g id="ro_18n6h5jg646j2-fill" stroke="none" fill="#e8f9ff" fill-opacity="1.0">
<g>
<path d="M 22 10L 154 10C 154 10 166 10 166 22L 166 94C 166 94 166 106 154 106L 22 106C 22 106 10 106 10 94L 10 22C 10 22 10 10 22 10"></path>
</g>
</g>
</g>
<g id="g-root-ro_1utniong647ih-fill" data-item-order="-14976" transform="translate(208.0, 38.0)">
<g id="ro_1utniong647ih-fill" stroke="none" fill="#f5f5f5" fill-opacity="1.0">
<g>
<path d="M 22 10L 154 10C 154 10 166 10 166 22L 166 94C 166 94 166 106 154 106L 22 106C 22 106 10 106 10 94L 10 22C 10 22 10 10 22 10"></path>
</g>
</g>
</g>
<g id="g-root-ro_vb3hp3g648b1-fill" data-item-order="-14976" transform="translate(208.0, 318.0)">
<g id="ro_vb3hp3g648b1-fill" stroke="none" fill="#e8f9ff" fill-opacity="1.0">
<g>
<path d="M 22 10L 154 10C 154 10 166 10 166 22L 166 94C 166 94 166 106 154 106L 22 106C 22 106 10 106 10 94L 10 22C 10 22 10 10 22 10"></path>
</g>
</g>
</g>
<g id="g-root-ro_94mg5zg646x7-fill" data-item-order="-12960" transform="translate(14.0, 1126.0)">
<g id="ro_94mg5zg646x7-fill" stroke="none" fill="#e8f9ff" fill-opacity="1.0">
<g>
<path d="M 22 10L 178 10C 178 10 190 10 190 22L 190 70C 190 70 190 82 178 82L 22 82C 22 82 10 82 10 70L 10 22C 10 22 10 10 22 10"></path>
</g>
</g>
</g>
<g id="g-root-ro_1ly0ifrg647wq-fill" data-item-order="-12096" transform="translate(202.0, 190.0)">
<g id="ro_1ly0ifrg647wq-fill" stroke="none" fill="#e8f9ff" fill-opacity="1.0">
<g>
<path d="M 22 10L 166 10C 166 10 178 10 178 22L 178 70C 178 70 178 82 166 82L 22 82C 22 82 10 82 10 70L 10 22C 10 22 10 10 22 10"></path>
</g>
</g>
</g>
<g id="g-root-tx_no_vccfvbg647i8-fill" data-item-order="0" transform="translate(166.0, 554.0)">
<g id="tx_no_vccfvbg647i8-fill" stroke="none" fill="#484848" fill-opacity="1.0">
<g>
<text transform="translate(10.0, 10.0)" style="font-size:15px; font-family:'Roboto', sans-serif; white-space:pre;">
<tspan x="2" y="18" dominant-baseline="ideographic">no</tspan>
</text>
</g>
</g>
</g>
<g id="g-root-tx_yes_mgpfmfg647pm-fill" data-item-order="0" transform="translate(298.0, 614.0)">
<g id="tx_yes_mgpfmfg647pm-fill" stroke="none" fill="#484848" fill-opacity="1.0">
<g>
<text transform="translate(10.0, 10.0)" style="font-size:15px; font-family:'Roboto', sans-serif; white-space:pre;">
<tspan x="2" y="18" dominant-baseline="ideographic">yes</tspan>
</text>
</g>
</g>
</g>
<g id="g-root-cu_qwixqvg647wi-fill" data-item-order="2" transform="translate(286.0, 134.0)"></g>
<g id="g-root-cu_qwixqvg6483l-fill" data-item-order="2" transform="translate(170.0, 542.0)"></g>
<g id="g-root-cu_1d3mgd3g647wr-fill" data-item-order="2" transform="translate(286.0, 262.0)"></g>
<g id="g-root-cu_zs5xzrg6483y-fill" data-item-order="2" transform="translate(170.0, 162.0)"></g>
<g id="g-root-cu_1lz9glzg6483k-fill" data-item-order="2" transform="translate(104.0, 918.0)"></g>
<g id="g-root-cu_1uuwguvg647wl-fill" data-item-order="2" transform="translate(286.0, 414.0)"></g>
<g id="g-root-cu_1uuwguvg6483t-fill" data-item-order="2" transform="translate(170.0, 918.0)"></g>
<g id="g-root-cu_9lx07g648b3-fill" data-item-order="2" transform="translate(104.0, 1070.0)"></g>
<g id="g-root-cu_dl2fdjg6483o-fill" data-item-order="2" transform="translate(286.0, 614.0)"></g>
<g id="g-root-cu_dl2fdjg648az-fill" data-item-order="2" transform="translate(104.0, 162.0)"></g>
<g id="g-root-cu_1d3mgd3g6483k-fill" data-item-order="2" transform="translate(170.0, 766.0)"></g>
<g id="g-root-ic__qv9zkng647ib-fill" data-item-order="1000000000" transform="translate(220.0, 71.0)"></g>
<g id="g-root-ic__1hithefg646pu-fill" data-item-order="1000000000" transform="translate(26.0, 1147.0)"></g>
<g id="g-root-tx_processe_8zfx3g646q5-fill" data-item-order="1000000000" transform="translate(62.0, 1138.0)">
<g id="tx_processe_8zfx3g646q5-fill" stroke="none" fill="#1eabda" fill-opacity="1.0">
<g>
<text transform="translate(10.0, 22.0)" style="font-size:20px; font-family:'Roboto', sans-serif; white-space:pre;">
<tspan x="2" y="12" dominant-baseline="ideographic">Process Ends</tspan>
</text>
</g>
</g>
</g>
<g id="g-root-tx_proposee_zqwztjg647pd-fill" data-item-order="1000000000" transform="translate(250.0, 202.0)">
<g id="tx_proposee_zqwztjg647pd-fill" stroke="none" fill="#1eabda" fill-opacity="1.0">
<g>
<text transform="translate(10.0, 22.0)" style="font-size:20px; font-family:'Roboto', sans-serif; white-space:pre;">
<tspan x="2" y="12" dominant-baseline="ideographic">Propose Edit</tspan>
</text>
</g>
</g>
</g>
<g id="g-root-ic__mg2yjbg646iu-fill" data-item-order="1000000000" transform="translate(38.0, 1007.0)"></g>
<g id="g-root-tx_newconse_1hi70bbg649he-fill" data-item-order="1000000000" transform="translate(74.0, 986.0)">
<g id="tx_newconse_1hi70bbg649he-fill" stroke="none" fill="#1eabda" fill-opacity="1.0">
<g>
<text transform="translate(10.0, 34.0)" style="font-size:20px; font-family:'Roboto', sans-serif; white-space:pre;">
<tspan x="2" y="0" dominant-baseline="ideographic">New</tspan>
<tspan x="2" y="24" dominant-baseline="ideographic"> Consensus</tspan>
</text>
</g>
</g>
</g>
<g id="g-root-ic__93zz2vg647wh-fill" data-item-order="1000000000" transform="translate(214.0, 211.0)"></g>
<g id="g-root-ic__zqwztjg649a9-fill" data-item-order="1000000000" transform="translate(98.0, 855.0)"></g>
<g id="g-root-tx_establis_4o6gyfg647b6-fill" data-item-order="1000000000" transform="translate(256.0, 50.0)">
<g id="tx_establis_4o6gyfg647b6-fill" stroke="none" fill="#969696" fill-opacity="1.0">
<g>
<text transform="translate(10.0, 34.0)" style="font-size:20px; font-family:'Roboto', sans-serif; white-space:pre;">
<tspan x="2" y="0" dominant-baseline="ideographic">Establish</tspan>
<tspan x="2" y="24" dominant-baseline="ideographic"> Agreement</tspan>
</text>
</g>
</g>
</g>
<g id="g-root-tx_implemen_qv9zkng6483s-fill" data-item-order="1000000000" transform="translate(256.0, 330.0)">
<g id="tx_implemen_qv9zkng6483s-fill" stroke="none" fill="#1eabda" fill-opacity="1.0">
<g>
<text transform="translate(10.0, 34.0)" style="font-size:20px; font-family:'Roboto', sans-serif; white-space:pre;">
<tspan x="2" y="0" dominant-baseline="ideographic">Implement</tspan>
<tspan x="2" y="24" dominant-baseline="ideographic"> Edit</tspan>
</text>
</g>
</g>
</g>
<g id="g-root-ic__djth7bg6493c-fill" data-item-order="1000000000" transform="translate(98.0, 703.0)"></g>
<g id="g-root-tx_askforfu_18mk02fg648w8-fill" data-item-order="1000000000" transform="translate(134.0, 682.0)">
<g id="tx_askforfu_18mk02fg648w8-fill" stroke="none" fill="#1eabda" fill-opacity="1.0">
<g>
<text transform="translate(10.0, 34.0)" style="font-size:20px; font-family:'Roboto', sans-serif; white-space:pre;">
<tspan x="2" y="0" dominant-baseline="ideographic">Ask for</tspan>
<tspan x="2" y="24" dominant-baseline="ideographic"> Further Edits</tspan>
</text>
</g>
</g>
</g>
<g id="g-root-ic__4o6gyfg648au-fill" data-item-order="1000000000" transform="translate(220.0, 351.0)"></g>
<g id="g-root-ic__1qdu0k7g648p6-fill" data-item-order="1000000000" transform="translate(214.0, 1007.0)"></g>
<g id="g-root-tx_seekcomp_mfghg7g648p4-fill" data-item-order="1000000000" transform="translate(250.0, 986.0)">
<g id="tx_seekcomp_mfghg7g648p4-fill" stroke="none" fill="#1eabda" fill-opacity="1.0">
<g>
<text transform="translate(10.0, 34.0)" style="font-size:20px; font-family:'Roboto', sans-serif; white-space:pre;">
<tspan x="2" y="0" dominant-baseline="ideographic">Seek</tspan>
<tspan x="2" y="24" dominant-baseline="ideographic"> Compromise</tspan>
</text>
</g>
</g>
</g>
<g id="g-root-tx_othersdi_1qdu0k7g648at-fill" data-item-order="1000000000" transform="translate(244.0, 506.0)">
<g id="tx_othersdi_1qdu0k7g648at-fill" stroke="none" fill="#de8431" fill-opacity="1.0">
<g>
<text transform="translate(52.0, 34.0)" style="font-size:20px; font-family:'Roboto', sans-serif; white-space:pre;">
<tspan x="-25.81" y="0" dominant-baseline="ideographic">Others</tspan>
<tspan x="-38.42" y="24" dominant-baseline="ideographic"> Disagree?</tspan>
</text>
</g>
</g>
</g>
<g id="g-root-tx_voteoncu_1utniong64935-fill" data-item-order="1000000000" transform="translate(134.0, 834.0)">
<g id="tx_voteoncu_1utniong64935-fill" stroke="none" fill="#1eabda" fill-opacity="1.0">
<g>
<text transform="translate(10.0, 34.0)" style="font-size:20px; font-family:'Roboto', sans-serif; white-space:pre;">
<tspan x="2" y="0" dominant-baseline="ideographic">Vote on</tspan>
<tspan x="2" y="24" dominant-baseline="ideographic"> Current State</tspan>
</text>
</g>
</g>
</g>
<g id="g-root-di_1qdu0k7g648hw-stroke" data-item-order="-24192" transform="translate(201.9999237060547, 470.0)">
<g id="di_1qdu0k7g648hw-stroke" fill="none" stroke-linecap="round" stroke-linejoin="round" stroke-miterlimit="4" stroke="#de8431" stroke-width="2" stroke-opacity="1.0">
<g>
<path d="M 10.000076 82L 94.000076 154L 178.000076 82L 94.000076 10Z"></path>
</g>
</g>
</g>
<g id="g-root-ro_qv9zkng649hc-stroke" data-item-order="-16128" transform="translate(86.0, 822.0)">
<g id="ro_qv9zkng649hc-stroke" fill="none" stroke-linecap="round" stroke-linejoin="round" stroke-miterlimit="4" stroke="#1eabda" stroke-width="2" stroke-opacity="1.0">
<g>
<path d="M 22 10L 166 10C 166 10 178 10 178 22L 178 94C 178 94 178 106 166 106L 22 106C 22 106 10 106 10 94L 10 22C 10 22 10 10 22 10"></path>
</g>
</g>
</g>
<g id="g-root-ro_146qhxzg64934-stroke" data-item-order="-16128" transform="translate(86.0, 670.0)">
<g id="ro_146qhxzg64934-stroke" fill="none" stroke-linecap="round" stroke-linejoin="round" stroke-miterlimit="4" stroke="#1eabda" stroke-width="2" stroke-opacity="1.0">
<g>
<path d="M 22 10L 166 10C 166 10 178 10 178 22L 178 94C 178 94 178 106 166 106L 22 106C 22 106 10 106 10 94L 10 22C 10 22 10 10 22 10"></path>
</g>
</g>
</g>
<g id="g-root-ro_hzmzbrg648w3-stroke" data-item-order="-16128" transform="translate(202.0, 974.0)">
<g id="ro_hzmzbrg648w3-stroke" fill="none" stroke-linecap="round" stroke-linejoin="round" stroke-miterlimit="4" stroke="#1eabda" stroke-width="2" stroke-opacity="1.0">
<g>
<path d="M 22 10L 166 10C 166 10 178 10 178 22L 178 94C 178 94 178 106 166 106L 22 106C 22 106 10 106 10 94L 10 22C 10 22 10 10 22 10"></path>
</g>
</g>
</g>
<g id="g-root-ro_18n6h5jg646j2-stroke" data-item-order="-14976" transform="translate(26.0, 974.0)">
<g id="ro_18n6h5jg646j2-stroke" fill="none" stroke-linecap="round" stroke-linejoin="round" stroke-miterlimit="4" stroke="#1eabda" stroke-width="2" stroke-opacity="1.0">
<g>
<path d="M 22 10L 154 10C 154 10 166 10 166 22L 166 94C 166 94 166 106 154 106L 22 106C 22 106 10 106 10 94L 10 22C 10 22 10 10 22 10"></path>
</g>
</g>
</g>
<g id="g-root-ro_1utniong647ih-stroke" data-item-order="-14976" transform="translate(208.0, 38.0)">
<g id="ro_1utniong647ih-stroke" fill="none" stroke-linecap="round" stroke-linejoin="round" stroke-miterlimit="4" stroke="#969696" stroke-width="2" stroke-opacity="1.0">
<g>
<path d="M 22 10L 154 10C 154 10 166 10 166 22L 166 94C 166 94 166 106 154 106L 22 106C 22 106 10 106 10 94L 10 22C 10 22 10 10 22 10"></path>
</g>
</g>
</g>
<g id="g-root-ro_vb3hp3g648b1-stroke" data-item-order="-14976" transform="translate(208.0, 318.0)">
<g id="ro_vb3hp3g648b1-stroke" fill="none" stroke-linecap="round" stroke-linejoin="round" stroke-miterlimit="4" stroke="#1eabda" stroke-width="2" stroke-opacity="1.0">
<g>
<path d="M 22 10L 154 10C 154 10 166 10 166 22L 166 94C 166 94 166 106 154 106L 22 106C 22 106 10 106 10 94L 10 22C 10 22 10 10 22 10"></path>
</g>
</g>
</g>
<g id="g-root-ro_94mg5zg646x7-stroke" data-item-order="-12960" transform="translate(14.0, 1126.0)">
<g id="ro_94mg5zg646x7-stroke" fill="none" stroke-linecap="round" stroke-linejoin="round" stroke-miterlimit="4" stroke="#1eabda" stroke-width="2" stroke-opacity="1.0">
<g>
<path d="M 22 10L 178 10C 178 10 190 10 190 22L 190 70C 190 70 190 82 178 82L 22 82C 22 82 10 82 10 70L 10 22C 10 22 10 10 22 10"></path>
</g>
</g>
</g>
<g id="g-root-ro_1ly0ifrg647wq-stroke" data-item-order="-12096" transform="translate(202.0, 190.0)">
<g id="ro_1ly0ifrg647wq-stroke" fill="none" stroke-linecap="round" stroke-linejoin="round" stroke-miterlimit="4" stroke="#1eabda" stroke-width="2" stroke-opacity="1.0">
<g>
<path d="M 22 10L 166 10C 166 10 178 10 178 22L 178 70C 178 70 178 82 166 82L 22 82C 22 82 10 82 10 70L 10 22C 10 22 10 10 22 10"></path>
</g>
</g>
</g>
<g id="g-root-tx_no_vccfvbg647i8-stroke" data-item-order="0" transform="translate(166.0, 554.0)"></g>
<g id="g-root-tx_yes_mgpfmfg647pm-stroke" data-item-order="0" transform="translate(298.0, 614.0)"></g>
<g id="g-root-cu_qwixqvg647wi-stroke" data-item-order="2" transform="translate(286.0, 134.0)">
<g id="cu_qwixqvg647wi-stroke" fill="none" stroke-linecap="round" stroke-linejoin="round" stroke-miterlimit="4" stroke="#484848" stroke-width="2" stroke-opacity="1.0">
<g>
<path d="M 10 10L 10 38L 10 64"></path>
<path d="M 3.5 58L 10 64.5L 16.5 58" stroke-dasharray="none"></path>
</g>
</g>
</g>
<g id="g-root-cu_qwixqvg6483l-stroke" data-item-order="2" transform="translate(170.0, 542.0)">
<g id="cu_qwixqvg6483l-stroke" fill="none" stroke-linecap="round" stroke-linejoin="round" stroke-miterlimit="4" stroke="#484848" stroke-width="2" stroke-opacity="1.0">
<g>
<path d="M 42 10L 26 10L 10 10L 10 74L 10 136"></path>
<path d="M 3.5 130L 10 136.5L 16.5 130" stroke-dasharray="none"></path>
</g>
</g>
</g>
<g id="g-root-cu_1d3mgd3g647wr-stroke" data-item-order="2" transform="translate(286.0, 262.0)">
<g id="cu_1d3mgd3g647wr-stroke" fill="none" stroke-linecap="round" stroke-linejoin="round" stroke-miterlimit="4" stroke="#484848" stroke-width="2" stroke-opacity="1.0">
<g>
<path d="M 10 10L 10 38L 10 64"></path>
<path d="M 3.5 58L 10 64.5L 16.5 58" stroke-dasharray="none"></path>
</g>
</g>
</g>
<g id="g-root-cu_zs5xzrg6483y-stroke" data-item-order="2" transform="translate(170.0, 162.0)">
<g id="cu_zs5xzrg6483y-stroke" fill="none" stroke-linecap="round" stroke-linejoin="round" stroke-miterlimit="4" stroke="#484848" stroke-width="2" stroke-opacity="1.0">
<g>
<path d="M 10 614L 10 628L 10 642L 358 642L 706 642L 706 326L 706 10L 416 10L 126 10L 126 24L 126 36"></path>
<path d="M 119.5 30L 126 36.5L 132.5 30" stroke-dasharray="none"></path>
</g>
</g>
</g>
<g id="g-root-cu_1lz9glzg6483k-stroke" data-item-order="2" transform="translate(104.0, 918.0)">
<g id="cu_1lz9glzg6483k-stroke" fill="none" stroke-linecap="round" stroke-linejoin="round" stroke-miterlimit="4" stroke="#484848" stroke-width="2" stroke-opacity="1.0">
<g>
<path d="M 76 10L 76 24L 76 38L 43 38L 10 38L 10 52L 10 64"></path>
<path d="M 3.5 58L 10 64.5L 16.5 58" stroke-dasharray="none"></path>
</g>
</g>
</g>
<g id="g-root-cu_1uuwguvg647wl-stroke" data-item-order="2" transform="translate(286.0, 414.0)">
<g id="cu_1uuwguvg647wl-stroke" fill="none" stroke-linecap="round" stroke-linejoin="round" stroke-miterlimit="4" stroke="#484848" stroke-width="2" stroke-opacity="1.0">
<g>
<path d="M 10 10L 10 38L 10 64"></path>
<path d="M 3.5 58L 10 64.5L 16.5 58" stroke-dasharray="none"></path>
</g>
</g>
</g>
<g id="g-root-cu_1uuwguvg6483t-stroke" data-item-order="2" transform="translate(170.0, 918.0)">
<g id="cu_1uuwguvg6483t-stroke" fill="none" stroke-linecap="round" stroke-linejoin="round" stroke-miterlimit="4" stroke="#484848" stroke-width="2" stroke-opacity="1.0">
<g>
<path d="M 10 10L 10 24L 10 38L 68 38L 126 38L 126 52L 126 64"></path>
<path d="M 119.5 58L 126 64.5L 132.5 58" stroke-dasharray="none"></path>
</g>
</g>
</g>
<g id="g-root-cu_9lx07g648b3-stroke" data-item-order="2" transform="translate(104.0, 1070.0)">
<g id="cu_9lx07g648b3-stroke" fill="none" stroke-linecap="round" stroke-linejoin="round" stroke-miterlimit="4" stroke="#484848" stroke-width="2" stroke-opacity="1.0">
<g>
<path d="M 10 10L 10 38L 10 64"></path>
<path d="M 3.5 58L 10 64.5L 16.5 58" stroke-dasharray="none"></path>
</g>
</g>
</g>
<g id="g-root-cu_dl2fdjg6483o-stroke" data-item-order="2" transform="translate(286.0, 614.0)">
<g id="cu_dl2fdjg6483o-stroke" fill="none" stroke-linecap="round" stroke-linejoin="round" stroke-miterlimit="4" stroke="#484848" stroke-width="2" stroke-opacity="1.0">
<g>
<path d="M 10 10L 10 190L 10 368"></path>
<path d="M 3.5 362L 10 368.5L 16.5 362" stroke-dasharray="none"></path>
</g>
</g>
</g>
<g id="g-root-cu_dl2fdjg648az-stroke" data-item-order="2" transform="translate(104.0, 162.0)">
<g id="cu_dl2fdjg648az-stroke" fill="none" stroke-linecap="round" stroke-linejoin="round" stroke-miterlimit="4" stroke="#484848" stroke-width="2" stroke-opacity="1.0">
<g>
<path d="M 10 918L 10 932L 10 946L 391 946L 772 946L 772 478L 772 10L 482 10L 192 10L 192 24L 192 36"></path>
<path d="M 185.5 30L 192 36.5L 198.5 30" stroke-dasharray="none"></path>
</g>
</g>
</g>
<g id="g-root-cu_1d3mgd3g6483k-stroke" data-item-order="2" transform="translate(170.0, 766.0)">
<g id="cu_1d3mgd3g6483k-stroke" fill="none" stroke-linecap="round" stroke-linejoin="round" stroke-miterlimit="4" stroke="#484848" stroke-width="2" stroke-opacity="1.0">
<g>
<path d="M 10 10L 10 38L 10 64"></path>
<path d="M 3.5 58L 10 64.5L 16.5 58" stroke-dasharray="none"></path>
</g>
</g>
</g>
<g id="g-root-ic__qv9zkng647ib-stroke" data-item-order="1000000000" transform="translate(220.0, 71.0)">
<g id="ic__qv9zkng647ib-stroke" fill="none" stroke-linecap="round" stroke-linejoin="round" stroke-miterlimit="4" stroke="#969696" stroke-width="2" stroke-opacity="1.0">
<g>
<path d="M 10 10L 40 10L 40 40L 10 40Z"></path>
</g>
</g>
</g>
<g id="g-root-ic__1hithefg646pu-stroke" data-item-order="1000000000" transform="translate(26.0, 1147.0)">
<g id="ic__1hithefg646pu-stroke" fill="none" stroke-linecap="round" stroke-linejoin="round" stroke-miterlimit="4" stroke="#1eabda" stroke-width="2" stroke-opacity="1.0">
<g>
<path d="M 10 10L 40 10L 40 40L 10 40Z"></path>
</g>
</g>
</g>
<g id="g-root-tx_processe_8zfx3g646q5-stroke" data-item-order="1000000000" transform="translate(62.0, 1138.0)"></g>
<g id="g-root-tx_proposee_zqwztjg647pd-stroke" data-item-order="1000000000" transform="translate(250.0, 202.0)"></g>
<g id="g-root-ic__mg2yjbg646iu-stroke" data-item-order="1000000000" transform="translate(38.0, 1007.0)">
<g id="ic__mg2yjbg646iu-stroke" fill="none" stroke-linecap="round" stroke-linejoin="round" stroke-miterlimit="4" stroke="#1eabda" stroke-width="2" stroke-opacity="1.0">
<g>
<path d="M 10 10L 40 10L 40 40L 10 40Z"></path>
</g>
</g>
</g>
<g id="g-root-tx_newconse_1hi70bbg649he-stroke" data-item-order="1000000000" transform="translate(74.0, 986.0)"></g>
<g id="g-root-ic__93zz2vg647wh-stroke" data-item-order="1000000000" transform="translate(214.0, 211.0)">
<g id="ic__93zz2vg647wh-stroke" fill="none" stroke-linecap="round" stroke-linejoin="round" stroke-miterlimit="4" stroke="#1eabda" stroke-width="2" stroke-opacity="1.0">
<g>
<path d="M 10 10L 40 10L 40 40L 10 40Z"></path>
</g>
</g>
</g>
<g id="g-root-ic__zqwztjg649a9-stroke" data-item-order="1000000000" transform="translate(98.0, 855.0)">
<g id="ic__zqwztjg649a9-stroke" fill="none" stroke-linecap="round" stroke-linejoin="round" stroke-miterlimit="4" stroke="#1eabda" stroke-width="2" stroke-opacity="1.0">
<g>
<path d="M 10 10L 40 10L 40 40L 10 40Z"></path>
</g>
</g>
</g>
<g id="g-root-tx_establis_4o6gyfg647b6-stroke" data-item-order="1000000000" transform="translate(256.0, 50.0)"></g>
<g id="g-root-tx_implemen_qv9zkng6483s-stroke" data-item-order="1000000000" transform="translate(256.0, 330.0)"></g>
<g id="g-root-ic__djth7bg6493c-stroke" data-item-order="1000000000" transform="translate(98.0, 703.0)">
<g id="ic__djth7bg6493c-stroke" fill="none" stroke-linecap="round" stroke-linejoin="round" stroke-miterlimit="4" stroke="#1eabda" stroke-width="2" stroke-opacity="1.0">
<g>
<path d="M 10 10L 40 10L 40 40L 10 40Z"></path>
</g>
</g>
</g>
<g id="g-root-tx_askforfu_18mk02fg648w8-stroke" data-item-order="1000000000" transform="translate(134.0, 682.0)"></g>
<g id="g-root-ic__4o6gyfg648au-stroke" data-item-order="1000000000" transform="translate(220.0, 351.0)">
<g id="ic__4o6gyfg648au-stroke" fill="none" stroke-linecap="round" stroke-linejoin="round" stroke-miterlimit="4" stroke="#1eabda" stroke-width="2" stroke-opacity="1.0">
<g>
<path d="M 10 10L 40 10L 40 40L 10 40Z"></path>
</g>
</g>
</g>
<g id="g-root-ic__1qdu0k7g648p6-stroke" data-item-order="1000000000" transform="translate(214.0, 1007.0)">
<g id="ic__1qdu0k7g648p6-stroke" fill="none" stroke-linecap="round" stroke-linejoin="round" stroke-miterlimit="4" stroke="#1eabda" stroke-width="2" stroke-opacity="1.0">
<g>
<path d="M 10 10L 40 10L 40 40L 10 40Z"></path>
</g>
</g>
</g>
<g id="g-root-tx_seekcomp_mfghg7g648p4-stroke" data-item-order="1000000000" transform="translate(250.0, 986.0)"></g>
<g id="g-root-tx_othersdi_1qdu0k7g648at-stroke" data-item-order="1000000000" transform="translate(244.0, 506.0)"></g>
<g id="g-root-tx_voteoncu_1utniong64935-stroke" data-item-order="1000000000" transform="translate(134.0, 834.0)"></g>
</g>
</g>
<path id="whu0pjrg65nnq" d="M65.283 12.757a.35.35 0 0 0 .584.157l5.203-5.141-6.183 3.523.396 1.461zm-2.216-11.7a.35.35 0 0 0-.522.305v3.111l3.276-1.868-2.754-1.548zm3.728 2.105l-4.25 2.421v2.445l6.391-3.644-2.141-1.222zm4.708 3.303a.35.35 0 0 0 0-.609l-1.592-.9-7.365 4.199v1.782a.35.35 0 0 0 .523.305l8.435-4.777z M44.542 2.513c0-.433.355-.783.792-.783s.792.35.792.783-.355.783-.792.783-.792-.35-.792-.783zm59.171 0c0-.433.355-.783.792-.783s.792.35.792.783-.355.783-.792.783-.792-.35-.792-.783zm-85.951 7.636h-1.27v-.487c-.276.201-.864.609-1.881.609-1.202 0-2.274-.794-2.137-2.078.118-1.106 1.153-1.584 1.848-1.727l2.17-.345c0-.539-.29-.956-1.064-1.006s-1.21.305-1.571 1.017l-1.124-.605c1.218-2.631 5.029-1.764 5.029.414v4.207zm-1.27-2.86c.006.396-.062 1.112-.819 1.59-.587.37-1.841.299-1.903-.395-.049-.555.461-.791.906-.898l1.816-.297zm72.662 2.86h-1.27v-.487c-.276.201-.864.609-1.881.609-1.202 0-2.274-.794-2.137-2.078.118-1.106 1.153-1.584 1.848-1.727l2.17-.345c0-.539-.29-.956-1.064-1.006s-1.21.305-1.571 1.017l-1.124-.605c1.218-2.631 5.029-1.764 5.029.414v4.207zm-1.27-2.86c.006.396-.062 1.112-.82 1.59-.587.37-1.841.299-1.903-.395-.049-.555.461-.791.906-.898l1.816-.297zM99.096 10.149H97.85v-8.45h1.246v4.895l2.68-2.559h1.738l-2.633 2.535 2.715 3.578h-1.556l-2.077-2.707-.867.844v1.863zm6.053-6.114h-1.255v6.113h1.255V4.035zm-59.2 0h-1.255v6.113h1.255V4.035zm5.584 6.113V1.697h1.255v2.695c.361-.346 1-.485 1.47-.485 1.452 0 2.477 1.082 2.457 2.448v3.792h-1.27v-3.68c0-.408-.214-1.339-1.315-1.339-.968 0-1.342.756-1.342 1.339v3.681h-1.255zm-4.76-4.894V4.039h.621a.45.45 0 0 0 .45-.45v-.855h1.251v1.305h1.309v1.215h-1.309v3.109c0 .293.105.664.648.664.365 0 .531-.035.736-.07v1.137s-.361.113-.857.113c-1.398 0-1.777-1.051-1.777-1.788V5.254h-1.071zM36.528 4.039h-1.394l2.191 6.106h1.125l1.234-3.918 1.238 3.918h1.129l2.188-6.106h-1.383l-1.359 3.93-1.256-3.93h-1.124l-1.242 3.957-1.348-3.957zM26.212 7.141c-.02 1.566 1.187 3.129 3.223 3.129 1.566 0 2.383-.918 2.734-1.719L31.172 8c-.315.399-.801 1.094-1.738 1.094-1.145 0-1.825-.781-1.891-1.52h4.625c.074-.284.148-.995-.03-1.559-.336-1.064-1.221-2.102-2.839-2.102s-3.088 1.152-3.088 3.227zm1.363-.75h3.348c-.055-.43-.566-1.301-1.623-1.301a1.79 1.79 0 0 0-1.725 1.301zm-8.758.75c.038 1.758 1.277 3.133 3.145 3.133 1.074 0 1.723-.477 1.961-.672v.547h1.242V1.703h-1.258v2.888c-.414-.36-1.062-.68-1.93-.68-1.91 0-3.198 1.473-3.16 3.23zm1.309-.08c0 1.119.723 1.978 1.836 1.978a1.88 1.88 0 0 0 1.94-1.904c0-1.371-1.011-1.99-1.972-1.99s-1.805.798-1.805 1.916zm76.683-.028C96.771 5.275 95.532 3.9 93.664 3.9c-1.074 0-1.723.477-1.961.672v-.547h-1.242v8.22h1.258V9.583c.414.36 1.063.68 1.93.68 1.91 0 3.198-1.473 3.16-3.23zm-1.309.08c0-1.119-.723-1.978-1.836-1.978a1.88 1.88 0 0 0-1.94 1.904c0 1.371 1.011 1.99 1.972 1.99S95.5 8.231 95.5 7.113zM106.441 10.173V4.036h1.254v.382c.361-.346 1-.485 1.47-.485 1.452 0 2.477 1.082 2.457 2.448v3.792h-1.27V6.492c0-.408-.214-1.339-1.315-1.339-.969 0-1.342.756-1.342 1.339v3.681h-1.254zm-30.383-.021V1.824h1.084l4.215 5.777V1.824h1.32v8.328h-1.094l-4.207-5.796v5.796h-1.319zM5.24 10.149H4V2.377h1.014l2.664 3.597 2.654-3.592h1.03v7.766h-1.256V4.762L7.678 8.068 5.24 4.742v5.407z" transform="translate(764.0, 1222.0)" fill="#80808088" stroke="none"></path>
</svg>