<?xml version="1.0" encoding="utf-8" standalone="yes"?>
<!DOCTYPE svg PUBLIC "-//W3C//DTD SVG 1.1//EN" "http://www.w3.org/Graphics/SVG/1.1/DTD/svg11.dtd">
<svg version="1.1" xmlns="http://www.w3.org/2000/svg" xmlns:xlink="http://www.w3.org/1999/xlink" width="260" height="1012" viewBox="0 0 260 1012" style="fill:none; stroke:none; fill-rule:evenodd; clip-rule:evenodd; stroke-linecap:round; stroke-linejoin:round; stroke-miterlimit:1.5;">
<style class="text-font-style fontImports" data-font-family="Roboto">
@import url(https://fonts.googleapis.com/css2?family=Roboto:wght@400;700&amp;display=block);
</style>
<g id="items" style="isolation:isolate;">
<g id="blend" style="mix-blend-mode:normal;">
<g id="g-root-ro_ddkn6fg6fh8v-fill" data-item-order="-14976" transform="translate(26.0, 830.0)">
<g id="ro_ddkn6fg6fh8v-fill" stroke="none" fill="#e8f9ff" fill-opacity="1.0">
<g>
<path d="M 22 10L 154 10C 154 10 166 10 166 22L 166 94C 166 94 166 106 154 106L 22 106C 22 106 10 106 10 94L 10 22C 10 22 10 10 22 10"></path>
</g>
</g>
</g>
<g id="g-root-ro_1cw4o5zg6fgg8-fill" data-item-order="-14976" transform="translate(26.0, 550.0)">
<g id="ro_1cw4o5zg6fgg8-fill" stroke="none" fill="#e8f9ff" fill-opacity="1.0">
<g>
<path d="M 22 10L 154 10C 154 10 166 10 166 22L 166 94C 166 94 166 106 154 106L 22 106C 22 106 10 106 10 94L 10 22C 10 22 10 10 22 10"></path>
</g>
</g>
</g>
<g id="g-root-ro_zko5sng6fgun-fill" data-item-order="-12960" transform="translate(14.0, 702.0)">
<g id="ro_zko5sng6fgun-fill" stroke="none" fill="#e8f9ff" fill-opacity="1.0">
<g>
<path d="M 22 10L 178 10C 178 10 190 10 190 22L 190 70C 190 70 190 82 178 82L 22 82C 22 82 10 82 10 70L 10 22C 10 22 10 10 22 10"></path>
</g>
</g>
</g>
<g id="g-root-ro_hte5avg6ffgr-fill" data-item-order="-12960" transform="translate(14.0, 166.0)">
<g id="ro_hte5avg6ffgr-fill" stroke="none" fill="#e8f9ff" fill-opacity="1.0">
<g>
<path d="M 22 10L 178 10C 178 10 190 10 190 22L 190 70C 190 70 190 82 178 82L 22 82C 22 82 10 82 10 70L 10 22C 10 22 10 10 22 10"></path>
</g>
</g>
</g>
<g id="g-root-ro_1cw4o5zg6fg1s-fill" data-item-order="-12096" transform="translate(20.0, 422.0)">
<g id="ro_1cw4o5zg6fg1s-fill" stroke="none" fill="#e8f9ff" fill-opacity="1.0">
<g>
<path d="M 22 10L 166 10C 166 10 178 10 178 22L 178 70C 178 70 178 82 166 82L 22 82C 22 82 10 82 10 70L 10 22C 10 22 10 10 22 10"></path>
</g>
</g>
</g>
<g id="g-root-ro_4hxmxjg6ff2g-fill" data-item-order="-8640" transform="translate(44.0, 38.0)">
<g id="ro_4hxmxjg6ff2g-fill" stroke="none" fill="#f5f5f5" fill-opacity="1.0">
<g>
<path d="M 22 10L 118 10C 118 10 130 10 130 22L 130 70C 130 70 130 82 118 82L 22 82C 22 82 10 82 10 70L 10 22C 10 22 10 10 22 10"></path>
</g>
</g>
</g>
<g id="g-root-ro_1uneonrg6ffno-fill" data-item-order="-7776" transform="translate(50.0, 294.0)">
<g id="ro_1uneonrg6ffno-fill" stroke="none" fill="#e8f9ff" fill-opacity="1.0">
<g>
<path d="M 22 10L 106 10C 106 10 118 10 118 22L 118 70C 118 70 118 82 106 82L 22 82C 22 82 10 82 10 70L 10 22C 10 22 10 10 22 10"></path>
</g>
</g>
</g>
<g id="g-root-cu_2qlw7g6ff9l-fill" data-item-order="2" transform="translate(104.0, 110.0)"></g>
<g id="g-root-cu_qpnmmvg6ff9n-fill" data-item-order="2" transform="translate(104.0, 238.0)"></g>
<g id="g-root-cu_18gxn4ng6ff9h-fill" data-item-order="2" transform="translate(104.0, 366.0)"></g>
<g id="g-root-cu_1lse5hzg6ff9m-fill" data-item-order="2" transform="translate(104.0, 494.0)"></g>
<g id="g-root-cu_2qlw7g6ffgt-fill" data-item-order="2" transform="translate(104.0, 646.0)"></g>
<g id="g-root-cu_de749jg6ffgv-fill" data-item-order="2" transform="translate(104.0, 774.0)"></g>
<g id="g-root-cu_v5h4rbg6ffgm-fill" data-item-order="2" transform="translate(104.0, 266.0)"></g>
<g id="g-root-tx_turnledo_qp15jrg6ffut-fill" data-item-order="1000000000" transform="translate(68.0, 434.0)">
<g id="tx_turnledo_qp15jrg6ffut-fill" stroke="none" fill="#1eabda" fill-opacity="1.0">
<g>
<text transform="translate(10.0, 22.0)" style="font-size:20px; font-family:'Roboto', sans-serif; white-space:pre;">
<tspan x="2" y="12" dominant-baseline="ideographic">Turn LED ON</tspan>
</text>
</g>
</g>
</g>
<g id="g-root-ic__ddkn6fg6fg1y-fill" data-item-order="1000000000" transform="translate(32.0, 443.0)"></g>
<g id="g-root-ic__zko5sng6ffno-fill" data-item-order="1000000000" transform="translate(62.0, 315.0)"></g>
<g id="g-root-tx_pausefor_8xr51zg6fg9a-fill" data-item-order="1000000000" transform="translate(74.0, 562.0)">
<g id="tx_pausefor_8xr51zg6fg9a-fill" stroke="none" fill="#1eabda" fill-opacity="1.0">
<g>
<text transform="translate(10.0, 34.0)" style="font-size:20px; font-family:'Roboto', sans-serif; white-space:pre;">
<tspan x="2" y="0" dominant-baseline="ideographic">Pause for a</tspan>
<tspan x="2" y="24" dominant-baseline="ideographic"> second</tspan>
</text>
</g>
</g>
</g>
<g id="g-root-ic__ddkn6fg6fggd-fill" data-item-order="1000000000" transform="translate(38.0, 583.0)"></g>
<g id="g-root-tx_loop_1hby6afg6ffgt-fill" data-item-order="1000000000" transform="translate(98.0, 306.0)">
<g id="tx_loop_1hby6afg6ffgt-fill" stroke="none" fill="#1eabda" fill-opacity="1.0">
<g>
<text transform="translate(10.0, 22.0)" style="font-size:20px; font-family:'Roboto', sans-serif; white-space:pre;">
<tspan x="2" y="12" dominant-baseline="ideographic">Loop</tspan>
</text>
</g>
</g>
</g>
<g id="g-root-tx_turnledo_ddkn6fg6fgn9-fill" data-item-order="1000000000" transform="translate(62.000003814697266, 714.0)">
<g id="tx_turnledo_ddkn6fg6fgn9-fill" stroke="none" fill="#1eabda" fill-opacity="1.0">
<g>
<text transform="translate(10.0, 22.0)" style="font-size:20px; font-family:'Roboto', sans-serif; white-space:pre;">
<tspan x="2" y="12" dominant-baseline="ideographic">Turn LED OFF</tspan>
</text>
</g>
</g>
</g>
<g id="g-root-ic__4hxmxjg6fgub-fill" data-item-order="1000000000" transform="translate(26.0, 723.0)"></g>
<g id="g-root-ic__1hby6afg6ff9h-fill" data-item-order="1000000000" transform="translate(26.0, 187.0)"></g>
<g id="g-root-tx_pausefor_4hxmxjg6fh1h-fill" data-item-order="1000000000" transform="translate(74.0, 842.0)">
<g id="tx_pausefor_4hxmxjg6fh1h-fill" stroke="none" fill="#1eabda" fill-opacity="1.0">
<g>
<text transform="translate(10.0, 34.0)" style="font-size:20px; font-family:'Roboto', sans-serif; white-space:pre;">
<tspan x="2" y="0" dominant-baseline="ideographic">Pause for a</tspan>
<tspan x="2" y="24" dominant-baseline="ideographic"> second</tspan>
</text>
</g>
</g>
</g>
<g id="g-root-ic__1hby6afg6fh1i-fill" data-item-order="1000000000" transform="translate(38.0, 863.0)"></g>
<g id="g-root-tx_setpinmo_1hby6afg6ff2l-fill" data-item-order="1000000000" transform="translate(62.000003814697266, 178.0)">
<g id="tx_setpinmo_1hby6afg6ff2l-fill" stroke="none" fill="#1eabda" fill-opacity="1.0">
<g>
<text transform="translate(10.0, 22.0)" style="font-size:20px; font-family:'Roboto', sans-serif; white-space:pre;">
<tspan x="2" y="12" dominant-baseline="ideographic">Set Pin Mode</tspan>
</text>
</g>
</g>
</g>
<g id="g-root-ic__4hb5ufg6fi11-fill" data-item-order="1000000000" transform="translate(56.0, 59.0)"></g>
<g id="g-root-tx_setup_dcy63bg6fhmr-fill" data-item-order="1000000000" transform="translate(92.0, 50.0)">
<g id="tx_setup_dcy63bg6fhmr-fill" stroke="none" fill="#969696" fill-opacity="1.0">
<g>
<text transform="translate(10.0, 22.0)" style="font-size:20px; font-family:'Roboto', sans-serif; white-space:pre;">
<tspan x="2" y="12" dominant-baseline="ideographic">Setup</tspan>
</text>
</g>
</g>
</g>
<g id="g-root-ro_ddkn6fg6fh8v-stroke" data-item-order="-14976" transform="translate(26.0, 830.0)">
<g id="ro_ddkn6fg6fh8v-stroke" fill="none" stroke-linecap="round" stroke-linejoin="round" stroke-miterlimit="4" stroke="#1eabda" stroke-width="2" stroke-opacity="1.0">
<g>
<path d="M 22 10L 154 10C 154 10 166 10 166 22L 166 94C 166 94 166 106 154 106L 22 106C 22 106 10 106 10 94L 10 22C 10 22 10 10 22 10"></path>
</g>
</g>
</g>
<g id="g-root-ro_1cw4o5zg6fgg8-stroke" data-item-order="-14976" transform="translate(26.0, 550.0)">
<g id="ro_1cw4o5zg6fgg8-stroke" fill="none" stroke-linecap="round" stroke-linejoin="round" stroke-miterlimit="4" stroke="#1eabda" stroke-width="2" stroke-opacity="1.0">
<g>
<path d="M 22 10L 154 10C 154 10 166 10 166 22L 166 94C 166 94 166 106 154 106L 22 106C 22 106 10 106 10 94L 10 22C 10 22 10 10 22 10"></path>
</g>
</g>
</g>
<g id="g-root-ro_zko5sng6fgun-stroke" data-item-order="-12960" transform="translate(14.0, 702.0)">
<g id="ro_zko5sng6fgun-stroke" fill="none" stroke-linecap="round" stroke-linejoin="round" stroke-miterlimit="4" stroke="#1eabda" stroke-width="2" stroke-opacity="1.0">
<g>
<path d="M 22 10L 178 10C 178 10 190 10 190 22L 190 70C 190 70 190 82 178 82L 22 82C 22 82 10 82 10 70L 10 22C 10 22 10 10 22 10"></path>
</g>
</g>
</g>
<g id="g-root-ro_hte5avg6ffgr-stroke" data-item-order="-12960" transform="translate(14.0, 166.0)">
<g id="ro_hte5avg6ffgr-stroke" fill="none" stroke-linecap="round" stroke-linejoin="round" stroke-miterlimit="4" stroke="#1eabda" stroke-width="2" stroke-opacity="1.0">
<g>
<path d="M 22 10L 178 10C 178 10 190 10 190 22L 190 70C 190 70 190 82 178 82L 22 82C 22 82 10 82 10 70L 10 22C 10 22 10 10 22 10"></path>
</g>
</g>
</g>
<g id="g-root-ro_1cw4o5zg6fg1s-stroke" data-item-order="-12096" transform="translate(20.0, 422.0)">
<g id="ro_1cw4o5zg6fg1s-stroke" fill="none" stroke-linecap="round" stroke-linejoin="round" stroke-miterlimit="4" stroke="#1eabda" stroke-width="2" stroke-opacity="1.0">
<g>
<path d="M 22 10L 166 10C 166 10 178 10 178 22L 178 70C 178 70 178 82 166 82L 22 82C 22 82 10 82 10 70L 10 22C 10 22 10 10 22 10"></path>
</g>
</g>
</g>
<g id="g-root-ro_4hxmxjg6ff2g-stroke" data-item-order="-8640" transform="translate(44.0, 38.0)">
<g id="ro_4hxmxjg6ff2g-stroke" fill="none" stroke-linecap="round" stroke-linejoin="round" stroke-miterlimit="4" stroke="#969696" stroke-width="2" stroke-opacity="1.0">
<g>
<path d="M 22 10L 118 10C 118 10 130 10 130 22L 130 70C 130 70 130 82 118 82L 22 82C 22 82 10 82 10 70L 10 22C 10 22 10 10 22 10"></path>
</g>
</g>
</g>
<g id="g-root-ro_1uneonrg6ffno-stroke" data-item-order="-7776" transform="translate(50.0, 294.0)">
<g id="ro_1uneonrg6ffno-stroke" fill="none" stroke-linecap="round" stroke-linejoin="round" stroke-miterlimit="4" stroke="#1eabda" stroke-width="2" stroke-opacity="1.0">
<g>
<path d="M 22 10L 106 10C 106 10 118 10 118 22L 118 70C 118 70 118 82 106 82L 22 82C 22 82 10 82 10 70L 10 22C 10 22 10 10 22 10"></path>
</g>
</g>
</g>
<g id="g-root-cu_2qlw7g6ff9l-stroke" data-item-order="2" transform="translate(104.0, 110.0)">
<g id="cu_2qlw7g6ff9l-stroke" fill="none" stroke-linecap="round" stroke-linejoin="round" stroke-miterlimit="4" stroke="#484848" stroke-width="2" stroke-opacity="1.0">
<g>
<path d="M 10 10L 10 38L 10 64"></path>
<path d="M 3.5 58L 10 64.5L 16.5 58" stroke-dasharray="none"></path>
</g>
</g>
</g>
<g id="g-root-cu_qpnmmvg6ff9n-stroke" data-item-order="2" transform="translate(104.0, 238.0)">
<g id="cu_qpnmmvg6ff9n-stroke" fill="none" stroke-linecap="round" stroke-linejoin="round" stroke-miterlimit="4" stroke="#484848" stroke-width="2" stroke-opacity="1.0">
<g>
<path d="M 10 10L 10 38L 10 64"></path>
<path d="M 3.5 58L 10 64.5L 16.5 58" stroke-dasharray="none"></path>
</g>
</g>
</g>
<g id="g-root-cu_18gxn4ng6ff9h-stroke" data-item-order="2" transform="translate(104.0, 366.0)">
<g id="cu_18gxn4ng6ff9h-stroke" fill="none" stroke-linecap="round" stroke-linejoin="round" stroke-miterlimit="4" stroke="#484848" stroke-width="2" stroke-opacity="1.0">
<g>
<path d="M 10 10L 10 38L 10 64"></path>
<path d="M 3.5 58L 10 64.5L 16.5 58" stroke-dasharray="none"></path>
</g>
</g>
</g>
<g id="g-root-cu_1lse5hzg6ff9m-stroke" data-item-order="2" transform="translate(104.0, 494.0)">
<g id="cu_1lse5hzg6ff9m-stroke" fill="none" stroke-linecap="round" stroke-linejoin="round" stroke-miterlimit="4" stroke="#484848" stroke-width="2" stroke-opacity="1.0">
<g>
<path d="M 10 10L 10 38L 10 64"></path>
<path d="M 3.5 58L 10 64.5L 16.5 58" stroke-dasharray="none"></path>
</g>
</g>
</g>
<g id="g-root-cu_2qlw7g6ffgt-stroke" data-item-order="2" transform="translate(104.0, 646.0)">
<g id="cu_2qlw7g6ffgt-stroke" fill="none" stroke-linecap="round" stroke-linejoin="round" stroke-miterlimit="4" stroke="#484848" stroke-width="2" stroke-opacity="1.0">
<g>
<path d="M 10 10L 10 38L 10 64"></path>
<path d="M 3.5 58L 10 64.5L 16.5 58" stroke-dasharray="none"></path>
</g>
</g>
</g>
<g id="g-root-cu_de749jg6ffgv-stroke" data-item-order="2" transform="translate(104.0, 774.0)">
<g id="cu_de749jg6ffgv-stroke" fill="none" stroke-linecap="round" stroke-linejoin="round" stroke-miterlimit="4" stroke="#484848" stroke-width="2" stroke-opacity="1.0">
<g>
<path d="M 10 10L 10 38L 10 64"></path>
<path d="M 3.5 58L 10 64.5L 16.5 58" stroke-dasharray="none"></path>
</g>
</g>
</g>
<g id="g-root-cu_v5h4rbg6ffgm-stroke" data-item-order="2" transform="translate(104.0, 266.0)">
<g id="cu_v5h4rbg6ffgm-stroke" fill="none" stroke-linecap="round" stroke-linejoin="round" stroke-miterlimit="4" stroke="#484848" stroke-width="2" stroke-opacity="1.0">
<g>
<path d="M 10 670L 10 684L 10 698L 71 698L 132 698L 132 354L 132 10L 71 10L 10 10L 10 24L 10 36"></path>
<path d="M 3.5 30L 10 36.5L 16.5 30" stroke-dasharray="none"></path>
</g>
</g>
</g>
<g id="g-root-tx_turnledo_qp15jrg6ffut-stroke" data-item-order="1000000000" transform="translate(68.0, 434.0)"></g>
<g id="g-root-ic__ddkn6fg6fg1y-stroke" data-item-order="1000000000" transform="translate(32.0, 443.0)">
<g id="ic__ddkn6fg6fg1y-stroke" fill="none" stroke-linecap="round" stroke-linejoin="round" stroke-miterlimit="4" stroke="#1eabda" stroke-width="2" stroke-opacity="1.0">
<g>
<path d="M 10 10L 40 10L 40 40L 10 40Z"></path>
</g>
</g>
</g>
<g id="g-root-ic__zko5sng6ffno-stroke" data-item-order="1000000000" transform="translate(62.0, 315.0)">
<g id="ic__zko5sng6ffno-stroke" fill="none" stroke-linecap="round" stroke-linejoin="round" stroke-miterlimit="4" stroke="#1eabda" stroke-width="2" stroke-opacity="1.0">
<g>
<path d="M 10 10L 40 10L 40 40L 10 40Z"></path>
</g>
</g>
</g>
<g id="g-root-tx_pausefor_8xr51zg6fg9a-stroke" data-item-order="1000000000" transform="translate(74.0, 562.0)"></g>
<g id="g-root-ic__ddkn6fg6fggd-stroke" data-item-order="1000000000" transform="translate(38.0, 583.0)">
<g id="ic__ddkn6fg6fggd-stroke" fill="none" stroke-linecap="round" stroke-linejoin="round" stroke-miterlimit="4" stroke="#1eabda" stroke-width="2" stroke-opacity="1.0">
<g>
<path d="M 10 10L 40 10L 40 40L 10 40Z"></path>
</g>
</g>
</g>
<g id="g-root-tx_loop_1hby6afg6ffgt-stroke" data-item-order="1000000000" transform="translate(98.0, 306.0)"></g>
<g id="g-root-tx_turnledo_ddkn6fg6fgn9-stroke" data-item-order="1000000000" transform="translate(62.000003814697266, 714.0)"></g>
<g id="g-root-ic__4hxmxjg6fgub-stroke" data-item-order="1000000000" transform="translate(26.0, 723.0)">
<g id="ic__4hxmxjg6fgub-stroke" fill="none" stroke-linecap="round" stroke-linejoin="round" stroke-miterlimit="4" stroke="#1eabda" stroke-width="2" stroke-opacity="1.0">
<g>
<path d="M 10 10L 40 10L 40 40L 10 40Z"></path>
</g>
</g>
</g>
<g id="g-root-ic__1hby6afg6ff9h-stroke" data-item-order="1000000000" transform="translate(26.0, 187.0)">
<g id="ic__1hby6afg6ff9h-stroke" fill="none" stroke-linecap="round" stroke-linejoin="round" stroke-miterlimit="4" stroke="#1eabda" stroke-width="2" stroke-opacity="1.0">
<g>
<path d="M 10 10L 40 10L 40 40L 10 40Z"></path>
</g>
</g>
</g>
<g id="g-root-tx_pausefor_4hxmxjg6fh1h-stroke" data-item-order="1000000000" transform="translate(74.0, 842.0)"></g>
<g id="g-root-ic__1hby6afg6fh1i-stroke" data-item-order="1000000000" transform="translate(38.0, 863.0)">
<g id="ic__1hby6afg6fh1i-stroke" fill="none" stroke-linecap="round" stroke-linejoin="round" stroke-miterlimit="4" stroke="#1eabda" stroke-width="2" stroke-opacity="1.0">
<g>
<path d="M 10 10L 40 10L 40 40L 10 40Z"></path>
</g>
</g>
</g>
<g id="g-root-tx_setpinmo_1hby6afg6ff2l-stroke" data-item-order="1000000000" transform="translate(62.000003814697266, 178.0)"></g>
<g id="g-root-ic__4hb5ufg6fi11-stroke" data-item-order="1000000000" transform="translate(56.0, 59.0)">
<g id="ic__4hb5ufg6fi11-stroke" fill="none" stroke-linecap="round" stroke-linejoin="round" stroke-miterlimit="4" stroke="#969696" stroke-width="2" stroke-opacity="1.0">
<g>
<path d="M 10 10L 40 10L 40 40L 10 40Z"></path>
</g>
</g>
</g>
<g id="g-root-tx_setup_dcy63bg6fhmr-stroke" data-item-order="1000000000" transform="translate(92.0, 50.0)"></g>
</g>
</g>
<path id="w5uzbrg6ffgs" d="M65.283 12.757a.35.35 0 0 0 .584.157l5.203-5.141-6.183 3.523.396 1.461zm-2.216-11.7a.35.35 0 0 0-.522.305v3.111l3.276-1.868-2.754-1.548zm3.728 2.105l-4.25 2.421v2.445l6.391-3.644-2.141-1.222zm4.708 3.303a.35.35 0 0 0 0-.609l-1.592-.9-7.365 4.199v1.782a.35.35 0 0 0 .523.305l8.435-4.777z M44.542 2.513c0-.433.355-.783.792-.783s.792.35.792.783-.355.783-.792.783-.792-.35-.792-.783zm59.171 0c0-.433.355-.783.792-.783s.792.35.792.783-.355.783-.792.783-.792-.35-.792-.783zm-85.951 7.636h-1.27v-.487c-.276.201-.864.609-1.881.609-1.202 0-2.274-.794-2.137-2.078.118-1.106 1.153-1.584 1.848-1.727l2.17-.345c0-.539-.29-.956-1.064-1.006s-1.21.305-1.571 1.017l-1.124-.605c1.218-2.631 5.029-1.764 5.029.414v4.207zm-1.27-2.86c.006.396-.062 1.112-.819 1.59-.587.37-1.841.299-1.903-.395-.049-.555.461-.791.906-.898l1.816-.297zm72.662 2.86h-1.27v-.487c-.276.201-.864.609-1.881.609-1.202 0-2.274-.794-2.137-2.078.118-1.106 1.153-1.584 1.848-1.727l2.17-.345c0-.539-.29-.956-1.064-1.006s-1.21.305-1.571 1.017l-1.124-.605c1.218-2.631 5.029-1.764 5.029.414v4.207zm-1.27-2.86c.006.396-.062 1.112-.82 1.59-.587.37-1.841.299-1.903-.395-.049-.555.461-.791.906-.898l1.816-.297zM99.096 10.149H97.85v-8.45h1.246v4.895l2.68-2.559h1.738l-2.633 2.535 2.715 3.578h-1.556l-2.077-2.707-.867.844v1.863zm6.053-6.114h-1.255v6.113h1.255V4.035zm-59.2 0h-1.255v6.113h1.255V4.035zm5.584 6.113V1.697h1.255v2.695c.361-.346 1-.485 1.47-.485 1.452 0 2.477 1.082 2.457 2.448v3.792h-1.27v-3.68c0-.408-.214-1.339-1.315-1.339-.968 0-1.342.756-1.342 1.339v3.681h-1.255zm-4.76-4.894V4.039h.621a.45.45 0 0 0 .45-.45v-.855h1.251v1.305h1.309v1.215h-1.309v3.109c0 .293.105.664.648.664.365 0 .531-.035.736-.07v1.137s-.361.113-.857.113c-1.398 0-1.777-1.051-1.777-1.788V5.254h-1.071zM36.528 4.039h-1.394l2.191 6.106h1.125l1.234-3.918 1.238 3.918h1.129l2.188-6.106h-1.383l-1.359 3.93-1.256-3.93h-1.124l-1.242 3.957-1.348-3.957zM26.212 7.141c-.02 1.566 1.187 3.129 3.223 3.129 1.566 0 2.383-.918 2.734-1.719L31.172 8c-.315.399-.801 1.094-1.738 1.094-1.145 0-1.825-.781-1.891-1.52h4.625c.074-.284.148-.995-.03-1.559-.336-1.064-1.221-2.102-2.839-2.102s-3.088 1.152-3.088 3.227zm1.363-.75h3.348c-.055-.43-.566-1.301-1.623-1.301a1.79 1.79 0 0 0-1.725 1.301zm-8.758.75c.038 1.758 1.277 3.133 3.145 3.133 1.074 0 1.723-.477 1.961-.672v.547h1.242V1.703h-1.258v2.888c-.414-.36-1.062-.68-1.93-.68-1.91 0-3.198 1.473-3.16 3.23zm1.309-.08c0 1.119.723 1.978 1.836 1.978a1.88 1.88 0 0 0 1.94-1.904c0-1.371-1.011-1.99-1.972-1.99s-1.805.798-1.805 1.916zm76.683-.028C96.771 5.275 95.532 3.9 93.664 3.9c-1.074 0-1.723.477-1.961.672v-.547h-1.242v8.22h1.258V9.583c.414.36 1.063.68 1.93.68 1.91 0 3.198-1.473 3.16-3.23zm-1.309.08c0-1.119-.723-1.978-1.836-1.978a1.88 1.88 0 0 0-1.94 1.904c0 1.371 1.011 1.99 1.972 1.99S95.5 8.231 95.5 7.113zM106.441 10.173V4.036h1.254v.382c.361-.346 1-.485 1.47-.485 1.452 0 2.477 1.082 2.457 2.448v3.792h-1.27V6.492c0-.408-.214-1.339-1.315-1.339-.969 0-1.342.756-1.342 1.339v3.681h-1.254zm-30.383-.021V1.824h1.084l4.215 5.777V1.824h1.32v8.328h-1.094l-4.207-5.796v5.796h-1.319zM5.24 10.149H4V2.377h1.014l2.664 3.597 2.654-3.592h1.03v7.766h-1.256V4.762L7.678 8.068 5.24 4.742v5.407z" transform="translate(127.0, 981.0)" fill="#80808088" stroke="none"></path>
</svg>