<?xml version="1.0" encoding="utf-8" standalone="yes"?>
<!DOCTYPE svg PUBLIC "-//W3C//DTD SVG 1.1//EN" "http://www.w3.org/Graphics/SVG/1.1/DTD/svg11.dtd">
<svg version="1.1" xmlns="http://www.w3.org/2000/svg" xmlns:xlink="http://www.w3.org/1999/xlink" width="484" height="296" viewBox="0 0 484 296" style="fill:none; stroke:none; fill-rule:evenodd; clip-rule:evenodd; stroke-linecap:round; stroke-linejoin:round; stroke-miterlimit:1.5;">
<style class="text-font-style fontImports" data-font-family="Roboto">
@import url(https://fonts.googleapis.com/css2?family=Roboto:wght@400;700&amp;display=block);
</style>
<g id="items" style="isolation:isolate;">
<g id="blend" style="mix-blend-mode:normal;">
<g id="g-root-ro_4o6gyfg5vsay-fill" data-item-order="-11232" transform="translate(66.0, 38.0)">
<g id="ro_4o6gyfg5vsay-fill" stroke="none" fill="#f5f5f5" fill-opacity="1.0">
<g>
<path d="M 22 10L 154 10C 154 10 166 10 166 22L 166 70C 166 70 166 82 154 82L 22 82C 22 82 10 82 10 70L 10 22C 10 22 10 10 22 10"></path>
</g>
</g>
</g>
<g id="g-root-ro_1ly0ifrg5vtak-fill" data-item-order="-11232" transform="translate(242.0, 38.0)">
<g id="ro_1ly0ifrg5vtak-fill" stroke="none" fill="#f5f5f5" fill-opacity="1.0">
<g>
<path d="M 22 10L 154 10C 154 10 166 10 166 22L 166 70C 166 70 166 82 154 82L 22 82C 22 82 10 82 10 70L 10 22C 10 22 10 10 22 10"></path>
</g>
</g>
</g>
<g id="g-root-ro_1d2di6vg5vtov-fill" data-item-order="-9504" transform="translate(318.0, 166.0)">
<g id="ro_1d2di6vg5vtov-fill" stroke="none" fill="#e8f9ff" fill-opacity="1.0">
<g>
<path d="M 22 10L 130 10C 130 10 142 10 142 22L 142 70C 142 70 142 82 130 82L 22 82C 22 82 10 82 10 70L 10 22C 10 22 10 10 22 10"></path>
</g>
</g>
</g>
<g id="g-root-ro_1qdu0k7g5vsw0-fill" data-item-order="-9504" transform="translate(166.0, 166.0)">
<g id="ro_1qdu0k7g5vsw0-fill" stroke="none" fill="#e8f9ff" fill-opacity="1.0">
<g>
<path d="M 22 10L 130 10C 130 10 142 10 142 22L 142 70C 142 70 142 82 130 82L 22 82C 22 82 10 82 10 70L 10 22C 10 22 10 10 22 10"></path>
</g>
</g>
</g>
<g id="g-root-ro_93zz2vg5vsp0-fill" data-item-order="-9504" transform="translate(14.0, 166.0)">
<g id="ro_93zz2vg5vsp0-fill" stroke="none" fill="#e8f9ff" fill-opacity="1.0">
<g>
<path d="M 22 10L 130 10C 130 10 142 10 142 22L 142 70C 142 70 142 82 130 82L 22 82C 22 82 10 82 10 70L 10 22C 10 22 10 10 22 10"></path>
</g>
</g>
</g>
<g id="g-root-cu_1hithefg5vrwk-fill" data-item-order="2" transform="translate(80.0, 110.0)"></g>
<g id="g-root-cu_4osy1jg5vs3x-fill" data-item-order="2" transform="translate(144.0, 110.0)"></g>
<g id="g-root-cu_i09gevg5vs3p-fill" data-item-order="2" transform="translate(232.0, 110.0)"></g>
<g id="g-root-cu_qvwgnrg5vs3u-fill" data-item-order="2" transform="translate(320.0, 110.0)"></g>
<g id="g-root-ic__mfghg7g5vswa-fill" data-item-order="1000000000" transform="translate(178.0, 187.0)"></g>
<g id="g-root-tx_targetb_146qhxzg5vsp2-fill" data-item-order="1000000000" transform="translate(214.0, 178.0)">
<g id="tx_targetb_146qhxzg5vsp2-fill" stroke="none" fill="#1eabda" fill-opacity="1.0">
<g>
<text transform="translate(10.0, 22.0)" style="font-size:20px; font-family:'Roboto', sans-serif; white-space:pre;">
<tspan x="2" y="12" dominant-baseline="ideographic">Target B</tspan>
</text>
</g>
</g>
</g>
<g id="g-root-tx_sourcebc_qv9zkng5vt38-fill" data-item-order="1000000000" transform="translate(290.0, 50.0)">
<g id="tx_sourcebc_qv9zkng5vt38-fill" stroke="none" fill="#969696" fill-opacity="1.0">
<g>
<text transform="translate(10.0, 22.0)" style="font-size:20px; font-family:'Roboto', sans-serif; white-space:pre;">
<tspan x="2" y="12" dominant-baseline="ideographic">Source BC</tspan>
</text>
</g>
</g>
</g>
<g id="g-root-ic__mfghg7g5vtal-fill" data-item-order="1000000000" transform="translate(254.0, 59.0)"></g>
<g id="g-root-ic__1d2di6vg5vshu-fill" data-item-order="1000000000" transform="translate(26.0, 187.0)"></g>
<g id="g-root-tx_targetc_qv9zkng5vthl-fill" data-item-order="1000000000" transform="translate(366.0, 178.0)">
<g id="tx_targetc_qv9zkng5vthl-fill" stroke="none" fill="#1eabda" fill-opacity="1.0">
<g>
<text transform="translate(10.0, 22.0)" style="font-size:20px; font-family:'Roboto', sans-serif; white-space:pre;">
<tspan x="2" y="12" dominant-baseline="ideographic">Target C</tspan>
</text>
</g>
</g>
</g>
<g id="g-root-ic__hzmzbrg5vtol-fill" data-item-order="1000000000" transform="translate(330.0, 187.0)"></g>
<g id="g-root-tx_targeta_1ly0ifrg5vsas-fill" data-item-order="1000000000" transform="translate(62.0, 178.0)">
<g id="tx_targeta_1ly0ifrg5vsas-fill" stroke="none" fill="#1eabda" fill-opacity="1.0">
<g>
<text transform="translate(10.0, 22.0)" style="font-size:20px; font-family:'Roboto', sans-serif; white-space:pre;">
<tspan x="2" y="12" dominant-baseline="ideographic">Target A</tspan>
</text>
</g>
</g>
</g>
<g id="g-root-ic__93zz2vg5vs3n-fill" data-item-order="1000000000" transform="translate(78.0, 59.0)"></g>
<g id="g-root-tx_sourceab_1d2di6vg5vrpj-fill" data-item-order="1000000000" transform="translate(114.0, 50.0)">
<g id="tx_sourceab_1d2di6vg5vrpj-fill" stroke="none" fill="#969696" fill-opacity="1.0">
<g>
<text transform="translate(10.0, 22.0)" style="font-size:20px; font-family:'Roboto', sans-serif; white-space:pre;">
<tspan x="2" y="12" dominant-baseline="ideographic">Source AB</tspan>
</text>
</g>
</g>
</g>
<g id="g-root-ro_4o6gyfg5vsay-stroke" data-item-order="-11232" transform="translate(66.0, 38.0)">
<g id="ro_4o6gyfg5vsay-stroke" fill="none" stroke-linecap="round" stroke-linejoin="round" stroke-miterlimit="4" stroke="#969696" stroke-width="2" stroke-opacity="1.0">
<g>
<path d="M 22 10L 154 10C 154 10 166 10 166 22L 166 70C 166 70 166 82 154 82L 22 82C 22 82 10 82 10 70L 10 22C 10 22 10 10 22 10"></path>
</g>
</g>
</g>
<g id="g-root-ro_1ly0ifrg5vtak-stroke" data-item-order="-11232" transform="translate(242.0, 38.0)">
<g id="ro_1ly0ifrg5vtak-stroke" fill="none" stroke-linecap="round" stroke-linejoin="round" stroke-miterlimit="4" stroke="#969696" stroke-width="2" stroke-opacity="1.0">
<g>
<path d="M 22 10L 154 10C 154 10 166 10 166 22L 166 70C 166 70 166 82 154 82L 22 82C 22 82 10 82 10 70L 10 22C 10 22 10 10 22 10"></path>
</g>
</g>
</g>
<g id="g-root-ro_1d2di6vg5vtov-stroke" data-item-order="-9504" transform="translate(318.0, 166.0)">
<g id="ro_1d2di6vg5vtov-stroke" fill="none" stroke-linecap="round" stroke-linejoin="round" stroke-miterlimit="4" stroke="#1eabda" stroke-width="2" stroke-opacity="1.0">
<g>
<path d="M 22 10L 130 10C 130 10 142 10 142 22L 142 70C 142 70 142 82 130 82L 22 82C 22 82 10 82 10 70L 10 22C 10 22 10 10 22 10"></path>
</g>
</g>
</g>
<g id="g-root-ro_1qdu0k7g5vsw0-stroke" data-item-order="-9504" transform="translate(166.0, 166.0)">
<g id="ro_1qdu0k7g5vsw0-stroke" fill="none" stroke-linecap="round" stroke-linejoin="round" stroke-miterlimit="4" stroke="#1eabda" stroke-width="2" stroke-opacity="1.0">
<g>
<path d="M 22 10L 130 10C 130 10 142 10 142 22L 142 70C 142 70 142 82 130 82L 22 82C 22 82 10 82 10 70L 10 22C 10 22 10 10 22 10"></path>
</g>
</g>
</g>
<g id="g-root-ro_93zz2vg5vsp0-stroke" data-item-order="-9504" transform="translate(14.0, 166.0)">
<g id="ro_93zz2vg5vsp0-stroke" fill="none" stroke-linecap="round" stroke-linejoin="round" stroke-miterlimit="4" stroke="#1eabda" stroke-width="2" stroke-opacity="1.0">
<g>
<path d="M 22 10L 130 10C 130 10 142 10 142 22L 142 70C 142 70 142 82 130 82L 22 82C 22 82 10 82 10 70L 10 22C 10 22 10 10 22 10"></path>
</g>
</g>
</g>
<g id="g-root-cu_1hithefg5vrwk-stroke" data-item-order="2" transform="translate(80.0, 110.0)">
<g id="cu_1hithefg5vrwk-stroke" fill="none" stroke-linecap="round" stroke-linejoin="round" stroke-miterlimit="4" stroke="#484848" stroke-width="2" stroke-opacity="1.0">
<g>
<path d="M 74 10L 74 24L 74 38L 42 38L 10 38L 10 52L 10 64"></path>
<path d="M 3.5 58L 10 64.5L 16.5 58" stroke-dasharray="none"></path>
</g>
</g>
</g>
<g id="g-root-cu_4osy1jg5vs3x-stroke" data-item-order="2" transform="translate(144.0, 110.0)">
<g id="cu_4osy1jg5vs3x-stroke" fill="none" stroke-linecap="round" stroke-linejoin="round" stroke-miterlimit="4" stroke="#484848" stroke-width="2" stroke-opacity="1.0">
<g>
<path d="M 10 10L 10 24L 10 38L 54 38L 98 38L 98 52L 98 64"></path>
<path d="M 91.5 58L 98 64.5L 104.5 58" stroke-dasharray="none"></path>
</g>
</g>
</g>
<g id="g-root-cu_i09gevg5vs3p-stroke" data-item-order="2" transform="translate(232.0, 110.0)">
<g id="cu_i09gevg5vs3p-stroke" fill="none" stroke-linecap="round" stroke-linejoin="round" stroke-miterlimit="4" stroke="#484848" stroke-width="2" stroke-opacity="1.0">
<g>
<path d="M 98 10L 98 24L 98 38L 54 38L 10 38L 10 52L 10 64"></path>
<path d="M 3.5 58L 10 64.5L 16.5 58" stroke-dasharray="none"></path>
</g>
</g>
</g>
<g id="g-root-cu_qvwgnrg5vs3u-stroke" data-item-order="2" transform="translate(320.0, 110.0)">
<g id="cu_qvwgnrg5vs3u-stroke" fill="none" stroke-linecap="round" stroke-linejoin="round" stroke-miterlimit="4" stroke="#484848" stroke-width="2" stroke-opacity="1.0">
<g>
<path d="M 10 10L 10 24L 10 38L 42 38L 74 38L 74 52L 74 64"></path>
<path d="M 67.5 58L 74 64.5L 80.5 58" stroke-dasharray="none"></path>
</g>
</g>
</g>
<g id="g-root-ic__mfghg7g5vswa-stroke" data-item-order="1000000000" transform="translate(178.0, 187.0)">
<g id="ic__mfghg7g5vswa-stroke" fill="none" stroke-linecap="round" stroke-linejoin="round" stroke-miterlimit="4" stroke="#1eabda" stroke-width="2" stroke-opacity="1.0">
<g>
<path d="M 10 10L 40 10L 40 40L 10 40Z"></path>
</g>
</g>
</g>
<g id="g-root-tx_targetb_146qhxzg5vsp2-stroke" data-item-order="1000000000" transform="translate(214.0, 178.0)"></g>
<g id="g-root-tx_sourcebc_qv9zkng5vt38-stroke" data-item-order="1000000000" transform="translate(290.0, 50.0)"></g>
<g id="g-root-ic__mfghg7g5vtal-stroke" data-item-order="1000000000" transform="translate(254.0, 59.0)">
<g id="ic__mfghg7g5vtal-stroke" fill="none" stroke-linecap="round" stroke-linejoin="round" stroke-miterlimit="4" stroke="#969696" stroke-width="2" stroke-opacity="1.0">
<g>
<path d="M 10 10L 40 10L 40 40L 10 40Z"></path>
</g>
</g>
</g>
<g id="g-root-ic__1d2di6vg5vshu-stroke" data-item-order="1000000000" transform="translate(26.0, 187.0)">
<g id="ic__1d2di6vg5vshu-stroke" fill="none" stroke-linecap="round" stroke-linejoin="round" stroke-miterlimit="4" stroke="#1eabda" stroke-width="2" stroke-opacity="1.0">
<g>
<path d="M 10 10L 40 10L 40 40L 10 40Z"></path>
</g>
</g>
</g>
<g id="g-root-tx_targetc_qv9zkng5vthl-stroke" data-item-order="1000000000" transform="translate(366.0, 178.0)"></g>
<g id="g-root-ic__hzmzbrg5vtol-stroke" data-item-order="1000000000" transform="translate(330.0, 187.0)">
<g id="ic__hzmzbrg5vtol-stroke" fill="none" stroke-linecap="round" stroke-linejoin="round" stroke-miterlimit="4" stroke="#1eabda" stroke-width="2" stroke-opacity="1.0">
<g>
<path d="M 10 10L 40 10L 40 40L 10 40Z"></path>
</g>
</g>
</g>
<g id="g-root-tx_targeta_1ly0ifrg5vsas-stroke" data-item-order="1000000000" transform="translate(62.0, 178.0)"></g>
<g id="g-root-ic__93zz2vg5vs3n-stroke" data-item-order="1000000000" transform="translate(78.0, 59.0)">
<g id="ic__93zz2vg5vs3n-stroke" fill="none" stroke-linecap="round" stroke-linejoin="round" stroke-miterlimit="4" stroke="#969696" stroke-width="2" stroke-opacity="1.0">
<g>
<path d="M 10 10L 40 10L 40 40L 10 40Z"></path>
</g>
</g>
</g>
<g id="g-root-tx_sourceab_1d2di6vg5vrpj-stroke" data-item-order="1000000000" transform="translate(114.0, 50.0)"></g>
</g>
</g>
<path id="w1lqitefg5x7gk" d="M65.283 12.757a.35.35 0 0 0 .584.157l5.203-5.141-6.183 3.523.396 1.461zm-2.216-11.7a.35.35 0 0 0-.522.305v3.111l3.276-1.868-2.754-1.548zm3.728 2.105l-4.25 2.421v2.445l6.391-3.644-2.141-1.222zm4.708 3.303a.35.35 0 0 0 0-.609l-1.592-.9-7.365 4.199v1.782a.35.35 0 0 0 .523.305l8.435-4.777z M44.542 2.513c0-.433.355-.783.792-.783s.792.35.792.783-.355.783-.792.783-.792-.35-.792-.783zm59.171 0c0-.433.355-.783.792-.783s.792.35.792.783-.355.783-.792.783-.792-.35-.792-.783zm-85.951 7.636h-1.27v-.487c-.276.201-.864.609-1.881.609-1.202 0-2.274-.794-2.137-2.078.118-1.106 1.153-1.584 1.848-1.727l2.17-.345c0-.539-.29-.956-1.064-1.006s-1.21.305-1.571 1.017l-1.124-.605c1.218-2.631 5.029-1.764 5.029.414v4.207zm-1.27-2.86c.006.396-.062 1.112-.819 1.59-.587.37-1.841.299-1.903-.395-.049-.555.461-.791.906-.898l1.816-.297zm72.662 2.86h-1.27v-.487c-.276.201-.864.609-1.881.609-1.202 0-2.274-.794-2.137-2.078.118-1.106 1.153-1.584 1.848-1.727l2.17-.345c0-.539-.29-.956-1.064-1.006s-1.21.305-1.571 1.017l-1.124-.605c1.218-2.631 5.029-1.764 5.029.414v4.207zm-1.27-2.86c.006.396-.062 1.112-.82 1.59-.587.37-1.841.299-1.903-.395-.049-.555.461-.791.906-.898l1.816-.297zM99.096 10.149H97.85v-8.45h1.246v4.895l2.68-2.559h1.738l-2.633 2.535 2.715 3.578h-1.556l-2.077-2.707-.867.844v1.863zm6.053-6.114h-1.255v6.113h1.255V4.035zm-59.2 0h-1.255v6.113h1.255V4.035zm5.584 6.113V1.697h1.255v2.695c.361-.346 1-.485 1.47-.485 1.452 0 2.477 1.082 2.457 2.448v3.792h-1.27v-3.68c0-.408-.214-1.339-1.315-1.339-.968 0-1.342.756-1.342 1.339v3.681h-1.255zm-4.76-4.894V4.039h.621a.45.45 0 0 0 .45-.45v-.855h1.251v1.305h1.309v1.215h-1.309v3.109c0 .293.105.664.648.664.365 0 .531-.035.736-.07v1.137s-.361.113-.857.113c-1.398 0-1.777-1.051-1.777-1.788V5.254h-1.071zM36.528 4.039h-1.394l2.191 6.106h1.125l1.234-3.918 1.238 3.918h1.129l2.188-6.106h-1.383l-1.359 3.93-1.256-3.93h-1.124l-1.242 3.957-1.348-3.957zM26.212 7.141c-.02 1.566 1.187 3.129 3.223 3.129 1.566 0 2.383-.918 2.734-1.719L31.172 8c-.315.399-.801 1.094-1.738 1.094-1.145 0-1.825-.781-1.891-1.52h4.625c.074-.284.148-.995-.03-1.559-.336-1.064-1.221-2.102-2.839-2.102s-3.088 1.152-3.088 3.227zm1.363-.75h3.348c-.055-.43-.566-1.301-1.623-1.301a1.79 1.79 0 0 0-1.725 1.301zm-8.758.75c.038 1.758 1.277 3.133 3.145 3.133 1.074 0 1.723-.477 1.961-.672v.547h1.242V1.703h-1.258v2.888c-.414-.36-1.062-.68-1.93-.68-1.91 0-3.198 1.473-3.16 3.23zm1.309-.08c0 1.119.723 1.978 1.836 1.978a1.88 1.88 0 0 0 1.94-1.904c0-1.371-1.011-1.99-1.972-1.99s-1.805.798-1.805 1.916zm76.683-.028C96.771 5.275 95.532 3.9 93.664 3.9c-1.074 0-1.723.477-1.961.672v-.547h-1.242v8.22h1.258V9.583c.414.36 1.063.68 1.93.68 1.91 0 3.198-1.473 3.16-3.23zm-1.309.08c0-1.119-.723-1.978-1.836-1.978a1.88 1.88 0 0 0-1.94 1.904c0 1.371 1.011 1.99 1.972 1.99S95.5 8.231 95.5 7.113zM106.441 10.173V4.036h1.254v.382c.361-.346 1-.485 1.47-.485 1.452 0 2.477 1.082 2.457 2.448v3.792h-1.27V6.492c0-.408-.214-1.339-1.315-1.339-.969 0-1.342.756-1.342 1.339v3.681h-1.254zm-30.383-.021V1.824h1.084l4.215 5.777V1.824h1.32v8.328h-1.094l-4.207-5.796v5.796h-1.319zM5.24 10.149H4V2.377h1.014l2.664 3.597 2.654-3.592h1.03v7.766h-1.256V4.762L7.678 8.068 5.24 4.742v5.407z" transform="translate(357.0, 271.0)" fill="#80808088" stroke="none"></path>
</svg>