<?xml version="1.0" encoding="utf-8" standalone="yes"?>
<!DOCTYPE svg PUBLIC "-//W3C//DTD SVG 1.1//EN" "http://www.w3.org/Graphics/SVG/1.1/DTD/svg11.dtd">
<svg version="1.1" xmlns="http://www.w3.org/2000/svg" xmlns:xlink="http://www.w3.org/1999/xlink" width="273" height="596" viewBox="0 0 273 596" style="fill:none; stroke:none; fill-rule:evenodd; clip-rule:evenodd; stroke-linecap:round; stroke-linejoin:round; stroke-miterlimit:1.5;">
<style class="text-font-style fontImports" data-font-family="Roboto">
@import url(https://fonts.googleapis.com/css2?family=Roboto:wght@400;700&amp;display=block);
</style>
<g id="items" style="isolation:isolate;">
<g id="blend" style="mix-blend-mode:normal;">
<g id="g-root-di_hte8gng646pw-fill" data-item-order="-36864" transform="translate(13.99993896484375, 193.99998474121094)">
<g id="di_hte8gng646pw-fill" stroke="none" fill="#fff2e5" fill-opacity="1.0">
<g>
<path d="M 10.000061 106L 106.000061 202L 202.000061 106L 106.000061 10Z"></path>
</g>
</g>
</g>
<g id="g-root-pi_1lrrrkng646x1-fill" data-item-order="-17280" transform="translate(20.000083923339844, 441.99993896484375)">
<g id="pi_1lrrrkng646x1-fill" stroke="none" fill="#e8f9ff" fill-opacity="1.0">
<g>
<path d="M 34 10L 166 10C 166 10 190 10 190 34L 190 82C 190 82 190 106 166 106L 34 106C 34 106 10 106 10 82L 10 34C 10 34 10 10 34 10"></path>
</g>
</g>
</g>
<g id="g-root-ro_1q6yslzg649hq-fill" data-item-order="-7776" transform="translate(56.000083923339844, 66.0)">
<g id="ro_1q6yslzg649hq-fill" stroke="none" fill="#f5f5f5" fill-opacity="1.0">
<g>
<path d="M 22 10L 106 10C 106 10 118 10 118 22L 118 70C 118 70 118 82 106 82L 22 82C 22 82 10 82 10 70L 10 22C 10 22 10 10 22 10"></path>
</g>
</g>
</g>
<g id="g-root-tx_no_4hxq3bg647ik-fill" data-item-order="0" transform="translate(206.00015258789062, 301.9999694824219)">
<g id="tx_no_4hxq3bg647ik-fill" stroke="none" fill="#484848" fill-opacity="1.0">
<g>
<text transform="translate(10.0, 10.0)" style="font-size:15px; font-family:'Roboto', sans-serif; white-space:pre;">
<tspan x="2" y="18" dominant-baseline="ideographic">no</tspan>
</text>
</g>
</g>
</g>
<g id="g-root-tx_yes_1q7l9p3g647ij-fill" data-item-order="0" transform="translate(122.00008392333984, 385.99993896484375)">
<g id="tx_yes_1q7l9p3g647ij-fill" stroke="none" fill="#484848" fill-opacity="1.0">
<g>
<text transform="translate(10.0, 10.0)" style="font-size:15px; font-family:'Roboto', sans-serif; white-space:pre;">
<tspan x="2" y="18" dominant-baseline="ideographic">yes</tspan>
</text>
</g>
</g>
</g>
<g id="g-root-cu_140hr2vg647pi-fill" data-item-order="2" transform="translate(110.00007629394531, 138.0)"></g>
<g id="g-root-cu_hte8gng647wg-fill" data-item-order="2" transform="translate(110.00007629394531, 385.99993896484375)"></g>
<g id="g-root-cu_18gb97bg647wm-fill" data-item-order="2" transform="translate(110.00008392333984, 38.0)"></g>
<g id="g-root-tx_start_1hbbsd3g6493h-fill" data-item-order="1000000000" transform="translate(104.00008392333984, 78.0)">
<g id="tx_start_1hbbsd3g6493h-fill" stroke="none" fill="#969696" fill-opacity="1.0">
<g>
<text transform="translate(10.0, 22.0)" style="font-size:20px; font-family:'Roboto', sans-serif; white-space:pre;">
<tspan x="2" y="12" dominant-baseline="ideographic">Start</tspan>
</text>
</g>
</g>
</g>
<g id="g-root-ic__8x4r4ng649hm-fill" data-item-order="1000000000" transform="translate(68.00008392333984, 87.0)"></g>
<g id="g-root-tx_isobject_v4uqtzg646ip-fill" data-item-order="1000000000" transform="translate(62.000030517578125, 241.99996948242188)">
<g id="tx_isobject_v4uqtzg646ip-fill" stroke="none" fill="#de8431" fill-opacity="1.0">
<g>
<text transform="translate(58.0, 46.0)" style="font-size:20px; font-family:'Roboto', sans-serif; white-space:pre;">
<tspan x="-33.49" y="-12" dominant-baseline="ideographic">Is object</tspan>
<tspan x="-30.42" y="12" dominant-baseline="ideographic"> inside a</tspan>
<tspan x="-41.84" y="36" dominant-baseline="ideographic"> decorator?</tspan>
</text>
</g>
</g>
</g>
<g id="g-root-tx_translat_1hby9g7g646py-fill" data-item-order="1000000000" transform="translate(68.00009155273438, 453.99993896484375)">
<g id="tx_translat_1hby9g7g646py-fill" stroke="none" fill="#1eabda" fill-opacity="1.0">
<g>
<text transform="translate(10.0, 34.0)" style="font-size:20px; font-family:'Roboto', sans-serif; white-space:pre;">
<tspan x="2" y="0" dominant-baseline="ideographic">Translate&amp;#4</tspan>
<tspan x="2" y="24" dominant-baseline="ideographic">7;Edit object</tspan>
</text>
</g>
</g>
</g>
<g id="g-root-ic__v4uqtzg646x0-fill" data-item-order="1000000000" transform="translate(32.000083923339844, 474.99993896484375)"></g>
<g id="g-root-di_hte8gng646pw-stroke" data-item-order="-36864" transform="translate(13.99993896484375, 193.99998474121094)">
<g id="di_hte8gng646pw-stroke" fill="none" stroke-linecap="round" stroke-linejoin="round" stroke-miterlimit="4" stroke="#de8431" stroke-width="2" stroke-opacity="1.0">
<g>
<path d="M 10.000061 106L 106.000061 202L 202.000061 106L 106.000061 10Z"></path>
</g>
</g>
</g>
<g id="g-root-pi_1lrrrkng646x1-stroke" data-item-order="-17280" transform="translate(20.000083923339844, 441.99993896484375)">
<g id="pi_1lrrrkng646x1-stroke" fill="none" stroke-linecap="round" stroke-linejoin="round" stroke-miterlimit="4" stroke="#1eabda" stroke-width="2" stroke-opacity="1.0">
<g>
<path d="M 34 10L 166 10C 166 10 190 10 190 34L 190 82C 190 82 190 106 166 106L 34 106C 34 106 10 106 10 82L 10 34C 10 34 10 10 34 10"></path>
</g>
</g>
</g>
<g id="g-root-ro_1q6yslzg649hq-stroke" data-item-order="-7776" transform="translate(56.000083923339844, 66.0)">
<g id="ro_1q6yslzg649hq-stroke" fill="none" stroke-linecap="round" stroke-linejoin="round" stroke-miterlimit="4" stroke="#969696" stroke-width="2" stroke-opacity="1.0">
<g>
<path d="M 22 10L 106 10C 106 10 118 10 118 22L 118 70C 118 70 118 82 106 82L 22 82C 22 82 10 82 10 70L 10 22C 10 22 10 10 22 10"></path>
</g>
</g>
</g>
<g id="g-root-tx_no_4hxq3bg647ik-stroke" data-item-order="0" transform="translate(206.00015258789062, 301.9999694824219)"></g>
<g id="g-root-tx_yes_1q7l9p3g647ij-stroke" data-item-order="0" transform="translate(122.00008392333984, 385.99993896484375)"></g>
<g id="g-root-cu_140hr2vg647pi-stroke" data-item-order="2" transform="translate(110.00007629394531, 138.0)">
<g id="cu_140hr2vg647pi-stroke" fill="none" stroke-linecap="round" stroke-linejoin="round" stroke-miterlimit="4" stroke="#484848" stroke-width="2" stroke-opacity="1.0">
<g>
<path d="M 10.000008 10L 10.000008 24L 10.000008 38L 10.000008 38L 10.000008 38L 10.000008 52L 10.000008 64"></path>
<path d="M 3.500008 58L 10.000008 64.5L 16.500008 58" stroke-dasharray="none"></path>
</g>
</g>
</g>
<g id="g-root-cu_hte8gng647wg-stroke" data-item-order="2" transform="translate(110.00007629394531, 385.99993896484375)">
<g id="cu_hte8gng647wg-stroke" fill="none" stroke-linecap="round" stroke-linejoin="round" stroke-miterlimit="4" stroke="#484848" stroke-width="2" stroke-opacity="1.0">
<g>
<path d="M 10.000008 10L 10.000008 24L 10.000008 38L 10.000008 38L 10.000008 38L 10.000008 52L 10.000008 64"></path>
<path d="M 3.500008 58L 10.000008 64.5L 16.500008 58" stroke-dasharray="none"></path>
</g>
</g>
</g>
<g id="g-root-cu_18gb97bg647wm-stroke" data-item-order="2" transform="translate(110.00008392333984, 38.0)">
<g id="cu_18gb97bg647wm-stroke" fill="none" stroke-linecap="round" stroke-linejoin="round" stroke-miterlimit="4" stroke="#484848" stroke-width="2" stroke-opacity="1.0">
<g>
<path d="M 106 262L 122 262L 138 262L 138 136L 138 10L 74 10L 10 10L 10 24L 10 36"></path>
<path d="M 3.5 30L 10 36.5L 16.5 30" stroke-dasharray="none"></path>
</g>
</g>
</g>
<g id="g-root-tx_start_1hbbsd3g6493h-stroke" data-item-order="1000000000" transform="translate(104.00008392333984, 78.0)"></g>
<g id="g-root-ic__8x4r4ng649hm-stroke" data-item-order="1000000000" transform="translate(68.00008392333984, 87.0)">
<g id="ic__8x4r4ng649hm-stroke" fill="none" stroke-linecap="round" stroke-linejoin="round" stroke-miterlimit="4" stroke="#969696" stroke-width="2" stroke-opacity="1.0">
<g>
<path d="M 10 10L 40 10L 40 40L 10 40Z"></path>
</g>
</g>
</g>
<g id="g-root-tx_isobject_v4uqtzg646ip-stroke" data-item-order="1000000000" transform="translate(62.000030517578125, 241.99996948242188)"></g>
<g id="g-root-tx_translat_1hby9g7g646py-stroke" data-item-order="1000000000" transform="translate(68.00009155273438, 453.99993896484375)"></g>
<g id="g-root-ic__v4uqtzg646x0-stroke" data-item-order="1000000000" transform="translate(32.000083923339844, 474.99993896484375)">
<g id="ic__v4uqtzg646x0-stroke" fill="none" stroke-linecap="round" stroke-linejoin="round" stroke-miterlimit="4" stroke="#1eabda" stroke-width="2" stroke-opacity="1.0">
<g>
<path d="M 10 10L 40 10L 40 40L 10 40Z"></path>
</g>
</g>
</g>
</g>
</g>
<path id="w141qp93g6493f" d="M65.283 12.757a.35.35 0 0 0 .584.157l5.203-5.141-6.183 3.523.396 1.461zm-2.216-11.7a.35.35 0 0 0-.522.305v3.111l3.276-1.868-2.754-1.548zm3.728 2.105l-4.25 2.421v2.445l6.391-3.644-2.141-1.222zm4.708 3.303a.35.35 0 0 0 0-.609l-1.592-.9-7.365 4.199v1.782a.35.35 0 0 0 .523.305l8.435-4.777z M44.542 2.513c0-.433.355-.783.792-.783s.792.35.792.783-.355.783-.792.783-.792-.35-.792-.783zm59.171 0c0-.433.355-.783.792-.783s.792.35.792.783-.355.783-.792.783-.792-.35-.792-.783zm-85.951 7.636h-1.27v-.487c-.276.201-.864.609-1.881.609-1.202 0-2.274-.794-2.137-2.078.118-1.106 1.153-1.584 1.848-1.727l2.17-.345c0-.539-.29-.956-1.064-1.006s-1.21.305-1.571 1.017l-1.124-.605c1.218-2.631 5.029-1.764 5.029.414v4.207zm-1.27-2.86c.006.396-.062 1.112-.819 1.59-.587.37-1.841.299-1.903-.395-.049-.555.461-.791.906-.898l1.816-.297zm72.662 2.86h-1.27v-.487c-.276.201-.864.609-1.881.609-1.202 0-2.274-.794-2.137-2.078.118-1.106 1.153-1.584 1.848-1.727l2.17-.345c0-.539-.29-.956-1.064-1.006s-1.21.305-1.571 1.017l-1.124-.605c1.218-2.631 5.029-1.764 5.029.414v4.207zm-1.27-2.86c.006.396-.062 1.112-.82 1.59-.587.37-1.841.299-1.903-.395-.049-.555.461-.791.906-.898l1.816-.297zM99.096 10.149H97.85v-8.45h1.246v4.895l2.68-2.559h1.738l-2.633 2.535 2.715 3.578h-1.556l-2.077-2.707-.867.844v1.863zm6.053-6.114h-1.255v6.113h1.255V4.035zm-59.2 0h-1.255v6.113h1.255V4.035zm5.584 6.113V1.697h1.255v2.695c.361-.346 1-.485 1.47-.485 1.452 0 2.477 1.082 2.457 2.448v3.792h-1.27v-3.68c0-.408-.214-1.339-1.315-1.339-.968 0-1.342.756-1.342 1.339v3.681h-1.255zm-4.76-4.894V4.039h.621a.45.45 0 0 0 .45-.45v-.855h1.251v1.305h1.309v1.215h-1.309v3.109c0 .293.105.664.648.664.365 0 .531-.035.736-.07v1.137s-.361.113-.857.113c-1.398 0-1.777-1.051-1.777-1.788V5.254h-1.071zM36.528 4.039h-1.394l2.191 6.106h1.125l1.234-3.918 1.238 3.918h1.129l2.188-6.106h-1.383l-1.359 3.93-1.256-3.93h-1.124l-1.242 3.957-1.348-3.957zM26.212 7.141c-.02 1.566 1.187 3.129 3.223 3.129 1.566 0 2.383-.918 2.734-1.719L31.172 8c-.315.399-.801 1.094-1.738 1.094-1.145 0-1.825-.781-1.891-1.52h4.625c.074-.284.148-.995-.03-1.559-.336-1.064-1.221-2.102-2.839-2.102s-3.088 1.152-3.088 3.227zm1.363-.75h3.348c-.055-.43-.566-1.301-1.623-1.301a1.79 1.79 0 0 0-1.725 1.301zm-8.758.75c.038 1.758 1.277 3.133 3.145 3.133 1.074 0 1.723-.477 1.961-.672v.547h1.242V1.703h-1.258v2.888c-.414-.36-1.062-.68-1.93-.68-1.91 0-3.198 1.473-3.16 3.23zm1.309-.08c0 1.119.723 1.978 1.836 1.978a1.88 1.88 0 0 0 1.94-1.904c0-1.371-1.011-1.99-1.972-1.99s-1.805.798-1.805 1.916zm76.683-.028C96.771 5.275 95.532 3.9 93.664 3.9c-1.074 0-1.723.477-1.961.672v-.547h-1.242v8.22h1.258V9.583c.414.36 1.063.68 1.93.68 1.91 0 3.198-1.473 3.16-3.23zm-1.309.08c0-1.119-.723-1.978-1.836-1.978a1.88 1.88 0 0 0-1.94 1.904c0 1.371 1.011 1.99 1.972 1.99S95.5 8.231 95.5 7.113zM106.441 10.173V4.036h1.254v.382c.361-.346 1-.485 1.47-.485 1.452 0 2.477 1.082 2.457 2.448v3.792h-1.27V6.492c0-.408-.214-1.339-1.315-1.339-.969 0-1.342.756-1.342 1.339v3.681h-1.254zm-30.383-.021V1.824h1.084l4.215 5.777V1.824h1.32v8.328h-1.094l-4.207-5.796v5.796h-1.319zM5.24 10.149H4V2.377h1.014l2.664 3.597 2.654-3.592h1.03v7.766h-1.256V4.762L7.678 8.068 5.24 4.742v5.407z" transform="translate(145.00018310546875, 570.9999389648438)" fill="#80808088" stroke="none"></path>
</svg>